<svg width="31" height="32" viewBox="0 0 31 32" fill="none" xmlns="http://www.w3.org/2000/svg">
<path d="M30.2773 19.3056C29.6123 18.2885 28.9473 17.2714 28.2822 16.2543C28.1257 16.0196 28.1257 15.8631 28.2822 15.6284C28.9473 14.6504 29.5732 13.6333 30.2382 12.6553C30.9815 11.4817 30.5903 10.3081 29.2993 9.83863C28.204 9.40831 27.0695 8.978 25.9742 8.5868C25.7394 8.50856 25.6612 8.35207 25.6221 8.11736C25.583 6.90464 25.5047 5.69193 25.4265 4.47922C25.3482 3.18826 24.3311 2.44499 23.1184 2.79707C21.9448 3.11002 20.7712 3.42298 19.5976 3.77506C19.3238 3.8533 19.2064 3.77506 19.0108 3.57946C18.2676 2.64059 17.4852 1.70171 16.7419 0.762836C15.9204 -0.254279 14.6685 -0.254279 13.847 0.762836C13.1037 1.70171 12.3605 2.60146 11.6172 3.54034C11.4216 3.81418 11.226 3.8533 10.9522 3.77506C9.81768 3.4621 8.64408 3.14914 7.82257 2.91443C6.21865 2.52323 5.27978 3.18826 5.20154 4.47922C5.1233 5.69193 5.04506 6.94376 5.00594 8.15648C5.00594 8.43032 4.9277 8.54767 4.65387 8.62591C3.51939 9.05623 2.3458 9.48655 1.21132 9.95599C0.0377273 10.4254 -0.35347 11.599 0.350687 12.6553C1.01572 13.6724 1.68076 14.6895 2.34579 15.7066C2.50227 15.9413 2.50227 16.0978 2.34579 16.3325C1.64164 17.3496 0.976601 18.4059 0.311565 19.4621C-0.314352 20.4792 0.0768447 21.6528 1.1722 22.0831C2.34579 22.5134 3.48027 22.9829 4.65387 23.4132C4.88858 23.4914 4.96682 23.6479 5.00594 23.8826C5.04506 25.0562 5.20154 26.2298 5.16242 27.4034C5.16242 28.6161 6.17953 29.6332 7.62697 29.2029C8.76144 28.8508 9.93504 28.577 11.0695 28.2641C11.3042 28.1858 11.4216 28.2249 11.5781 28.4205C12.3213 29.3594 13.1037 30.2983 13.8861 31.2372C14.7468 32.2543 15.9595 32.2543 16.781 31.2372C17.5634 30.2983 18.3067 29.3594 19.05 28.3814C19.2064 28.1858 19.3238 28.1467 19.5585 28.1858C20.7321 28.4988 21.9448 28.8117 23.1184 29.1247C24.3311 29.4377 25.3482 28.6944 25.4265 27.4425C25.5047 26.2298 25.583 24.978 25.6221 23.7653C25.6221 23.4914 25.7394 23.3741 25.9742 23.2958C27.1086 22.8655 28.204 22.4352 29.3385 22.0049C30.5903 21.5354 30.9815 20.3619 30.2773 19.3056ZM20.8103 19.1491C20.8103 19.1491 21.4363 20.8704 18.9717 21.379C18.2284 21.5354 17.3287 21.5355 16.468 21.4572C15.5292 21.4963 14.5903 21.4181 13.8079 21.379C11.6563 21.1442 11.6563 17.3496 11.6563 17.3496V20.4401C11.6563 21.1443 11.4216 21.379 11.3825 21.4181C11.1869 21.5354 10.9522 21.6137 10.6783 21.6137H8.83968C8.17465 21.6137 7.58785 21.066 7.58785 20.3619V15.4328C7.58785 14.7677 8.13553 14.1809 8.83968 14.1809H10.6783C10.9913 14.1809 11.2651 14.2983 11.4998 14.4939C11.6172 14.1809 11.8128 13.7506 12.1649 13.3594C13.5341 12.3032 14.9815 8.31295 14.9815 8.31295C14.9815 8.31295 14.7468 6.86552 15.4509 6.86552C16.116 6.86552 17.7199 7.33496 16.781 10.2298C15.803 13.1638 16.781 12.6944 16.781 12.6944C17.0157 12.6553 17.2113 12.6161 17.4069 12.577C17.4069 12.577 20.1844 11.9511 21.2407 12.89C22.0622 13.6333 21.4363 14.6504 21.4363 14.6504C21.4363 14.6504 22.6099 15.6675 21.3971 16.9193C21.358 16.9193 22.1013 18.1712 20.8103 19.1491Z" fill="#6E70FF"/>
</svg>
