<svg width="32" height="32" viewBox="0 0 32 32" fill="none" xmlns="http://www.w3.org/2000/svg">
<path d="M13.8799 11.8185V8.07735C13.8799 7.93636 13.8239 7.80114 13.7242 7.70144C13.6245 7.60174 13.4893 7.54574 13.3483 7.54574C13.2073 7.54574 13.0721 7.60174 12.9724 7.70144C12.8727 7.80114 12.8167 7.93636 12.8167 8.07735V11.8185C12.4573 11.9407 12.1544 12.1892 11.9643 12.5178C11.7742 12.8464 11.7097 13.2328 11.7828 13.6053L9.37083 14.9977C9.24877 15.0682 9.15973 15.1843 9.12326 15.3205C9.0868 15.4567 9.10591 15.6017 9.17638 15.7238C9.24685 15.8459 9.36292 15.935 9.49908 15.9716C9.63523 16.0081 9.78031 15.9891 9.90244 15.9187L12.3192 14.5235C12.6049 14.7714 12.97 14.9086 13.3483 14.9102C13.7242 14.9111 14.0882 14.7789 14.3759 14.5371C14.6637 14.2952 14.8565 13.9593 14.9202 13.5889C14.9838 13.2185 14.9143 12.8374 14.7239 12.5134C14.5335 12.1893 14.2345 11.9431 13.8799 11.8185ZM13.3483 13.847C13.2432 13.847 13.1404 13.8158 13.053 13.7574C12.9655 13.699 12.8974 13.6159 12.8572 13.5188C12.8169 13.4217 12.8064 13.3148 12.8269 13.2116C12.8474 13.1085 12.898 13.0138 12.9724 12.9395C13.0467 12.8651 13.1415 12.8145 13.2446 12.794C13.3477 12.7734 13.4546 12.784 13.5517 12.8242C13.6489 12.8644 13.7319 12.9326 13.7903 13.02C13.8487 13.1074 13.8799 13.2102 13.8799 13.3154C13.8797 13.4563 13.8237 13.5914 13.724 13.6911C13.6243 13.7907 13.4892 13.8468 13.3483 13.847ZM31.3301 21.8036L30.0436 21.288C29.9433 20.9919 29.8244 20.7025 29.6875 20.4214L30.2297 19.1456C30.3149 18.9509 30.3392 18.7349 30.2993 18.5262C30.2595 18.3174 30.1574 18.1256 30.0064 17.976L29.0123 16.9819C28.8627 16.8309 28.6709 16.7288 28.4621 16.689C28.2534 16.6491 28.0375 16.6734 27.8428 16.7586L26.5669 17.3009C26.4287 17.2371 26.2798 17.1839 26.1363 17.1254C26.9775 14.2808 26.8467 11.2369 25.7645 8.47494C24.6824 5.71295 22.7107 3.39036 20.161 1.87424C17.6113 0.358128 14.6291 -0.265037 11.6856 0.103238C8.74214 0.471514 6.00536 1.81023 3.90779 3.90779C1.81023 6.00536 0.471514 8.74214 0.103238 11.6856C-0.265037 14.6291 0.358128 17.6113 1.87424 20.161C3.39036 22.7107 5.71295 24.6824 8.47494 25.7645C11.2369 26.8467 14.2808 26.9775 17.1254 26.1363C17.1839 26.2798 17.2371 26.4287 17.3009 26.5669L16.7586 27.8428C16.6734 28.0375 16.6491 28.2534 16.689 28.4622C16.7288 28.6709 16.8309 28.8627 16.9819 29.0123L17.976 30.0065C18.1256 30.1574 18.3174 30.2595 18.5262 30.2994C18.7349 30.3392 18.9509 30.315 19.1456 30.2297L20.4214 29.6875C20.7024 29.8244 20.9919 29.9434 21.288 30.0437L21.8036 31.3302C21.8815 31.5286 22.0176 31.6989 22.1941 31.8184C22.3707 31.938 22.5792 32.0013 22.7924 32H24.1959C24.4091 32.0013 24.6177 31.938 24.7942 31.8184C24.9707 31.6989 25.1068 31.5286 25.1847 31.3301L25.7004 30.0436C25.9964 29.9433 26.2859 29.8244 26.5669 29.6875L27.8428 30.2297C28.0375 30.3149 28.2534 30.3392 28.4621 30.2994C28.6709 30.2595 28.8627 30.1574 29.0123 30.0064L30.0064 29.0123C30.1574 28.8627 30.2595 28.6709 30.2993 28.4621C30.3392 28.2534 30.3149 28.0375 30.2297 27.8428L29.6875 26.5669C29.8244 26.2859 29.9433 25.9964 30.0436 25.7004L31.3301 25.1847C31.5286 25.1068 31.6989 24.9707 31.8184 24.7942C31.938 24.6177 32.0013 24.4091 32 24.1959V22.7924C32.0013 22.5792 31.938 22.3706 31.8184 22.1941C31.6989 22.0176 31.5286 21.8815 31.3301 21.8036ZM14.9883 22.7924V23.3559C12.8609 23.7105 10.6758 23.3803 8.74817 22.4128C6.82055 21.4453 5.25004 19.8906 4.26311 17.9728C3.27619 16.0551 2.92387 13.8734 3.25696 11.7425C3.59005 9.61157 4.59134 7.64151 6.11643 6.11643C7.64151 4.59134 9.61157 3.59005 11.7425 3.25696C13.8734 2.92387 16.0551 3.27619 17.9728 4.26311C19.8906 5.25004 21.4453 6.82055 22.4128 8.74817C23.3803 10.6758 23.7105 12.8609 23.3559 14.9883H22.7924C22.5792 14.987 22.3706 15.0503 22.1941 15.1699C22.0176 15.2895 21.8815 15.4597 21.8036 15.6582L21.288 16.9447C20.9919 17.045 20.7024 17.1639 20.4214 17.3009L19.1456 16.7586C18.9509 16.6734 18.7349 16.6491 18.5262 16.689C18.3174 16.7288 18.1256 16.8309 17.976 16.9819L16.9819 17.976C16.8309 18.1256 16.7288 18.3174 16.689 18.5262C16.6491 18.7349 16.6734 18.9509 16.7586 19.1456L17.3009 20.4214C17.1639 20.7025 17.045 20.9919 16.9447 21.288L15.6582 21.8036C15.4597 21.8815 15.2895 22.0176 15.1699 22.1941C15.0503 22.3706 14.987 22.5792 14.9883 22.7924ZM30.9368 24.1959L29.411 24.8072C29.3362 24.8368 29.2694 24.8834 29.2159 24.9434C29.1623 25.0034 29.1236 25.0751 29.1027 25.1528C28.9843 25.5472 28.8257 25.9284 28.6295 26.2904C28.5921 26.3612 28.5708 26.4394 28.5671 26.5193C28.5634 26.5993 28.5775 26.6791 28.6083 26.753L29.2515 28.2574L28.2574 29.2515L26.753 28.6083C26.6791 28.5775 26.5993 28.5634 26.5193 28.5671C26.4394 28.5708 26.3612 28.5921 26.2904 28.6295C25.9284 28.8258 25.5472 28.9843 25.1528 29.1027C25.0751 29.1235 25.0034 29.1623 24.9434 29.2158C24.8834 29.2694 24.8368 29.3362 24.8072 29.411L24.1959 30.9368H22.7924L22.1811 29.411C22.1515 29.3362 22.1049 29.2694 22.0449 29.2158C21.9849 29.1623 21.9132 29.1235 21.8355 29.1027C21.4411 28.9843 21.0599 28.8257 20.6979 28.6295C20.6194 28.5874 20.5317 28.5654 20.4427 28.5658C20.3715 28.5665 20.3011 28.581 20.2354 28.6083L18.7309 29.2515L17.7368 28.2574L18.38 26.753C18.4108 26.6791 18.4249 26.5993 18.4212 26.5193C18.4175 26.4394 18.3962 26.3612 18.3588 26.2904C18.1626 25.9284 18.004 25.5472 17.8856 25.1528C17.8648 25.0751 17.826 25.0034 17.7725 24.9434C17.7189 24.8834 17.6521 24.8368 17.5773 24.8072L16.0516 24.1959V22.7924L17.5773 22.1811C17.6521 22.1515 17.7189 22.1049 17.7725 22.0449C17.826 21.9849 17.8648 21.9132 17.8856 21.8355C18.004 21.4411 18.1626 21.0599 18.3588 20.6979C18.3962 20.6271 18.4175 20.549 18.4212 20.469C18.4249 20.389 18.4108 20.3092 18.38 20.2354L17.7368 18.7309L18.7309 17.7368L20.2354 18.38C20.3092 18.4108 20.389 18.4249 20.469 18.4212C20.549 18.4175 20.6271 18.3962 20.6979 18.3588C21.0599 18.1626 21.4411 18.004 21.8355 17.8856C21.9132 17.8648 21.9849 17.826 22.0449 17.7725C22.1049 17.7189 22.1515 17.6521 22.1811 17.5773L22.7924 16.0516H24.1959L24.8072 17.5773C24.8368 17.6521 24.8834 17.7189 24.9434 17.7725C25.0034 17.826 25.0751 17.8648 25.1528 17.8856C25.5472 18.004 25.9284 18.1626 26.2904 18.3588C26.3612 18.3962 26.4394 18.4175 26.5193 18.4212C26.5993 18.4249 26.6791 18.4108 26.753 18.38L28.2574 17.7368L29.2515 18.7309L28.6083 20.2354C28.5775 20.3092 28.5634 20.389 28.5671 20.469C28.5708 20.549 28.5921 20.6271 28.6295 20.6979C28.8257 21.0599 28.9843 21.4411 29.1027 21.8355C29.1236 21.9132 29.1623 21.9849 29.2159 22.0449C29.2694 22.1049 29.3362 22.1515 29.411 22.1811L30.9368 22.7924V24.1959ZM27.7471 23.4942C27.7471 24.3353 27.4976 25.1576 27.0303 25.8569C26.563 26.5563 25.8988 27.1014 25.1217 27.4233C24.3446 27.7452 23.4894 27.8294 22.6645 27.6653C21.8395 27.5012 21.0817 27.0962 20.4869 26.5014C19.8921 25.9066 19.4871 25.1488 19.323 24.3239C19.1589 23.4989 19.2431 22.6438 19.565 21.8666C19.8869 21.0895 20.432 20.4253 21.1314 19.958C21.8308 19.4907 22.653 19.2412 23.4942 19.2412C24.6216 19.2427 25.7025 19.6913 26.4998 20.4885C27.297 21.2858 27.7456 22.3667 27.7471 23.4942ZM12.8619 5.95089V4.88767C12.8619 4.74667 12.9179 4.61145 13.0176 4.51176C13.1173 4.41206 13.2525 4.35605 13.3935 4.35605C13.5345 4.35605 13.6697 4.41206 13.7694 4.51176C13.8691 4.61145 13.9251 4.74667 13.9251 4.88767V5.95089C13.9251 6.09189 13.8691 6.2271 13.7694 6.3268C13.6697 6.4265 13.5345 6.48251 13.3935 6.48251C13.2525 6.48251 13.1173 6.4265 13.0176 6.3268C12.9179 6.2271 12.8619 6.09189 12.8619 5.95089ZM13.9251 20.8361V21.8993C13.9251 22.0403 13.8691 22.1755 13.7694 22.2752C13.6697 22.3749 13.5345 22.4309 13.3935 22.4309C13.2525 22.4309 13.1173 22.3749 13.0176 22.2752C12.9179 22.1755 12.8619 22.0403 12.8619 21.8993V20.8361C12.8619 20.6951 12.9179 20.5599 13.0176 20.4602C13.1173 20.3605 13.2525 20.3045 13.3935 20.3045C13.5345 20.3045 13.6697 20.3605 13.7694 20.4602C13.8691 20.5599 13.9251 20.6951 13.9251 20.8361ZM8.68009 6.29301C8.60968 6.17089 8.59065 6.0258 8.62718 5.88965C8.66371 5.7535 8.75282 5.63743 8.87491 5.56695C8.997 5.49648 9.14207 5.47738 9.27824 5.51384C9.41442 5.5503 9.53053 5.63935 9.60107 5.7614L10.1327 6.68212C10.2031 6.80425 10.2221 6.94934 10.1856 7.08549C10.1491 7.22164 10.06 7.33771 9.93786 7.40819C9.81577 7.47866 9.6707 7.49776 9.53453 7.4613C9.39836 7.42484 9.28224 7.33579 9.2117 7.21374L8.68009 6.29301ZM7.40842 9.938C7.33788 10.0601 7.22176 10.1492 7.08557 10.1857C6.94938 10.2222 6.80427 10.2031 6.68212 10.1327L5.7614 9.60107C5.70089 9.56618 5.64785 9.51971 5.6053 9.46432C5.56275 9.40893 5.53154 9.3457 5.51344 9.27824C5.49534 9.21078 5.4907 9.14041 5.49981 9.07116C5.50891 9.00191 5.53156 8.93513 5.56648 8.87464C5.6014 8.81414 5.64789 8.76112 5.70331 8.71861C5.75872 8.67609 5.82197 8.6449 5.88944 8.62684C5.95691 8.60877 6.02728 8.60418 6.09653 8.61331C6.16577 8.62245 6.23254 8.64514 6.29301 8.68009L7.21374 9.2117C7.33584 9.28223 7.42494 9.39835 7.46144 9.53455C7.49795 9.67074 7.47888 9.81586 7.40842 9.938ZM5.95089 13.9251H4.88767C4.74667 13.9251 4.61145 13.8691 4.51176 13.7694C4.41206 13.6697 4.35605 13.5345 4.35605 13.3935C4.35605 13.2525 4.41206 13.1173 4.51176 13.0176C4.61145 12.9179 4.74667 12.8619 4.88767 12.8619H5.95089C6.09189 12.8619 6.2271 12.9179 6.3268 13.0176C6.4265 13.1173 6.48251 13.2525 6.48251 13.3935C6.48251 13.5345 6.4265 13.6697 6.3268 13.7694C6.2271 13.8691 6.09189 13.9251 5.95089 13.9251ZM20.8361 12.8619H21.8993C22.0403 12.8619 22.1755 12.9179 22.2752 13.0176C22.3749 13.1173 22.4309 13.2525 22.4309 13.3935C22.4309 13.5345 22.3749 13.6697 22.2752 13.7694C22.1755 13.8691 22.0403 13.9251 21.8993 13.9251H20.8361C20.6951 13.9251 20.5599 13.8691 20.4602 13.7694C20.3605 13.6697 20.3045 13.5345 20.3045 13.3935C20.3045 13.2525 20.3605 13.1173 20.4602 13.0176C20.5599 12.9179 20.6951 12.8619 20.8361 12.8619ZM7.40842 16.849C7.47888 16.9711 7.49795 17.1162 7.46144 17.2524C7.42494 17.3886 7.33584 17.5048 7.21374 17.5753L6.29301 18.1069C6.23254 18.1418 6.16577 18.1645 6.09653 18.1737C6.02728 18.1828 5.95691 18.1782 5.88944 18.1601C5.82197 18.1421 5.75872 18.1109 5.70331 18.0684C5.64789 18.0259 5.6014 17.9728 5.56648 17.9123C5.53156 17.8519 5.50891 17.7851 5.49981 17.7158C5.4907 17.6466 5.49534 17.5762 5.51344 17.5087C5.53154 17.4413 5.56275 17.3781 5.6053 17.3227C5.64785 17.2673 5.70089 17.2208 5.7614 17.1859L6.68212 16.6543C6.80426 16.5838 6.94938 16.5647 7.08559 16.6012C7.22179 16.6377 7.33792 16.7269 7.40842 16.849ZM19.3786 9.938C19.3081 9.81586 19.289 9.67074 19.3255 9.53455C19.362 9.39835 19.4511 9.28223 19.5732 9.2117L20.494 8.68009C20.6161 8.60968 20.7612 8.59065 20.8973 8.62718C21.0335 8.66371 21.1496 8.75282 21.22 8.87491C21.2905 8.997 21.3096 9.14207 21.2731 9.27824C21.2367 9.41442 21.1476 9.53053 21.0256 9.60107L20.1049 10.1327C19.9827 10.2031 19.8376 10.2222 19.7014 10.1857C19.5652 10.1492 19.4491 10.0601 19.3786 9.938ZM10.1327 20.1049L9.60107 21.0256C9.56618 21.0861 9.51971 21.1391 9.46432 21.1817C9.40893 21.2242 9.3457 21.2554 9.27824 21.2735C9.21078 21.2916 9.14041 21.2963 9.07116 21.2872C9.00191 21.2781 8.93513 21.2554 8.87464 21.2205C8.81414 21.1856 8.76112 21.1391 8.71861 21.0837C8.67609 21.0283 8.6449 20.965 8.62684 20.8975C8.60877 20.8301 8.60418 20.7597 8.61331 20.6905C8.62245 20.6212 8.64514 20.5544 8.68009 20.494L9.2117 19.5732C9.24659 19.5127 9.29306 19.4597 9.34845 19.4171C9.40384 19.3746 9.46708 19.3434 9.53454 19.3253C9.602 19.3072 9.67236 19.3025 9.74161 19.3116C9.81086 19.3207 9.87764 19.3434 9.93814 19.3783C9.99863 19.4132 10.0516 19.4597 10.0942 19.5152C10.1367 19.5706 10.1679 19.6338 10.1859 19.7013C10.204 19.7688 10.2086 19.8391 10.1995 19.9084C10.1903 19.9776 10.1676 20.0444 10.1327 20.1049ZM16.6543 6.68213L17.1859 5.76141C17.2208 5.7009 17.2673 5.64786 17.3227 5.60531C17.3781 5.56276 17.4413 5.53155 17.5087 5.51345C17.5762 5.49535 17.6466 5.49072 17.7158 5.49982C17.7851 5.50892 17.8519 5.53158 17.9123 5.56649C17.9728 5.60141 18.0259 5.6479 18.0684 5.70332C18.1109 5.75873 18.1421 5.82198 18.1601 5.88945C18.1782 5.95692 18.1828 6.02729 18.1737 6.09654C18.1645 6.16578 18.1418 6.23255 18.1069 6.29302L17.5753 7.21375C17.5047 7.3358 17.3886 7.42485 17.2525 7.46131C17.1163 7.49777 16.9712 7.47867 16.8491 7.4082C16.727 7.33772 16.6379 7.22165 16.6014 7.0855C16.5649 6.94935 16.5839 6.80426 16.6543 6.68213Z" fill="#696BF1"/>
</svg>
