<svg width="32" height="32" viewBox="0 0 32 32" fill="none" xmlns="http://www.w3.org/2000/svg">
<path fill-rule="evenodd" clip-rule="evenodd" d="M18.9643 13.9792C18.9164 13.9313 18.8784 13.8744 18.8524 13.8118C18.8265 13.7492 18.8132 13.6821 18.8132 13.6143C18.8132 13.5465 18.8266 13.4794 18.8525 13.4168C18.8785 13.3542 18.9165 13.2974 18.9644 13.2495C19.0124 13.2015 19.0693 13.1636 19.1319 13.1376C19.1945 13.1117 19.2616 13.0984 19.3294 13.0984C19.3971 13.0984 19.4642 13.1118 19.5268 13.1377C19.5894 13.1637 19.6463 13.2017 19.6942 13.2496L22.08 15.635C22.1279 15.6829 22.166 15.7398 22.1919 15.8024C22.2179 15.865 22.2313 15.9321 22.2313 15.9998C22.2313 16.0676 22.2179 16.1347 22.1919 16.1973C22.166 16.2599 22.1279 16.3167 22.08 16.3646L19.6942 18.75C19.6463 18.7979 19.5894 18.836 19.5268 18.8619C19.4642 18.8879 19.3971 18.9012 19.3294 18.9012C19.2616 18.9013 19.1945 18.8879 19.1319 18.862C19.0693 18.8361 19.0124 18.7981 18.9644 18.7502C18.9165 18.7023 18.8785 18.6454 18.8525 18.5828C18.8266 18.5202 18.8132 18.4531 18.8132 18.3853C18.8132 18.3176 18.8265 18.2505 18.8524 18.1879C18.8784 18.1252 18.9164 18.0683 18.9643 18.0204L20.9849 15.9998L18.9643 13.9792ZM15.3276 20.5C15.3122 20.5675 15.2832 20.6312 15.2426 20.6872C15.2019 20.7433 15.1504 20.7906 15.0911 20.8263C15.0318 20.862 14.9659 20.8854 14.8974 20.8951C14.8288 20.9048 14.759 20.9006 14.6921 20.8827C14.6252 20.8649 14.5626 20.8337 14.508 20.7911C14.4534 20.7485 14.408 20.6954 14.3744 20.6348C14.3408 20.5743 14.3197 20.5076 14.3125 20.4388C14.3052 20.3699 14.3119 20.3003 14.3321 20.2341L16.6727 11.4996C16.6882 11.4321 16.7171 11.3685 16.7578 11.3124C16.7984 11.2563 16.8499 11.209 16.9092 11.1733C16.9685 11.1376 17.0344 11.1142 17.103 11.1045C17.1716 11.0948 17.2414 11.099 17.3083 11.1169C17.3751 11.1348 17.4377 11.1659 17.4923 11.2085C17.5469 11.2511 17.5924 11.3043 17.626 11.3648C17.6596 11.4253 17.6806 11.492 17.6879 11.5609C17.6952 11.6297 17.6885 11.6993 17.6683 11.7656L15.3276 20.5ZM17.5104 0H14.4882C14.4244 0.000465302 14.3633 0.0260125 14.3182 0.0711203C14.2731 0.116228 14.2476 0.177274 14.2471 0.241064V1.85349C14.2484 2.25697 14.1141 2.64918 13.8658 2.96722C13.6175 3.28527 13.2696 3.51072 12.8779 3.60743C11.6691 3.9106 10.5115 4.38979 9.44213 5.02963C9.09733 5.2395 8.6918 5.32689 8.29116 5.27766C7.89053 5.22843 7.51822 5.04545 7.23449 4.75835L6.09387 3.61738C6.04834 3.57276 5.98713 3.54776 5.92338 3.54776C5.85963 3.54776 5.79842 3.57276 5.75289 3.61738L3.61671 5.75354C3.57209 5.79906 3.54709 5.86027 3.54709 5.92402C3.54709 5.98777 3.57209 6.04898 3.61671 6.09451L4.75769 7.23548C5.04477 7.51913 5.22776 7.89135 5.27705 8.29191C5.32635 8.69246 5.23907 9.09794 5.02933 9.44274C4.38946 10.5121 3.91027 11.6697 3.60711 12.8784C3.5104 13.2702 3.28495 13.6181 2.9669 13.8663C2.64885 14.1146 2.25664 14.2489 1.85316 14.2477H0.241067C0.177153 14.2481 0.116001 14.2738 0.0708725 14.319C0.0257442 14.3643 0.000279032 14.4255 0 14.4894V17.5116C0.000465307 17.5754 0.0260128 17.6365 0.071121 17.6816C0.116229 17.7267 0.177276 17.7522 0.241067 17.7527H1.85351C2.257 17.7514 2.64921 17.8857 2.96726 18.134C3.2853 18.3823 3.51076 18.7302 3.60747 19.1219C3.91065 20.3306 4.38984 21.4883 5.02969 22.5576C5.23956 22.9024 5.32695 23.3079 5.27772 23.7086C5.22848 24.1092 5.04551 24.4815 4.7584 24.7652L3.61742 25.9058C3.5728 25.9514 3.5478 26.0126 3.5478 26.0763C3.5478 26.1401 3.5728 26.2013 3.61742 26.2468L5.7536 28.383C5.79913 28.4276 5.86034 28.4526 5.92409 28.4526C5.98784 28.4526 6.04905 28.4276 6.09458 28.383L7.23556 27.242C7.51922 26.9549 7.89144 26.7719 8.292 26.7226C8.69256 26.6734 9.09804 26.7606 9.44285 26.9704C10.5122 27.6102 11.6698 28.0894 12.8786 28.3926C13.2703 28.4893 13.6182 28.7147 13.8665 29.0328C14.1148 29.3508 14.2491 29.743 14.2478 30.1465V31.7589C14.2483 31.8227 14.2738 31.8838 14.3189 31.9289C14.3641 31.974 14.4251 31.9995 14.4889 32H17.5111C17.5749 31.9995 17.636 31.974 17.6811 31.9289C17.7262 31.8838 17.7517 31.8227 17.7522 31.7589V30.1462C17.7509 29.7427 17.8852 29.3505 18.1335 29.0324C18.3818 28.7144 18.7297 28.4889 19.1214 28.3922C20.3302 28.089 21.4878 27.6098 22.5572 26.97C22.9019 26.7601 23.3074 26.6727 23.708 26.7219C24.1086 26.7712 24.4808 26.9542 24.7644 27.2413L25.9054 28.3823C25.951 28.4269 26.0122 28.4519 26.0759 28.4519C26.1397 28.4519 26.2009 28.4269 26.2464 28.3823L28.3826 26.2461C28.4272 26.2006 28.4522 26.1394 28.4522 26.0756C28.4522 26.0119 28.4272 25.9507 28.3826 25.9051L27.2416 24.7642C26.9545 24.4805 26.7715 24.1083 26.7222 23.7077C26.6729 23.3072 26.7602 22.9017 26.97 22.5569C27.6098 21.4876 28.089 20.3299 28.3922 19.1212C28.4889 18.7295 28.7143 18.3816 29.0324 18.1333C29.3504 17.885 29.7427 17.7507 30.1461 17.752H31.7586C31.8226 17.7516 31.8838 17.726 31.929 17.6807C31.9742 17.6355 31.9997 17.5742 32 17.5102V14.488C31.9995 14.4242 31.974 14.3632 31.9289 14.3181C31.8838 14.273 31.8227 14.2474 31.7589 14.247H30.1465C29.743 14.2482 29.3508 14.1139 29.0327 13.8656C28.7147 13.6173 28.4892 13.2694 28.3925 12.8777C28.0894 11.669 27.6102 10.5114 26.9703 9.44203C26.7604 9.0973 26.673 8.69182 26.7222 8.29123C26.7715 7.89065 26.9545 7.5184 27.2416 7.23476L28.3826 6.0938C28.4272 6.04827 28.4522 5.98706 28.4522 5.92331C28.4522 5.85956 28.4272 5.79835 28.3826 5.75282L26.2464 3.61667C26.2009 3.57205 26.1397 3.54705 26.0759 3.54705C26.0122 3.54705 25.951 3.57205 25.9054 3.61667L24.7644 4.75764C24.4808 5.04471 24.1086 5.2277 23.708 5.27699C23.3074 5.32629 22.902 5.23901 22.5572 5.02928C21.4878 4.38942 20.3302 3.91022 19.1214 3.60707C18.7297 3.51037 18.3818 3.28491 18.1335 2.96687C17.8852 2.64882 17.7509 2.25661 17.7522 1.85313V0.241064C17.7517 0.177151 17.7261 0.115999 17.6808 0.0708717C17.6355 0.025744 17.5743 0.000279029 17.5104 0ZM21.968 10.0319C20.5873 8.651 18.7704 7.79158 16.827 7.60007C14.8837 7.40857 12.934 7.89683 11.3103 8.98165C9.68656 10.0665 8.48922 11.6807 7.92229 13.5494C7.35536 15.4181 7.45391 17.4255 8.20116 19.2296C8.9484 21.0338 10.2981 22.523 12.0203 23.4435C13.7425 24.3641 15.7306 24.659 17.6458 24.2781C19.5611 23.8972 21.285 22.8639 22.5239 21.3544C23.7627 19.8449 24.4398 17.9526 24.4398 15.9998C24.4413 14.8913 24.2237 13.7934 23.7995 12.7692C23.3753 11.745 22.7529 10.8148 21.968 10.0319ZM16 6.52757C13.8085 6.52781 11.6849 7.28792 9.991 8.67837C8.29711 10.0688 7.13775 12.0036 6.71047 14.153C6.28319 16.3024 6.61443 18.5335 7.64774 20.4661C8.68106 22.3987 10.3525 23.9132 12.3773 24.7515C14.4021 25.5899 16.6549 25.7003 18.752 25.0638C20.849 24.4274 22.6605 23.0835 23.8778 21.2612C25.0951 19.4389 25.6428 17.2508 25.4276 15.0699C25.2125 12.8891 24.2478 10.8502 22.698 9.30087C21.8193 8.42016 20.7752 7.72177 19.6257 7.24584C18.4763 6.7699 17.2441 6.5258 16 6.52757ZM13.0357 18.0204C13.1325 18.1172 13.1868 18.2485 13.1868 18.3853C13.1868 18.5222 13.1324 18.6534 13.0356 18.7502C12.9388 18.8469 12.8075 18.9013 12.6706 18.9012C12.5338 18.9012 12.4025 18.8468 12.3058 18.75L9.92 16.3646C9.87205 16.3167 9.83401 16.2599 9.80806 16.1973C9.78211 16.1347 9.76875 16.0676 9.76875 15.9998C9.76875 15.9321 9.78211 15.865 9.80806 15.8024C9.83401 15.7398 9.87205 15.6829 9.92 15.635L12.3054 13.2496C12.4022 13.1528 12.5334 13.0984 12.6703 13.0984C12.8071 13.0984 12.9384 13.1527 13.0352 13.2495C13.132 13.3462 13.1864 13.4774 13.1864 13.6143C13.1865 13.7512 13.1321 13.8824 13.0354 13.9792L11.0151 15.9998L13.0357 18.0204Z" fill="#6E70FF"/>
</svg>
