<?xml version="1.0" encoding="utf-8"?>
<!-- Generator: Adobe Illustrator 27.3.1, SVG Export Plug-In . SVG Version: 6.00 Build 0)  -->
<svg version="1.1" id="Layer_1" xmlns="http://www.w3.org/2000/svg" xmlns:xlink="http://www.w3.org/1999/xlink" x="0px" y="0px"
	 viewBox="0 0 1920 1080" style="enable-background:new 0 0 1920 1080;" xml:space="preserve">
<style type="text/css">
	.st0{opacity:0.12;fill:#6D6FFC;}
	.st1{opacity:0.26;fill:#6E70FE;}
	.st2{opacity:0.42;fill:#6E70FF;}
</style>
<path class="st0" d="M1933.55,0h-282.12c0,0-465.61,154.02-661.2,798.2c0,0-143.04,399.61-1003.79-172.51v458.57h1947.11V0z"/>
<path class="st1" d="M-13.55,605.49V425.34c0,0,375.24-190.28,869.42,127.72c68.98,44.39,145.86,74.4,226.33,86.97
	c125.3,19.57,309.78,17.24,519.81-85.31c0,0,253.3-139.21,331.55-135.93v665.47H-13.55V605.49z"/>
<path class="st2" d="M-13.55,1071.35v-560.3c0,0,1041.25,606.02,1420.5,343.92c370.46-256.03,526.61-393.06,526.61-393.06v622.34
	L-13.55,1071.35z"/>
</svg>
