<?xml version="1.0" encoding="utf-8"?>
<!-- Generator: Adobe Illustrator 27.3.1, SVG Export Plug-In . SVG Version: 6.00 Build 0)  -->
<svg version="1.1" id="Layer_1" xmlns="http://www.w3.org/2000/svg" xmlns:xlink="http://www.w3.org/1999/xlink" x="0px" y="0px"
	 viewBox="0 0 1920 1080" style="enable-background:new 0 0 1920 1080;" xml:space="preserve">
<style type="text/css">
	.st0{opacity:0.1;fill:#6D6FFC;}
	.st1{opacity:0.2;fill:#6E70FE;}
	.st2{opacity:0.1;fill:#6E70FF;}
</style>
<path class="st0" d="M1800,101.01h-243.41c0,0-401.1,129.39-570.5,670.54c0,0-123.41,335.69-866.09-144.92v385.22h1680V101.01z"/>
<path class="st1" d="M120,609.66V458.32c0,0,323.76-159.85,750.15,107.3c59.51,37.29,125.85,62.5,195.28,73.06
	c108.11,16.44,267.28,14.49,448.5-71.67c0,0,218.55-116.94,286.06-114.19v559.03H120V609.66z"/>
<path class="st2" d="M120,1001.01V530.32c0,0,898.41,509.1,1225.63,288.92C1665.27,604.15,1800,489.04,1800,489.04v522.8
	L120,1001.01z"/>
</svg>
