<svg width="400" height="267" viewBox="0 0 400 267" fill="none" xmlns="http://www.w3.org/2000/svg">
<circle cx="10.3333" cy="16.3333" r="3.33333" fill="#6E70FF"/>
<circle cx="10.3333" cy="49.6667" r="3.33333" fill="#6E70FF"/>
<circle cx="10.3333" cy="83" r="3.33333" fill="#6E70FF"/>
<circle cx="10.3333" cy="116.333" r="3.33333" fill="#6E70FF"/>
<circle cx="10.3333" cy="149.667" r="3.33333" fill="#6E70FF"/>
<circle cx="10.3333" cy="183" r="3.33333" fill="#6E70FF"/>
<circle cx="10.3333" cy="216.333" r="3.33333" fill="#6E70FF"/>
<circle cx="10.3333" cy="249.667" r="3.33333" fill="#6E70FF"/>
<circle cx="52.5556" cy="16.3333" r="3.33333" fill="#6E70FF"/>
<circle cx="52.5556" cy="49.6667" r="3.33333" fill="#6E70FF"/>
<circle cx="52.5556" cy="83" r="3.33333" fill="#6E70FF"/>
<circle cx="52.5556" cy="116.333" r="3.33333" fill="#6E70FF"/>
<circle cx="52.5556" cy="149.667" r="3.33333" fill="#6E70FF"/>
<circle cx="52.5556" cy="183" r="3.33333" fill="#6E70FF"/>
<circle cx="52.5556" cy="216.333" r="3.33333" fill="#6E70FF"/>
<circle cx="52.5556" cy="249.667" r="3.33333" fill="#6E70FF"/>
<circle cx="94.7778" cy="16.3333" r="3.33333" fill="#6E70FF"/>
<circle cx="94.7778" cy="49.6667" r="3.33333" fill="#6E70FF"/>
<circle cx="94.7778" cy="83" r="3.33333" fill="#6E70FF"/>
<circle cx="94.7778" cy="116.333" r="3.33333" fill="#6E70FF"/>
<circle cx="94.7778" cy="149.667" r="3.33333" fill="#6E70FF"/>
<circle cx="94.7778" cy="183" r="3.33333" fill="#6E70FF"/>
<circle cx="94.7778" cy="216.333" r="3.33333" fill="#6E70FF"/>
<circle cx="94.7778" cy="249.667" r="3.33333" fill="#6E70FF"/>
<circle cx="137" cy="16.3333" r="3.33333" fill="#6E70FF"/>
<circle cx="137" cy="49.6667" r="3.33333" fill="#6E70FF"/>
<circle cx="137" cy="83" r="3.33333" fill="#6E70FF"/>
<circle cx="137" cy="116.333" r="3.33333" fill="#6E70FF"/>
<circle cx="137" cy="149.667" r="3.33333" fill="#6E70FF"/>
<circle cx="137" cy="183" r="3.33333" fill="#6E70FF"/>
<circle cx="137" cy="216.333" r="3.33333" fill="#6E70FF"/>
<circle cx="137" cy="249.667" r="3.33333" fill="#6E70FF"/>
<circle cx="179.222" cy="16.3333" r="3.33333" fill="#6E70FF"/>
<circle cx="179.222" cy="49.6667" r="3.33333" fill="#6E70FF"/>
<circle cx="179.222" cy="83" r="3.33333" fill="#6E70FF"/>
<circle cx="179.222" cy="116.333" r="3.33333" fill="#6E70FF"/>
<circle cx="179.222" cy="149.667" r="3.33333" fill="#6E70FF"/>
<circle cx="179.222" cy="183" r="3.33333" fill="#6E70FF"/>
<circle cx="179.222" cy="216.333" r="3.33333" fill="#6E70FF"/>
<circle cx="179.222" cy="249.667" r="3.33333" fill="#6E70FF"/>
<circle cx="221.444" cy="16.3333" r="3.33333" fill="#6E70FF"/>
<circle cx="221.444" cy="49.6667" r="3.33333" fill="#6E70FF"/>
<circle cx="221.444" cy="83" r="3.33333" fill="#6E70FF"/>
<circle cx="221.444" cy="116.333" r="3.33333" fill="#6E70FF"/>
<circle cx="221.444" cy="149.667" r="3.33333" fill="#6E70FF"/>
<circle cx="221.444" cy="183" r="3.33333" fill="#6E70FF"/>
<circle cx="221.444" cy="216.333" r="3.33333" fill="#6E70FF"/>
<circle cx="221.444" cy="249.667" r="3.33333" fill="#6E70FF"/>
<circle cx="263.667" cy="16.3333" r="3.33333" fill="#6E70FF"/>
<circle cx="263.667" cy="49.6667" r="3.33333" fill="#6E70FF"/>
<circle cx="263.667" cy="83" r="3.33333" fill="#6E70FF"/>
<circle cx="263.667" cy="116.333" r="3.33333" fill="#6E70FF"/>
<circle cx="263.667" cy="149.667" r="3.33333" fill="#6E70FF"/>
<circle cx="263.667" cy="183" r="3.33333" fill="#6E70FF"/>
<circle cx="263.667" cy="216.333" r="3.33333" fill="#6E70FF"/>
<circle cx="263.667" cy="249.667" r="3.33333" fill="#6E70FF"/>
<circle cx="305.889" cy="16.3333" r="3.33333" fill="#6E70FF"/>
<circle cx="305.889" cy="49.6667" r="3.33333" fill="#6E70FF"/>
<circle cx="305.889" cy="83" r="3.33333" fill="#6E70FF"/>
<circle cx="305.889" cy="116.333" r="3.33333" fill="#6E70FF"/>
<circle cx="305.889" cy="149.667" r="3.33333" fill="#6E70FF"/>
<circle cx="305.889" cy="183" r="3.33333" fill="#6E70FF"/>
<circle cx="305.889" cy="216.333" r="3.33333" fill="#6E70FF"/>
<circle cx="305.889" cy="249.667" r="3.33333" fill="#6E70FF"/>
<circle cx="348.111" cy="16.3333" r="3.33333" fill="#6E70FF"/>
<circle cx="348.111" cy="49.6667" r="3.33333" fill="#6E70FF"/>
<circle cx="348.111" cy="83" r="3.33333" fill="#6E70FF"/>
<circle cx="348.111" cy="116.333" r="3.33333" fill="#6E70FF"/>
<circle cx="348.111" cy="149.667" r="3.33333" fill="#6E70FF"/>
<circle cx="348.111" cy="183" r="3.33333" fill="#6E70FF"/>
<circle cx="348.111" cy="216.333" r="3.33333" fill="#6E70FF"/>
<circle cx="348.111" cy="249.667" r="3.33333" fill="#6E70FF"/>
<circle cx="390.333" cy="16.3333" r="3.33333" fill="#6E70FF"/>
<circle cx="390.333" cy="49.6667" r="3.33333" fill="#6E70FF"/>
<circle cx="390.333" cy="83" r="3.33333" fill="#6E70FF"/>
<circle cx="390.333" cy="116.333" r="3.33333" fill="#6E70FF"/>
<circle cx="390.333" cy="149.667" r="3.33333" fill="#6E70FF"/>
<circle cx="390.333" cy="183" r="3.33333" fill="#6E70FF"/>
<circle cx="390.333" cy="216.333" r="3.33333" fill="#6E70FF"/>
<circle cx="390.333" cy="249.667" r="3.33333" fill="#6E70FF"/>
</svg>
