<svg width="48" height="48" viewBox="0 0 48 48" fill="none" xmlns="http://www.w3.org/2000/svg">
<rect width="48" height="48" rx="10" fill="#F6F4FF"/>
<path fill-rule="evenodd" clip-rule="evenodd" d="M40 12.5907C40 11.4329 39.5404 10.3231 38.7215 9.5056C37.904 8.68669 36.7942 8.22705 35.6364 8.22705C30.0625 8.22705 17.9375 8.22705 12.3636 8.22705C11.2058 8.22705 10.096 8.68669 9.27855 9.5056C8.45964 10.3231 8 11.4329 8 12.5907V27.1361C8 28.294 8.45964 29.4038 9.27855 30.2212C10.096 31.0401 11.2058 31.4998 12.3636 31.4998C17.9375 31.4998 30.0625 31.4998 35.6364 31.4998C36.7942 31.4998 37.904 31.0401 38.7215 30.2212C39.5404 29.4038 40 28.294 40 27.1361V12.5907Z" fill="#6E70FF"/>
<path fill-rule="evenodd" clip-rule="evenodd" d="M27.5302 29.5057C27.3106 28.953 26.7753 28.5908 26.1804 28.5908H21.8167C21.2218 28.5908 20.6866 28.953 20.4669 29.5057L17.5578 36.7785C17.3775 37.2265 17.4327 37.7341 17.7033 38.1341C17.9738 38.5326 18.4247 38.7726 18.9077 38.7726H29.0895C29.5724 38.7726 30.0233 38.5326 30.2938 38.1341C30.5644 37.7341 30.6197 37.2265 30.4393 36.7785L27.5302 29.5057Z" fill="#6E70FF"/>
<path fill-rule="evenodd" clip-rule="evenodd" d="M32.7255 35.8638H15.271C14.468 35.8638 13.8164 36.5154 13.8164 37.3183C13.8164 38.1212 14.468 38.7729 15.271 38.7729H32.7255C33.5284 38.7729 34.18 38.1212 34.18 37.3183C34.18 36.5154 33.5284 35.8638 32.7255 35.8638Z" fill="#6E70FF"/>
</svg>
