<svg width="48" height="48" viewBox="0 0 48 48" fill="none" xmlns="http://www.w3.org/2000/svg">
<rect width="48" height="48" rx="10" fill="#F6F4FF"/>
<rect x="15" y="14" width="18" height="17" fill="#6E70FF"/>
<path d="M29.8 37.8667H19.1333C17.9568 37.8667 17 38.824 17 40H19.1333H29.8H31.9333C31.9333 38.824 30.9765 37.8667 29.8 37.8667Z" fill="#6E70FF"/>
<path d="M32.4 8H15.6C13.6146 8 12 9.44517 12 11.2222V33.7778C12 35.5548 13.6146 37 15.6 37H32.4C34.3854 37 36 35.5548 36 33.7778V11.2222C36 9.44517 34.3854 8 32.4 8ZM34.2 32.1667H13.8V12.8333H34.2V32.1667Z" fill="#6E70FF"/>
</svg>
