<svg width="48" height="48" viewBox="0 0 48 48" fill="none" xmlns="http://www.w3.org/2000/svg">
<rect width="48" height="48" rx="10" fill="#F6F4FF"/>
<path d="M10 37.3332C10 38.7998 11.2 39.9998 12.6667 39.9998H27.3333C28.8 39.9998 30 38.7998 30 37.3332V34.6665H10V37.3332ZM18.6667 35.9998H21.3333C21.7333 35.9998 22 36.2665 22 36.6665C22 37.0665 21.7333 37.3332 21.3333 37.3332H18.6667C18.2667 37.3332 18 37.0665 18 36.6665C18 36.2665 18.2667 35.9998 18.6667 35.9998Z" fill="#6E70FF"/>
<path d="M30 10.6667C30 9.2 28.8 8 27.3333 8H12.6667C11.2 8 10 9.2 10 10.6667V11.3333H30V10.6667Z" fill="#6E70FF"/>
<path d="M28.8667 32.9998C27.8 32.9998 26.8 32.2665 26.5333 31.1998L26.3333 30.5332C26.2667 30.4665 26.1333 30.4665 26 30.3998L25.4 30.7332C25.0667 30.9332 24.6 31.0665 24.2 31.0665C23.5333 31.0665 22.9333 30.7998 22.5333 30.3998L21.8667 29.7332C21.0667 28.9332 20.9333 27.7332 21.5333 26.7998L21.8667 26.2665C21.8 26.1332 21.8 26.0665 21.7333 25.9332L21.0667 25.7332C20 25.4665 19.2667 24.5332 19.2667 23.3998V22.4665C19.2667 21.3998 20 20.3998 21.0667 20.1332L21.7333 19.9332C21.8 19.7998 21.8 19.7332 21.8667 19.5998L21.5333 18.9998C20.9333 18.0665 21.1333 16.8665 21.8667 16.0665L22.5333 15.3998C23 14.9332 23.6 14.7332 24.2 14.7332C24.6 14.7332 25.0667 14.8665 25.4 15.0665L26 15.3998C26.1333 15.3332 26.2 15.3332 26.3333 15.2665L26.5333 14.5998C26.8 13.5332 27.7333 12.7998 28.8667 12.7998H29.8C29.8667 12.7998 29.9333 12.7998 30 12.7998V12.6665H10V33.3332H30V32.9998C29.9333 32.9998 29.8667 32.9998 29.8 32.9998H28.8667Z" fill="#6E70FF"/>
<path d="M37.2005 21.5332L35.8672 21.1999C35.7339 20.6666 35.5339 20.1999 35.2672 19.7332L36.0005 18.5332C36.2672 18.1332 36.2005 17.5999 35.8672 17.2666L35.2005 16.5999C34.8672 16.2666 34.3339 16.1999 33.9339 16.4666L32.6672 17.1332C32.2005 16.8666 31.6672 16.6666 31.2005 16.5332L30.8672 15.1999C30.7339 14.7332 30.3339 14.3999 29.8672 14.3999H28.9339C28.4672 14.3999 28.0005 14.7332 27.9339 15.1999L27.6005 16.5332C27.0672 16.6666 26.6005 16.8666 26.1339 17.1332L24.9339 16.3999C24.5339 16.1332 24.0005 16.1999 23.6672 16.5332L23.0005 17.1999C22.6672 17.5332 22.6005 18.0666 22.8672 18.4666L23.6005 19.6666C23.3339 20.1332 23.1339 20.6666 23.0005 21.1332L21.6672 21.4666C21.2005 21.5999 20.8672 21.9999 20.8672 22.4666V23.3999C20.8672 23.8666 21.2005 24.3332 21.6672 24.3999L23.0005 24.7332C23.1339 25.2666 23.3339 25.7332 23.6005 26.1999L22.8672 27.3999C22.6005 27.7999 22.6672 28.3332 23.0005 28.6666L23.6672 29.3332C24.0005 29.6666 24.5339 29.7332 24.9339 29.4666L26.1339 28.7332C26.6005 28.9999 27.1339 29.1999 27.6005 29.3332L27.9339 30.6666C28.0672 31.1332 28.4672 31.4666 28.9339 31.4666H29.8672C30.3339 31.4666 30.8005 31.1332 30.8672 30.6666L31.2005 29.3332C31.7339 29.1999 32.2005 28.9999 32.6672 28.7332L33.8672 29.4666C34.2672 29.7332 34.8005 29.6666 35.1339 29.3332L35.8005 28.6666C36.1339 28.3332 36.2005 27.7999 35.9339 27.3999L35.2005 26.1999C35.4672 25.7332 35.6672 25.1999 35.8005 24.7332L37.1339 24.3999C37.6005 24.2666 37.9339 23.8666 37.9339 23.3999V22.4666C38.0005 22.0666 37.6672 21.6666 37.2005 21.5332ZM29.3339 26.3332C27.4672 26.3332 26.0005 24.8666 26.0005 22.9999C26.0005 21.1332 27.4672 19.6666 29.3339 19.6666C31.2005 19.6666 32.6672 21.1999 32.6672 22.9999C32.6672 24.8666 31.2005 26.3332 29.3339 26.3332Z" fill="#6E70FF"/>
</svg>
