<svg width="48" height="48" viewBox="0 0 48 48" fill="none" xmlns="http://www.w3.org/2000/svg">
<rect width="48" height="48" rx="10" fill="#F6F4FF"/>
<path d="M20.0713 28.1212H20.8829V31.9043C20.8828 31.9617 20.8701 32.0184 20.8456 32.0706C20.8211 32.1227 20.7854 32.1691 20.7409 32.2064L17.8312 34.6441V36.3626C18.2832 36.4605 18.6823 36.7185 18.952 37.087C19.2218 37.4556 19.3432 37.9087 19.2929 38.3595C19.2426 38.8103 19.0242 39.2271 18.6795 39.5298C18.3349 39.8326 17.8883 40 17.4255 40C16.9626 40 16.516 39.8326 16.1714 39.5298C15.8267 39.2271 15.6083 38.8103 15.558 38.3595C15.5078 37.9087 15.6291 37.4556 15.8989 37.087C16.1686 36.7185 16.5677 36.4605 17.0197 36.3626V34.4609C17.0197 34.4035 17.0324 34.3468 17.0569 34.2946C17.0814 34.2425 17.1171 34.1962 17.1616 34.1588L20.0713 31.7211V28.1212ZM17.6903 31.5459V28.1212H16.8788V31.5459C16.8772 31.5991 16.8865 31.6521 16.9062 31.7017C16.9259 31.7513 16.9555 31.7965 16.9933 31.8347C17.0312 31.8729 17.0764 31.9032 17.1265 31.924C17.1765 31.9447 17.2303 31.9554 17.2846 31.9554C17.3389 31.9554 17.3927 31.9447 17.4427 31.924C17.4927 31.9032 17.538 31.8729 17.5758 31.8347C17.6137 31.7965 17.6433 31.7513 17.663 31.7017C17.6826 31.6521 17.692 31.5991 17.6903 31.5459ZM12.6704 31.9415V28.1212H12.3677C12.1963 28.1212 12.0267 28.1139 11.8589 28.1004V31.9415C11.4069 32.0395 11.0078 32.2975 10.7381 32.666C10.4683 33.0345 10.347 33.4877 10.3972 33.9385C10.4475 34.3893 10.6659 34.806 11.0106 35.1088C11.3552 35.4115 11.8018 35.579 12.2646 35.579C12.7275 35.579 13.1741 35.4115 13.5187 35.1088C13.8634 34.806 14.0818 34.3893 14.1321 33.9385C14.1823 33.4877 14.061 33.0345 13.7912 32.666C13.5215 32.2975 13.1224 32.0395 12.6704 31.9415ZM14.2587 30.1623C14.2618 30.2657 14.3059 30.3638 14.3817 30.4359C14.4574 30.5079 14.5589 30.5482 14.6644 30.5482C14.77 30.5482 14.8715 30.5079 14.9472 30.4359C15.023 30.3638 15.0671 30.2657 15.0702 30.1623V28.1212H14.2587V30.1623ZM23.9256 33.1075V28.1212H23.1144V33.1075C22.6625 33.2055 22.2633 33.4634 21.9935 33.8319C21.7237 34.2005 21.6023 34.6536 21.6526 35.1044C21.7029 35.5553 21.9213 35.972 22.2659 36.2748C22.6105 36.5776 23.0571 36.745 23.52 36.745C23.9829 36.745 24.4295 36.5776 24.7742 36.2748C25.1188 35.972 25.3372 35.5553 25.3875 35.1044C25.4377 34.6536 25.3163 34.2005 25.0465 33.8319C24.7768 33.4634 24.3776 33.2055 23.9256 33.1075ZM35.1812 31.9426V28.1014C35.0133 28.115 34.8437 28.1223 34.6723 28.1223H34.3697V31.9415C33.9177 32.0395 33.5186 32.2975 33.2488 32.666C32.9791 33.0345 32.8577 33.4877 32.908 33.9385C32.9583 34.3893 33.1767 34.806 33.5213 35.1088C33.866 35.4115 34.3125 35.579 34.7754 35.579C35.2383 35.579 35.6849 35.4115 36.0295 35.1088C36.3741 34.806 36.5925 34.3893 36.6428 33.9385C36.6931 33.4877 36.5717 33.0345 36.302 32.666C36.0323 32.2975 35.6331 32.0395 35.1812 31.9415V31.9426ZM31.9695 30.1633C31.9726 30.2667 32.0167 30.3649 32.0925 30.4369C32.1683 30.509 32.2697 30.5493 32.3753 30.5493C32.4809 30.5493 32.5823 30.509 32.658 30.4369C32.7338 30.3649 32.7779 30.2667 32.781 30.1633V28.1212H31.9695V30.1633ZM30.1598 31.547V28.1212H29.3497V31.5459C29.3481 31.5991 29.3574 31.6521 29.3771 31.7017C29.3968 31.7513 29.4264 31.7965 29.4642 31.8347C29.5021 31.8729 29.5473 31.9032 29.5974 31.924C29.6474 31.9447 29.7012 31.9554 29.7555 31.9554C29.8098 31.9554 29.8636 31.9447 29.9136 31.924C29.9636 31.9032 30.0089 31.8729 30.0467 31.8347C30.0846 31.7965 30.1142 31.7513 30.1339 31.7017C30.1535 31.6521 30.1628 31.5991 30.1612 31.5459L30.1598 31.547ZM30.0179 36.3636V34.462C30.0179 34.4046 30.0052 34.3478 29.9807 34.2957C29.9562 34.2435 29.9205 34.1972 29.8759 34.1599L26.9662 31.7222V28.1212H26.1572V31.9043C26.1573 31.9617 26.17 32.0184 26.1945 32.0706C26.219 32.1227 26.2547 32.1691 26.2991 32.2064L29.2088 34.6441V36.3626C28.7569 36.4605 28.3578 36.7185 28.088 37.087C27.8183 37.4556 27.6969 37.9087 27.7472 38.3595C27.7975 38.8103 28.0159 39.2271 28.3605 39.5298C28.7051 39.8326 29.1517 40 29.6146 40C30.0775 40 30.5241 39.8326 30.8687 39.5298C31.2133 39.2271 31.4317 38.8103 31.482 38.3595C31.5323 37.9087 31.4109 37.4556 31.1412 37.087C30.8714 36.7185 30.4723 36.4605 30.0204 36.3626L30.0179 36.3636ZM36.8752 17.2826C36.8014 17.2497 36.7393 17.1958 36.6971 17.128C36.6549 17.0601 36.6345 16.9813 36.6385 16.902C36.693 15.8081 36.4471 14.7199 35.9264 13.7508C35.4057 12.7817 34.6293 11.9671 33.678 11.392C32.7267 10.8168 31.6354 10.5021 30.5178 10.4807C29.4002 10.4593 28.2971 10.7319 27.3236 11.2701C27.2396 11.3168 27.1415 11.3326 27.0467 11.3147C26.9519 11.2968 26.8667 11.2463 26.8066 11.1724C25.689 9.79808 24.1605 8.80086 22.4353 8.32056C20.7101 7.84026 18.8748 7.90096 17.1865 8.49414C15.4983 9.08733 14.0419 10.1833 13.0215 11.6283C12.0011 13.0733 11.4679 14.795 11.4966 16.5519C11.498 16.6429 11.4675 16.7317 11.4102 16.8033C11.3528 16.875 11.2721 16.9251 11.1815 16.9454C9.8992 17.231 8.76929 17.9696 8.00769 19.0198C7.24608 20.0701 6.90618 21.3585 7.05296 22.6388C7.19973 23.9191 7.82287 25.1016 8.80331 25.9602C9.78374 26.8188 11.0527 27.2933 12.3677 27.2931H34.6723C35.8947 27.2934 37.0802 26.8833 38.0314 26.131C38.9825 25.3788 39.6418 24.33 39.8995 23.1593C40.1571 21.9887 39.9974 20.7668 39.4471 19.6975C38.8968 18.6281 37.9891 17.7759 36.8752 17.2826Z" fill="#6E70FF"/>
</svg>
