<svg width="48" height="48" viewBox="0 0 48 48" fill="none" xmlns="http://www.w3.org/2000/svg">
<rect width="48" height="48" rx="10" fill="#F6F4FF"/>
<path d="M14.601 36.952C15.8094 38.2299 17.2657 39.248 18.8809 39.944C20.4961 40.64 22.2362 40.9993 23.995 41.0001C24.4858 41.0002 24.9759 40.9645 25.4614 40.8932C25.5084 40.8864 25.5536 40.8786 25.5977 40.871L25.6575 40.8615C31.7757 40.1124 36.4831 35.17 37.0439 29.1289H11.1289C11.6185 32.9831 13.2023 35.4644 14.601 36.952Z" fill="#6E70FF"/>
<path d="M11.0586 24.6267C11.2227 24.7018 11.3794 24.7784 11.5325 24.8538C12.3003 25.2319 12.9627 25.5584 14.3782 25.5584C15.7936 25.5584 16.4565 25.2319 17.2238 24.8539C18.0146 24.4643 18.9106 24.0228 20.6122 24.0228C22.3138 24.0228 23.21 24.4643 24.0007 24.8539C24.7685 25.2319 25.4309 25.5584 26.8464 25.5584C28.262 25.5584 28.9248 25.2319 29.6922 24.8538C30.483 24.4643 31.3793 24.0228 33.0809 24.0228C34.7826 24.0228 35.6789 24.4643 36.4696 24.8538C36.5947 24.9152 36.7179 24.9757 36.8424 25.0339C36.7774 24.6376 36.7014 24.2323 36.6121 23.8164C36.5631 23.589 36.5153 23.3642 36.4686 23.142C36.2796 23.0576 36.1008 22.9703 35.9271 22.8847C35.1593 22.5066 34.4968 22.1802 33.0813 22.1802C31.6657 22.1802 31.0029 22.5066 30.2354 22.8848C29.4446 23.2742 28.5484 23.7157 26.8467 23.7157C25.1451 23.7157 24.2489 23.2742 23.4582 22.8847C22.6904 22.5066 22.028 22.1802 20.6125 22.1802C19.1971 22.1802 18.5344 22.5066 17.767 22.8847C16.9762 23.2742 16.0801 23.7157 14.3785 23.7157C12.8521 23.7157 11.9739 23.3605 11.2383 23.0062C11.1614 23.5324 11.102 24.0716 11.0586 24.6267Z" fill="#6E70FF"/>
<path d="M30.1903 10.5473C28.7062 9.12812 27.1239 8.23513 25.4872 7.89316C24.9973 7.79011 24.498 7.73788 23.9973 7.7373C21.7138 7.7373 19.4412 8.82439 17.4252 10.881C17.252 11.0576 17.0703 11.2348 16.9152 11.3847C15.7661 12.4959 14.6797 13.9599 13.7617 15.6161H33.8408C33.8249 15.5854 33.8101 15.5546 33.7939 15.5239C32.7614 13.5207 31.5492 11.8463 30.1903 10.5473Z" fill="#6E70FF"/>
<path d="M11.4609 21.7477C11.4848 21.7595 11.5095 21.7714 11.5331 21.7831C12.3005 22.1611 12.9633 22.4876 14.3787 22.4876C15.7941 22.4876 16.457 22.1611 17.2243 21.7831C18.0151 21.3935 18.9111 20.952 20.6127 20.952C22.3143 20.952 23.2105 21.3935 24.0012 21.7831C24.769 22.1611 25.4314 22.4876 26.8469 22.4876C28.2625 22.4876 28.9253 22.1611 29.6927 21.783C30.4835 21.3935 31.3798 20.952 33.0814 20.952C34.556 20.952 35.4257 21.2835 36.1461 21.6255C35.9925 20.9765 35.801 20.3149 35.5716 19.6408C35.0028 19.3721 34.3105 19.1094 33.0814 19.1094C31.6658 19.1094 31.0031 19.4358 30.2356 19.814C29.4448 20.2034 28.5486 20.6449 26.8469 20.6449C25.1453 20.6449 24.2491 20.2034 23.4584 19.8139C22.6906 19.4358 22.0282 19.1094 20.6127 19.1094C19.1973 19.1094 18.5345 19.4358 17.7672 19.8139C16.9764 20.2034 16.0803 20.6449 14.3787 20.6449C13.2488 20.6449 12.476 20.4513 11.8425 20.202C11.6956 20.71 11.5684 21.2241 11.4609 21.7477Z" fill="#6E70FF"/>
<path d="M35.9284 25.956C35.1607 25.5779 34.4982 25.2515 33.0826 25.2515C31.6671 25.2515 31.0043 25.5779 30.2367 25.956C29.4459 26.3455 28.5498 26.787 26.8481 26.787C25.1464 26.787 24.2503 26.3455 23.4596 25.956C22.6918 25.5779 22.0294 25.2515 20.6139 25.2515C19.1985 25.2515 18.5357 25.5779 17.7683 25.956C16.9775 26.3455 16.0815 26.787 14.3799 26.787C12.6783 26.787 11.7821 26.3455 10.9913 25.956L10.988 25.9543C10.9667 26.635 10.9752 27.2837 11.0136 27.9003H37.1007C37.1001 27.4352 37.0755 26.9463 37.0275 26.4365C36.6512 26.3001 36.2841 26.1396 35.9284 25.956Z" fill="#6E70FF"/>
<path d="M12.8466 17.4512C12.6137 17.9779 12.4054 18.5025 12.2188 19.0296C12.7669 19.255 13.3945 19.4163 14.3792 19.4163C15.7947 19.4163 16.4575 19.0898 17.2249 18.7117C18.0157 18.3222 18.9117 17.8807 20.6133 17.8807C22.3149 17.8807 23.211 18.3222 24.0018 18.7118C24.7695 19.0898 25.432 19.4163 26.8475 19.4163C28.263 19.4163 28.9258 19.0898 29.6933 18.7117C30.4841 18.3222 31.3803 17.8807 33.082 17.8807C33.7286 17.8714 34.3735 17.9508 34.9986 18.1165C34.8265 17.6989 34.6402 17.2749 34.4398 16.8442H13.1266C13.0311 17.0449 12.937 17.2467 12.8466 17.4512Z" fill="#6E70FF"/>
</svg>
