<svg width="48" height="48" viewBox="0 0 48 48" fill="none" xmlns="http://www.w3.org/2000/svg">
<rect width="48" height="48" rx="10" fill="#F6F4FF"/>
<path d="M29.9695 9.1503C28.1253 8.40738 26.1104 8 24 8C15.8366 8 9.10047 14.114 8.12251 22.0121C8.04153 22.6641 8 23.3277 8 24.0008C8 32.8382 15.1634 40 24 40C32.8382 40 40.0008 32.8382 40.0008 24.0008C40.0008 17.2726 35.8506 11.5157 29.9695 9.1503ZM20.4486 28.3342C20.6845 28.5846 20.6733 28.9787 20.4228 29.2146C20.3028 29.3279 20.1488 29.3844 19.9955 29.3844C19.8303 29.3844 19.665 29.3188 19.5425 29.1888L15.0476 24.4261C14.8208 24.186 14.8208 23.8111 15.0476 23.5706L19.5425 18.8108C19.7783 18.5604 20.1733 18.5496 20.4233 18.7854C20.6733 19.0217 20.6845 19.4162 20.4486 19.6662L16.3569 23.9983L20.4486 28.3342ZM26.3857 19.5242L22.7783 28.9226C22.6832 29.1705 22.4469 29.3225 22.1969 29.3225C22.1226 29.3225 22.0474 29.3092 21.9739 29.281C21.6529 29.1577 21.4922 28.7976 21.6155 28.4762L25.223 19.0778C25.3459 18.7568 25.7068 18.5948 26.0278 18.7194C26.3484 18.8427 26.5091 19.2028 26.3857 19.5242ZM32.9528 24.4294L28.4579 29.1892C28.3354 29.3192 28.1706 29.3844 28.0049 29.3844C27.8512 29.3844 27.6976 29.3279 27.5772 29.2146C27.3272 28.9783 27.3159 28.5838 27.5518 28.3338L31.6431 24.0017L27.5518 19.6666C27.3159 19.4162 27.3272 19.0221 27.5776 18.7863C27.8284 18.5504 28.2221 18.5616 28.4579 18.812L32.9524 23.5748C33.1796 23.8144 33.1796 24.1894 32.9528 24.4294Z" fill="#6E70FF"/>
</svg>
