<svg width="381" height="380" viewBox="0 0 381 380" fill="none" xmlns="http://www.w3.org/2000/svg">
<g clip-path="url(#clip0_870_1162)">
<path d="M138.483 50.5031C137.541 48.9106 133.462 50.6157 132.712 49.1705C131.965 47.7304 135.755 45.5362 137.92 40.5238C138.31 39.6199 140.77 33.9236 138.949 32.1659C135.497 28.8343 119.699 42.5831 114.17 38.0838C112.957 37.0964 112.109 35.1253 108.437 31.9249C106.976 30.6518 106.093 30.0769 105.238 30.2908C104.025 30.5942 103.928 32.2207 102.628 35.4185C100.677 40.2144 99.5231 39.9248 98.3865 43.7511C97.5428 46.5915 97.7355 48.2429 96.7426 48.5646C95.3376 49.0199 94.0444 46.0071 92.2638 46.2769C90.4468 46.5522 89.3483 50.0601 89.0014 52.6865C88.3502 57.6152 90.1571 60.8675 91.1585 64.2873C92.2468 68.0037 92.8927 73.6556 90.3794 81.6567L65.5039 151.868C70.9957 137.461 86.8969 97.967 93.5786 83.2909C95.5075 79.0542 97.6372 74.7568 102.01 73.0608C106.221 71.4279 112.003 72.4028 119.374 70.6238C120.235 70.416 122.624 69.8071 122.925 68.3994C123.174 67.2356 121.768 66.586 121.984 65.496C122.274 64.034 125.037 64.016 128.433 62.3293C130.828 61.1398 132.32 59.7253 133.602 58.5089C133.989 58.1421 139.738 52.6231 138.483 50.5031Z" fill="#F2F2F2"/>
<path d="M40.6131 87.4652C39.5609 87.4692 39.2195 89.9665 38.2951 89.9182C37.3739 89.87 37.3923 87.3738 35.5612 84.863C35.231 84.4103 33.1501 81.557 31.7634 81.9454C29.135 82.6815 31.3128 94.4161 27.5132 95.8362C26.6794 96.1479 25.4691 95.9959 22.8416 96.878C21.7963 97.2289 21.2598 97.4974 21.1179 97.9794C20.9166 98.6634 21.6857 99.18 22.8771 100.742C24.6639 103.085 24.1891 103.569 25.7358 105.232C26.884 106.466 27.7487 106.848 27.6198 107.429C27.4375 108.251 25.5883 108.018 25.2067 108.971C24.8173 109.944 26.219 111.496 27.4057 112.424C29.6326 114.167 31.7473 114.217 33.7117 114.711C35.8466 115.248 38.802 116.561 41.9969 120.106L69.2186 152.595C63.7446 145.737 48.9831 126.524 43.7206 119.004C42.2014 116.833 40.7105 114.546 41.1413 111.907C41.5561 109.365 43.7021 106.804 44.9574 102.666C45.104 102.183 45.495 100.832 44.8921 100.278C44.3937 99.8205 43.6699 100.324 43.1982 99.9033C42.5655 99.339 43.354 97.9751 43.5074 95.8188C43.6155 94.2982 43.3529 93.1566 43.1271 92.1748C43.059 91.8789 42.0139 87.4598 40.6131 87.4652Z" fill="#F2F2F2"/>
<path d="M61.6066 92.1859L60.9727 86.5165L61.2623 86.0867C62.6027 84.0993 63.2858 82.1584 63.294 80.3161C63.2954 80.0232 63.2817 79.7303 63.268 79.4319C63.2134 78.2493 63.1451 76.7793 63.9102 75.0656C64.3393 74.1103 65.5444 71.8983 67.3561 72.1721C67.8439 72.2405 68.2128 72.465 68.4929 72.7278C68.5339 72.6621 68.5762 72.5964 68.6213 72.5252C69.1856 71.6629 69.6324 71.2933 70.0628 70.9375C70.3934 70.6637 70.735 70.3818 71.2706 69.7138C71.5056 69.4209 71.6887 69.1636 71.8431 68.9473C72.3118 68.2931 72.9238 67.5129 74.0032 67.5265C75.1564 67.5813 75.7603 68.5367 76.1607 69.169C76.8753 70.2969 77.1991 71.1099 77.4136 71.6492C77.4915 71.8463 77.5803 72.068 77.6254 72.1365C77.997 72.684 81.018 72.172 82.1561 71.9859C84.7125 71.5588 86.9245 71.1893 87.8359 72.8044C88.489 73.9596 88.004 75.4871 86.3507 77.4664C85.8356 78.0823 85.2877 78.5504 84.8013 78.9172C85.2043 79.1581 85.565 79.5277 85.7113 80.1081C86.0556 81.4823 84.8764 82.8592 82.208 84.2061C81.5453 84.5428 80.6531 84.9918 79.4029 85.208C78.814 85.3093 78.2839 85.334 77.8303 85.3476C77.8207 85.6104 77.7593 85.8951 77.5994 86.188C77.1308 87.0503 76.1552 87.461 74.685 87.3624C73.0673 87.2775 71.7352 86.9682 70.5601 86.6972C69.534 86.4618 68.65 86.2619 67.9559 86.3085C66.6689 86.4125 65.6769 87.4445 64.5128 88.7832L61.6066 92.1859Z" fill="#F2F2F2"/>
<path d="M64.5469 58.4305L59.2335 60.4829L58.7451 60.3112C56.4861 59.5165 54.4387 59.3468 52.6577 59.8062C52.3745 59.8792 52.0952 59.9667 51.8105 60.0556C50.6825 60.4085 49.2804 60.8476 47.4316 60.5408C46.4003 60.3675 43.9589 59.7607 43.7636 57.9357C43.706 57.4457 43.8292 57.0313 44.0119 56.6932C43.938 56.6702 43.8638 56.6458 43.7837 56.6201C42.8079 56.2921 42.3378 55.9529 41.885 55.6261C41.5368 55.3751 41.1779 55.1156 40.3971 54.766C40.0546 54.6126 39.7597 54.5005 39.5117 54.4057C38.7611 54.1176 37.8525 53.7223 37.592 52.6729C37.3523 51.5416 38.1217 50.714 38.6307 50.1657C39.5385 49.1872 40.2414 48.6671 40.7077 48.3225C40.8783 48.197 41.0698 48.0547 41.1245 47.9937C41.5589 47.4947 40.2983 44.6972 39.8299 43.6416C38.7691 41.2727 37.8512 39.2229 39.1796 37.9302C40.1294 37.0043 41.7274 37.0868 44.0578 38.1868C44.7832 38.5297 45.3742 38.9419 45.8518 39.3202C45.9821 38.8686 46.2475 38.4253 46.7708 38.1364C48.0104 37.4542 49.639 38.2475 51.6164 40.4916C52.1096 41.0483 52.7694 41.799 53.2953 42.9556C53.5425 43.5005 53.7007 44.008 53.829 44.4441C54.0852 44.3867 54.3757 44.3741 54.6991 44.4547C55.6506 44.6901 56.2945 45.5312 56.5723 46.9809C56.9007 48.57 56.9399 49.9393 56.9762 51.1467C57.0092 52.2007 57.0404 53.108 57.2615 53.7688C57.6884 54.9896 58.9365 55.689 60.5243 56.4775L64.5469 58.4305Z" fill="#F2F2F2"/>
<path d="M61.6066 41.7284L60.9727 36.059L61.2623 35.6292C62.6027 33.6418 63.2858 31.7009 63.294 29.8586C63.2954 29.5657 63.2817 29.2727 63.268 28.9744C63.2134 27.7918 63.1451 26.3218 63.9102 24.6081C64.3393 23.6527 65.5444 21.4408 67.3561 21.7146C67.8439 21.783 68.2128 22.0075 68.4929 22.2703C68.5339 22.2046 68.5762 22.1389 68.6213 22.0677C69.1856 21.2054 69.6324 20.8358 70.0628 20.4799C70.3934 20.2062 70.735 19.9243 71.2706 19.2563C71.5056 18.9634 71.6887 18.7061 71.8431 18.4898C72.3118 17.8355 72.9238 17.0553 74.0032 17.069C75.1564 17.1238 75.7603 18.0792 76.1607 18.7115C76.8753 19.8394 77.1991 20.6524 77.4136 21.1917C77.4915 21.3888 77.5803 21.6105 77.6254 21.679C77.997 22.2265 81.018 21.7145 82.1561 21.5284C84.7125 21.1013 86.9245 20.7318 87.8359 22.3469C88.489 23.5021 88.004 25.0296 86.3507 27.0088C85.8356 27.6248 85.2877 28.0929 84.8013 28.4597C85.2043 28.7006 85.565 29.0702 85.7113 29.6505C86.0556 31.0247 84.8764 32.4017 82.208 33.7486C81.5453 34.0853 80.6531 34.5342 79.4029 34.7505C78.814 34.8518 78.2839 34.8764 77.8303 34.8901C77.8207 35.1529 77.7593 35.4376 77.5994 35.7305C77.1308 36.5928 76.1552 37.0034 74.685 36.9049C73.0673 36.82 71.7352 36.5107 70.5601 36.2397C69.534 36.0043 68.65 35.8044 67.9559 35.851C66.6689 35.955 65.6769 36.987 64.5128 38.3257L61.6066 41.7284Z" fill="#F2F2F2"/>
<path d="M67.3968 151.775L66.2108 151.031L64.8281 151.189C64.8062 151.061 64.7311 150.765 64.6177 150.302C63.9988 147.767 62.1119 140.053 60.5379 127.904C59.4393 119.423 58.8177 110.705 58.6892 101.986C58.5608 93.253 58.9734 86.642 59.3041 81.3285C59.5541 77.3209 59.8575 73.5048 60.1553 69.7873C60.9478 59.8557 61.6951 50.4743 61.139 40.0883C61.0161 37.7696 60.7578 32.9434 57.9432 27.8079C56.3105 24.8295 54.0615 22.1851 51.2578 19.9513L53.0012 17.7559C56.0959 20.2251 58.584 23.1542 60.3971 26.4611C63.5178 32.1551 63.7993 37.4138 63.9345 39.9405C64.5002 50.5099 63.7446 59.9817 62.944 70.0091C62.6488 73.7129 62.3455 77.5125 62.0968 81.5038C61.7689 86.768 61.3604 93.3215 61.4875 101.942C61.6132 110.557 62.228 119.169 63.3115 127.543C64.8664 139.539 66.726 147.138 67.3367 149.634C67.6619 150.968 67.7302 151.247 67.3968 151.775Z" fill="#F2F2F2"/>
<path d="M46.1265 24.4055C46.0117 24.4055 45.8956 24.4028 45.7781 24.3946C43.3952 24.2659 41.1887 22.837 39.2184 20.1487C38.2948 18.884 37.822 17.4414 36.8793 14.5642C36.7331 14.1208 36.0226 11.8706 35.5908 8.77446C35.308 6.75144 35.3435 5.90558 35.7439 5.15824C36.1879 4.32604 36.9066 3.7457 37.7155 3.35425C37.6799 3.08596 37.7086 2.80948 37.8248 2.52751C38.3016 1.35861 39.5695 1.51192 40.2554 1.58583C40.6025 1.62963 41.0356 1.68711 41.5029 1.66247C42.238 1.62689 42.6329 1.40787 43.2313 1.07936C43.8038 0.764544 44.5156 0.373093 45.5718 0.156828C47.6541 -0.278427 49.3989 0.312871 49.9741 0.507217C53.0005 1.51734 54.4925 3.87433 56.2195 6.60359C56.5638 7.15109 57.7457 9.14396 58.5259 11.876C59.0888 13.847 59.0096 14.723 58.8401 15.3745C58.4958 16.7131 57.6829 17.4796 55.6183 19.1714C53.4623 20.9426 52.3802 21.8295 51.4511 22.3688C49.2882 23.6198 47.93 24.4055 46.1265 24.4055Z" fill="#F2F2F2"/>
<path d="M162.523 376.766C162.523 377.14 162.824 377.441 163.198 377.441H303.376C303.75 377.441 304.051 377.14 304.051 376.766C304.051 376.584 303.983 376.425 303.869 376.306H253.011C251.928 376.306 250.868 376.232 249.825 376.09H163.198C162.824 376.09 162.523 376.391 162.523 376.766Z" fill="#3F3D56"/>
<path d="M94.7977 257.21H172.836C186.057 257.21 196.775 267.947 196.775 281.191V343.902C196.775 357.146 186.057 367.883 172.836 367.883H94.7977C81.5769 367.883 70.8594 357.146 70.8594 343.902V281.191C70.8594 267.947 81.5769 257.21 94.7977 257.21Z" fill="white"/>
<path d="M70.293 343.902V281.192C70.293 267.656 81.2861 256.643 94.7982 256.643H172.837C186.349 256.643 197.342 267.656 197.342 281.192V343.902C197.342 357.438 186.349 368.451 172.837 368.451H94.7982C81.2861 368.451 70.293 357.438 70.293 343.902ZM94.7982 257.779C81.9111 257.779 71.4267 268.282 71.4267 281.192V343.902C71.4267 356.812 81.9111 367.315 94.7982 367.315H172.837C185.724 367.315 196.208 356.812 196.208 343.902V281.192C196.208 268.282 185.724 257.779 172.837 257.779H94.7982Z" fill="#3F3D56"/>
<path d="M123.978 284.668H141.457L123.312 338.526C122.929 339.661 121.867 340.425 120.671 340.425H107.068C105.531 340.425 104.285 339.177 104.285 337.638C104.285 337.335 104.334 337.034 104.431 336.746L121.337 286.567C121.719 285.431 122.782 284.667 123.978 284.667L123.978 284.668Z" fill="url(#paint0_linear_870_1162)"/>
<path d="M149.381 320.792H121.663C120.955 320.791 120.38 321.365 120.379 322.075C120.379 322.432 120.526 322.773 120.787 323.017L138.598 339.67C139.117 340.155 139.8 340.424 140.509 340.424H156.204L149.381 320.792Z" fill="#0078D4"/>
<path d="M123.979 284.668C122.768 284.663 121.696 285.447 121.332 286.604L104.453 336.7C103.935 338.148 104.686 339.742 106.131 340.261C106.434 340.37 106.754 340.426 107.077 340.425H121.031C122.089 340.235 122.964 339.49 123.32 338.475L126.686 328.537L138.709 339.771C139.213 340.189 139.845 340.419 140.499 340.425H156.135L149.277 320.792L129.285 320.797L141.521 284.668L123.979 284.668Z" fill="url(#paint1_linear_870_1162)"/>
<path d="M146.301 286.564C145.919 285.43 144.858 284.667 143.664 284.667H124.184C125.378 284.668 126.439 285.431 126.82 286.564L143.727 336.745C144.218 338.204 143.436 339.786 141.98 340.279C141.693 340.376 141.392 340.425 141.09 340.425H160.571C162.108 340.425 163.354 339.176 163.353 337.636C163.353 337.333 163.304 337.032 163.207 336.745L146.301 286.564Z" fill="url(#paint2_linear_870_1162)"/>
<path d="M24.5009 117.516H102.54C115.76 117.516 126.478 128.252 126.478 141.496V204.207C126.478 217.451 115.76 228.188 102.54 228.188H24.5009C11.2801 228.188 0.5625 217.451 0.5625 204.207V141.496C0.5625 128.252 11.2801 117.516 24.5009 117.516Z" fill="white"/>
<path d="M-0.00390625 204.208V141.497C-0.00390625 127.961 10.9892 116.948 24.5013 116.948H102.54C116.052 116.948 127.045 127.961 127.045 141.497V204.208C127.045 217.744 116.052 228.756 102.54 228.756H24.5013C10.9892 228.756 -0.00390625 217.744 -0.00390625 204.208ZM24.5013 118.084C11.6142 118.084 1.12981 128.587 1.12981 141.497V204.208C1.12981 217.118 11.6142 227.62 24.5013 227.62H102.54C115.427 227.62 125.912 217.118 125.912 204.208V141.497C125.912 128.587 115.427 118.084 102.54 118.084L24.5013 118.084Z" fill="#3F3D56"/>
<path d="M47.9348 173.812C47.9348 174.693 48.0299 175.407 48.1962 175.93C48.3862 176.454 48.6238 177.025 48.9564 177.644C49.0752 177.834 49.1227 178.025 49.1227 178.191C49.1227 178.429 48.9802 178.667 48.6713 178.905L47.1746 179.905C46.9607 180.048 46.7469 180.119 46.5569 180.119C46.3193 180.119 46.0817 180 45.8441 179.786C45.5115 179.429 45.2264 179.048 44.9888 178.667C44.7513 178.263 44.5137 177.81 44.2523 177.263C42.3992 179.453 40.0709 180.547 37.2675 180.547C35.2718 180.547 33.68 179.976 32.5159 178.834C31.3518 177.691 30.7578 176.168 30.7578 174.264C30.7578 172.241 31.4706 170.599 32.9198 169.361C34.369 168.124 36.2934 167.505 38.7405 167.505C39.5483 167.505 40.3798 167.576 41.2588 167.695C42.1379 167.814 43.0407 168.005 43.991 168.219V166.482C43.991 164.673 43.6109 163.411 42.8744 162.674C42.1141 161.936 40.8312 161.579 39.0018 161.579C38.1703 161.579 37.315 161.674 36.436 161.888C35.5569 162.102 34.7016 162.364 33.8701 162.697C33.49 162.864 33.2049 162.959 33.0386 163.007C32.8723 163.054 32.7535 163.078 32.6584 163.078C32.3258 163.078 32.1595 162.84 32.1595 162.34V161.174C32.1595 160.793 32.207 160.508 32.3258 160.341C32.4446 160.174 32.6584 160.008 32.9911 159.841C33.8226 159.413 34.8204 159.056 35.9846 158.77C37.1487 158.461 38.3841 158.318 39.6908 158.318C42.518 158.318 44.5849 158.961 45.9154 160.246C47.2221 161.531 47.8873 163.483 47.8873 166.101V173.812L47.9348 173.812ZM38.2891 177.43C39.0731 177.43 39.8809 177.287 40.7362 177.001C41.5914 176.716 42.3517 176.192 42.9932 175.478C43.3733 175.026 43.6584 174.526 43.8009 173.955C43.9435 173.384 44.0385 172.693 44.0385 171.884V170.885C43.3495 170.718 42.613 170.575 41.8528 170.48C41.0925 170.385 40.356 170.337 39.6195 170.337C38.0278 170.337 36.8636 170.647 36.0796 171.289C35.2956 171.932 34.9155 172.836 34.9155 174.026C34.9155 175.145 35.2006 175.978 35.7945 176.549C36.3647 177.144 37.1962 177.43 38.2891 177.43ZM57.3667 180C56.9391 180 56.654 179.929 56.4639 179.762C56.2739 179.619 56.1076 179.286 55.965 178.834L50.3819 160.436C50.2393 159.96 50.1681 159.651 50.1681 159.484C50.1681 159.104 50.3581 158.889 50.7383 158.889H53.0665C53.5179 158.889 53.8268 158.961 53.9931 159.127C54.1832 159.27 54.3257 159.603 54.4683 160.056L58.4596 175.811L62.1658 160.056C62.2846 159.58 62.4272 159.27 62.6172 159.127C62.8073 158.985 63.1399 158.889 63.5676 158.889H65.4682C65.9196 158.889 66.2285 158.961 66.4185 159.127C66.6086 159.27 66.7749 159.603 66.8699 160.056L70.6237 176.002L74.7338 160.056C74.8763 159.58 75.0427 159.27 75.209 159.127C75.399 158.985 75.7079 158.889 76.1355 158.889H78.345C78.7251 158.889 78.939 159.08 78.939 159.484C78.939 159.603 78.9152 159.722 78.8915 159.865C78.8677 160.008 78.8202 160.198 78.7251 160.46L72.9995 178.858C72.8569 179.334 72.6906 179.643 72.5006 179.786C72.3105 179.929 72.0016 180.024 71.5978 180.024H69.5546C69.1032 180.024 68.7943 179.952 68.6042 179.786C68.4142 179.619 68.2479 179.31 68.1528 178.834L64.4704 163.483L60.8116 178.81C60.6928 179.286 60.5503 179.595 60.3602 179.762C60.1702 179.929 59.8376 180 59.4099 180L57.3667 180ZM87.8957 180.643C86.6603 180.643 85.4249 180.5 84.237 180.214C83.0491 179.929 82.1225 179.619 81.5048 179.262C81.1247 179.048 80.8634 178.81 80.7683 178.596C80.6733 178.382 80.6258 178.144 80.6258 177.929V176.716C80.6258 176.216 80.8158 175.978 81.1722 175.978C81.3148 175.978 81.4573 176.002 81.5999 176.049C81.7424 176.097 81.9562 176.192 82.1938 176.287C83.0016 176.644 83.8806 176.93 84.8072 177.12C85.7575 177.311 86.6841 177.406 87.6344 177.406C89.1311 177.406 90.2953 177.144 91.103 176.62C91.9108 176.097 92.3385 175.335 92.3385 174.359C92.3385 173.693 92.1246 173.146 91.697 172.693C91.2693 172.241 90.4616 171.837 89.2974 171.456L85.8525 170.385C84.1182 169.837 82.8353 169.028 82.0513 167.957C81.2673 166.91 80.8634 165.744 80.8634 164.506C80.8634 163.507 81.0772 162.626 81.5048 161.864C81.9325 161.103 82.5027 160.436 83.2154 159.913C83.9281 159.365 84.7359 158.961 85.6862 158.675C86.6365 158.39 87.6344 158.271 88.6797 158.271C89.2024 158.271 89.7488 158.294 90.2715 158.366C90.818 158.437 91.3169 158.532 91.8158 158.628C92.2909 158.747 92.7423 158.866 93.17 159.008C93.5976 159.151 93.9303 159.294 94.1678 159.437C94.5004 159.627 94.738 159.818 94.8806 160.032C95.0231 160.222 95.0944 160.484 95.0944 160.817V161.936C95.0944 162.436 94.9043 162.697 94.548 162.697C94.3579 162.697 94.049 162.602 93.6452 162.412C92.291 161.793 90.7705 161.484 89.0836 161.484C87.7294 161.484 86.6603 161.698 85.9238 162.15C85.1873 162.602 84.8072 163.292 84.8072 164.268C84.8072 164.935 85.0448 165.506 85.5199 165.958C85.9951 166.41 86.8742 166.862 88.1333 167.267L91.507 168.338C93.2175 168.885 94.453 169.647 95.1894 170.623C95.9259 171.599 96.2823 172.717 96.2823 173.955C96.2823 174.978 96.0685 175.906 95.6646 176.716C95.237 177.525 94.6668 178.239 93.9303 178.81C93.1938 179.405 92.3147 179.833 91.2931 180.143C90.224 180.476 89.1074 180.643 87.8957 180.643Z" fill="#252F3E"/>
<path fill-rule="evenodd" clip-rule="evenodd" d="M92.3864 192.209C84.5701 197.993 73.2138 201.063 63.4492 201.063C49.7647 201.063 37.4343 195.994 28.1211 187.568C27.3847 186.902 28.0499 185.998 28.9289 186.521C39.0023 192.376 51.4277 195.922 64.2808 195.922C72.9524 195.922 82.4794 194.113 91.2461 190.401C92.5528 189.806 93.6694 191.257 92.3864 192.209Z" fill="#FF9900"/>
<path fill-rule="evenodd" clip-rule="evenodd" d="M95.6391 188.496C94.6413 187.211 89.0344 187.878 86.4923 188.187C85.732 188.282 85.6133 187.616 86.3022 187.116C90.7687 183.974 98.1099 184.879 98.9652 185.926C99.8205 186.997 98.7276 194.351 94.5462 197.874C93.9048 198.421 93.2871 198.135 93.5722 197.421C94.5225 195.065 96.637 189.758 95.6391 188.496Z" fill="#FF9900"/>
<path d="M242.859 159.281C242.292 158.713 237.757 146.788 237.757 146.788L226.987 146.22L222.059 157.859L242.859 159.281Z" fill="#FFB6B6"/>
<path d="M227.58 151.714C235.586 151.714 242.077 145.211 242.077 137.19C242.077 129.169 235.586 122.667 227.58 122.667C219.573 122.667 213.082 129.169 213.082 137.19C213.082 145.211 219.573 151.714 227.58 151.714Z" fill="#FFB6B6"/>
<path d="M255.044 237.93L260.146 254.966L246.542 353.774H237.331L232.37 279.384L226.702 304.938L255.611 341.849L248.242 350.367L206.578 309.764L207.428 247.015L210.83 237.362L255.044 237.93Z" fill="#2F2E41"/>
<path d="M239.729 149.121L238.596 149.177C238.596 149.177 237.584 140.13 236.99 139.591C236.396 139.052 235.319 140.242 235.319 140.242C235.319 140.242 230.65 137.63 230.511 134.794C230.371 131.958 230.26 129.689 228.561 129.773C226.863 129.857 217.349 132.601 215.085 132.713C212.82 132.824 209.228 129.022 213.024 125.423C216.819 121.824 220.161 120.522 220.699 119.927C221.237 119.332 224.781 116.883 227.877 119.004C230.974 121.126 234.937 120.93 234.937 120.93C234.937 120.93 242.381 122.269 241.416 125.728C240.451 129.186 244.183 135.825 242.651 139.312C241.12 142.799 239.729 149.121 239.729 149.121Z" fill="#2F2E41"/>
<path d="M236.909 352.07L247.112 353.206L248.246 371.946C248.246 371.946 247.679 381.031 238.043 379.896C228.406 378.76 231.24 369.674 231.24 369.674L236.909 352.07Z" fill="#2F2E41"/>
<path d="M250.227 338.726C250.227 338.726 257.596 335.319 258.73 339.294L260.997 347.244C260.997 347.244 260.997 355.194 261.564 355.762C262.131 356.33 272.901 371.094 263.265 379.044C263.265 379.044 258.163 379.612 255.329 371.662C252.495 363.712 243.992 355.762 243.992 355.762C243.992 355.762 242.345 351.787 245.152 352.071C247.96 352.355 251.928 345.54 250.794 343.269C249.66 340.997 250.227 338.726 250.227 338.726Z" fill="#2F2E41"/>
<path d="M156.637 264.537C153.999 263.424 153.277 259.157 155.023 255.004C155.697 253.336 156.761 251.853 158.125 250.681L160.162 246L160.089 245.951L165.947 222.565C167.309 217.127 171.059 212.54 176.209 210.346C179.272 209.041 182.179 208.805 183.024 211.932C184.427 217.121 175.291 233.835 169.783 243.24L165.491 253.789C165.607 255.586 165.292 257.385 164.571 259.035C162.827 263.186 159.274 265.65 156.637 264.537Z" fill="#FFB6B6"/>
<path d="M222.451 155.874L241.157 156.441L259.296 164.391L256.462 211.524C256.462 211.524 259.863 222.314 258.163 224.017C256.462 225.721 258.163 233.358 257.029 233.514C255.895 233.671 257.029 241.885 257.029 241.885C257.029 241.885 241.157 236.51 227.552 239.917C213.948 243.324 209.413 237.646 209.413 237.646C209.413 237.646 206.012 224.017 206.012 221.178V163.117L222.451 155.874Z" fill="#6E70FF"/>
<path d="M209.128 162.972C209.128 162.972 201.192 160.701 197.224 166.379C193.256 172.058 190.989 172.058 190.989 179.44C190.989 179.44 167.748 212.376 168.881 215.783L163.496 224.585L177.101 231.967C177.101 231.967 181.919 227.141 181.919 222.598C181.919 218.055 195.524 205.562 195.524 205.562C195.524 205.562 207.428 190.23 207.994 184.551C208.561 178.872 209.128 162.972 209.128 162.972Z" fill="#6E70FF"/>
<path d="M279.024 267.432H357.063C370.284 267.432 381.001 278.169 381.001 291.413V354.124C381.001 367.368 370.284 378.105 357.063 378.105H279.024C265.804 378.105 255.086 367.368 255.086 354.124V291.413C255.086 278.169 265.804 267.432 279.024 267.432Z" fill="white"/>
<path d="M253.949 353.556V290.846C253.949 277.309 264.942 266.297 278.454 266.297H356.493C370.005 266.297 380.998 277.309 380.998 290.846V353.556C380.998 367.092 370.005 378.105 356.493 378.105H278.454C264.942 378.105 253.949 367.092 253.949 353.556ZM278.454 267.433C265.567 267.433 255.083 277.936 255.083 290.846V353.556C255.083 366.466 265.567 376.969 278.454 376.969H356.493C369.38 376.969 379.865 366.466 379.865 353.556V290.846C379.865 277.936 369.38 267.433 356.493 267.433H278.454Z" fill="#3F3D56"/>
<path d="M327.972 311.278H329.897L335.386 305.78L335.655 303.446C325.441 294.415 309.852 295.388 300.837 305.621C298.332 308.463 296.514 311.844 295.523 315.503C296.135 315.252 296.812 315.211 297.449 315.387L308.426 313.574C308.426 313.574 308.984 312.648 309.273 312.706C314.156 307.334 322.373 306.708 328.01 311.278L327.972 311.278Z" fill="#EA4335"/>
<path d="M343.208 315.503C341.946 310.849 339.356 306.666 335.755 303.465L328.052 311.182C331.305 313.844 333.158 317.855 333.078 322.062V323.432C336.865 323.432 339.934 326.507 339.934 330.299C339.934 334.092 336.865 337.167 333.078 337.167H319.367L318 338.556V346.794L319.367 348.163H333.078C342.926 348.24 350.972 340.305 351.049 330.439C351.095 324.46 348.152 318.853 343.208 315.503Z" fill="#4285F4"/>
<path d="M305.636 348.086H319.347V337.09H305.636C304.659 337.09 303.694 336.88 302.805 336.473L300.879 337.071L295.353 342.569L294.871 344.498C297.97 346.843 301.752 348.103 305.636 348.086Z" fill="#34A853"/>
<path d="M305.636 312.416C295.788 312.475 287.852 320.521 287.91 330.386C287.943 335.895 290.512 341.081 294.871 344.44L302.824 336.472C299.374 334.911 297.84 330.843 299.399 327.386C300.958 323.93 305.019 322.394 308.469 323.955C309.99 324.643 311.207 325.863 311.894 327.386L319.848 319.419C316.464 314.987 311.205 312.396 305.636 312.416Z" fill="#FBBC05"/>
<path d="M270.684 277.386C273.541 277.236 275.667 273.468 275.432 268.968C275.362 267.169 274.864 265.413 273.978 263.847L273.648 258.751L273.733 258.73L276.146 234.74C276.707 229.162 274.734 223.572 270.633 219.757C268.193 217.488 265.539 216.278 263.684 218.932C260.607 223.336 263.538 242.165 265.533 252.884L265.996 264.266C265.278 265.917 264.965 267.716 265.084 269.513C265.319 274.011 267.826 277.536 270.684 277.386Z" fill="#FFB6B6"/>
<path d="M255.715 164.003C255.715 164.003 263.95 164.564 265.758 171.255C267.567 177.946 269.7 178.717 267.199 185.661C267.199 185.661 277.902 224.544 275.681 227.363L277.765 237.474L262.467 239.792C262.467 239.792 259.57 233.614 261.109 229.34C262.648 225.067 254.083 208.69 254.083 208.69C254.083 208.69 248.08 190.221 249.471 184.686C250.861 179.152 255.715 164.003 255.715 164.003Z" fill="#6E70FF"/>
</g>
<defs>
<linearGradient id="paint0_linear_870_1162" x1="130.348" y1="288.799" x2="112.138" y2="342.503" gradientUnits="userSpaceOnUse">
<stop stop-color="#114A8B"/>
<stop offset="1" stop-color="#0669BC"/>
</linearGradient>
<linearGradient id="paint1_linear_870_1162" x1="136.02" y1="313.835" x2="131.819" y2="315.253" gradientUnits="userSpaceOnUse">
<stop stop-opacity="0.3"/>
<stop offset="0.071" stop-opacity="0.2"/>
<stop offset="0.321" stop-opacity="0.1"/>
<stop offset="0.623" stop-opacity="0.05"/>
<stop offset="1" stop-opacity="0"/>
</linearGradient>
<linearGradient id="paint2_linear_870_1162" x1="133.838" y1="287.183" x2="153.826" y2="340.342" gradientUnits="userSpaceOnUse">
<stop stop-color="#3CCBF4"/>
<stop offset="1" stop-color="#2892DF"/>
</linearGradient>
<clipPath id="clip0_870_1162">
<rect width="381.001" height="379.993" fill="white"/>
</clipPath>
</defs>
</svg>
