<svg width="466" height="374" viewBox="0 0 466 374" fill="none" xmlns="http://www.w3.org/2000/svg">
<g clip-path="url(#clip0_870_1094)">
<path d="M375.408 359.883C377.056 359.987 377.967 357.938 376.72 356.744L376.596 356.251C376.612 356.211 376.629 356.172 376.645 356.132C378.313 352.156 383.963 352.184 385.615 356.166C387.083 359.7 388.95 363.24 389.41 366.977C389.616 368.627 389.524 370.307 389.158 371.926C392.595 364.415 394.404 356.213 394.404 347.965C394.404 345.893 394.291 343.821 394.059 341.754C393.868 340.063 393.606 338.382 393.265 336.717C391.425 327.717 387.442 319.144 381.695 311.984C378.933 310.473 376.629 308.112 375.237 305.282C374.737 304.262 374.346 303.164 374.16 302.045C374.475 302.086 375.346 297.297 375.108 297.003C375.547 296.338 376.331 296.008 376.809 295.359C379.189 292.132 382.468 292.695 384.179 297.081C387.836 298.927 387.871 301.988 385.627 304.932C384.2 306.805 384.004 309.339 382.752 311.344C382.88 311.509 383.014 311.669 383.143 311.834C385.506 314.865 387.55 318.123 389.272 321.546C388.785 317.742 389.504 313.159 390.73 310.205C392.125 306.839 394.739 304.005 397.042 301.095C399.808 297.599 405.479 299.125 405.966 303.556C405.971 303.598 405.975 303.641 405.98 303.684C405.638 303.877 405.303 304.082 404.976 304.299C403.109 305.534 403.754 308.428 405.966 308.77L406.016 308.777C405.892 310.009 405.681 311.231 405.372 312.432C408.326 323.858 401.948 328.019 392.843 328.206C392.642 328.31 392.446 328.413 392.245 328.511C393.167 331.109 393.904 333.774 394.451 336.475C394.94 338.862 395.281 341.274 395.471 343.697C395.708 346.754 395.688 349.826 395.43 352.878L395.445 352.77C396.1 349.409 397.924 346.269 400.574 344.094C404.52 340.852 410.095 339.658 414.353 337.051C416.402 335.797 419.028 337.418 418.671 339.794L418.653 339.908C418.019 340.166 417.401 340.465 416.803 340.8C416.461 340.993 416.126 341.198 415.799 341.414C413.932 342.649 414.577 345.544 416.789 345.885L416.839 345.893C416.875 345.898 416.906 345.903 416.942 345.909C415.855 348.491 414.339 350.888 412.443 352.955C410.596 362.93 402.663 363.876 394.178 360.971H394.172C393.245 365.013 391.889 368.962 390.147 372.725H375.768C375.717 372.565 375.67 372.4 375.624 372.24C376.954 372.323 378.294 372.245 379.603 372.003C378.536 370.694 377.469 369.374 376.402 368.065C376.376 368.039 376.356 368.013 376.335 367.987C375.794 367.317 375.248 366.652 374.706 365.982L374.706 365.981C374.672 363.924 374.919 361.873 375.408 359.883Z" fill="#F2F2F2"/>
<path d="M410.634 173.461C406.82 197.58 386.409 230.686 358.353 262.611H206.688L222.543 162.335C259.535 162.494 306.135 151.105 343.766 145.75C385.18 139.868 415.717 141.288 410.634 173.461Z" fill="#E6E6E6"/>
<path d="M129.375 262.611H49.4606C45.04 262.611 41.4492 259.02 41.4492 254.598V207.812C43.2286 205.992 45.0081 204.212 46.7635 202.472C76.5189 173.07 101.886 156.006 116.975 184.874C126.007 202.161 129.949 230.367 129.375 262.611Z" fill="#E6E6E6"/>
<path d="M455.555 0H10.4531C4.69182 0 0 4.68488 0 10.4474V159.545C0 165.068 4.31681 169.617 9.75087 169.968C9.9823 169.992 10.2137 170 10.4531 170H41.6687V168.404H10.4531C10.2137 168.404 9.9823 168.396 9.75087 168.372C5.19464 168.013 1.5959 164.19 1.5959 159.545V10.4474C1.59589 5.5629 5.56964 1.59625 10.4531 1.59625H455.555C460.438 1.59625 464.404 5.5629 464.404 10.4474V159.545C464.404 164.429 460.438 168.404 455.555 168.404H419.895V170H455.555C461.316 170 466 165.307 466 159.545V10.4474C466 4.68489 461.316 0 455.555 0Z" fill="#E6E6E6"/>
<path d="M55.2263 51.1072C60.7187 51.1072 65.1713 46.7475 65.1713 41.3695C65.1713 35.9915 60.7187 31.6318 55.2263 31.6318C49.7338 31.6318 45.2812 35.9915 45.2812 41.3695C45.2812 46.7475 49.7338 51.1072 55.2263 51.1072Z" fill="#6E70FF"/>
<path d="M134.951 38.0381H81.4204C79.584 38.0381 78.0898 36.5436 78.0898 34.7068C78.0898 32.87 79.584 31.3755 81.4204 31.3755H134.951C136.787 31.3755 138.281 32.87 138.281 34.7068C138.281 36.5436 136.787 38.0381 134.951 38.0381Z" fill="#F2F2F2"/>
<path d="M176.726 49.3135H81.4204C79.584 49.3135 78.0898 47.819 78.0898 45.9822C78.0898 44.1454 79.584 42.6509 81.4204 42.6509H176.726C178.562 42.6509 180.056 44.1454 180.056 45.9822C180.056 47.819 178.562 49.3135 176.726 49.3135Z" fill="#F2F2F2"/>
<path d="M314.637 86.2256C308.317 86.2256 303.176 81.083 303.176 74.7615C303.176 68.4405 308.317 63.2979 314.637 63.2979C320.957 63.2979 326.098 68.4405 326.098 74.7615C326.098 81.083 320.957 86.2256 314.637 86.2256ZM314.637 64.8941C309.197 64.8941 304.772 69.3208 304.772 74.7615C304.772 80.2026 309.197 84.6293 314.637 84.6293C320.077 84.6293 324.503 80.2026 324.503 74.7615C324.503 69.3208 320.077 64.8941 314.637 64.8941Z" fill="#3F3D56"/>
<path d="M354.243 86.2256C347.923 86.2256 342.781 81.083 342.781 74.7615C342.781 68.4405 347.923 63.2979 354.243 63.2979C360.563 63.2979 365.704 68.4405 365.704 74.7615C365.704 81.083 360.563 86.2256 354.243 86.2256ZM354.243 64.8941C348.803 64.8941 344.377 69.3208 344.377 74.7615C344.377 80.2026 348.803 84.6293 354.243 84.6293C359.683 84.6293 364.108 80.2026 364.108 74.7615C364.108 69.3208 359.683 64.8941 354.243 64.8941Z" fill="#3F3D56"/>
<path d="M354.242 80.8565C357.607 80.8565 360.335 78.1278 360.335 74.7618C360.335 71.3957 357.607 68.667 354.242 68.667C350.877 68.667 348.148 71.3957 348.148 74.7618C348.148 78.1278 350.877 80.8565 354.242 80.8565Z" fill="#6E70FF"/>
<path d="M393.852 86.2256C387.532 86.2256 382.391 81.083 382.391 74.7615C382.391 68.4405 387.532 63.2979 393.852 63.2979C400.172 63.2979 405.313 68.4405 405.313 74.7615C405.313 81.083 400.172 86.2256 393.852 86.2256ZM393.852 64.8941C388.412 64.8941 383.987 69.3208 383.987 74.7615C383.987 80.2026 388.412 84.6293 393.852 84.6293C399.292 84.6293 403.717 80.2026 403.717 74.7615C403.717 69.3208 399.292 64.8941 393.852 64.8941Z" fill="#3F3D56"/>
<path d="M365.001 262.611H159.711C154.091 226.044 135.562 181.781 124.397 145.44C112.115 105.449 108.747 75.0518 141.315 75.0518C176.123 75.0518 234.226 105.522 282.505 145.44C326.697 181.964 362.664 226.398 365.001 262.611Z" fill="#F2F2F2"/>
<path d="M411.665 263.409H49.4617C44.6043 263.409 40.6523 259.457 40.6523 254.598V117.385C40.6523 112.526 44.6043 108.573 49.4617 108.573H411.665C416.522 108.573 420.474 112.526 420.474 117.385V254.598C420.474 259.457 416.522 263.409 411.665 263.409ZM49.4617 110.169C45.484 110.169 42.2482 113.406 42.2482 117.385V254.598C42.2482 258.576 45.484 261.813 49.4617 261.813H411.665C415.643 261.813 418.878 258.576 418.878 254.598V117.385C418.878 113.406 415.643 110.169 411.665 110.169H49.4617Z" fill="#3F3D56"/>
<path d="M327.286 366.601L333.505 366.6L336.464 342.607L327.285 342.608L327.286 366.601Z" fill="#FFB6B6"/>
<path d="M304.806 366.601L311.025 366.6L313.983 342.607L304.805 342.608L304.806 366.601Z" fill="#FFB6B6"/>
<path d="M291.66 227.822L300.084 294.881L304.672 353.621H315.275L320.73 293.963L319.813 250.367L326.236 292.127L324.986 353.621H336.778L346.882 293.045L346.037 223.665L291.66 227.822Z" fill="#2F2E41"/>
<path d="M327.153 121.414H308.945L303.295 129.097L288.613 135.926L297.331 189.282L291.366 228.979C291.366 228.979 333.117 241.785 346.882 225.991C348.391 223.998 348.563 221.758 346.303 219.068L343.67 187.575L344.129 132.938L329.906 127.816L327.153 121.414Z" fill="#6E70FF"/>
<path d="M278.263 224.964L282.062 209.643L291.115 210.593L286.523 226.648C286.742 227.108 286.9 227.608 286.979 228.138C287.413 231.024 285.426 233.715 282.541 234.149C279.656 234.583 276.966 232.595 276.532 229.71C276.255 227.869 276.966 226.111 278.263 224.964Z" fill="#FFB6B6"/>
<path d="M293.464 134.671L286.731 136.4C284.397 136.6 280.45 151.985 282.371 155.319C282.371 155.319 279.407 182.326 281.029 184.87C282.651 187.414 279.109 218.243 279.109 218.243L291.361 218.307L300.89 159.053L292.367 141.409C292.271 138.432 296.43 134.417 293.464 134.671Z" fill="#6E70FF"/>
<path d="M348.435 83.9987L352.461 98.4331L361.026 97.2831L356.227 82.1736C356.422 81.7307 356.558 81.2524 356.619 80.7467C356.951 77.9965 354.992 75.4975 352.242 75.1652C349.492 74.8328 346.994 76.7929 346.662 79.5431C346.45 81.297 347.172 82.9459 348.435 83.9987Z" fill="#FFB6B6"/>
<path d="M330.545 143.333C331.454 146.797 334.838 149.015 338.374 148.446C343.912 147.554 351.637 145.617 355.246 141.528L366.219 133.954L369.562 131.011C371.394 129.397 372.061 126.832 371.246 124.53L358.122 87.459L347.957 90.5316L356.915 117.091L357.434 117.352C352.697 118.498 345.208 125.082 343.071 128.526C338.55 128.003 335.572 131.374 333.091 135.999C330.833 137.7 329.827 140.598 330.545 143.333Z" fill="#6E70FF"/>
<path d="M317.942 119.281C326.563 119.281 333.552 112.291 333.552 103.668C333.552 95.0446 326.563 88.0542 317.942 88.0542C309.321 88.0542 302.332 95.0446 302.332 103.668C302.332 112.291 309.321 119.281 317.942 119.281Z" fill="#FFB6B6"/>
<path d="M329.904 93.8797C329.434 96.1464 332.482 99.0276 332.011 101.286C331.7 102.819 331.333 104.431 330.168 105.58C329.082 106.642 327.463 107.129 326.274 108.094C324.67 109.395 324.008 111.55 324.638 113.402C325.061 114.623 325.986 115.908 325.907 117.089C325.891 117.384 325.811 117.68 325.635 117.959C324.917 119.164 323.098 119.308 321.582 119.308H313.993C308.456 119.3 303.62 115.653 301.992 110.353C301.745 109.563 301.49 108.821 301.218 108.174C300.125 105.572 299.327 102.867 298.848 100.121C298.394 97.5591 300.859 96.2981 301.92 93.8797C303.077 91.222 302.982 87.7501 305.814 86.4731C308.647 85.1882 311.647 87.0558 314.767 86.537L314.887 86.513C318.613 85.8426 322.627 82.9215 326.274 83.8074C328.372 84.3182 330.383 85.3957 331.803 86.8562C330.798 87.383 329.721 87.7501 328.612 87.9497C330.104 87.9258 331.612 88.1253 333.056 88.5403C333.439 89.2346 333.695 89.9929 333.782 90.783C333.918 91.9643 330.495 92.5948 329.96 93.7121C329.936 93.768 329.912 93.8238 329.904 93.8797Z" fill="#2F2E41"/>
<path d="M391.552 80.0457C391.335 80.0457 391.118 79.9573 390.961 79.7835C390.665 79.4565 390.689 78.9518 391.017 78.656L395.444 74.6459L391.436 70.2173C391.14 69.8907 391.166 69.386 391.492 69.0903C391.819 68.7945 392.324 68.8194 392.619 69.1464L397.163 74.1666C397.459 74.4932 397.434 74.9978 397.107 75.2936L392.087 79.8392C391.935 79.9775 391.743 80.0457 391.552 80.0457Z" fill="#3F3D56"/>
<path d="M317.02 80.0457C316.829 80.0457 316.638 79.9775 316.485 79.8392L311.466 75.2936C311.139 74.9978 311.114 74.4932 311.41 74.1666L315.954 69.1464C316.249 68.8194 316.754 68.7945 317.08 69.0903C317.407 69.386 317.433 69.8907 317.136 70.2173L313.128 74.6459L317.556 78.656C317.883 78.9518 317.908 79.4565 317.612 79.7835C317.454 79.9573 317.238 80.0457 317.02 80.0457Z" fill="#3F3D56"/>
<path d="M349.339 367.468C349.28 368.734 347.801 371.879 346.588 372.243C342.942 373.336 325.572 372.857 324.907 370.421C323.277 371.927 324.872 358.258 326.901 360.009C331.051 363.592 333.947 361.946 334.52 359.046L335.209 357.294L335.343 357.491C335.762 358.105 334.72 356.261 335.462 356.217C335.548 356.212 337.48 360.115 338.105 360.553L338.154 360.633C339.825 363.327 342.897 364.818 346.047 364.464C347.023 364.355 348.037 364.676 348.662 365.434C349.117 365.987 349.375 366.703 349.339 367.468Z" fill="#2F2E41"/>
<path d="M326.999 367.468C326.94 368.734 325.462 371.879 324.248 372.243C320.602 373.336 303.232 372.857 302.568 370.421C300.937 371.927 302.532 358.258 304.561 360.009C308.711 363.592 311.608 361.946 312.18 359.046L312.869 357.294L313.003 357.491C313.422 358.105 312.38 356.261 313.122 356.217C313.208 356.212 315.14 360.115 315.765 360.553L315.814 360.633C317.485 363.327 320.557 364.818 323.707 364.464C324.683 364.355 325.697 364.676 326.322 365.434C326.777 365.987 327.035 366.703 326.999 367.468Z" fill="#2F2E41"/>
<path d="M221.949 373.05C221.949 373.577 222.372 374 222.899 374H425.01C425.537 374 425.96 373.577 425.96 373.05C425.96 372.524 425.537 372.101 425.01 372.101H222.899C222.372 372.101 221.949 372.524 221.949 373.05Z" fill="#CCCCCC"/>
</g>
<defs>
<clipPath id="clip0_870_1094">
<rect width="466" height="374" fill="white"/>
</clipPath>
</defs>
</svg>
