<svg width="447" height="380" viewBox="0 0 447 380" fill="none" xmlns="http://www.w3.org/2000/svg">
<g clip-path="url(#clip0_867_448)">
<path d="M36.979 367.223C59.5208 381.694 87.6816 380.96 114.757 377.569C118.538 377.096 122.29 376.577 126.005 376.036C126.027 376.029 126.057 376.03 126.079 376.023C126.258 375.996 126.437 375.969 126.608 375.95C127.375 375.836 128.142 375.722 128.901 375.608L128.739 375.962L128.231 377.061C128.415 376.693 128.6 376.332 128.784 375.963C128.838 375.852 128.899 375.742 128.953 375.631C135.332 362.988 141.629 349.898 142.655 335.799C143.712 321.166 137.649 304.988 124.483 298.536C122.756 297.692 120.941 297.044 119.071 296.604C118.294 296.412 117.509 296.266 116.716 296.141C108.425 294.912 99.5462 297.413 93.3767 303.139C85.2163 310.728 82.3629 323.496 86.5084 333.844C75.0722 323.309 76.1201 305.16 79.0444 289.881C81.976 274.602 85.6045 257.58 77.2564 244.45C72.6153 237.141 64.9166 232.867 56.4584 231.435C56.199 231.393 55.94 231.352 55.6806 231.318C45.8635 229.863 35.1228 232.185 26.9694 237.968C11.5347 248.908 4.35893 268.459 2.70536 287.319C0.0391672 317.669 11.3502 350.769 36.979 367.223Z" fill="#F2F2F2"/>
<path d="M41.3765 318.564C42.3649 325.173 44.3111 331.603 47.1536 337.65C49.7611 342.997 53.1526 347.923 57.2156 352.265C65.5206 361.232 76.2131 367.734 87.6656 371.831C96.4178 374.878 105.52 376.806 114.755 377.569C118.536 377.096 122.287 376.577 126.002 376.036C126.025 376.029 126.054 376.03 126.077 376.023C126.256 375.996 126.434 375.969 126.605 375.95C127.372 375.836 128.139 375.722 128.899 375.608L128.737 375.962L128.229 377.061C128.413 376.693 128.597 376.332 128.781 375.963C128.835 375.852 128.897 375.742 128.95 375.631C121.708 369.15 116.123 361.025 112.664 351.939C109.205 342.852 107.972 333.068 109.07 323.407C110.246 313.809 113.672 304.625 119.068 296.604C118.291 296.412 117.506 296.266 116.714 296.141C114.668 299.283 112.904 302.599 111.441 306.052C106.191 318.367 105.042 332.047 108.165 345.067C111.05 356.845 117.234 367.555 125.989 375.939C125.261 375.928 124.526 375.908 123.807 375.881C110.177 375.464 96.4801 373.277 83.8519 367.963C73.1857 363.484 63.391 356.589 56.0821 347.564C48.0743 337.68 44.1225 325.484 42.8798 312.939C41.5551 299.508 42.5613 285.714 44.9248 272.455C47.3354 258.863 51.3988 245.617 57.0244 233.013C57.15 232.727 57.161 232.404 57.0552 232.11C56.9494 231.816 56.7348 231.575 56.4559 231.435C56.2221 231.295 55.9426 231.253 55.6781 231.318C55.5492 231.36 55.4314 231.43 55.3334 231.524C55.2354 231.617 55.1598 231.732 55.1122 231.859C54.4183 233.416 53.7389 234.973 53.0894 236.546C47.6798 249.644 43.9172 263.365 41.8879 277.393C39.9133 290.926 39.2295 305.008 41.3765 318.564Z" fill="white"/>
<path d="M309.693 90.2821H307.608V33.0979C307.608 24.3198 304.123 15.9012 297.921 9.69416C291.719 3.4871 283.307 2.89737e-06 274.536 0H153.478C144.706 0 136.295 3.48709 130.093 9.69416C123.891 15.9012 120.406 24.3198 120.406 33.0979V346.82C120.406 355.598 123.891 364.017 130.093 370.224C136.295 376.431 144.706 379.918 153.478 379.918H274.536C283.307 379.918 291.719 376.431 297.921 370.224C304.123 364.017 307.607 355.598 307.607 346.82V130.987H309.693L309.693 90.2821Z" fill="#3F3D56"/>
<path d="M275.871 8.60791H260.07C260.796 10.3911 261.074 12.3257 260.877 14.2415C260.681 16.1572 260.017 17.9952 258.943 19.5935C257.87 21.1918 256.42 22.5014 254.722 23.4068C253.024 24.3123 251.129 24.7858 249.205 24.7858H179.852C177.927 24.7857 176.033 24.312 174.335 23.4065C172.636 22.5009 171.187 21.1914 170.114 19.5931C169.04 17.9948 168.376 16.1569 168.18 14.2412C167.984 12.3256 168.261 10.391 168.988 8.60791H154.229C150.985 8.60791 147.774 9.24724 144.777 10.4894C141.781 11.7316 139.058 13.5522 136.765 15.8474C134.472 18.1426 132.652 20.8674 131.411 23.8663C130.17 26.8651 129.531 30.0792 129.531 33.3251V346.592C129.531 353.147 132.133 359.434 136.765 364.069C141.397 368.705 147.678 371.309 154.229 371.309H275.871C282.421 371.309 288.703 368.705 293.334 364.069C297.966 359.434 300.568 353.147 300.568 346.592V33.3246C300.568 26.7693 297.966 20.4825 293.334 15.8472C288.702 11.212 282.421 8.60791 275.871 8.60791Z" fill="white"/>
<path d="M434.358 373.353C425.585 379.678 414.216 379.996 403.227 379.219C401.693 379.11 400.169 378.983 398.659 378.846C398.65 378.844 398.638 378.845 398.629 378.842C398.557 378.835 398.484 378.828 398.414 378.824C398.103 378.795 397.791 378.766 397.483 378.737L397.555 378.876L397.784 379.308C397.702 379.163 397.62 379.022 397.538 378.877C397.513 378.834 397.486 378.791 397.462 378.747C394.616 373.789 391.792 368.649 391.072 362.988C390.327 357.111 392.42 350.458 397.587 347.569C398.265 347.192 398.983 346.891 399.727 346.672C400.036 346.578 400.349 346.502 400.666 346.435C402.604 346.004 404.622 346.098 406.512 346.706C408.402 347.315 410.096 348.416 411.419 349.897C412.743 351.378 413.649 353.184 414.043 355.132C414.438 357.079 414.307 359.096 413.664 360.976C418.045 356.48 417.228 349.186 415.717 343.09C414.203 336.994 412.37 330.211 415.449 324.736C417.161 321.689 420.172 319.798 423.551 319.036C423.654 319.014 423.758 318.991 423.862 318.972C427.887 318.156 432.072 318.89 435.581 321.027C442.041 325.101 445.36 332.827 446.437 340.394C448.172 352.571 444.332 366.162 434.358 373.353Z" fill="#F2F2F2"/>
<path d="M431.528 353.832C431.273 356.518 430.629 359.153 429.614 361.653C428.679 363.865 427.419 365.925 425.876 367.764C422.667 371.523 418.603 374.456 414.026 376.315C410.564 377.734 406.936 378.71 403.23 379.219C401.695 379.11 400.172 378.983 398.662 378.846C398.653 378.843 398.641 378.844 398.632 378.842C398.559 378.835 398.486 378.828 398.417 378.824C398.105 378.795 397.794 378.766 397.485 378.736L397.558 378.876L397.787 379.308C397.705 379.163 397.622 379.021 397.54 378.877C397.516 378.833 397.489 378.79 397.465 378.747C400.244 375.976 402.318 372.579 403.515 368.84C404.712 365.102 404.996 361.131 404.343 357.26C403.66 353.416 402.08 349.788 399.73 346.672C400.039 346.578 400.352 346.502 400.669 346.434C401.562 347.656 402.345 348.955 403.01 350.315C405.394 355.166 406.155 360.655 405.179 365.972C404.272 370.783 402.012 375.236 398.665 378.807C398.958 378.786 399.254 378.762 399.544 378.736C405.029 378.27 410.504 377.09 415.479 374.673C419.732 372.657 423.424 369.625 426.23 365.844C429.244 361.685 430.571 356.682 430.799 351.598C430.975 346.12 430.401 340.644 429.094 335.321C427.827 329.894 425.901 324.643 423.358 319.684C423.302 319.572 423.29 319.442 423.326 319.321C423.363 319.2 423.444 319.098 423.553 319.036C423.645 318.974 423.756 318.951 423.864 318.972C423.917 318.986 423.966 319.011 424.008 319.047C424.049 319.083 424.082 319.127 424.104 319.177C424.418 319.79 424.726 320.403 425.022 321.023C427.487 326.186 429.303 331.635 430.426 337.246C431.517 342.658 432.099 348.321 431.528 353.832Z" fill="white"/>
<path d="M446.454 379.96H0.545788C0.401036 379.96 0.262212 379.903 0.159857 379.8C0.057502 379.698 0 379.559 0 379.414C0 379.269 0.057502 379.13 0.159857 379.028C0.262212 378.925 0.401036 378.868 0.545788 378.868H446.454C446.599 378.868 446.738 378.925 446.84 379.028C446.943 379.13 447 379.269 447 379.414C447 379.559 446.943 379.698 446.84 379.8C446.738 379.903 446.599 379.96 446.454 379.96Z" fill="#3F3D56"/>
<path d="M349.093 373.782L342.402 373.781L339.219 347.951L349.095 347.952L349.093 373.782Z" fill="#FFB8B8"/>
<path d="M337.621 371.868H350.526V380H329.496C329.496 378.932 329.706 377.875 330.115 376.888C330.523 375.901 331.121 375.005 331.876 374.25C332.63 373.495 333.526 372.896 334.512 372.487C335.498 372.078 336.554 371.868 337.621 371.868Z" fill="#2F2E41"/>
<path d="M374.199 373.782L367.508 373.781L364.324 347.951L374.2 347.952L374.199 373.782Z" fill="#FFB8B8"/>
<path d="M362.727 371.868H375.631V380H354.602C354.602 378.932 354.812 377.875 355.22 376.888C355.628 375.901 356.227 375.005 356.981 374.25C357.736 373.495 358.632 372.896 359.617 372.487C360.603 372.078 361.66 371.868 362.727 371.868Z" fill="#2F2E41"/>
<path d="M373.383 296.852C372.662 296.388 372.052 295.771 371.595 295.045C371.138 294.32 370.845 293.502 370.738 292.651C370.63 291.8 370.711 290.936 370.974 290.119C371.236 289.303 371.674 288.554 372.257 287.925L367.852 225.35L380.543 226.582L380.891 287.861C381.882 288.912 382.453 290.289 382.496 291.733C382.54 293.177 382.053 294.586 381.127 295.694C380.202 296.802 378.902 297.532 377.475 297.746C376.048 297.959 374.592 297.641 373.383 296.852Z" fill="#FFB8B8"/>
<path d="M348.778 360.769L341.412 360.417C340.784 360.388 340.192 360.118 339.757 359.665C339.322 359.211 339.077 358.608 339.073 357.979L338.559 283.389C338.556 283.034 338.63 282.684 338.776 282.361C338.921 282.038 339.134 281.751 339.401 281.518C339.668 281.286 339.982 281.113 340.321 281.013C340.66 280.913 341.017 280.888 341.368 280.938L370.837 285.22C371.419 285.301 371.952 285.59 372.339 286.034C372.725 286.477 372.938 287.046 372.94 287.634L376.73 356.75C376.732 357.075 376.671 357.396 376.548 357.697C376.426 357.997 376.245 358.27 376.017 358.501C375.789 358.731 375.517 358.914 375.218 359.038C374.919 359.163 374.598 359.227 374.274 359.227H366.333C365.747 359.23 365.18 359.021 364.734 358.64C364.289 358.259 363.995 357.731 363.906 357.151L359.007 325.979C358.935 325.523 358.701 325.108 358.348 324.812C357.995 324.515 357.546 324.356 357.085 324.365C356.623 324.373 356.181 324.548 355.839 324.858C355.496 325.168 355.278 325.591 355.223 326.049L351.334 358.606C351.26 359.202 350.972 359.751 350.523 360.15C350.074 360.549 349.495 360.77 348.895 360.772C348.856 360.772 348.817 360.771 348.778 360.769Z" fill="#2F2E41"/>
<path d="M353.964 287.637C347.469 284.026 342.395 283.077 339.948 282.833C339.623 282.801 339.307 282.704 339.021 282.547C338.734 282.39 338.483 282.176 338.281 281.919C338.075 281.66 337.924 281.362 337.837 281.042C337.749 280.723 337.728 280.389 337.773 280.061L344.834 227.596C345.241 224.526 346.425 221.612 348.275 219.13C350.125 216.648 352.579 214.682 355.403 213.417C358.136 212.16 361.146 211.623 364.145 211.858C367.144 212.093 370.034 213.093 372.538 214.761C372.78 214.922 373.017 215.087 373.25 215.255C376.134 217.37 378.328 220.291 379.555 223.652C380.783 227.013 380.989 230.662 380.147 234.14C375.817 251.867 374.33 280.931 374.075 286.577C374.055 287.058 373.894 287.523 373.61 287.912C373.327 288.301 372.934 288.598 372.483 288.765C369.819 289.733 367.007 290.234 364.173 290.245C360.603 290.267 357.087 289.369 353.964 287.637Z" fill="#6E70FF"/>
<path d="M370.724 246.376C370.427 246.162 370.182 245.884 370.006 245.563C369.83 245.241 369.729 244.884 369.71 244.518L368.78 227.653C368.688 225.982 369.217 224.336 370.266 223.033C371.315 221.729 372.808 220.861 374.459 220.594C376.11 220.328 377.801 220.682 379.206 221.59C380.611 222.497 381.63 223.893 382.068 225.508L386.153 240.587C386.322 241.216 386.236 241.887 385.912 242.452C385.588 243.017 385.053 243.431 384.425 243.602L372.805 246.755C372.452 246.852 372.082 246.868 371.721 246.802C371.361 246.737 371.021 246.591 370.724 246.376Z" fill="#6E70FF"/>
<path d="M359.87 206.293C367.273 206.293 373.275 200.287 373.275 192.877C373.275 185.468 367.273 179.461 359.87 179.461C352.467 179.461 346.465 185.468 346.465 192.877C346.465 200.287 352.467 206.293 359.87 206.293Z" fill="#FFB8B8"/>
<path d="M334.65 245.684C333.13 245.687 331.653 245.177 330.458 244.238L307.651 226.23C307.466 226.296 307.277 226.352 307.086 226.397C306.264 226.59 305.41 226.607 304.581 226.448C303.752 226.289 302.965 225.957 302.273 225.473C301.576 224.99 300.99 224.363 300.554 223.634C300.119 222.906 299.844 222.093 299.748 221.249C299.569 219.725 299.98 218.191 300.895 216.96C301.811 215.729 303.162 214.895 304.672 214.63C306.182 214.364 307.737 214.687 309.017 215.532C310.297 216.377 311.205 217.679 311.556 219.173C311.616 219.434 311.658 219.699 311.681 219.966L334.867 233.353L340.637 230.028L347.029 238.403L338.572 244.435C337.426 245.25 336.055 245.686 334.65 245.684Z" fill="#FFB8B8"/>
<path d="M335.705 232.517C335.666 232.153 335.709 231.784 335.832 231.439C335.954 231.093 336.152 230.78 336.411 230.521L348.344 218.576C349.526 217.393 351.104 216.689 352.774 216.602C354.444 216.514 356.087 217.048 357.387 218.101C358.687 219.154 359.551 220.651 359.813 222.304C360.075 223.956 359.716 225.648 358.806 227.052L350.308 240.157C349.953 240.703 349.396 241.086 348.759 241.222C348.122 241.357 347.457 241.235 346.91 240.881L336.811 234.321C336.504 234.122 336.245 233.857 336.053 233.545C335.862 233.232 335.743 232.881 335.705 232.517Z" fill="#6E70FF"/>
<path d="M363.634 205.425C363.824 205.645 364.056 205.824 364.316 205.952C364.576 206.08 364.86 206.155 365.149 206.171C365.439 206.188 365.729 206.146 366.002 206.049C366.275 205.951 366.526 205.8 366.74 205.604C369.729 203.182 372.099 200.084 373.656 196.565C375.399 192.407 375.654 187.334 373.671 183.437C371.994 180.143 368.984 178.046 365.979 176.332C364.828 175.606 363.565 175.072 362.242 174.751C361.574 174.599 360.881 174.589 360.208 174.722C359.536 174.854 358.899 175.126 358.337 175.52C357.742 175.973 357.281 176.58 357.004 177.275C356.728 177.971 356.646 178.729 356.767 179.467C355.392 177.655 353.539 176.264 351.417 175.449C350.115 174.888 348.66 174.791 347.294 175.173C345.364 175.817 343.936 177.767 343.141 179.863C342.499 181.467 342.263 183.205 342.456 184.923C342.54 185.743 342.79 186.537 343.191 187.258C343.591 187.978 344.134 188.609 344.786 189.113C346.36 190.2 348.388 190.09 350.218 189.609C352.049 189.127 353.825 188.312 355.688 188.084C357.55 187.857 359.614 188.35 360.724 190.013C361.505 191.183 361.69 192.726 361.849 194.196L362.678 201.842C362.737 202.936 362.973 204.013 363.376 205.032C363.444 205.174 363.531 205.306 363.634 205.425Z" fill="#2F2E41"/>
<path d="M151.355 258.192H169.848V261.814H155.108V272.768H168.42V276.344H155.108V290.202H151.355L151.355 258.192Z" fill="#3F3D56"/>
<path d="M174.316 258.192H178.111V290.199H174.316V258.192Z" fill="#3F3D56"/>
<path d="M185.729 288.498C184.284 286.89 183.561 284.639 183.563 281.747V267.4H187.357V281.17C187.357 283.345 187.849 284.94 188.831 285.953C189.352 286.469 189.974 286.871 190.658 287.132C191.343 287.394 192.074 287.511 192.805 287.474C194.023 287.494 195.216 287.135 196.221 286.446C197.213 285.768 198.012 284.844 198.542 283.764C199.089 282.683 199.372 281.488 199.368 280.276V267.4H203.167V290.199H199.548V286.89H199.368C198.658 288.105 197.621 289.096 196.375 289.751C195.043 290.516 193.533 290.917 191.996 290.913C189.264 290.913 187.175 290.108 185.729 288.498Z" fill="#3F3D56"/>
<path d="M215.209 290.459C214.471 290.188 213.795 289.77 213.222 289.23C212.635 288.668 212.178 287.985 211.882 287.228C211.561 286.338 211.41 285.396 211.435 284.45V270.842H207.461V267.4H211.435V260.962H215.23V267.4H220.77V270.842H215.23V283.546C215.153 284.543 215.404 285.538 215.944 286.379C216.251 286.723 216.632 286.992 217.057 287.166C217.483 287.341 217.943 287.416 218.403 287.386C219.292 287.379 220.16 287.115 220.903 286.626V290.336C220.47 290.54 220.013 290.69 219.542 290.783C218.959 290.881 218.368 290.926 217.777 290.917C216.9 290.922 216.03 290.767 215.209 290.459Z" fill="#3F3D56"/>
<path d="M231.33 290.459C230.592 290.188 229.916 289.77 229.343 289.23C228.756 288.668 228.299 287.985 228.003 287.228C227.683 286.338 227.531 285.396 227.556 284.45V270.842H223.582V267.4H227.556V260.962H231.351V267.4H236.891V270.842H231.351V283.546C231.274 284.543 231.525 285.538 232.065 286.379C232.372 286.723 232.753 286.992 233.179 287.166C233.605 287.341 234.064 287.416 234.524 287.386C235.413 287.379 236.281 287.115 237.024 286.626V290.336C236.591 290.54 236.134 290.69 235.663 290.783C235.08 290.881 234.489 290.926 233.898 290.917C233.021 290.922 232.151 290.767 231.33 290.459Z" fill="#3F3D56"/>
<path d="M244.8 289.347C243.08 288.312 241.681 286.819 240.759 285.035C239.772 283.123 239.273 280.996 239.306 278.843C239.284 276.739 239.75 274.658 240.667 272.764C241.531 270.966 242.867 269.437 244.533 268.34C246.259 267.22 248.282 266.644 250.339 266.686C252.376 266.635 254.387 267.153 256.146 268.182C257.774 269.169 259.084 270.605 259.92 272.317C260.827 274.198 261.278 276.266 261.239 278.354C261.245 278.746 261.2 279.136 261.105 279.516H243.105C243.139 281.06 243.571 282.569 244.357 283.898C245.04 285.034 246.02 285.961 247.192 286.58C248.299 287.168 249.533 287.474 250.786 287.474C253.705 287.474 255.954 286.104 257.532 283.363L260.746 284.929C259.821 286.716 258.442 288.228 256.748 289.312C254.932 290.36 252.874 290.914 250.778 290.921C248.683 290.927 246.622 290.384 244.8 289.347ZM257.215 276.383C257.144 275.384 256.87 274.411 256.41 273.521C255.893 272.525 255.113 271.69 254.155 271.107C252.988 270.414 251.646 270.073 250.29 270.125C248.612 270.083 246.985 270.701 245.757 271.846C244.485 273.061 243.632 274.65 243.323 276.383H257.215Z" fill="#3F3D56"/>
<path d="M265.656 267.4H269.275V271.064H269.455C269.943 269.759 270.856 268.657 272.047 267.935C273.234 267.129 274.633 266.693 276.067 266.682C276.985 266.659 277.897 266.827 278.747 267.175V271.244C277.746 270.757 276.645 270.512 275.532 270.529C274.447 270.524 273.387 270.852 272.493 271.469C271.556 272.114 270.795 272.984 270.281 274C269.73 275.058 269.446 276.235 269.455 277.428V290.198H265.66V267.4H265.656Z" fill="#3F3D56"/>
<path d="M226.891 184.547L276.587 234.517L229.649 233.971L212.184 216.492L226.891 184.547Z" fill="#01579B"/>
<path d="M247.034 204.801L212.184 216.492L233.506 191.088L247.034 204.801Z" fill="url(#paint0_linear_867_448)"/>
<path d="M276.252 81.874L176.903 181.315L153.516 157.914L229.5 81.874H276.252Z" fill="#54C5F8"/>
<path d="M188.441 193.277L229.375 152.31H276.313L211.91 216.219L188.441 193.277Z" fill="#54C5F8"/>
<path d="M211.963 169.615L235.35 193.009L212.184 216.492L188.715 193.55L211.963 169.615Z" fill="#29B6F6"/>
</g>
<defs>
<linearGradient id="paint0_linear_867_448" x1="218.111" y1="220.122" x2="235.522" y2="202.724" gradientUnits="userSpaceOnUse">
<stop stop-color="#1A237E" stop-opacity="0.4"/>
<stop offset="1" stop-color="#1A237E" stop-opacity="0"/>
</linearGradient>
<clipPath id="clip0_867_448">
<rect width="447" height="380" fill="white"/>
</clipPath>
</defs>
</svg>
