<svg width="518" height="380" viewBox="0 0 518 380" fill="none" xmlns="http://www.w3.org/2000/svg">
<g clip-path="url(#clip0_870_1262)">
<path d="M504.422 368.61L499.289 370.254L490.516 351.211L498.091 348.784L504.422 368.61Z" fill="#FFB6B6"/>
<path d="M507.316 373.173L490.767 378.474L490.7 378.264C490.154 376.553 490.309 374.695 491.13 373.099C491.952 371.502 493.373 370.297 495.081 369.75L497.371 366.485L503.744 366.975L505.189 366.512L507.316 373.173Z" fill="#2F2E41"/>
<path d="M455.756 373.735H450.368L447.805 352.92H455.757L455.756 373.735Z" fill="#FFB6B6"/>
<path d="M457.129 378.967L439.754 378.967V378.747C439.754 376.95 440.467 375.228 441.735 373.958C443.003 372.687 444.723 371.974 446.517 371.974L449.691 369.562L455.612 371.974L457.129 371.974L457.129 378.967Z" fill="#2F2E41"/>
<path d="M430.014 158.63C429.61 159.134 429.321 159.722 429.168 160.351C429.015 160.979 429.002 161.634 429.129 162.269C429.256 162.903 429.52 163.502 429.903 164.023C430.287 164.544 430.779 164.975 431.346 165.285L428.762 180.801L436.222 177.485L437.533 163.259C437.99 162.27 438.068 161.148 437.754 160.105C437.439 159.062 436.754 158.17 435.827 157.6C434.9 157.029 433.797 156.819 432.725 157.008C431.654 157.198 430.689 157.775 430.014 158.63Z" fill="#FFB6B6"/>
<path d="M498.039 287.342C498.039 287.342 499.296 270.951 494.842 267.907C490.387 264.863 453.661 263.33 453.661 263.33L451.381 266.333C451.381 266.333 451.175 267.736 447.716 279.163L446.307 342.945C446.167 349.164 445.085 356.976 447.678 358.574L448.939 364.885H455.871L459.701 354.274C461.352 351.604 462.055 348.454 461.697 345.335L463.789 335.966C463.642 335.819 463.539 335.634 463.491 335.432C463.255 334.036 463.568 332.603 464.365 331.433C464.55 331.16 464.753 330.9 464.974 330.655L472.637 296.331L482.972 336.482L489.351 350.744C488.724 352.24 489.14 353.594 490.283 354.851C489.858 356.02 491.694 356.841 492.483 358.353L494.947 362.992L501.879 359.205L502.51 355.418C502.929 354.295 501.801 353.55 500.969 351.218C502.521 349.567 502.436 347.959 500.94 346.389L498.32 335.071L498.289 329.883L498.257 324.337L498.039 287.342Z" fill="#2F2E41"/>
<path d="M469.047 189.893C475.699 189.893 481.091 184.493 481.091 177.832C481.091 171.17 475.699 165.771 469.047 165.771C462.396 165.771 457.004 171.17 457.004 177.832C457.004 184.493 462.396 189.893 469.047 189.893Z" fill="#FFB6B6"/>
<path d="M481.165 179.72L480.966 179.321C480.658 178.705 478.112 173.584 477.792 172.267L474.587 172.645L466.241 172.646L467.401 170.904L464.335 171.305C463.214 171.441 462.143 171.845 461.211 172.484C460.639 172.864 460.156 173.363 459.794 173.947C458.699 175.825 457.025 178.898 457.008 178.928L456.848 179.222L455.458 176.88C455.44 176.789 453.717 167.788 459.484 164.735C460.306 163.127 461.578 161.793 463.145 160.898C464.711 160.002 466.505 159.583 468.306 159.693C468.964 158.941 469.892 158.479 470.888 158.407C472.256 158.336 473.676 159.055 475.102 160.555C476.996 162.547 479.591 165.275 481.16 168.304L481.593 168.922C482.208 169.808 482.512 170.872 482.459 171.949C482.792 173.668 482.673 175.444 482.115 177.103L481.165 179.72Z" fill="#2F2E41"/>
<path d="M497.978 200.783L484.887 197.112L478.223 192.161L465.133 194.253L465.076 194.327C462.784 197.308 459.25 200.254 455.495 200.372C454.529 200.403 453.569 200.541 452.633 200.783L451.376 223.796V244.371C451.572 244.437 451.748 244.553 451.886 244.707C452.025 244.861 452.122 245.048 452.167 245.25C452.536 247.348 452.501 249.497 452.064 251.581C451.909 252.308 451.679 253.017 451.376 253.695C451.741 254.453 451.931 255.283 451.931 256.124C451.931 256.966 451.741 257.796 451.376 258.553C450.257 259.622 450.401 260.786 451.376 262.012V266.333C472.623 284.086 494.781 268.885 494.781 268.885L494.071 235.091L497.978 200.783Z" fill="#3F3D56"/>
<path d="M455.568 203.944L452.632 200.783L436.452 198.948L437.971 174.06L429.149 167.758L425.154 189.355C423.78 190.545 423.526 191.717 424.504 192.87C423.404 195.073 423.121 196.864 423.495 198.324L422.668 202.795L452.607 223.796L455.568 203.944Z" fill="#3F3D56"/>
<path d="M495.584 285.322C495.235 284.777 495.011 284.162 494.925 283.521C494.84 282.879 494.896 282.227 495.09 281.609C495.284 280.992 495.61 280.425 496.046 279.947C496.483 279.47 497.018 279.094 497.615 278.847L496.693 263.143L503.759 267.235L503.552 281.52C503.9 282.552 503.859 283.676 503.436 284.68C503.012 285.683 502.236 286.497 501.254 286.965C500.272 287.434 499.152 287.526 498.107 287.223C497.062 286.92 496.164 286.244 495.584 285.322Z" fill="#FFB6B6"/>
<path d="M493.065 204.71L497.983 200.783C497.983 200.783 503.011 203.561 504.542 208.542C506.072 213.522 508.75 241.874 508.75 241.874L509.163 252.43C509.692 254.105 509.553 255.598 508.292 256.789C510.187 258.752 509.905 260.387 507.316 261.674L504.632 278.271L496.206 276.52L497.273 243.79L490.387 222.718L493.065 204.71Z" fill="#3F3D56"/>
<path d="M156.499 74.6955H154.775V27.3831C154.775 23.7871 154.068 20.2263 152.694 16.9041C151.32 13.5818 149.305 10.5631 146.767 8.02034C144.228 5.47759 141.213 3.46055 137.896 2.08442C134.579 0.708289 131.023 2.48668e-06 127.432 0H27.3427C20.091 -1.50659e-05 13.1363 2.88497 8.00852 8.02029C2.88076 13.1556 1.67151e-05 20.1206 0 27.383V286.942C-3.34303e-06 294.205 2.88072 301.17 8.00846 306.305C13.1362 311.441 20.0909 314.326 27.3426 314.326H127.432C131.023 314.326 134.578 313.617 137.896 312.241C141.213 310.865 144.227 308.848 146.766 306.305C149.305 303.763 151.319 300.744 152.694 297.422C154.068 294.099 154.775 290.539 154.775 286.943V108.373H156.499V74.6955Z" fill="#3F3D56"/>
<path d="M128.534 7.12455H115.469C116.07 8.59976 116.299 10.2003 116.137 11.7852C115.974 13.3701 115.425 14.8907 114.538 16.213C113.651 17.5353 112.452 18.6188 111.048 19.368C109.644 20.1172 108.078 20.5091 106.487 20.5093H49.1468C47.556 20.5092 45.9896 20.1172 44.5856 19.368C43.1816 18.6188 41.9831 17.5353 41.0958 16.213C40.2084 14.8906 39.6594 13.3701 39.4971 11.7852C39.3347 10.2003 39.5641 8.59972 40.1649 7.12451H27.9622C22.5467 7.12451 17.353 9.27898 13.5236 13.114C9.69429 16.949 7.54298 22.1504 7.54297 27.5739V286.752C7.54297 289.438 8.07112 292.097 9.09728 294.578C10.1234 297.059 11.6275 299.313 13.5236 301.212C15.4197 303.111 17.6707 304.617 20.1481 305.645C22.6254 306.673 25.2807 307.202 27.9621 307.202H128.534C131.215 307.202 133.87 306.673 136.348 305.645C138.825 304.618 141.076 303.111 142.972 301.212C144.868 299.313 146.372 297.059 147.399 294.578C148.425 292.097 148.953 289.438 148.953 286.752V27.5739C148.953 24.8885 148.425 22.2293 147.399 19.7483C146.372 17.2672 144.868 15.0129 142.972 13.114C141.076 11.2151 138.825 9.70883 136.348 8.68115C133.87 7.65348 131.215 7.12455 128.534 7.12455Z" fill="white"/>
<path d="M127.568 104.196C127.575 110.083 126.527 115.924 124.473 121.441C123.54 123.967 122.396 126.411 121.052 128.745C116.733 136.292 110.5 142.564 102.984 146.926C95.4682 151.288 86.9355 153.585 78.2488 153.585C69.5621 153.585 61.0294 151.288 53.5135 146.926C45.9975 142.564 39.7649 136.292 35.4456 128.745C35.0084 127.985 34.5938 127.215 34.2018 126.433C30.8493 119.773 29.0463 112.439 28.9281 104.982C28.8099 97.5241 30.3795 90.1365 33.5192 83.3732C36.6589 76.61 41.2872 70.6465 47.0568 65.9304C52.8264 61.2142 59.5875 57.8677 66.8329 56.1421C74.0783 54.4164 81.6199 54.3563 88.8918 55.9663C96.1637 57.5764 102.977 60.8147 108.821 65.4383C114.665 70.062 119.387 75.9509 122.634 82.6633C125.881 89.3758 127.567 96.7374 127.568 104.196Z" fill="#F1F1F1"/>
<path d="M80.8116 112.535C86.0189 112.535 90.2403 108.308 90.2403 103.093C90.2403 97.8775 86.0189 93.6499 80.8116 93.6499C75.6042 93.6499 71.3828 97.8775 71.3828 103.093C71.3828 108.308 75.6042 112.535 80.8116 112.535Z" fill="#FF6582"/>
<path d="M34.1992 126.434C38.3535 121.938 43.907 114.8 49.1156 119.958C51.7296 122.391 55.8207 128.42 59.7368 124.478L90.3178 93.852C90.8935 93.2828 91.577 92.8345 92.3281 92.5336C93.0793 92.2327 93.8829 92.0851 94.6918 92.0996C95.5007 92.1141 96.2985 92.2904 97.0384 92.6181C97.7783 92.9457 98.4453 93.4182 99.0003 94.0077L124.47 121.442C123.537 123.969 122.393 126.412 121.049 128.746H35.4431L34.1992 126.434Z" fill="#6E70FF"/>
<path d="M101.396 204.495C101.059 204.495 100.736 204.63 100.497 204.869C100.259 205.109 100.125 205.433 100.125 205.771C100.125 206.109 100.259 206.433 100.497 206.672C100.736 206.911 101.059 207.046 101.396 207.047H114.766C115.104 207.047 115.428 206.912 115.667 206.673C115.906 206.434 116.041 206.109 116.041 205.771C116.041 205.432 115.906 205.108 115.667 204.868C115.428 204.629 115.104 204.495 114.766 204.495H101.396Z" fill="#6E70FF"/>
<path d="M41.153 185.753C40.8151 185.753 40.491 185.887 40.2521 186.127C40.0131 186.366 39.8789 186.691 39.8789 187.029C39.8789 187.367 40.0131 187.692 40.2521 187.931C40.491 188.171 40.8151 188.305 41.153 188.305H115.344C115.682 188.305 116.006 188.171 116.245 187.931C116.484 187.692 116.618 187.367 116.618 187.029C116.618 186.691 116.484 186.366 116.245 186.127C116.006 185.887 115.682 185.753 115.344 185.753H41.153Z" fill="#E5E5E5"/>
<path d="M41.1502 195.124C40.8128 195.124 40.4894 195.259 40.2511 195.498C40.0128 195.737 39.8789 196.062 39.8789 196.4C39.8789 196.737 40.0128 197.062 40.2511 197.301C40.4894 197.54 40.8128 197.675 41.1502 197.676H115.341C115.509 197.676 115.675 197.643 115.83 197.579C115.985 197.515 116.126 197.421 116.244 197.303C116.363 197.184 116.457 197.044 116.521 196.889C116.585 196.734 116.618 196.567 116.618 196.4C116.618 196.232 116.585 196.066 116.521 195.911C116.457 195.756 116.363 195.615 116.244 195.496C116.126 195.378 115.985 195.284 115.83 195.22C115.675 195.156 115.509 195.123 115.341 195.124H41.1502Z" fill="#E5E5E5"/>
<path d="M101.395 264.626C101.057 264.626 100.733 264.761 100.494 265C100.255 265.239 100.121 265.564 100.121 265.902C100.121 266.241 100.255 266.565 100.494 266.805C100.733 267.044 101.057 267.178 101.395 267.178H114.765C115.103 267.178 115.427 267.044 115.666 266.805C115.905 266.565 116.039 266.241 116.039 265.902C116.039 265.564 115.905 265.239 115.666 265C115.427 264.761 115.103 264.626 114.765 264.626H101.395Z" fill="#6E70FF"/>
<path d="M41.153 245.884C40.8151 245.884 40.491 246.019 40.2521 246.258C40.0131 246.497 39.8789 246.822 39.8789 247.16C39.8789 247.499 40.0131 247.823 40.2521 248.063C40.491 248.302 40.8151 248.436 41.153 248.436H115.344C115.512 248.437 115.678 248.404 115.833 248.34C115.988 248.276 116.128 248.182 116.247 248.064C116.366 247.945 116.46 247.804 116.524 247.649C116.588 247.494 116.621 247.328 116.621 247.16C116.621 246.992 116.588 246.826 116.524 246.671C116.46 246.516 116.366 246.376 116.247 246.257C116.128 246.138 115.988 246.045 115.833 245.981C115.678 245.917 115.512 245.884 115.344 245.884H41.153Z" fill="#E5E5E5"/>
<path d="M41.153 255.255C40.8151 255.255 40.491 255.389 40.2521 255.629C40.0131 255.868 39.8789 256.192 39.8789 256.531C39.8789 256.869 40.0131 257.194 40.2521 257.433C40.491 257.672 40.8151 257.807 41.153 257.807H115.344C115.682 257.807 116.006 257.672 116.245 257.433C116.484 257.194 116.618 256.869 116.618 256.531C116.618 256.192 116.484 255.868 116.245 255.629C116.006 255.389 115.682 255.255 115.344 255.255H41.153Z" fill="#E5E5E5"/>
<path d="M422.947 143.838L412.767 139.228C412.716 140.59 412.332 141.918 411.648 143.095C410.964 144.273 410.001 145.264 408.844 145.981C407.688 146.699 406.373 147.12 405.015 147.208C403.658 147.297 402.299 147.049 401.06 146.488L356.381 126.256C355.141 125.694 354.059 124.836 353.228 123.757C352.398 122.678 351.845 121.411 351.619 120.067C351.393 118.724 351.5 117.345 351.931 116.053C352.362 114.761 353.104 113.595 354.091 112.657L344.583 108.352C340.363 106.441 335.558 106.287 331.225 107.924C326.892 109.561 323.386 112.855 321.478 117.081L230.297 319.031C229.352 321.123 228.828 323.382 228.755 325.677C228.682 327.972 229.061 330.259 229.87 332.408C230.679 334.557 231.903 336.525 233.472 338.199C235.041 339.874 236.924 341.223 239.013 342.17L317.378 377.656C321.598 379.567 326.402 379.721 330.735 378.084C335.068 376.447 338.575 373.153 340.483 368.927L431.664 166.977C432.608 164.885 433.132 162.626 433.206 160.331C433.279 158.036 432.9 155.748 432.091 153.6C431.281 151.451 430.057 149.483 428.488 147.808C426.92 146.133 425.037 144.784 422.947 143.838Z" fill="#E4E4E4"/>
<path d="M332.246 239.996C325.384 236.875 319.463 232 315.078 225.861C310.694 219.722 307.999 212.536 307.267 205.024C307.193 204.279 307.14 203.513 307.109 202.749C306.81 196.051 308.102 189.377 310.879 183.276C313.462 177.562 317.266 172.486 322.021 168.405C326.776 164.323 332.368 161.337 338.401 159.656C344.435 157.975 350.763 157.64 356.94 158.675C363.116 159.711 368.991 162.091 374.149 165.647C379.307 169.204 383.623 173.851 386.793 179.26C389.962 184.67 391.908 190.71 392.493 196.954C393.077 203.198 392.287 209.495 390.176 215.4C388.066 221.305 384.688 226.675 380.28 231.13C378.639 232.794 376.862 234.316 374.966 235.682C368.849 240.092 361.682 242.813 354.183 243.57C346.684 244.327 339.118 243.095 332.246 239.996ZM366.998 163.025C356.957 158.492 345.53 158.133 335.225 162.027C324.919 165.921 316.577 173.75 312.028 183.796C309.333 189.717 308.078 196.194 308.368 202.696C308.399 203.437 308.45 204.178 308.521 204.901C309.221 212.196 311.831 219.176 316.088 225.137C320.345 231.098 326.098 235.827 332.766 238.846C339.434 241.866 346.779 243.068 354.06 242.333C361.34 241.597 368.298 238.95 374.229 234.657C376.068 233.333 377.793 231.856 379.384 230.242C384.103 225.472 387.6 219.629 389.576 213.212C391.552 206.795 391.949 199.995 390.732 193.391C389.515 186.788 386.721 180.577 382.588 175.289C378.456 170.002 373.107 165.794 366.998 163.025Z" fill="white"/>
<path d="M336.47 160.869L335.293 161.321L365.243 239.623L366.42 239.171L336.47 160.869Z" fill="white"/>
<path d="M388.064 185.293L309.875 215.282L310.326 216.461L388.514 186.472L388.064 185.293Z" fill="white"/>
<path d="M349.289 301.174L275.326 267.681C274.778 267.432 274.351 266.975 274.138 266.411C273.926 265.847 273.946 265.222 274.193 264.672L281.151 249.262C281.399 248.713 281.855 248.285 282.419 248.072C282.982 247.86 283.606 247.879 284.155 248.127L358.118 281.62C358.666 281.869 359.093 282.326 359.306 282.89C359.518 283.454 359.499 284.079 359.251 284.629L352.293 300.039C352.045 300.588 351.589 301.016 351.026 301.229C350.462 301.442 349.838 301.422 349.289 301.174ZM283.636 249.277C283.391 249.167 283.114 249.158 282.863 249.253C282.613 249.347 282.41 249.538 282.299 249.782L275.342 265.192C275.231 265.437 275.223 265.715 275.317 265.966C275.412 266.217 275.602 266.42 275.846 266.531L349.809 300.024C350.053 300.134 350.33 300.143 350.581 300.048C350.832 299.954 351.034 299.763 351.145 299.519L358.103 284.109C358.213 283.864 358.221 283.586 358.127 283.335C358.032 283.084 357.842 282.881 357.599 282.77L283.636 249.277Z" fill="white"/>
<path d="M331.36 340.857L257.397 307.364C256.848 307.115 256.421 306.658 256.209 306.094C255.996 305.53 256.016 304.905 256.263 304.355L263.221 288.945C263.47 288.396 263.926 287.968 264.489 287.755C265.052 287.543 265.676 287.562 266.225 287.81L340.188 321.303C340.736 321.552 341.164 322.009 341.376 322.573C341.588 323.137 341.569 323.762 341.321 324.312L334.364 339.722C334.115 340.271 333.659 340.699 333.096 340.912C332.533 341.125 331.908 341.105 331.36 340.857ZM265.706 288.96C265.462 288.85 265.184 288.841 264.934 288.936C264.683 289.031 264.48 289.221 264.37 289.465L257.412 304.875C257.302 305.12 257.293 305.398 257.388 305.649C257.482 305.9 257.672 306.103 257.916 306.214L331.879 339.707C332.123 339.817 332.401 339.826 332.651 339.731C332.902 339.637 333.105 339.446 333.215 339.202L340.173 323.792C340.283 323.547 340.292 323.269 340.197 323.018C340.103 322.767 339.913 322.564 339.669 322.454L265.706 288.96Z" fill="white"/>
<path d="M302.78 240.447C301.259 232.86 297.973 225.738 293.19 219.66C288.327 213.488 282.388 208.25 275.66 204.198C268.708 199.97 261.135 196.86 253.22 194.983C243.382 192.616 233.221 191.845 223.124 191.943C212.954 192.041 202.817 192.995 192.71 194.058C191.425 194.193 190.14 194.329 188.856 194.467C187.659 194.595 187.646 196.49 188.856 196.361C198.814 195.296 208.787 194.25 218.802 193.928C228.736 193.608 238.743 194 248.518 195.898C256.66 197.411 264.515 200.192 271.797 204.14C278.58 207.82 284.664 212.666 289.771 218.457C294.774 224.117 298.392 230.865 300.339 238.169C300.574 239.089 300.778 240.017 300.956 240.951C301.185 242.146 303.008 241.64 302.78 240.447Z" fill="#2F2E41"/>
<path d="M195.616 180.918L180.514 197.005C180.413 197.108 180.337 197.233 180.291 197.37C180.246 197.506 180.232 197.652 180.25 197.795C180.268 197.938 180.319 198.075 180.398 198.196C180.477 198.316 180.582 198.418 180.705 198.492L194.33 205.014C195.422 205.537 196.382 203.905 195.284 203.379L181.659 196.857L181.851 198.344L196.953 182.257C197.786 181.369 196.451 180.028 195.616 180.918Z" fill="#2F2E41"/>
<path d="M517.157 379.8H228.95C228.751 379.8 228.56 379.721 228.419 379.58C228.278 379.439 228.199 379.248 228.199 379.049C228.199 378.85 228.278 378.658 228.419 378.517C228.56 378.377 228.751 378.297 228.95 378.297H517.157C517.356 378.297 517.547 378.377 517.688 378.517C517.829 378.658 517.908 378.85 517.908 379.049C517.908 379.248 517.829 379.439 517.688 379.58C517.547 379.721 517.356 379.8 517.157 379.8Z" fill="#CACACA"/>
</g>
<defs>
<clipPath id="clip0_870_1262">
<rect width="517.91" height="379.801" fill="white"/>
</clipPath>
</defs>
</svg>
