<svg width="570" height="361" viewBox="0 0 570 361" fill="none" xmlns="http://www.w3.org/2000/svg">
<path d="M216.178 56.7893C215.786 57.2956 215.243 57.6648 214.628 57.8441C214.013 58.0234 213.357 58.0036 212.753 57.7876C212.57 57.7332 212.39 57.6676 212.215 57.591C212.413 55.4735 212.314 53.3388 211.923 51.2484C211.769 53.0452 211.33 54.806 210.621 56.4643C210.044 55.8852 209.571 55.2102 209.224 54.4695C208.578 52.9368 208.149 51.3211 207.952 49.6695C206.995 44.0424 206.052 38.1883 207.612 32.6892C209.898 24.6559 217.105 18.8808 220.115 11.0867L221.598 9.75537C224.137 14.0784 224.249 19.4503 223.214 24.3523C222.185 29.264 220.11 33.8738 218.471 38.6106C216.831 43.3473 215.602 48.3857 216.363 53.3421C216.538 54.5092 216.805 55.7919 216.178 56.7893Z" fill="#2F2E41"/>
<path d="M183.219 124.762L173.555 168.966L215.769 182.716L209.561 124.762H183.219Z" fill="#FFB6B6"/>
<path d="M481.104 359.354H500.233V271.655C500.208 249.022 491.206 227.324 475.202 211.32C459.198 195.316 437.499 186.314 414.867 186.288H237.086C214.453 186.314 192.754 195.316 176.75 211.32C160.746 227.324 151.744 249.022 151.719 271.655V359.354H170.848V299.441C170.874 276.598 179.959 254.697 196.112 238.545C212.265 222.392 234.165 213.306 257.009 213.28H394.943C417.787 213.306 439.687 222.392 455.84 238.545C471.993 254.697 481.079 276.598 481.104 299.441V359.354Z" fill="#E6E6E6"/>
<path d="M248.652 313.475L228.265 307.302C226.939 301.854 226.271 296.267 226.273 290.66C226.283 289.394 226.653 288.156 227.341 287.093C228.028 286.029 229.004 285.183 230.155 284.654C231.305 284.124 232.583 283.934 233.837 284.104C235.092 284.274 236.273 284.798 237.241 285.615C248.175 294.994 264.192 299.998 274.528 310.686C278.806 315.178 282.018 320.574 283.927 326.476C285.835 332.378 286.391 338.634 285.553 344.78L290.016 359.213C280.028 358.493 270.316 355.615 261.548 350.779C252.78 345.943 245.164 339.264 239.226 331.202C235.939 326.646 233.24 321.694 231.19 316.463C239.837 315.482 248.652 313.475 248.652 313.475Z" fill="#F2F2F2"/>
<path d="M301.788 337.11L312.186 333.962C312.2 333.907 312.213 333.852 312.226 333.797C312.514 332.525 312.423 331.196 311.964 329.976C311.506 328.755 310.7 327.695 309.646 326.927C308.592 326.16 307.336 325.717 306.034 325.655C304.731 325.593 303.439 325.913 302.316 326.577C297.596 329.381 292.355 331.796 288.591 335.688C286.409 337.979 284.771 340.732 283.797 343.742C282.824 346.752 282.54 349.943 282.967 353.077L280.691 360.439C285.785 360.071 290.739 358.603 295.211 356.137C299.683 353.671 303.567 350.264 306.596 346.152C308.272 343.828 309.649 341.302 310.694 338.635C306.284 338.134 301.788 337.11 301.788 337.11Z" fill="#F2F2F2"/>
<path d="M385.958 121.612H345.466C344.893 121.613 344.344 121.841 343.939 122.247C343.535 122.653 343.308 123.202 343.309 123.775V187.741H388.121V123.775C388.121 123.491 388.065 123.21 387.957 122.947C387.848 122.685 387.689 122.446 387.488 122.245C387.287 122.045 387.049 121.885 386.786 121.777C386.524 121.668 386.242 121.612 385.958 121.612ZM365.848 157.957C364.582 157.951 363.369 157.445 362.474 156.55C361.578 155.655 361.073 154.442 361.067 153.176V145.798C361.068 144.531 361.573 143.316 362.469 142.421C363.366 141.525 364.581 141.022 365.848 141.022C367.115 141.022 368.331 141.525 369.227 142.421C370.124 143.316 370.628 144.531 370.63 145.798V153.176C370.624 154.442 370.118 155.655 369.223 156.55C368.327 157.445 367.115 157.951 365.848 157.957Z" fill="#3F3D56"/>
<path d="M453.012 21.7861H279.922C278.435 21.7885 277.01 22.3803 275.958 23.4318C274.907 24.4834 274.315 25.9089 274.312 27.396V144.197C274.314 145.685 274.905 147.111 275.957 148.162C277.009 149.214 278.435 149.806 279.922 149.807H453.012C454.499 149.806 455.925 149.214 456.977 148.162C458.029 147.111 458.62 145.685 458.622 144.197V27.396C458.62 25.9089 458.028 24.4834 456.976 23.4318C455.925 22.3803 454.499 21.7885 453.012 21.7861Z" fill="#3F3D56"/>
<path d="M451.566 25.8384H281.367C280.571 25.8401 279.808 26.1576 279.246 26.7212C278.683 27.2848 278.367 28.0485 278.367 28.8448V142.751C278.369 143.546 278.685 144.309 279.247 144.871C279.81 145.433 280.572 145.75 281.367 145.751H451.566C452.361 145.75 453.124 145.433 453.686 144.871C454.248 144.309 454.565 143.546 454.566 142.751V28.8448C454.566 28.0485 454.25 27.2848 453.688 26.7212C453.125 26.1576 452.362 25.8401 451.566 25.8384Z" fill="white"/>
<path d="M343.168 185.695V191.867C343.169 192.187 343.296 192.493 343.522 192.719C343.748 192.945 344.055 193.073 344.374 193.073H387.052C387.371 193.072 387.677 192.944 387.903 192.718C388.129 192.492 388.257 192.186 388.258 191.867V185.695H343.168Z" fill="#3F3D56"/>
<path d="M418.419 195.22H317.16C316.882 195.22 316.609 195.158 316.358 195.039C316.108 194.92 315.888 194.746 315.713 194.531C315.539 194.316 315.414 194.065 315.349 193.795C315.284 193.526 315.28 193.245 315.337 192.974L316.908 185.512C316.997 185.094 317.227 184.72 317.559 184.451C317.89 184.182 318.304 184.034 318.731 184.033H416.848C417.275 184.034 417.688 184.182 418.02 184.451C418.351 184.72 418.581 185.094 418.67 185.512L420.241 192.974C420.298 193.245 420.294 193.526 420.229 193.795C420.164 194.065 420.04 194.316 419.865 194.531C419.69 194.746 419.47 194.92 419.22 195.039C418.969 195.158 418.696 195.22 418.419 195.22Z" fill="#3F3D56"/>
<path d="M322.18 185.377H319.837C319.623 185.377 319.449 185.55 319.449 185.765V186.861C319.449 187.075 319.623 187.248 319.837 187.248H322.18C322.394 187.248 322.568 187.075 322.568 186.861V185.765C322.568 185.55 322.394 185.377 322.18 185.377Z" fill="#E6E6E6"/>
<path d="M328.415 185.377H326.071C325.857 185.377 325.684 185.55 325.684 185.765V186.861C325.684 187.075 325.857 187.248 326.071 187.248H328.415C328.629 187.248 328.802 187.075 328.802 186.861V185.765C328.802 185.55 328.629 185.377 328.415 185.377Z" fill="#E6E6E6"/>
<path d="M334.653 185.377H332.309C332.095 185.377 331.922 185.55 331.922 185.765V186.861C331.922 187.075 332.095 187.248 332.309 187.248H334.653C334.867 187.248 335.041 187.075 335.041 186.861V185.765C335.041 185.55 334.867 185.377 334.653 185.377Z" fill="#E6E6E6"/>
<path d="M340.887 185.377H338.544C338.33 185.377 338.156 185.55 338.156 185.765V186.861C338.156 187.075 338.33 187.248 338.544 187.248H340.887C341.101 187.248 341.275 187.075 341.275 186.861V185.765C341.275 185.55 341.101 185.377 340.887 185.377Z" fill="#E6E6E6"/>
<path d="M347.13 185.377H344.786C344.572 185.377 344.398 185.55 344.398 185.765V186.861C344.398 187.075 344.572 187.248 344.786 187.248H347.13C347.344 187.248 347.517 187.075 347.517 186.861V185.765C347.517 185.55 347.344 185.377 347.13 185.377Z" fill="#E6E6E6"/>
<path d="M353.368 185.377H351.024C350.81 185.377 350.637 185.55 350.637 185.765V186.861C350.637 187.075 350.81 187.248 351.024 187.248H353.368C353.582 187.248 353.755 187.075 353.755 186.861V185.765C353.755 185.55 353.582 185.377 353.368 185.377Z" fill="#E6E6E6"/>
<path d="M359.602 185.377H357.259C357.045 185.377 356.871 185.55 356.871 185.765V186.861C356.871 187.075 357.045 187.248 357.259 187.248H359.602C359.816 187.248 359.99 187.075 359.99 186.861V185.765C359.99 185.55 359.816 185.377 359.602 185.377Z" fill="#E6E6E6"/>
<path d="M365.837 185.377H363.493C363.279 185.377 363.105 185.55 363.105 185.765V186.861C363.105 187.075 363.279 187.248 363.493 187.248H365.837C366.051 187.248 366.224 187.075 366.224 186.861V185.765C366.224 185.55 366.051 185.377 365.837 185.377Z" fill="#E6E6E6"/>
<path d="M372.079 185.377H369.735C369.521 185.377 369.348 185.55 369.348 185.765V186.861C369.348 187.075 369.521 187.248 369.735 187.248H372.079C372.293 187.248 372.466 187.075 372.466 186.861V185.765C372.466 185.55 372.293 185.377 372.079 185.377Z" fill="#E6E6E6"/>
<path d="M378.313 185.377H375.97C375.756 185.377 375.582 185.55 375.582 185.765V186.861C375.582 187.075 375.756 187.248 375.97 187.248H378.313C378.527 187.248 378.701 187.075 378.701 186.861V185.765C378.701 185.55 378.527 185.377 378.313 185.377Z" fill="#E6E6E6"/>
<path d="M384.551 185.377H382.208C381.994 185.377 381.82 185.55 381.82 185.765V186.861C381.82 187.075 381.994 187.248 382.208 187.248H384.551C384.765 187.248 384.939 187.075 384.939 186.861V185.765C384.939 185.55 384.765 185.377 384.551 185.377Z" fill="#E6E6E6"/>
<path d="M390.794 185.377H388.45C388.236 185.377 388.062 185.55 388.062 185.765V186.861C388.062 187.075 388.236 187.248 388.45 187.248H390.794C391.008 187.248 391.181 187.075 391.181 186.861V185.765C391.181 185.55 391.008 185.377 390.794 185.377Z" fill="#E6E6E6"/>
<path d="M397.028 185.377H394.684C394.47 185.377 394.297 185.55 394.297 185.765V186.861C394.297 187.075 394.47 187.248 394.684 187.248H397.028C397.242 187.248 397.416 187.075 397.416 186.861V185.765C397.416 185.55 397.242 185.377 397.028 185.377Z" fill="#E6E6E6"/>
<path d="M403.262 185.377H400.919C400.705 185.377 400.531 185.55 400.531 185.765V186.861C400.531 187.075 400.705 187.248 400.919 187.248H403.262C403.476 187.248 403.65 187.075 403.65 186.861V185.765C403.65 185.55 403.476 185.377 403.262 185.377Z" fill="#E6E6E6"/>
<path d="M409.501 185.377H407.157C406.943 185.377 406.77 185.55 406.77 185.765V186.861C406.77 187.075 406.943 187.248 407.157 187.248H409.501C409.715 187.248 409.888 187.075 409.888 186.861V185.765C409.888 185.55 409.715 185.377 409.501 185.377Z" fill="#E6E6E6"/>
<path d="M415.743 185.377H413.399C413.185 185.377 413.012 185.55 413.012 185.765V186.861C413.012 187.075 413.185 187.248 413.399 187.248H415.743C415.957 187.248 416.13 187.075 416.13 186.861V185.765C416.13 185.55 415.957 185.377 415.743 185.377Z" fill="#E6E6E6"/>
<path d="M322.106 188.496H319.763C319.549 188.496 319.375 188.669 319.375 188.883V189.979C319.375 190.193 319.549 190.367 319.763 190.367H322.106C322.32 190.367 322.494 190.193 322.494 189.979V188.883C322.494 188.669 322.32 188.496 322.106 188.496Z" fill="#E6E6E6"/>
<path d="M328.34 188.496H325.997C325.783 188.496 325.609 188.669 325.609 188.883V189.979C325.609 190.193 325.783 190.367 325.997 190.367H328.34C328.555 190.367 328.728 190.193 328.728 189.979V188.883C328.728 188.669 328.555 188.496 328.34 188.496Z" fill="#E6E6E6"/>
<path d="M334.579 188.496H332.235C332.021 188.496 331.848 188.669 331.848 188.883V189.979C331.848 190.193 332.021 190.367 332.235 190.367H334.579C334.793 190.367 334.966 190.193 334.966 189.979V188.883C334.966 188.669 334.793 188.496 334.579 188.496Z" fill="#E6E6E6"/>
<path d="M340.813 188.496H338.47C338.256 188.496 338.082 188.669 338.082 188.883V189.979C338.082 190.193 338.256 190.367 338.47 190.367H340.813C341.027 190.367 341.201 190.193 341.201 189.979V188.883C341.201 188.669 341.027 188.496 340.813 188.496Z" fill="#E6E6E6"/>
<path d="M347.055 188.496H344.712C344.498 188.496 344.324 188.669 344.324 188.883V189.979C344.324 190.193 344.498 190.367 344.712 190.367H347.055C347.269 190.367 347.443 190.193 347.443 189.979V188.883C347.443 188.669 347.269 188.496 347.055 188.496Z" fill="#E6E6E6"/>
<path d="M353.294 188.496H350.95C350.736 188.496 350.562 188.669 350.562 188.883V189.979C350.562 190.193 350.736 190.367 350.95 190.367H353.294C353.508 190.367 353.681 190.193 353.681 189.979V188.883C353.681 188.669 353.508 188.496 353.294 188.496Z" fill="#E6E6E6"/>
<path d="M359.528 188.496H357.184C356.97 188.496 356.797 188.669 356.797 188.883V189.979C356.797 190.193 356.97 190.367 357.184 190.367H359.528C359.742 190.367 359.916 190.193 359.916 189.979V188.883C359.916 188.669 359.742 188.496 359.528 188.496Z" fill="#E6E6E6"/>
<path d="M365.762 188.496H363.419C363.205 188.496 363.031 188.669 363.031 188.883V189.979C363.031 190.193 363.205 190.367 363.419 190.367H365.762C365.976 190.367 366.15 190.193 366.15 189.979V188.883C366.15 188.669 365.976 188.496 365.762 188.496Z" fill="#E6E6E6"/>
<path d="M372.005 188.496H369.661C369.447 188.496 369.273 188.669 369.273 188.883V189.979C369.273 190.193 369.447 190.367 369.661 190.367H372.005C372.219 190.367 372.392 190.193 372.392 189.979V188.883C372.392 188.669 372.219 188.496 372.005 188.496Z" fill="#E6E6E6"/>
<path d="M378.239 188.496H375.895C375.681 188.496 375.508 188.669 375.508 188.883V189.979C375.508 190.193 375.681 190.367 375.895 190.367H378.239C378.453 190.367 378.626 190.193 378.626 189.979V188.883C378.626 188.669 378.453 188.496 378.239 188.496Z" fill="#E6E6E6"/>
<path d="M384.477 188.496H382.134C381.92 188.496 381.746 188.669 381.746 188.883V189.979C381.746 190.193 381.92 190.367 382.134 190.367H384.477C384.691 190.367 384.865 190.193 384.865 189.979V188.883C384.865 188.669 384.691 188.496 384.477 188.496Z" fill="#E6E6E6"/>
<path d="M390.715 188.496H388.372C388.158 188.496 387.984 188.669 387.984 188.883V189.979C387.984 190.193 388.158 190.367 388.372 190.367H390.715C390.93 190.367 391.103 190.193 391.103 189.979V188.883C391.103 188.669 390.93 188.496 390.715 188.496Z" fill="#E6E6E6"/>
<path d="M396.954 188.496H394.61C394.396 188.496 394.223 188.669 394.223 188.883V189.979C394.223 190.193 394.396 190.367 394.61 190.367H396.954C397.168 190.367 397.341 190.193 397.341 189.979V188.883C397.341 188.669 397.168 188.496 396.954 188.496Z" fill="#E6E6E6"/>
<path d="M403.188 188.496H400.845C400.631 188.496 400.457 188.669 400.457 188.883V189.979C400.457 190.193 400.631 190.367 400.845 190.367H403.188C403.402 190.367 403.576 190.193 403.576 189.979V188.883C403.576 188.669 403.402 188.496 403.188 188.496Z" fill="#E6E6E6"/>
<path d="M409.426 188.496H407.083C406.869 188.496 406.695 188.669 406.695 188.883V189.979C406.695 190.193 406.869 190.367 407.083 190.367H409.426C409.64 190.367 409.814 190.193 409.814 189.979V188.883C409.814 188.669 409.64 188.496 409.426 188.496Z" fill="#E6E6E6"/>
<path d="M415.669 188.496H413.325C413.111 188.496 412.938 188.669 412.938 188.883V189.979C412.938 190.193 413.111 190.367 413.325 190.367H415.669C415.883 190.367 416.056 190.193 416.056 189.979V188.883C416.056 188.669 415.883 188.496 415.669 188.496Z" fill="#E6E6E6"/>
<path d="M373.874 192.237H349.7C349.486 192.237 349.312 192.411 349.312 192.625V193.721C349.312 193.935 349.486 194.109 349.7 194.109H373.874C374.088 194.109 374.262 193.935 374.262 193.721V192.625C374.262 192.411 374.088 192.237 373.874 192.237Z" fill="#E6E6E6"/>
<path d="M426.19 54.4322V114.386C426.189 118.401 424.594 122.252 421.755 125.091C418.916 127.93 415.066 129.525 411.051 129.525H336.013C333.059 129.526 330.169 128.663 327.699 127.042C325.229 125.421 323.287 123.114 322.112 120.404C321.718 119.508 321.418 118.574 321.215 117.617C322.81 118.234 324.506 118.549 326.216 118.546H401.254C404.954 118.541 408.501 117.069 411.117 114.453C413.733 111.836 415.205 108.29 415.211 104.59V44.6357C415.214 42.9254 414.899 41.2294 414.282 39.6343C415.239 39.8371 416.173 40.1377 417.068 40.5314C419.779 41.7066 422.086 43.6486 423.707 46.1185C425.327 48.5883 426.191 51.4781 426.19 54.4322Z" fill="#F2F2F2"/>
<path d="M146.244 292.966L138.801 297.574L116.875 270.622L127.859 263.822L146.244 292.966Z" fill="#FFB6B6"/>
<path d="M152.674 302.593L146.687 305.265L143.095 300.09L142.881 306.964L127.003 314.053C126.241 314.393 125.392 314.48 124.577 314.303C123.763 314.125 123.026 313.692 122.475 313.067C121.925 312.441 121.588 311.656 121.515 310.826C121.442 309.995 121.636 309.164 122.07 308.451L130.841 294.033L128.29 288.319L141.982 283.161L152.674 302.593Z" fill="#2F2E41"/>
<path d="M125.397 287.782L137.968 275.6C128.629 252.554 127.882 238.27 114.935 210.398C145.653 216.681 167.614 216.299 193.019 210.666C201.619 208.788 223.81 191.647 221.985 182.859C221.9 182.448 221.799 182.041 221.683 181.638C218.956 172.34 220.877 158.102 214.974 147.785C204.054 143.668 187.464 157.57 174.486 166.044C168.228 170.131 172.809 175.699 168.135 177.159L150.218 182.975L106.259 175.875C104.134 175.553 101.967 175.655 99.882 176.174C97.797 176.694 95.8354 177.621 94.1103 178.902C92.3852 180.183 90.9307 181.793 89.8306 183.638C88.7305 185.484 88.0067 187.529 87.7007 189.656C87.6263 190.134 87.5724 190.613 87.5391 191.096C89.5617 202.292 91.6702 213.195 93.9401 223.544C94.6729 226.885 93.4359 233.29 96.1913 233.385C98.9468 233.48 97.8368 240.104 98.695 243.343C103.978 263.28 107.319 272.929 125.397 287.782Z" fill="#2F2E41"/>
<path d="M101.34 341.212L93.5859 337.164L105.854 304.666L117.298 310.639L101.34 341.212Z" fill="#FFB6B6"/>
<path d="M100.043 316.949L112.476 325.51C127.714 303.472 137.609 274.023 144.977 241.072C173.667 228.557 198.771 214.238 216.265 195.033C219.138 191.813 220.644 187.601 220.465 183.289C220.286 178.978 218.435 174.905 215.305 171.935C214.999 171.648 214.682 171.373 214.355 171.11C206.778 165.074 189.949 168.547 179.193 163.502L159.978 190.097L162.186 196.291L155.502 199.546L149.858 202.293L143.397 205.438L122.218 215.749C120.298 216.708 118.587 218.039 117.183 219.663C115.78 221.287 114.712 223.174 114.041 225.213C113.37 227.252 113.11 229.404 113.275 231.544C113.44 233.684 114.027 235.771 115.002 237.683C115.216 238.116 115.449 238.539 115.699 238.953L107.833 278.139C107.833 278.139 109.998 284.961 106.592 284.323C103.186 283.684 105.042 292.043 105.042 292.043L100.043 316.949Z" fill="#2F2E41"/>
<path d="M96.6445 359.122L90.8321 356.089L92.6586 350.059L87.1374 354.16L71.7216 346.115C70.9826 345.729 70.3863 345.117 70.0196 344.369C69.653 343.62 69.5352 342.774 69.6834 341.954C69.8317 341.133 70.2383 340.382 70.8439 339.809C71.4494 339.237 72.2222 338.872 73.0494 338.77L89.7974 336.693L92.6928 331.145L105.238 338.676L96.6445 359.122Z" fill="#2F2E41"/>
<path d="M266.12 188.754L257.051 166.838L249.906 170.807L254.221 193.101C253.789 194.514 253.759 196.018 254.136 197.447C254.512 198.875 255.279 200.17 256.351 201.186C257.423 202.202 258.757 202.899 260.204 203.199C261.65 203.498 263.151 203.389 264.538 202.882C265.926 202.375 267.144 201.491 268.057 200.33C268.969 199.168 269.54 197.775 269.704 196.307C269.868 194.839 269.62 193.355 268.987 192.02C268.354 190.686 267.361 189.555 266.12 188.754Z" fill="#FFB6B6"/>
<path d="M113.944 15.4521L127.743 34.743L133.803 29.258L124.549 8.52161C124.649 7.04803 124.337 5.57553 123.647 4.26964C122.957 2.96374 121.916 1.87624 120.642 1.12938C119.368 0.382518 117.91 0.00591504 116.434 0.0419094C114.957 0.0779037 113.52 0.525068 112.284 1.33313C111.047 2.14119 110.061 3.27811 109.435 4.61608C108.809 5.95405 108.569 7.44001 108.742 8.90692C108.914 10.3738 109.493 11.7635 110.412 12.9198C111.331 14.076 112.554 14.953 113.944 15.4521Z" fill="#FFB6B6"/>
<path d="M176.256 137.721C167.307 151.603 200.095 181.849 217.357 174.777C220.38 173.538 230.777 169.448 223.67 163.776C216.563 158.105 224.494 164.452 224.682 160.76C224.807 158.292 222.896 152.878 224.89 153.11C226.884 153.342 228.028 147.575 223.686 146.107C222.176 145.567 220.851 144.609 219.867 143.343C218.882 142.078 218.279 140.558 218.129 138.962C217.713 123.746 222.866 107.859 222.866 107.859L243.903 161.633C243.903 161.633 243.747 170.936 246.43 168.093C249.112 165.25 248.917 174.451 248.917 174.451C248.917 174.451 252.906 177.235 250.612 178.785C248.319 180.334 253.082 185.097 253.082 185.097L264.196 184.303C264.196 184.303 264.022 176.047 262.124 174.221C260.227 172.395 261.159 169.522 261.159 169.522C261.159 169.522 257.247 165.883 259.531 161.597C261.815 157.311 242.898 80.6517 242.898 80.6517C242.14 76.9635 240.377 73.5567 237.804 70.8078C235.231 68.0589 231.948 66.075 228.317 65.0755L216.313 61.7703L214.182 53.3129H197.279L194.335 58.8701L167.342 56.4884C167.342 56.4884 140.634 32.1878 141.938 30.2904C143.242 28.3929 139.102 23.9506 139.102 23.9506C139.102 23.9506 135.566 22.7934 137.561 22.1755C139.557 21.5576 135.785 20.1291 135.785 20.1291C135.785 20.1291 132.292 19.2113 133.94 18.0029C135.587 16.7944 128.442 16.0005 128.442 16.0005L119.172 23.5642L121.046 26.7413C121.046 26.7413 119.903 31.0674 121.394 29.4881C122.885 27.9088 123.166 32.4921 123.166 32.4921C123.166 32.4921 123.927 37.511 128.442 39.0231C132.957 40.5352 136.381 54.9007 136.381 54.9007L174.487 86.656C168.684 93.3175 170.065 100.284 175.206 107.409L176.256 137.721Z" fill="#6E70FF"/>
<path d="M205.346 47.6939C215.455 47.6939 223.65 39.4991 223.65 29.3904C223.65 19.2817 215.455 11.0869 205.346 11.0869C195.238 11.0869 187.043 19.2817 187.043 29.3904C187.043 39.4991 195.238 47.6939 205.346 47.6939Z" fill="#FFB6B6"/>
<path d="M221.324 23.9391C220.856 24.074 213.981 24.9711 211.004 25.5269C208.082 26.0746 207.574 22.3513 205.185 23.0499C205.186 23.0337 205.183 23.0173 205.177 23.0023C204.806 21.0295 204.173 19.1151 203.295 17.3102C203.614 19.0389 203.659 20.8069 203.43 22.5498C203.429 22.5952 203.424 22.6403 203.414 22.6848C203.406 22.7642 203.39 22.8356 203.383 22.915C200.858 21.8035 199.254 22.7959 197.508 23.1452C195.555 23.5342 194.031 24.3916 195.126 31.084C197.373 44.8499 209.059 49.764 207.034 58.8699C206.637 60.672 205.637 62.9266 204.383 63.4903C204.012 61.5175 203.38 59.6031 202.501 57.7981C202.82 59.5269 202.866 61.2949 202.636 63.0377C200.691 60.934 199.286 53.5826 192.745 47.7555C191.133 46.3265 183.059 37.8479 182.091 35.8473C182.388 37.4468 182.531 39.0711 182.519 40.6979C182.521 41.7868 182.447 42.8744 182.297 43.9528C182.297 44.0223 182.289 44.0916 182.273 44.1592C182.265 44.2863 182.241 44.3974 182.226 44.5165C182.21 44.6515 182.186 44.7785 182.162 44.9134C179.518 44.5324 177.176 44.0719 176.073 42.9922C170.706 37.7685 177.256 27.5909 180.836 18.3819C185.957 5.19556 200.826 3.44108 202.271 3.29818C208.638 2.65514 219.395 4.02061 222.912 11.237C225.373 16.294 223.801 23.2246 221.324 23.9391Z" fill="#2F2E41"/>
<path d="M182.732 26.9159L195.991 6.29068C192.813 4.44603 189.195 3.49689 185.521 3.54416C183.69 3.58222 181.888 4.00567 180.231 4.78692C178.575 5.56817 177.102 6.68968 175.908 8.07837C173.2 11.4438 172.735 16.2012 173.75 20.3999C174.1 21.8501 180.773 16.7478 179.185 19.1294C177.881 20.9941 175.75 28.8319 175.215 31.0377C174.355 34.5877 171.99 38.2319 174.097 41.2156C176.589 44.744 181.035 46.4978 185.351 46.6759C189.667 46.8541 193.915 45.658 198.017 44.3033L182.732 26.9159Z" fill="#2F2E41"/>
<path d="M187.828 26.1024C187.637 26.1021 187.452 26.0327 187.307 25.9069C187.163 25.7811 187.069 25.6074 187.043 25.4178C187.016 25.2282 187.059 25.0354 187.164 24.875C187.268 24.7146 187.427 24.5973 187.611 24.5448C187.82 24.2014 187.734 22.7559 187.666 21.5879C187.408 17.2026 186.975 9.86311 194.101 4.90868C194.274 4.7885 194.487 4.74189 194.694 4.77911C194.902 4.81633 195.086 4.93433 195.206 5.10715C195.326 5.27997 195.373 5.49345 195.335 5.70063C195.298 5.90782 195.18 6.09173 195.007 6.21192C188.613 10.6585 188.997 17.1797 189.251 21.4945C189.396 23.9614 189.501 25.7434 188.005 26.0826C187.947 26.0958 187.888 26.1024 187.828 26.1024Z" fill="#6E70FF"/>
<path d="M0.25391 358.84C0.253168 359.09 0.351698 359.33 0.527813 359.507C0.703928 359.684 0.943203 359.784 1.19301 359.785H569.055C569.306 359.785 569.546 359.685 569.723 359.508C569.901 359.331 570 359.091 570 358.84C570 358.59 569.901 358.349 569.723 358.172C569.546 357.995 569.306 357.896 569.055 357.896H1.19866C1.07496 357.895 0.952406 357.919 0.837984 357.966C0.723562 358.013 0.619512 358.082 0.531786 358.169C0.444061 358.257 0.374375 358.36 0.326702 358.474C0.279028 358.589 0.254298 358.711 0.253935 358.835L0.25391 358.84Z" fill="#CCCCCC"/>
<path d="M351.574 75.3445H339.561C339.242 75.3445 338.936 75.2179 338.711 74.9926C338.486 74.7674 338.359 74.4618 338.359 74.1432C338.359 73.8246 338.486 73.519 338.711 73.2937C338.936 73.0685 339.242 72.9419 339.561 72.9419H351.574C351.892 72.9419 352.198 73.0685 352.423 73.2937C352.649 73.519 352.775 73.8246 352.775 74.1432C352.775 74.4618 352.649 74.7674 352.423 74.9926C352.198 75.2179 351.892 75.3445 351.574 75.3445Z" fill="#6E70FF"/>
<path d="M373.199 75.3445H361.186C361.028 75.3445 360.872 75.3134 360.726 75.2531C360.58 75.1927 360.448 75.1042 360.336 74.9926C360.225 74.8811 360.136 74.7487 360.076 74.6029C360.015 74.4572 359.984 74.301 359.984 74.1432C359.984 73.9854 360.015 73.8292 360.076 73.6835C360.136 73.5377 360.225 73.4053 360.336 73.2937C360.448 73.1822 360.58 73.0937 360.726 73.0333C360.872 72.973 361.028 72.9419 361.186 72.9419H373.199C373.357 72.9419 373.513 72.973 373.659 73.0333C373.804 73.0937 373.937 73.1822 374.048 73.2937C374.16 73.4053 374.248 73.5377 374.309 73.6835C374.369 73.8292 374.4 73.9854 374.4 74.1432C374.4 74.301 374.369 74.4572 374.309 74.6029C374.248 74.7487 374.16 74.8811 374.048 74.9926C373.937 75.1042 373.804 75.1927 373.659 75.2531C373.513 75.3134 373.357 75.3445 373.199 75.3445Z" fill="#6E70FF"/>
<path d="M384.007 84.9554H371.994C371.837 84.9554 371.68 84.9243 371.535 84.8639C371.389 84.8035 371.256 84.7151 371.145 84.6035C371.033 84.492 370.945 84.3595 370.884 84.2138C370.824 84.068 370.793 83.9118 370.793 83.754C370.793 83.5963 370.824 83.4401 370.884 83.2943C370.945 83.1486 371.033 83.0161 371.145 82.9046C371.256 82.793 371.389 82.7045 371.535 82.6442C371.68 82.5838 371.837 82.5527 371.994 82.5527H384.007C384.165 82.5527 384.321 82.5838 384.467 82.6442C384.613 82.7045 384.745 82.793 384.857 82.9046C384.968 83.0161 385.057 83.1486 385.117 83.2943C385.178 83.4401 385.209 83.5963 385.209 83.754C385.209 83.9118 385.178 84.068 385.117 84.2138C385.057 84.3595 384.968 84.492 384.857 84.6035C384.745 84.7151 384.613 84.8035 384.467 84.8639C384.321 84.9243 384.165 84.9554 384.007 84.9554Z" fill="#6E70FF"/>
<path d="M362.452 84.9554H339.561C339.242 84.9554 338.936 84.8288 338.711 84.6035C338.486 84.3782 338.359 84.0727 338.359 83.754C338.359 83.4354 338.486 83.1299 338.711 82.9046C338.936 82.6793 339.242 82.5527 339.561 82.5527H362.452C362.77 82.5527 363.076 82.6793 363.301 82.9046C363.527 83.1299 363.653 83.4354 363.653 83.754C363.653 84.0727 363.527 84.3782 363.301 84.6035C363.076 84.8288 362.77 84.9554 362.452 84.9554Z" fill="#6E70FF"/>
<path d="M405.698 75.3445H382.807C382.488 75.3445 382.183 75.2179 381.957 74.9926C381.732 74.7674 381.605 74.4618 381.605 74.1432C381.605 73.8246 381.732 73.519 381.957 73.2937C382.183 73.0685 382.488 72.9419 382.807 72.9419H405.698C405.856 72.9419 406.012 72.973 406.158 73.0333C406.303 73.0937 406.436 73.1822 406.547 73.2937C406.659 73.4053 406.747 73.5377 406.808 73.6835C406.868 73.8292 406.899 73.9854 406.899 74.1432C406.899 74.301 406.868 74.4572 406.808 74.6029C406.747 74.7487 406.659 74.8811 406.547 74.9926C406.436 75.1042 406.303 75.1927 406.158 75.2531C406.012 75.3134 405.856 75.3445 405.698 75.3445Z" fill="#6E70FF"/>
<path d="M359.799 57.1458H336.908C336.749 57.1462 336.593 57.1154 336.447 57.0552C336.301 56.995 336.168 56.9066 336.056 56.795C335.944 56.6834 335.855 56.5509 335.795 56.4049C335.734 56.259 335.703 56.1025 335.703 55.9445C335.703 55.7865 335.734 55.63 335.795 55.484C335.855 55.3381 335.944 55.2055 336.056 55.0939C336.168 54.9823 336.301 54.8939 336.447 54.8337C336.593 54.7735 336.749 54.7428 336.908 54.7432H359.799C360.117 54.7432 360.423 54.8697 360.648 55.095C360.873 55.3203 361 55.6259 361 55.9445C361 56.2631 360.873 56.5687 360.648 56.7939C360.423 57.0192 360.117 57.1458 359.799 57.1458Z" fill="#6E70FF"/>
<path d="M361.682 64.164C361.458 64.1641 361.239 64.0941 361.056 63.9638C360.874 63.8336 360.737 63.6495 360.664 63.4374C360.591 63.2253 360.586 62.9958 360.65 62.7809C360.714 62.566 360.844 62.3764 361.021 62.2388L366.882 57.6827C367.118 57.4996 367.313 57.2696 367.455 57.0072C367.597 56.7449 367.683 56.4559 367.707 56.1586C367.732 55.8613 367.694 55.5621 367.597 55.2801C367.5 54.998 367.345 54.7392 367.143 54.5201L362.222 49.1927C362.126 49.0889 362.051 48.9673 362.003 48.8347C361.954 48.7022 361.931 48.5613 361.937 48.4202C361.942 48.279 361.976 48.1403 362.035 48.012C362.094 47.8837 362.178 47.7684 362.282 47.6725C362.385 47.5766 362.507 47.5021 362.64 47.4532C362.772 47.4043 362.913 47.382 363.054 47.3876C363.195 47.3931 363.334 47.4264 363.462 47.4856C363.591 47.5448 363.706 47.6286 363.802 47.7324L371.11 55.6432C371.211 55.7527 371.288 55.8819 371.337 56.0228C371.385 56.1636 371.404 56.313 371.392 56.4615C371.38 56.61 371.337 56.7543 371.266 56.8854C371.195 57.0164 371.098 57.1313 370.98 57.2228L362.342 63.9376C362.153 64.0844 361.921 64.1641 361.682 64.164Z" fill="#6E70FF"/>
<path d="M335.753 64.164C335.977 64.1641 336.196 64.0941 336.378 63.9638C336.561 63.8336 336.698 63.6495 336.771 63.4374C336.844 63.2253 336.848 62.9958 336.784 62.7809C336.72 62.566 336.591 62.3764 336.414 62.2388L330.552 57.6827C330.317 57.4996 330.122 57.2696 329.98 57.0072C329.838 56.7449 329.752 56.4559 329.727 56.1586C329.703 55.8613 329.74 55.5621 329.837 55.2801C329.935 54.998 330.089 54.7392 330.292 54.5201L335.213 49.1927C335.309 49.0889 335.383 48.9673 335.432 48.8347C335.481 48.7022 335.503 48.5613 335.498 48.4202C335.492 48.279 335.459 48.1403 335.4 48.012C335.34 47.8837 335.257 47.7684 335.153 47.6725C335.049 47.5766 334.928 47.5021 334.795 47.4532C334.662 47.4043 334.521 47.382 334.38 47.3876C334.239 47.3931 334.1 47.4264 333.972 47.4856C333.844 47.5448 333.729 47.6286 333.633 47.7324L326.325 55.6432C326.224 55.7527 326.146 55.8819 326.098 56.0228C326.049 56.1636 326.03 56.313 326.043 56.4615C326.055 56.61 326.098 56.7543 326.169 56.8854C326.24 57.0164 326.337 57.1313 326.455 57.2228L335.093 63.9376C335.282 64.0844 335.514 64.1641 335.753 64.164Z" fill="#6E70FF"/>
<path d="M371.632 105.556H348.74C348.422 105.556 348.116 105.43 347.891 105.205C347.666 104.979 347.539 104.674 347.539 104.355C347.539 104.037 347.666 103.731 347.891 103.506C348.116 103.28 348.422 103.154 348.74 103.154H371.632C371.95 103.154 372.256 103.28 372.481 103.506C372.706 103.731 372.833 104.037 372.833 104.355C372.833 104.674 372.706 104.979 372.481 105.205C372.256 105.43 371.95 105.556 371.632 105.556Z" fill="#6E70FF"/>
<path d="M375.666 111.499C375.442 111.499 375.223 111.429 375.041 111.299C374.858 111.169 374.721 110.984 374.648 110.772C374.575 110.56 374.571 110.331 374.635 110.116C374.699 109.901 374.828 109.711 375.005 109.574L380.867 105.018C381.102 104.835 381.297 104.605 381.439 104.342C381.581 104.08 381.667 103.791 381.692 103.494C381.716 103.196 381.679 102.897 381.582 102.615C381.484 102.333 381.33 102.074 381.127 101.855L376.206 96.5276C376.11 96.4238 376.036 96.3022 375.987 96.1697C375.938 96.0371 375.916 95.8963 375.921 95.7551C375.927 95.6139 375.96 95.4753 376.019 95.347C376.079 95.2187 376.162 95.1033 376.266 95.0074C376.37 94.9115 376.491 94.837 376.624 94.7881C376.757 94.7392 376.897 94.717 377.039 94.7225C377.18 94.7281 377.318 94.7614 377.447 94.8205C377.575 94.8797 377.69 94.9635 377.786 95.0673L385.094 102.978C385.195 103.088 385.273 103.217 385.321 103.358C385.37 103.499 385.389 103.648 385.376 103.796C385.364 103.945 385.321 104.089 385.25 104.22C385.179 104.351 385.082 104.466 384.964 104.558L376.326 111.273C376.137 111.419 375.905 111.499 375.666 111.499Z" fill="#6E70FF"/>
<path d="M335.753 111.499C335.977 111.499 336.196 111.429 336.378 111.299C336.561 111.169 336.698 110.984 336.771 110.772C336.844 110.56 336.848 110.331 336.784 110.116C336.72 109.901 336.591 109.711 336.414 109.574L330.552 105.018C330.317 104.835 330.122 104.605 329.98 104.342C329.838 104.08 329.752 103.791 329.727 103.494C329.703 103.196 329.74 102.897 329.837 102.615C329.935 102.333 330.089 102.074 330.292 101.855L335.213 96.5276C335.406 96.3181 335.509 96.0402 335.498 95.7551C335.486 95.47 335.362 95.2011 335.153 95.0074C334.943 94.8138 334.665 94.7113 334.38 94.7225C334.095 94.7337 333.826 94.8578 333.633 95.0673L326.325 102.978C326.224 103.088 326.146 103.217 326.098 103.358C326.049 103.499 326.03 103.648 326.043 103.796C326.055 103.945 326.098 104.089 326.169 104.22C326.24 104.351 326.337 104.466 326.455 104.558L335.093 111.273C335.282 111.419 335.514 111.499 335.753 111.499Z" fill="#6E70FF"/>
<path d="M337.79 108.134L342.602 97.1263C342.731 96.8358 342.969 96.608 343.265 96.4929C343.561 96.3777 343.891 96.3845 344.182 96.5117C344.473 96.639 344.702 96.8763 344.818 97.1718C344.935 97.4674 344.93 97.797 344.804 98.0886L339.992 109.096C339.929 109.241 339.838 109.373 339.725 109.483C339.611 109.593 339.477 109.679 339.33 109.738C339.182 109.796 339.025 109.824 338.867 109.821C338.709 109.818 338.553 109.784 338.408 109.721C338.263 109.657 338.132 109.566 338.022 109.452C337.912 109.338 337.827 109.203 337.769 109.055C337.712 108.908 337.684 108.751 337.688 108.592C337.691 108.434 337.726 108.278 337.79 108.134Z" fill="#6E70FF"/>
</svg>
