<svg width="535" height="380" viewBox="0 0 535 380" fill="none" xmlns="http://www.w3.org/2000/svg">
<g clip-path="url(#clip0_867_481)">
<path d="M55.334 370.418L64.2133 370.418L68.4378 336.094L55.332 336.095L55.334 370.418Z" fill="#FFB6B6"/>
<path d="M55.0239 379.701L82.3306 379.7V379.354C82.3304 376.529 81.2105 373.82 79.2173 371.823C77.2241 369.826 74.5208 368.703 71.7021 368.703H71.7014L66.7135 364.911L57.4071 368.704L55.0234 368.704L55.0239 379.701Z" fill="#2F2E41"/>
<path d="M69.6758 328.891L76.6665 334.378L101.114 309.968L90.7962 301.869L69.6758 328.891Z" fill="#FFB6B6"/>
<path d="M63.7148 336.005L85.2118 352.879L85.4248 352.607C87.1629 350.383 87.9484 347.558 87.6084 344.754C87.2685 341.95 85.831 339.396 83.6121 337.654L83.6115 337.654L82.0185 331.586L72.3584 328.821L70.4819 327.348L63.7148 336.005Z" fill="#2F2E41"/>
<path d="M111.482 172.5C111.482 172.5 123.268 184.748 118.03 213.18L122.427 261.862L123.562 264.116C124.238 265.459 124.474 266.982 124.237 268.467C123.999 269.952 123.3 271.324 122.238 272.388L121.303 275.293L120.43 280.98L87.9114 329.97L75.4713 316.848L95.5501 270.919L90.0939 259.109L77.4356 217.992L68.7056 293.227L70.4516 357.965H53.7428L43.3889 285.791L32.4766 184.311L38.1527 172.5H111.482Z" fill="#2F2E41"/>
<path d="M35.1973 193.545L35.0782 193.378C28.7183 184.455 38.2836 163.014 39.7263 159.906C38.0132 159.348 36.5457 158.213 35.5738 156.694C34.602 155.174 34.1859 153.364 34.3963 151.572L35.0182 146.274L35.6664 141.078L31.0223 136.424L31.0092 136.307L28.3366 112.873L24.4506 97.3074C22.9865 91.4231 23.1113 85.2545 24.8122 79.4345C26.5131 73.6146 29.7289 68.3531 34.1295 64.1902L43.1118 62.7609L54.0281 52.2207H71.6319L77.6679 57.9997C88.9356 59.9801 90.8714 59.3335 100.55 70.9725L96.1522 107.159L95.0551 112.137L95.0583 118.889L97.8476 121.995C98.8524 123.114 99.5825 124.453 99.9797 125.905C100.377 127.356 100.43 128.881 100.136 130.357L99.769 132.195C102.646 133.43 105.391 155.386 106.047 158.453L107.026 163.034C107.864 164.142 113.397 171.534 113.397 173.555C113.397 173.858 113.173 174.152 112.694 174.477C108.924 177.035 93.8926 195.183 84.6698 191.485C74.8458 187.548 35.7937 193.454 35.4002 193.514L35.1973 193.545Z" fill="#3F3D56"/>
<path d="M32.8312 151.466C32.8312 151.466 37.3518 125.864 32.7976 116.235L14.7305 117.529L17.48 154.054L33.274 194.608C33.0329 195.857 33.1261 197.148 33.5439 198.35C33.9618 199.552 34.6895 200.621 35.6532 201.45C36.6169 202.279 37.7823 202.837 39.031 203.069C40.2798 203.3 41.5674 203.197 42.7632 202.768C43.959 202.34 45.0204 201.602 45.8396 200.63C46.6589 199.657 47.2068 198.485 47.4278 197.232C47.6488 195.979 47.5349 194.689 47.0978 193.494C46.6607 192.299 45.9159 191.242 44.939 190.429L32.8312 151.466Z" fill="#FFB6B6"/>
<path d="M14.7302 102.657L15.8484 90.4543C16.2692 85.8617 17.592 81.3979 19.7406 77.3195C21.8892 73.2412 24.8213 69.6287 28.3681 66.69C30.5719 64.8776 33.2376 63.719 36.0639 63.3451C38.8903 62.9712 41.7647 63.397 44.3623 64.5742C47.8728 66.1938 50.6386 69.0888 52.1005 72.6739C53.5624 76.2589 53.6114 80.2664 52.2374 83.8862C48.0617 94.8609 49.5695 106.467 41.4272 107.882L42.3118 112.099L34.3059 138.281L11.5039 135.634L14.7302 102.657Z" fill="#3F3D56"/>
<path d="M134.991 139.332C134.991 139.332 121.757 116.968 112.039 112.645L99.1836 125.432L125.037 151.325L163.401 171.748C164.032 172.853 164.942 173.771 166.041 174.409C167.14 175.047 168.388 175.382 169.658 175.381C170.928 175.379 172.174 175.041 173.272 174.401C174.369 173.76 175.278 172.84 175.906 171.734C176.533 170.627 176.858 169.375 176.846 168.102C176.834 166.829 176.487 165.583 175.839 164.488C175.191 163.394 174.266 162.491 173.157 161.87C172.048 161.25 170.795 160.935 169.525 160.957L134.991 139.332Z" fill="#FFB6B6"/>
<path d="M89.5046 114.157L82.4115 104.176C79.7419 100.419 77.8399 96.1708 76.8147 91.6748C75.7896 87.1788 75.6615 82.5241 76.438 77.9784C76.9293 75.1642 78.1962 72.5438 80.0956 70.4133C81.995 68.2828 84.4512 66.7272 87.1866 65.9221C90.9018 64.8558 94.8826 65.2431 98.3238 67.0056C101.765 68.768 104.41 71.7742 105.724 75.4163C109.7 86.4652 124.203 104.624 118.951 111.018L122.367 113.637L127.528 128.372L108.519 141.266L89.5046 114.157Z" fill="#3F3D56"/>
<path d="M61.6402 47.1289C72.4375 47.1289 81.1905 38.3575 81.1905 27.5374C81.1905 16.7172 72.4375 7.9458 61.6402 7.9458C50.8428 7.9458 42.0898 16.7172 42.0898 27.5374C42.0898 38.3575 50.8428 47.1289 61.6402 47.1289Z" fill="#FFB6B6"/>
<path d="M47.4532 41.3461C47.2825 41.1961 47.1215 41.036 46.9547 40.8818C46.9487 40.8976 46.9478 40.9138 46.9414 40.9296L47.4532 41.3461Z" fill="#2F2E41"/>
<path d="M77.6633 6.84838C76.6919 5.28139 75.3465 3.98144 73.7484 3.06586C72.6561 2.53496 71.5083 2.12742 70.3261 1.85074L67.2322 1.00479C65.6469 0.513219 64.0159 0.184123 62.3643 0.0225774C60.0708 -0.0908012 57.7904 0.429586 55.772 1.52689C53.7536 2.6242 52.075 4.25622 50.9194 6.24471C49.9846 7.90622 49.2348 9.97667 47.4307 10.5846C45.9759 11.0747 44.3888 10.3833 42.8599 10.5175C41.964 10.6475 41.1139 10.9971 40.3851 11.5351C39.6562 12.0731 39.071 12.783 38.6814 13.6018C37.9194 15.2496 37.5444 17.0504 37.5852 18.866C37.5251 22.9881 38.3279 27.0771 39.9418 30.8692C41.5557 34.6612 43.9449 38.0722 46.9553 40.882C47.4599 39.5491 46.6288 38.1101 45.9718 36.8351C45.307 35.5449 44.8962 33.7463 46.0096 32.8171C47.2485 31.7832 49.2334 32.7858 50.6985 32.1115C51.1673 31.8417 51.5621 31.4598 51.8476 30.9998C52.1332 30.5398 52.3006 30.0162 52.335 29.4756C52.4768 28.4043 52.3287 27.3154 52.3958 26.2368C52.4623 25.1677 52.7395 24.1223 53.2114 23.1612C53.6833 22.2 54.3405 21.342 55.1451 20.6368C55.9498 19.9316 56.8858 19.3931 57.8993 19.0524C58.9127 18.7117 59.9835 18.5756 61.0497 18.652C64.3847 18.8907 67.6212 21.1744 70.8306 20.2349C72.337 19.7939 73.6219 18.6711 75.18 18.4822C76.9055 18.273 78.5288 19.2489 79.9939 20.1859C80.5263 17.9204 80.5943 15.5702 80.1937 13.2776C79.793 10.985 78.9322 8.79779 77.6633 6.84838Z" fill="#2F2E41"/>
<path d="M145.441 368.694L140.466 360.683L139.473 365.261C139.298 366.062 139.124 366.877 138.963 367.685C137.55 366.476 136.046 365.358 134.575 364.284C130.059 360.999 125.544 357.71 121.031 354.417L122.444 362.629C123.315 367.686 124.225 372.845 126.38 377.469C126.619 377.993 126.877 378.51 127.155 379.014H148.151C148.32 378.546 148.437 378.06 148.5 377.566C148.505 377.534 148.507 377.501 148.506 377.469C148.835 374.333 147.106 371.378 145.441 368.694Z" fill="#F0F0F0"/>
<path d="M509.417 360.042L500.394 345.51L498.591 353.814C498.275 355.268 497.959 356.746 497.666 358.212C495.103 356.019 492.376 353.99 489.708 352.043C481.515 346.084 473.326 340.118 465.141 334.145L467.704 349.04C469.284 358.212 470.934 367.572 474.843 375.958C475.277 376.908 475.745 377.846 476.248 378.761H514.333C514.64 377.911 514.852 377.03 514.965 376.134C514.975 376.075 514.979 376.016 514.977 375.958C515.574 370.269 512.437 364.909 509.417 360.042Z" fill="#F0F0F0"/>
<path d="M534.233 379.802L0.769978 380C0.566599 380 0.371756 379.918 0.228154 379.774C0.0845516 379.63 0.00390625 379.434 0.00390625 379.23C0.00390625 379.027 0.0845516 378.831 0.228154 378.687C0.371756 378.542 0.566599 378.461 0.769978 378.46L534.233 378.262C534.437 378.262 534.632 378.344 534.775 378.488C534.919 378.632 535 378.828 535 379.032C535 379.235 534.919 379.431 534.775 379.575C534.632 379.72 534.437 379.801 534.233 379.802Z" fill="#CACACA"/>
<path d="M167.379 154.086V339.68C167.381 342.045 168.319 344.313 169.988 345.985C171.657 347.658 173.92 348.598 176.28 348.6H450.732C453.092 348.598 455.355 347.658 457.024 345.985C458.693 344.313 459.631 342.045 459.633 339.68V154.086C459.628 151.723 458.688 149.459 457.019 147.789C455.351 146.119 453.09 145.179 450.732 145.176H176.28C173.922 145.179 171.661 146.119 169.993 147.789C168.324 149.459 167.385 151.723 167.379 154.086Z" fill="#3F3D56"/>
<path d="M173.816 156.396V337.391C173.819 338.655 174.32 339.866 175.212 340.759C176.104 341.653 177.313 342.156 178.574 342.158H448.447C449.708 342.156 450.916 341.653 451.808 340.759C452.7 339.866 453.202 338.655 453.204 337.391V156.396C453.204 155.131 452.703 153.917 451.811 153.021C450.919 152.126 449.709 151.621 448.447 151.619H178.574C177.311 151.621 176.101 152.126 175.209 153.021C174.317 153.917 173.817 155.131 173.816 156.396Z" fill="white"/>
<path d="M161.638 375.876C162.14 376.508 162.78 377.017 163.507 377.366C164.234 377.715 165.031 377.894 165.837 377.89H459.711C460.515 377.889 461.308 377.708 462.034 377.361C462.759 377.014 463.398 376.51 463.904 375.884C464.41 375.259 464.771 374.528 464.96 373.745C465.149 372.963 465.162 372.147 464.997 371.359L460.435 349.645C460.246 348.76 459.839 347.935 459.251 347.248C458.663 346.56 457.913 346.031 457.068 345.708C456.457 345.468 455.806 345.345 455.149 345.346H170.381C169.725 345.345 169.074 345.468 168.462 345.708C167.618 346.031 166.868 346.56 166.28 347.248C165.691 347.935 165.284 348.76 165.095 349.645L160.533 371.359C160.371 372.147 160.386 372.961 160.577 373.743C160.768 374.524 161.13 375.253 161.638 375.876Z" fill="#2F2E41"/>
<path d="M444.326 354.698H452.748C452.921 354.698 453.062 354.557 453.062 354.383V349.572C453.062 349.397 452.921 349.256 452.748 349.256H444.326C444.152 349.256 444.011 349.397 444.011 349.572V354.383C444.011 354.557 444.152 354.698 444.326 354.698Z" fill="#3F3D56"/>
<path d="M426.225 354.698H434.646C434.82 354.698 434.961 354.557 434.961 354.383V349.572C434.961 349.397 434.82 349.256 434.646 349.256H426.225C426.051 349.256 425.91 349.397 425.91 349.572V354.383C425.91 354.557 426.051 354.698 426.225 354.698Z" fill="#3F3D56"/>
<path d="M408.119 354.698H416.54C416.714 354.698 416.855 354.557 416.855 354.383V349.572C416.855 349.397 416.714 349.256 416.54 349.256H408.119C407.945 349.256 407.804 349.397 407.804 349.572V354.383C407.804 354.557 407.945 354.698 408.119 354.698Z" fill="#3F3D56"/>
<path d="M390.018 354.698H398.439C398.613 354.698 398.754 354.557 398.754 354.383V349.572C398.754 349.397 398.613 349.256 398.439 349.256H390.018C389.844 349.256 389.703 349.397 389.703 349.572V354.383C389.703 354.557 389.844 354.698 390.018 354.698Z" fill="#3F3D56"/>
<path d="M371.916 354.698H380.337C380.511 354.698 380.652 354.557 380.652 354.383V349.572C380.652 349.397 380.511 349.256 380.337 349.256H371.916C371.742 349.256 371.601 349.397 371.601 349.572V354.383C371.601 354.557 371.742 354.698 371.916 354.698Z" fill="#3F3D56"/>
<path d="M353.815 354.698H362.236C362.41 354.698 362.551 354.557 362.551 354.383V349.572C362.551 349.397 362.41 349.256 362.236 349.256H353.815C353.641 349.256 353.5 349.397 353.5 349.572V354.383C353.5 354.557 353.641 354.698 353.815 354.698Z" fill="#3F3D56"/>
<path d="M335.713 354.698H344.134C344.308 354.698 344.449 354.557 344.449 354.383V349.572C344.449 349.397 344.308 349.256 344.134 349.256H335.713C335.539 349.256 335.398 349.397 335.398 349.572V354.383C335.398 354.557 335.539 354.698 335.713 354.698Z" fill="#3F3D56"/>
<path d="M317.608 354.698H326.029C326.203 354.698 326.344 354.557 326.344 354.383V349.572C326.344 349.397 326.203 349.256 326.029 349.256H317.608C317.434 349.256 317.293 349.397 317.293 349.572V354.383C317.293 354.557 317.434 354.698 317.608 354.698Z" fill="#3F3D56"/>
<path d="M299.506 354.698H307.927C308.101 354.698 308.242 354.557 308.242 354.383V349.572C308.242 349.397 308.101 349.256 307.927 349.256H299.506C299.332 349.256 299.191 349.397 299.191 349.572V354.383C299.191 354.557 299.332 354.698 299.506 354.698Z" fill="#3F3D56"/>
<path d="M281.404 354.698H289.826C290 354.698 290.141 354.557 290.141 354.383V349.572C290.141 349.397 290 349.256 289.826 349.256H281.404C281.23 349.256 281.089 349.397 281.089 349.572V354.383C281.089 354.557 281.23 354.698 281.404 354.698Z" fill="#3F3D56"/>
<path d="M263.303 354.698H271.724C271.898 354.698 272.039 354.557 272.039 354.383V349.572C272.039 349.397 271.898 349.256 271.724 349.256H263.303C263.129 349.256 262.988 349.397 262.988 349.572V354.383C262.988 354.557 263.129 354.698 263.303 354.698Z" fill="#3F3D56"/>
<path d="M245.201 354.698H253.622C253.796 354.698 253.938 354.557 253.938 354.383V349.572C253.938 349.397 253.796 349.256 253.622 349.256H245.201C245.027 349.256 244.886 349.397 244.886 349.572V354.383C244.886 354.557 245.027 354.698 245.201 354.698Z" fill="#3F3D56"/>
<path d="M227.096 354.698H235.517C235.691 354.698 235.832 354.557 235.832 354.383V349.572C235.832 349.397 235.691 349.256 235.517 349.256H227.096C226.922 349.256 226.781 349.397 226.781 349.572V354.383C226.781 354.557 226.922 354.698 227.096 354.698Z" fill="#3F3D56"/>
<path d="M208.994 354.698H217.415C217.589 354.698 217.73 354.557 217.73 354.383V349.572C217.73 349.397 217.589 349.256 217.415 349.256H208.994C208.82 349.256 208.679 349.397 208.679 349.572V354.383C208.679 354.557 208.82 354.698 208.994 354.698Z" fill="#3F3D56"/>
<path d="M190.893 354.698H199.314C199.488 354.698 199.629 354.557 199.629 354.383V349.572C199.629 349.397 199.488 349.256 199.314 349.256H190.893C190.719 349.256 190.578 349.397 190.578 349.572V354.383C190.578 354.557 190.719 354.698 190.893 354.698Z" fill="#3F3D56"/>
<path d="M172.791 354.698H181.212C181.386 354.698 181.527 354.557 181.527 354.383V349.572C181.527 349.397 181.386 349.256 181.212 349.256H172.791C172.617 349.256 172.476 349.397 172.476 349.572V354.383C172.476 354.557 172.617 354.698 172.791 354.698Z" fill="#3F3D56"/>
<path d="M444.541 363.769H452.962C453.136 363.769 453.277 363.627 453.277 363.453V358.642C453.277 358.468 453.136 358.326 452.962 358.326H444.541C444.367 358.326 444.226 358.468 444.226 358.642V363.453C444.226 363.627 444.367 363.769 444.541 363.769Z" fill="#3F3D56"/>
<path d="M426.436 363.769H434.857C435.031 363.769 435.172 363.627 435.172 363.453V358.642C435.172 358.468 435.031 358.326 434.857 358.326H426.436C426.262 358.326 426.121 358.468 426.121 358.642V363.453C426.121 363.627 426.262 363.769 426.436 363.769Z" fill="#3F3D56"/>
<path d="M408.334 363.769H416.755C416.929 363.769 417.07 363.627 417.07 363.453V358.642C417.07 358.468 416.929 358.326 416.755 358.326H408.334C408.16 358.326 408.019 358.468 408.019 358.642V363.453C408.019 363.627 408.16 363.769 408.334 363.769Z" fill="#3F3D56"/>
<path d="M390.233 363.769H398.654C398.828 363.769 398.969 363.627 398.969 363.453V358.642C398.969 358.468 398.828 358.326 398.654 358.326H390.233C390.059 358.326 389.918 358.468 389.918 358.642V363.453C389.918 363.627 390.059 363.769 390.233 363.769Z" fill="#3F3D56"/>
<path d="M372.131 363.769H380.552C380.726 363.769 380.867 363.627 380.867 363.453V358.642C380.867 358.468 380.726 358.326 380.552 358.326H372.131C371.957 358.326 371.816 358.468 371.816 358.642V363.453C371.816 363.627 371.957 363.769 372.131 363.769Z" fill="#3F3D56"/>
<path d="M354.029 363.769H362.451C362.625 363.769 362.766 363.627 362.766 363.453V358.642C362.766 358.468 362.625 358.326 362.451 358.326H354.029C353.855 358.326 353.714 358.468 353.714 358.642V363.453C353.714 363.627 353.855 363.769 354.029 363.769Z" fill="#3F3D56"/>
<path d="M335.924 363.769H344.345C344.519 363.769 344.66 363.627 344.66 363.453V358.642C344.66 358.468 344.519 358.326 344.345 358.326H335.924C335.75 358.326 335.609 358.468 335.609 358.642V363.453C335.609 363.627 335.75 363.769 335.924 363.769Z" fill="#3F3D56"/>
<path d="M317.822 363.769H326.244C326.418 363.769 326.559 363.627 326.559 363.453V358.642C326.559 358.468 326.418 358.326 326.244 358.326H317.822C317.648 358.326 317.507 358.468 317.507 358.642V363.453C317.507 363.627 317.648 363.769 317.822 363.769Z" fill="#3F3D56"/>
<path d="M299.721 363.769H308.142C308.316 363.769 308.457 363.627 308.457 363.453V358.642C308.457 358.468 308.316 358.326 308.142 358.326H299.721C299.547 358.326 299.406 358.468 299.406 358.642V363.453C299.406 363.627 299.547 363.769 299.721 363.769Z" fill="#3F3D56"/>
<path d="M281.619 363.769H290.04C290.214 363.769 290.355 363.627 290.355 363.453V358.642C290.355 358.468 290.214 358.326 290.04 358.326H281.619C281.445 358.326 281.304 358.468 281.304 358.642V363.453C281.304 363.627 281.445 363.769 281.619 363.769Z" fill="#3F3D56"/>
<path d="M263.518 363.769H271.939C272.113 363.769 272.254 363.627 272.254 363.453V358.642C272.254 358.468 272.113 358.326 271.939 358.326H263.518C263.344 358.326 263.203 358.468 263.203 358.642V363.453C263.203 363.627 263.344 363.769 263.518 363.769Z" fill="#3F3D56"/>
<path d="M245.412 363.769H253.833C254.007 363.769 254.148 363.627 254.148 363.453V358.642C254.148 358.468 254.007 358.326 253.833 358.326H245.412C245.238 358.326 245.097 358.468 245.097 358.642V363.453C245.097 363.627 245.238 363.769 245.412 363.769Z" fill="#3F3D56"/>
<path d="M227.311 363.769H235.732C235.906 363.769 236.047 363.627 236.047 363.453V358.642C236.047 358.468 235.906 358.326 235.732 358.326H227.311C227.137 358.326 226.996 358.468 226.996 358.642V363.453C226.996 363.627 227.137 363.769 227.311 363.769Z" fill="#3F3D56"/>
<path d="M209.209 363.769H217.63C217.804 363.769 217.945 363.627 217.945 363.453V358.642C217.945 358.468 217.804 358.326 217.63 358.326H209.209C209.035 358.326 208.894 358.468 208.894 358.642V363.453C208.894 363.627 209.035 363.769 209.209 363.769Z" fill="#3F3D56"/>
<path d="M191.108 363.769H199.529C199.703 363.769 199.844 363.627 199.844 363.453V358.642C199.844 358.468 199.703 358.326 199.529 358.326H191.108C190.934 358.326 190.793 358.468 190.793 358.642V363.453C190.793 363.627 190.934 363.769 191.108 363.769Z" fill="#3F3D56"/>
<path d="M173.006 363.769H181.427C181.601 363.769 181.742 363.627 181.742 363.453V358.642C181.742 358.468 181.601 358.326 181.427 358.326H173.006C172.832 358.326 172.691 358.468 172.691 358.642V363.453C172.691 363.627 172.832 363.769 173.006 363.769Z" fill="#3F3D56"/>
<path d="M274.288 374.653H346.068C346.242 374.653 346.383 374.512 346.383 374.338V369.527C346.383 369.352 346.242 369.211 346.068 369.211H274.288C274.114 369.211 273.973 369.352 273.973 369.527V374.338C273.973 374.512 274.114 374.653 274.288 374.653Z" fill="#3F3D56"/>
<path d="M374.988 261.258C374.958 276.537 369.226 291.252 358.918 302.511C348.61 313.769 334.473 320.756 319.285 322.098C304.097 323.441 288.957 319.041 276.842 309.764C264.727 300.488 256.514 287.005 253.815 271.967C251.117 256.929 254.13 241.424 262.262 228.499C270.394 215.575 283.056 206.166 297.759 202.123C312.463 198.079 328.143 199.694 341.719 206.649C355.294 213.604 365.783 225.397 371.122 239.709C371.255 240.068 371.385 240.427 371.511 240.79V240.794C372.075 242.389 372.571 244.013 373 245.668C374.324 250.758 374.992 255.998 374.988 261.258Z" fill="#3F3D56"/>
<path d="M306.785 219.691C304.022 218.194 300.954 217.349 297.816 217.22C294.677 217.091 291.551 217.682 288.676 218.949C286.144 220.053 283.477 222.034 282.633 225.611C286.049 223.59 290.471 226.783 291.35 231.903L291.145 231.96C290.681 235.507 291.717 239.369 293.724 241.568C293.873 240.576 294.241 239.629 294.801 238.797C295.361 237.965 296.098 237.268 296.961 236.758C298.435 235.786 300.066 235.081 301.191 233.411C302.525 231.432 302.864 228.54 303.394 225.901C303.924 223.262 304.93 220.426 306.785 219.691Z" fill="#6E70FF"/>
<path d="M287.659 249.874C286.713 251.298 285.45 252.191 284.316 253.304C283.007 254.497 282.148 256.106 281.884 257.859C281.74 259.098 281.962 260.358 281.932 261.611C281.901 262.863 281.484 264.274 280.634 264.585C279.291 265.071 278.267 262.573 276.887 262.398C275.79 262.261 274.803 263.99 275.121 265.489C275.439 266.988 276.931 267.652 277.789 266.673C278.564 267.977 278.017 270.342 276.853 270.743C276.73 271.564 276.607 272.382 276.487 273.204C273.543 271.14 270.568 269.042 268.065 266.019C265.28 262.686 263.553 258.596 263.105 254.272C262.781 250.798 263.262 246.825 261.671 244.151C260.397 242.012 258.211 241.54 256.243 241.673C255.885 241.697 255.523 241.738 255.164 241.783C256.324 238.291 257.798 234.911 259.567 231.686C259.967 231.513 260.339 231.282 260.67 230.998C262.501 229.44 263.314 226.288 264.799 224.108C264.895 223.967 264.994 223.83 265.096 223.697C266.616 221.708 268.652 220.685 270.619 219.733C274.974 217.615 279.455 215.469 284.053 215.763L282.745 215.89C281.218 220.175 279.69 224.46 278.161 228.746C277.929 229.403 277.694 230.061 277.457 230.72C276.59 233.157 275.695 235.752 275.828 238.48C275.907 240.095 276.467 241.82 277.532 242.375C278.526 242.888 279.613 242.259 280.572 241.636C280.979 241.375 281.382 241.115 281.788 240.852C283.247 239.911 284.862 238.945 286.403 239.575C287.813 240.15 288.855 242.07 289.053 244.141C289.235 246.154 288.745 248.17 287.659 249.874Z" fill="#6E70FF"/>
<path d="M296.336 279.131C292.077 276.502 287.817 273.874 283.558 271.246L283.63 271.06C280.982 272.07 279.882 276.788 280.32 280.646C280.758 284.504 282.242 287.953 282.991 291.712C284.002 296.856 283.621 302.178 281.886 307.124C287.487 300.826 292.444 293.981 296.683 286.692C297.275 285.774 297.726 284.771 298.021 283.718C298.334 282.596 298.222 281.398 297.708 280.353C297.359 279.838 296.888 279.418 296.336 279.131Z" fill="#6E70FF"/>
<path d="M279.522 231.316C279.022 232.393 278.945 233.618 279.307 234.749C279.727 235.66 280.489 236.367 281.428 236.718L283.781 237.887C284.564 238.276 285.408 238.668 286.206 238.348C287.169 237.962 287.837 236.45 287.664 235.046C287.48 233.552 286.54 232.524 285.671 231.649C284.455 230.424 283.238 229.199 282.022 227.974L281.336 228.816C280.595 229.54 279.982 230.386 279.522 231.316Z" fill="#6E70FF"/>
<path d="M362.37 247.29C363.429 247.54 364.488 247.789 365.547 248.039C365.362 251.623 363.59 254.94 361.213 256.141C360.222 256.641 359.119 256.825 358.299 257.76C357.558 258.609 357.182 259.93 356.837 261.193C356.233 263.397 355.628 265.601 355.024 267.806C354.375 270.181 353.541 272.82 351.854 273.676C350.406 274.411 348.749 273.511 347.636 272.002C346.522 270.492 345.843 268.463 345.183 266.484C345.224 268.641 344.224 270.756 342.806 271.506C341.385 272.255 339.657 271.577 338.708 269.904C338.025 268.702 337.741 267.118 337.072 265.899C336.402 264.681 334.998 263.982 334.267 265.126C333.786 265.885 333.847 267.049 333.608 268.014C333.488 268.655 333.171 269.243 332.702 269.695C332.233 270.147 331.636 270.441 330.992 270.537C330.4 270.523 329.817 270.389 329.279 270.143C328.74 269.896 328.257 269.542 327.86 269.103C325.768 266.959 324.407 264.207 323.97 261.241C323.673 259.819 323.711 258.347 324.079 256.942C324.499 255.61 325.513 254.584 326.521 254.837C327.184 253.433 325.875 251.572 324.697 251.736C323.515 251.9 322.59 253.17 321.62 254.145C320.653 255.121 319.301 255.829 318.327 254.861C318.338 255.045 318.312 255.23 318.248 255.403C318.185 255.576 318.086 255.735 317.959 255.868C317.832 256.002 317.678 256.107 317.508 256.178C317.338 256.249 317.155 256.284 316.971 256.281C316.324 256.095 315.722 255.776 315.205 255.343C312.975 253.95 310.143 254.875 308.559 257.51C309.549 253.286 311.001 248.44 314.044 247.447C315.287 247.04 316.643 247.375 317.818 246.67C319.898 245.421 320.318 240.701 318.522 238.753C318.751 240.595 318.706 242.744 317.736 244.004C316.766 245.263 314.73 244.442 314.853 242.58C314.826 242.842 314.716 243.088 314.54 243.284C314.364 243.48 314.131 243.614 313.874 243.669C313.617 243.724 313.349 243.696 313.109 243.589C312.869 243.481 312.669 243.301 312.538 243.073C311.892 242.087 311.947 240.475 312.405 239.298C312.876 238.231 313.553 237.268 314.396 236.464C316.018 234.721 317.664 232.959 319.543 231.863C321.425 230.768 323.597 230.398 325.483 231.487C326.477 232.062 327.351 233.02 328.365 233.527C328.608 233.678 328.879 233.779 329.162 233.823C329.444 233.867 329.733 233.854 330.01 233.785C330.288 233.715 330.549 233.59 330.777 233.418C331.005 233.245 331.197 233.029 331.34 232.781C332.095 231.453 331.74 229.481 332.02 227.821C332.522 224.888 335.449 223.515 337.072 225.453C335.859 225.141 334.606 226.579 334.455 228.321C334.302 230.063 335.179 231.822 336.354 232.349C338.329 233.226 340.262 231.021 341.754 228.981C343.312 226.846 344.872 224.711 346.434 222.578C346.683 222.214 346.963 221.873 347.27 221.558C347.76 221.08 348.412 220.806 349.095 220.792C349.778 220.778 350.441 221.025 350.949 221.482C352.527 222.773 353.268 225.418 354.563 227.239C356.441 229.885 359.252 230.529 361.868 231.042C363.819 231.422 365.77 231.804 367.723 232.189C369.024 234.615 370.16 237.128 371.121 239.708C367.541 241.345 364.504 243.976 362.37 247.29Z" fill="#6E70FF"/>
<path d="M373.002 245.667C372.602 246.849 372.383 248.085 372.353 249.333C370.68 247.286 370.413 243.45 371.513 240.793C372.077 242.388 372.573 244.013 373.002 245.667Z" fill="#6E70FF"/>
<path d="M368.677 288.472C367.213 291.45 365.511 294.304 363.587 297.005C362.358 296.478 361.036 297.419 359.885 298.303C358.683 299.227 357.238 300.127 356.005 299.285C354.745 298.422 354.338 296.009 354.738 294.096C355.197 292.331 356 290.674 357.101 289.222C358.126 287.689 359.222 286.097 360.647 285.501C362.074 284.906 363.908 285.748 364.325 287.781L365.336 287.747C364.769 286.966 365.066 285.351 365.828 285.067C366.706 284.735 367.467 285.943 367.987 287.011C368.219 287.493 368.455 287.98 368.677 288.472Z" fill="#6E70FF"/>
<path d="M329.957 274.015C327.784 274.152 326.063 271.471 324.919 268.834C323.775 266.197 322.732 263.181 320.771 261.838C319.65 261.071 318.373 260.966 317.158 260.594C316.469 260.42 315.831 260.083 315.297 259.612C314.764 259.142 314.35 258.55 314.09 257.887L312.711 257.329C310.783 258.295 309.017 259.557 307.478 261.069C305.718 262.942 304.622 265.342 304.359 267.901C304.096 270.666 305.068 273.749 306.885 274.788C308.321 275.609 309.992 275.091 311.446 275.843C313.263 276.781 314.342 279.508 314.75 282.201C315.158 284.893 315.055 287.691 315.347 290.414C315.639 293.137 316.444 295.971 318.111 297.366C320.196 299.113 323.255 297.662 324.191 294.483C324.65 292.924 324.634 291.164 324.977 289.546C325.581 286.695 327.212 284.58 328.506 282.242C329.799 279.904 330.818 276.729 329.957 274.015Z" fill="#6E70FF"/>
<path d="M308.484 246.006C308.687 246.193 308.876 246.394 309.05 246.608C309.23 246.919 309.322 247.274 309.316 247.634C309.31 247.994 309.206 248.345 309.015 248.65C309.277 248.636 309.533 248.566 309.766 248.447C310 248.328 310.207 248.162 310.373 247.959C310.77 247.506 311.119 247.014 311.414 246.489C311.553 246.31 311.652 246.102 311.705 245.881C311.758 245.66 311.764 245.43 311.721 245.207C311.618 244.914 311.376 244.788 311.206 244.568C310.97 244.136 310.809 243.667 310.729 243.181C310.635 242.726 310.416 242.306 310.096 241.969C309.777 241.632 309.37 241.39 308.921 241.272L309.03 241.293C308.845 241.403 308.699 241.569 308.612 241.766C308.525 241.964 308.502 242.184 308.546 242.396C308.612 242.823 308.886 243.177 308.859 243.613C308.82 244.239 308.195 244.533 308.156 245.16C308.15 245.474 308.268 245.778 308.484 246.006Z" fill="#6E70FF"/>
<path d="M304.762 235.361L304.771 235.36C304.838 235.299 304.9 235.232 304.957 235.162L304.762 235.361Z" fill="#6E70FF"/>
<path d="M305.412 238.302C305.673 238.072 305.866 237.775 305.97 237.443C306.074 237.111 306.085 236.757 306.002 236.419C305.844 235.707 305.286 235.228 304.77 235.36C304.621 235.512 304.435 235.623 304.231 235.683C304.027 235.743 303.81 235.751 303.603 235.704C303.284 235.622 302.934 235.41 302.658 235.651C302.5 235.83 302.389 236.047 302.336 236.28C302.234 236.595 302.132 236.91 302.029 237.224C301.981 237.337 301.968 237.462 301.993 237.582C302.013 237.63 302.044 237.672 302.085 237.705C302.125 237.737 302.174 237.758 302.225 237.767C302.839 237.948 303.452 238.129 304.066 238.311C304.277 238.408 304.507 238.458 304.74 238.456C304.973 238.455 305.202 238.402 305.412 238.302Z" fill="#6E70FF"/>
<path d="M351.743 278.895C351.459 278.429 351.175 277.964 350.892 277.498C350.613 276.96 350.232 276.48 349.77 276.087C349.669 276.002 349.551 275.938 349.424 275.899C349.298 275.86 349.165 275.847 349.033 275.86C348.901 275.873 348.773 275.913 348.657 275.976C348.541 276.04 348.438 276.126 348.355 276.229L348.39 276.495C349.15 277.311 349.667 278.323 349.885 279.418C349.949 279.894 349.927 280.386 349.984 280.864C349.99 281.085 350.039 281.303 350.129 281.505C350.219 281.708 350.349 281.89 350.509 282.043C350.956 282.342 351.48 281.901 351.798 281.363C352.083 280.921 352.21 280.396 352.16 279.873C352.089 279.521 351.947 279.189 351.743 278.895Z" fill="#6E70FF"/>
<path d="M356.191 279.501C356.245 279.065 356.21 278.623 356.087 278.201C356.067 277.631 356.218 277.068 356.52 276.584C356.821 276.128 357.049 275.628 357.195 275.101C357.257 274.861 357.246 274.608 357.163 274.375C357.069 274.164 356.842 274.067 356.711 274.235L356.99 274.415C356.613 274.347 356.226 274.366 355.857 274.47C355.647 274.55 355.459 274.681 355.31 274.85C355.16 275.018 355.054 275.221 354.999 275.44C354.953 275.781 354.877 276.118 354.774 276.446C354.607 276.789 354.285 276.903 354.082 277.204C353.944 277.471 353.874 277.768 353.879 278.069C353.884 278.37 353.964 278.664 354.111 278.927C354.365 279.355 354.769 279.674 355.245 279.821C355.586 279.943 356.035 279.95 356.191 279.501Z" fill="#6E70FF"/>
<path d="M364.118 281.897C364.241 282.218 364.406 282.522 364.609 282.8C364.988 283.183 365.504 282.948 365.964 282.854C366.382 282.788 366.809 282.837 367.202 282.995C367.594 283.152 367.937 283.413 368.193 283.75C368.015 282.858 367.625 282.022 367.057 281.312C366.49 280.602 365.76 280.039 364.93 279.671C363.851 279.296 362.715 279.118 361.574 279.145L361.379 279.195C361.876 280.643 363.435 280.611 364.118 281.897Z" fill="#6E70FF"/>
<path d="M330.551 284.861L330.554 284.867L330.611 284.757L330.551 284.861Z" fill="#6E70FF"/>
<path d="M329.348 287.192C329.086 287.669 328.861 288.165 328.674 288.677C328.426 289.505 328.263 290.356 328.185 291.217C328.124 291.707 328.105 292.332 328.411 292.571C328.499 292.629 328.605 292.654 328.71 292.639C328.814 292.625 328.91 292.573 328.979 292.493C329.149 292.313 329.288 292.106 329.391 291.88C329.993 290.842 330.46 289.731 330.781 288.574C331.116 287.347 331.036 286.043 330.553 284.866C330.152 285.641 329.75 286.417 329.348 287.192Z" fill="#6E70FF"/>
<path d="M317.751 225.063C317.942 225.251 318.183 225.377 318.446 225.429C318.708 225.48 318.979 225.453 319.226 225.352C319.738 225.128 320.207 224.817 320.614 224.433C320.951 224.184 321.236 223.871 321.455 223.513C321.576 223.3 321.653 223.064 321.683 222.82C321.712 222.576 321.694 222.329 321.628 222.092C321.534 221.866 321.383 221.667 321.191 221.515C320.999 221.362 320.771 221.262 320.53 221.222C319.849 221.02 319.167 220.817 318.486 220.615L318.979 220.17C318.472 219.897 317.911 220.403 317.594 221.03C317.391 221.439 317.249 221.876 317.174 222.326C317.066 222.797 317.062 223.286 317.162 223.759C317.261 224.231 317.462 224.677 317.751 225.063Z" fill="#6E70FF"/>
<path d="M329.778 221.018C329.97 221.23 330.236 221.361 330.52 221.384C330.805 221.408 331.088 221.321 331.312 221.143C331.504 220.998 331.664 220.814 331.781 220.603C331.898 220.392 331.969 220.159 331.99 219.919C332.038 219.382 331.774 218.785 331.395 218.739L331.482 218.236C330.753 218.104 329.856 218.078 329.465 218.965C329.334 219.304 329.293 219.673 329.348 220.033C329.403 220.394 329.551 220.733 329.778 221.018Z" fill="#6E70FF"/>
<path d="M438.469 184.385H188.547C188.376 184.381 188.213 184.31 188.093 184.188C187.973 184.065 187.906 183.9 187.906 183.728C187.906 183.557 187.973 183.392 188.093 183.269C188.213 183.146 188.376 183.076 188.547 183.072H438.469C438.64 183.076 438.803 183.146 438.923 183.269C439.043 183.392 439.11 183.557 439.11 183.728C439.11 183.9 439.043 184.065 438.923 184.188C438.803 184.31 438.64 184.381 438.469 184.385Z" fill="#CACACA"/>
<path d="M202.971 175.193C206.865 175.193 210.021 171.96 210.021 167.971C210.021 163.983 206.865 160.75 202.971 160.75C199.078 160.75 195.922 163.983 195.922 167.971C195.922 171.96 199.078 175.193 202.971 175.193Z" fill="#3F3D56"/>
<path d="M227.327 175.193C231.22 175.193 234.377 171.96 234.377 167.971C234.377 163.983 231.22 160.75 227.327 160.75C223.434 160.75 220.277 163.983 220.277 167.971C220.277 171.96 223.434 175.193 227.327 175.193Z" fill="#3F3D56"/>
<path d="M251.679 175.193C255.572 175.193 258.728 171.96 258.728 167.971C258.728 163.983 255.572 160.75 251.679 160.75C247.785 160.75 244.629 163.983 244.629 167.971C244.629 171.96 247.785 175.193 251.679 175.193Z" fill="#3F3D56"/>
<path d="M423.876 162.54H406.577C406.234 162.546 405.908 162.688 405.668 162.933C405.427 163.179 405.293 163.508 405.293 163.852C405.293 164.196 405.427 164.526 405.668 164.771C405.908 165.017 406.234 165.158 406.577 165.165H423.876C424.219 165.158 424.546 165.017 424.786 164.771C425.026 164.526 425.16 164.196 425.16 163.852C425.16 163.508 425.026 163.179 424.786 162.933C424.546 162.688 424.219 162.546 423.876 162.54Z" fill="#3F3D56"/>
<path d="M423.876 167.467H406.577C406.234 167.474 405.908 167.615 405.668 167.86C405.427 168.106 405.293 168.436 405.293 168.779C405.293 169.123 405.427 169.453 405.668 169.699C405.908 169.944 406.234 170.085 406.577 170.092H423.876C424.219 170.085 424.546 169.944 424.786 169.699C425.026 169.453 425.16 169.123 425.16 168.779C425.16 168.436 425.026 168.106 424.786 167.86C424.546 167.615 424.219 167.474 423.876 167.467Z" fill="#3F3D56"/>
<path d="M423.876 172.388H406.577C406.234 172.395 405.908 172.536 405.668 172.781C405.427 173.027 405.293 173.357 405.293 173.7C405.293 174.044 405.427 174.374 405.668 174.619C405.908 174.865 406.234 175.006 406.577 175.013H423.876C424.219 175.006 424.546 174.865 424.786 174.619C425.026 174.374 425.16 174.044 425.16 173.7C425.16 173.357 425.026 173.027 424.786 172.781C424.546 172.536 424.219 172.395 423.876 172.388Z" fill="#3F3D56"/>
<g opacity="0.35">
<path d="M445.092 264.293C449.115 262.536 440.957 261.513 431.702 261.176C422.447 260.84 411.251 260.859 405.336 259.902C399.616 258.976 400.037 257.331 399.556 255.84C399.075 254.349 396.876 252.821 387.95 252.489C376.827 252.076 358.485 253.666 350.089 252.712C342.253 251.821 346.911 249.028 335.485 248.921C328.961 248.86 320.556 249.781 313.296 250.003C308.15 250.227 302.995 249.957 297.9 249.198C294.362 248.618 291.897 247.881 287.915 247.368C277.46 246.021 257.004 246.474 238.747 248.2C220.49 249.927 204.84 252.756 196.014 255.559C187.188 258.362 184.749 261.121 186.805 263.461C188.118 264.955 191.478 266.352 199.627 266.953C214.869 268.076 242.007 266.143 257.758 267.165C266.536 267.734 270.431 269.146 278.133 269.918C286.408 270.748 298.521 270.792 310.423 270.773C335.203 270.732 360.617 270.477 386.532 270.009C397.356 269.813 408.698 269.559 420.216 268.628C431.733 267.697 443.481 265.9 445.911 264.215" fill="white"/>
</g>
</g>
<defs>
<clipPath id="clip0_867_481">
<rect width="535" height="380" fill="white"/>
</clipPath>
</defs>
</svg>
