<svg width="60" height="60" viewBox="0 0 60 60" fill="none" xmlns="http://www.w3.org/2000/svg">
<rect width="60" height="60" rx="30" fill="#E3DAFE"/>
<path d="M40.6666 14H19.3333V16.6667H40.6666V14ZM19.3333 46H40.6666V43.3333H19.3333V46ZM40.6666 19.3333H19.3333C18.626 19.3333 17.9478 19.6143 17.4477 20.1144C16.9476 20.6145 16.6666 21.2928 16.6666 22V38C16.6666 38.7072 16.9476 39.3855 17.4477 39.8856C17.9478 40.3857 18.626 40.6667 19.3333 40.6667H40.6666C41.3739 40.6667 42.0521 40.3857 42.5522 39.8856C43.0523 39.3855 43.3333 38.7072 43.3333 38V22C43.3333 21.2928 43.0523 20.6145 42.5522 20.1144C42.0521 19.6143 41.3739 19.3333 40.6666 19.3333ZM30 23C30.7956 23 31.5587 23.3161 32.1213 23.8787C32.6839 24.4413 33 25.2044 33 26C33 26.7956 32.6839 27.5587 32.1213 28.1213C31.5587 28.6839 30.7956 29 30 29C29.2043 29 28.4412 28.6839 27.8786 28.1213C27.316 27.5587 27 26.7956 27 26C27 25.2044 27.316 24.4413 27.8786 23.8787C28.4412 23.3161 29.2043 23 30 23ZM36.6666 36.6667H23.3333V34.6667C23.3333 32.44 27.7733 31.3333 30 31.3333C32.2266 31.3333 36.6666 32.44 36.6666 34.6667V36.6667Z" fill="black"/>
</svg>
