<svg width="60" height="60" viewBox="0 0 60 60" fill="none" xmlns="http://www.w3.org/2000/svg">
<rect width="60" height="60" rx="30" fill="#DFEFC6"/>
<path d="M30 16.6667C34.4134 16.6667 38 20.2133 38 24.6C38 30.5467 30 39.3333 30 39.3333C30 39.3333 22 30.5467 22 24.6C22 20.2133 25.5867 16.6667 30 16.6667ZM30 22C29.2928 22 28.6145 22.2809 28.1144 22.781C27.6143 23.2811 27.3334 23.9594 27.3334 24.6667C27.3334 25.3739 27.6143 26.0522 28.1144 26.5523C28.6145 27.0524 29.2928 27.3333 30 27.3333C30.7073 27.3333 31.3856 27.0524 31.8857 26.5523C32.3858 26.0522 32.6667 25.3739 32.6667 24.6667C32.6667 23.9594 32.3858 23.2811 31.8857 22.781C31.3856 22.2809 30.7073 22 30 22ZM40.6667 39.3333C40.6667 42.28 35.8934 44.6667 30 44.6667C24.1067 44.6667 19.3334 42.28 19.3334 39.3333C19.3334 37.6133 20.96 36.08 23.48 35.1067L24.3334 36.32C22.8934 36.92 22 37.7467 22 38.6667C22 40.5067 25.5867 42 30 42C34.4134 42 38 40.5067 38 38.6667C38 37.7467 37.1067 36.92 35.6667 36.32L36.52 35.1067C39.04 36.08 40.6667 37.6133 40.6667 39.3333Z" fill="black"/>
</svg>
