<svg width="80" height="80" viewBox="0 0 80 80" fill="none" xmlns="http://www.w3.org/2000/svg">
<rect width="80" height="80" rx="40" fill="#C0FFFF"/>
<path d="M31.6667 31.6667H48.3333V35H31.6667V31.6667ZM41.15 46.35H42V45H31.6667V48.3333H37.3L37.85 47.75C38.6333 46.8833 39.8667 46.35 41.15 46.35ZM35 51.6667H28.3333V28.3333H51.6667V42.6L55 44.0833V28.3333C55 26.5 53.5 25 51.6667 25H28.3333C26.5 25 25 26.5 25 28.3333V51.6667C25 53.5 26.5 55 28.3333 55H38.8833L35 51.6667ZM31.6667 41.6667H42V39.55C42 39.1667 42.0833 38.7333 42.1833 38.3333H31.6667V41.6667ZM45.3333 51.7833L41.4167 49.6833H41.15C40.8333 49.6833 40.4833 49.8167 40.25 50.0667L39.35 51.0167L45.3333 56.15C45.65 56.4833 46.1 56.6667 46.55 56.6667H54.5C55.5 56.6667 56.3 55.8333 56.3333 54.8333V49.5C56.3333 48.8 55.95 48.15 55.3 47.85L49.25 45.1833L47.7833 45V39.55C47.7833 38.8833 47.2333 38.3333 46.55 38.3333C45.8833 38.3333 45.3333 38.8833 45.3333 39.55V51.7833Z" fill="black"/>
</svg>
