<svg width="80" height="80" viewBox="0 0 80 80" fill="none" xmlns="http://www.w3.org/2000/svg">
<rect width="80" height="80" rx="40" fill="#E0E0FF"/>
<path d="M31.7166 28.25L25.8333 34.1667C20.2833 39.6833 20.2833 48.65 25.8333 54.1667C31.3833 59.6833 40.3166 59.7167 45.8333 54.1667L55.8333 44.1667C57.5 42.55 57.5 39.9 55.8333 38.2667C55.6666 38.0667 55.45 37.8833 55.2166 37.7333L55.8333 37.0833C57.5 35.4667 57.5 32.8167 55.8333 31.1833C55.6 30.9167 55.2833 30.6833 55 30.5C55.6333 28.9667 55.35 27.1333 54.1 25.8833C52.65 24.4333 50.4 24.2833 48.7666 25.4167C48.6 25.1667 48.4166 24.9333 48.2 24.7167C46.5833 23.1 43.9333 23.1 42.3 24.7167L38.1166 28.9C37.9666 28.6667 37.7833 28.45 37.5833 28.25C35.9666 26.6667 33.3333 26.6667 31.7166 28.25ZM34.0666 30.6167C34.4 30.2833 34.9166 30.2833 35.25 30.6167C35.5833 30.95 35.5833 31.4667 35.25 31.8L29.95 37.1C31.9 39.05 31.9 42.2167 29.95 44.1667L32.3 46.5167C34.7166 44.1 35.3333 40.5667 34.1666 37.5833L44.6666 27.0833C45 26.75 45.5166 26.75 45.8333 27.0833C46.15 27.4167 46.1833 27.9333 45.8333 28.2667L38.1833 35.9333L40.5333 38.2833L50.55 28.2667C50.8833 27.9333 51.4 27.9333 51.7333 28.2667C52.0666 28.6 52.0666 29.1167 51.7333 29.45L41.7166 39.4667L44.0666 41.8167L52.3166 33.5667C52.65 33.2333 53.1666 33.2333 53.5 33.5667C53.8333 33.9 53.8333 34.4167 53.5 34.75L44.0666 44.1667L46.4166 46.5333L52.3166 40.6333C52.65 40.3 53.1666 40.3 53.5 40.6333C53.8333 40.9667 53.8333 41.4833 53.5 41.8167L43.5 51.8333C39.2666 56.0667 32.4166 56.0667 28.1833 51.8333C23.95 47.6 23.95 40.75 28.1833 36.5167L34.0666 30.6167ZM58.3333 48.3333C58.3333 53.85 53.85 58.3333 48.3333 58.3333V55.8333C52.5 55.8333 55.8333 52.5 55.8333 48.3333H58.3333ZM21.6666 31.6667C21.6666 26.15 26.15 21.6667 31.6666 21.6667V24.1667C27.5 24.1667 24.1666 27.5 24.1666 31.6667H21.6666Z" fill="black"/>
</svg>
