<svg width="80" height="80" viewBox="0 0 80 80" fill="none" xmlns="http://www.w3.org/2000/svg">
<rect width="80" height="80" rx="40" fill="#FFD5D5"/>
<path d="M25 48.75V55H31.25L49.6833 36.55L43.4333 30.3L25 48.75ZM57.6833 50.6L50.6 57.6833L41.9333 49.0167L44.8833 46.0667L46.55 47.7333L50.6667 43.6L53.0333 45.9667L50.6 48.3333L52.3667 50L54.7333 47.6667L57.6833 50.6ZM31.0167 38.05L22.3167 29.4L29.4 22.3167L32.3333 25.2667L28.2167 29.4L30 31.1667L34.1 27.0333L36.4667 29.4L34.1 31.75L35.7666 33.4167L31.0167 38.05ZM54.5166 31.6667C55.1666 31.0167 55.1666 30 54.5166 29.3167L50.6167 25.4833C50 24.8333 48.9166 24.8333 48.2666 25.4833L45.2 28.5333L51.45 34.7833L54.5166 31.6667Z" fill="black"/>
</svg>
