<svg width="80" height="80" viewBox="0 0 80 80" fill="none" xmlns="http://www.w3.org/2000/svg">
<rect width="80" height="80" rx="40" fill="#D2F1FF"/>
<path d="M56.4333 40.8333C55.1666 39.3833 53.5833 38.55 51.6666 38.3333C51.6666 35.0833 50.5333 32.3333 48.2666 30.0667C46 27.8 43.25 26.6667 40 26.6667C37.3666 26.6667 35 27.45 32.9166 29.05C30.8333 30.65 29.45 32.7 28.75 35.25C26.6666 35.7167 24.9333 36.8 23.6166 38.5C22.3 40.2 21.6666 42.1333 21.6666 44.3C21.6666 46.8167 22.5666 48.9667 24.35 50.7167C26.15 52.5 28.3333 53.3333 30.8333 53.3333H50.8333C52.9166 53.3333 54.6833 52.6 56.15 51.15C57.6 49.6833 58.3333 47.9167 58.3333 45.8333C58.3333 43.9167 57.7 42.25 56.4333 40.8333ZM47.6166 50L43.3333 45.7167C42.3833 46.3167 41.2333 46.6667 40 46.6667C36.3166 46.6667 33.3333 43.6833 33.3333 40C33.3333 36.3167 36.3166 33.3333 40 33.3333C43.6833 33.3333 46.6666 36.3167 46.6666 40C46.6666 41.2333 46.3166 42.3833 45.7166 43.3333L50 47.6167L47.6166 50ZM43.3333 40C43.3333 41.85 41.85 43.3333 40 43.3333C38.15 43.3333 36.6666 41.85 36.6666 40C36.6666 38.15 38.1666 36.6667 40 36.6667C41.8333 36.6667 43.3333 38.1667 43.3333 40Z" fill="black"/>
</svg>
