<svg width="60" height="60" viewBox="0 0 60 60" fill="none" xmlns="http://www.w3.org/2000/svg">
<rect width="60" height="60" rx="30" fill="#C0FFFF"/>
<path d="M42 28.8133V20.6667C42 19.2 40.8133 18 39.3333 18H33.76C33.2 16.4533 31.7333 15.3333 30 15.3333C28.2667 15.3333 26.8 16.4533 26.24 18H20.6667C19.2 18 18 19.2 18 20.6667V39.3333C18 40.8133 19.2 42 20.6667 42H28.8133C30.4933 43.6533 32.7867 44.6667 35.3333 44.6667C40.4933 44.6667 44.6667 40.4933 44.6667 35.3333C44.6667 32.7867 43.6533 30.4933 42 28.8133ZM30 18C30.7333 18 31.3333 18.6 31.3333 19.3333C31.3333 20.0667 30.7333 20.6667 30 20.6667C29.2667 20.6667 28.6667 20.0667 28.6667 19.3333C28.6667 18.6 29.2667 18 30 18ZM20.6667 39.3333V20.6667H23.3333V23.3333H36.6667V20.6667H39.3333V26.9067C38.12 26.3333 36.7733 26 35.3333 26H23.3333V28.6667H28.8C28 29.4267 27.3867 30.3333 26.9067 31.3333H23.3333V34H26.1067C26.04 34.44 26 34.88 26 35.3333C26 36.7733 26.3333 38.12 26.9067 39.3333H20.6667ZM35.3333 42C31.6533 42 28.6667 39.0133 28.6667 35.3333C28.6667 31.6533 31.6533 28.6667 35.3333 28.6667C39.0133 28.6667 42 31.6533 42 35.3333C42 39.0133 39.0133 42 35.3333 42ZM36 35.6667L39.8133 37.92L38.8133 39.5467L34 36.6667V30H36V35.6667Z" fill="black"/>
</svg>
