<svg width="80" height="80" viewBox="0 0 80 80" fill="none" xmlns="http://www.w3.org/2000/svg">
<rect width="80" height="80" rx="40" fill="#FAE8B9"/>
<path d="M37.9334 34.4833C37.5974 34.4833 37.2753 34.6168 37.0377 34.8543C36.8002 35.0919 36.6667 35.4141 36.6667 35.75V54.8333C36.6667 55.5333 37.2334 56.1 37.9334 56.1C38.25 56.1 38.5167 56 38.7334 55.8333L41.9167 53.25L44.6834 59.2833C44.9 59.7333 45.35 60 45.8334 60C46.0167 60 46.2 60 46.3834 59.8667L50.9834 57.7333C51.6167 57.4333 51.9167 56.6667 51.5834 56.05L48.8 50L52.8167 49.25C53.0834 49.1667 53.3334 49.05 53.5334 48.8167C53.9834 48.2833 53.9167 47.5 53.3334 47.0167L38.7667 34.7667L38.75 34.7833C38.5334 34.6 38.25 34.4833 37.9334 34.4833ZM45 36.6667V33.3333H53.3334V36.6667H45ZM43.05 27.9333L47.7667 23.2167L50.1167 25.5667L45.4 30.2833L43.05 27.9333ZM36.6667 20H40V28.3333H36.6667V20ZM26.55 44.4333L31.2667 39.7167L33.6167 42.0667L28.9 46.7833L26.55 44.4333ZM26.55 25.5667L28.9 23.2167L33.6167 27.9333L31.2667 30.2833L26.55 25.5667ZM31.6667 36.6667H23.3334V33.3333H31.6667V36.6667Z" fill="black"/>
</svg>
