<svg width="80" height="80" viewBox="0 0 80 80" fill="none" xmlns="http://www.w3.org/2000/svg">
<rect width="80" height="80" rx="40" fill="#FADEFF"/>
<path d="M30 23.3333C28.15 23.3333 26.6667 24.8167 26.6667 26.6667V40C26.6667 41.85 28.15 43.3333 30 43.3333H50C51.85 43.3333 53.3334 41.85 53.3334 40V26.6667C53.3334 24.8167 51.85 23.3333 50 23.3333H30ZM30 26.6667H50V40H30V26.6667ZM26.6667 45C24.8167 45 23.3334 46.4833 23.3334 48.3333V53.3333C23.3334 55.1833 24.8167 56.6667 26.6667 56.6667H53.3334C55.1834 56.6667 56.6667 55.1833 56.6667 53.3333V48.3333C56.6667 46.4833 55.1834 45 53.3334 45H26.6667ZM33.3334 48.3333H53.3334V53.3333H33.3334V48.3333ZM35 49.5833V52.0833H41.6667V49.5833H35ZM45 49.5833V52.0833H51.6667V49.5833H45Z" fill="black"/>
</svg>
