<svg width="60" height="60" viewBox="0 0 60 60" fill="none" xmlns="http://www.w3.org/2000/svg">
<rect width="60" height="60" rx="30" fill="#DFEFC6"/>
<path d="M42 16.6667H18C16.5334 16.6667 15.3334 17.8667 15.3334 19.3333V40.6667C15.3334 42.1333 16.5334 43.3333 18 43.3333H42C43.4667 43.3333 44.6667 42.1333 44.6667 40.6667V19.3333C44.6667 17.8667 43.4667 16.6667 42 16.6667ZM42 40.6667H18V22H42V40.6667ZM26 24.6667C24.5334 24.6667 23.3334 25.8667 23.3334 27.3333C23.3334 28.8 22.1334 30 20.6667 30V32.6667C22.1334 32.6667 23.3334 33.8667 23.3334 35.3333C23.3334 36.8 24.5334 38 26 38H28.6667V35.3333H26V34C26 32.5333 24.8 31.3333 23.3334 31.3333C24.8 31.3333 26 30.1333 26 28.6667V27.3333H28.6667V24.6667M34 24.6667C35.4667 24.6667 36.6667 25.8667 36.6667 27.3333C36.6667 28.8 37.8667 30 39.3334 30V32.6667C37.8667 32.6667 36.6667 33.8667 36.6667 35.3333C36.6667 36.8 35.4667 38 34 38H31.3334V35.3333H34V34C34 32.5333 35.2 31.3333 36.6667 31.3333C35.2 31.3333 34 30.1333 34 28.6667V27.3333H31.3334V24.6667H34Z" fill="black"/>
</svg>
