<svg width="60" height="60" viewBox="0 0 60 60" fill="none" xmlns="http://www.w3.org/2000/svg">
<rect width="60" height="60" rx="30" fill="#DFEFC6"/>
<path d="M20.6667 26V42H15.3334V26H20.6667ZM26 42C25.2928 42 24.6145 41.719 24.1144 41.2189C23.6143 40.7189 23.3334 40.0406 23.3334 39.3333V26C23.3334 25.2667 23.6267 24.6 24.12 24.12L32.8934 15.3333L34.3067 16.7467C34.6667 17.1067 34.8934 17.6 34.8934 18.1467L34.8534 18.5733L33.5867 24.6667H42C43.48 24.6667 44.6667 25.8667 44.6667 27.3333V30C44.6667 30.3467 44.6 30.6667 44.48 30.9733L40.4534 40.3733C40.0534 41.3333 39.1067 42 38 42H26ZM26 39.3333H38.04L42 30V27.3333H30.28L31.7867 20.24L26 26.04V39.3333Z" fill="black"/>
</svg>
