<svg width="60" height="60" viewBox="0 0 60 60" fill="none" xmlns="http://www.w3.org/2000/svg">
<rect width="60" height="60" rx="30" fill="#FFD5D5"/>
<path d="M42 16.6667H18C17.2928 16.6667 16.6145 16.9476 16.1144 17.4477C15.6143 17.9478 15.3334 18.6261 15.3334 19.3333V40.6667C15.3334 41.3739 15.6143 42.0522 16.1144 42.5523C16.6145 43.0524 17.2928 43.3333 18 43.3333H42C42.7073 43.3333 43.3856 43.0524 43.8857 42.5523C44.3858 42.0522 44.6667 41.3739 44.6667 40.6667V19.3333C44.6667 18.6261 44.3858 17.9478 43.8857 17.4477C43.3856 16.9476 42.7073 16.6667 42 16.6667ZM28.6667 37.3333L26.6667 39.3333L20.6667 33.3333L26.6667 27.3333L28.6667 29.3333L24.6667 33.3333L28.6667 37.3333ZM33.3334 39.3333L31.3334 37.3333L35.3334 33.3333L31.3334 29.3333L33.3334 27.3333L39.3334 33.3333L33.3334 39.3333ZM42 23.3333H18V19.3333H42V23.3333Z" fill="black"/>
</svg>
