<svg width="80" height="80" viewBox="0 0 80 80" fill="none" xmlns="http://www.w3.org/2000/svg">
<rect width="80" height="80" rx="40" fill="#CFFFE5"/>
<path d="M23.3334 23.3333H26.6667V53.3333H56.6667V56.6667H23.3334V23.3333ZM35 36.6667C36.3261 36.6667 37.5979 37.1934 38.5356 38.1311C39.4733 39.0688 40 40.3406 40 41.6667C40 42.9927 39.4733 44.2645 38.5356 45.2022C37.5979 46.1399 36.3261 46.6667 35 46.6667C33.674 46.6667 32.4022 46.1399 31.4645 45.2022C30.5268 44.2645 30 42.9927 30 41.6667C30 40.3406 30.5268 39.0688 31.4645 38.1311C32.4022 37.1934 33.674 36.6667 35 36.6667ZM41.6667 23.3333C42.9928 23.3333 44.2646 23.8601 45.2022 24.7978C46.1399 25.7355 46.6667 27.0072 46.6667 28.3333C46.6667 29.6594 46.1399 30.9312 45.2022 31.8689C44.2646 32.8065 42.9928 33.3333 41.6667 33.3333C40.3406 33.3333 39.0689 32.8065 38.1312 31.8689C37.1935 30.9312 36.6667 29.6594 36.6667 28.3333C36.6667 27.0072 37.1935 25.7355 38.1312 24.7978C39.0689 23.8601 40.3406 23.3333 41.6667 23.3333ZM50 40C51.3261 40 52.5979 40.5268 53.5356 41.4645C54.4733 42.4021 55 43.6739 55 45C55 46.3261 54.4733 47.5978 53.5356 48.5355C52.5979 49.4732 51.3261 50 50 50C48.674 50 47.4022 49.4732 46.4645 48.5355C45.5268 47.5978 45 46.3261 45 45C45 43.6739 45.5268 42.4021 46.4645 41.4645C47.4022 40.5268 48.674 40 50 40Z" fill="black"/>
</svg>
