<svg width="80" height="80" viewBox="0 0 80 80" fill="none" xmlns="http://www.w3.org/2000/svg">
<rect width="80" height="80" rx="40" fill="#FFD5D5"/>
<path d="M35 26.6667L39.1666 35.8333L48.3333 40L39.1666 44.1667L35 53.3333L30.8333 44.1667L21.6666 40L30.8333 35.8333L35 26.6667ZM35 34.7167L33.3333 38.3333L29.7166 40L33.3333 41.6667L35 45.2833L36.6666 41.6667L40.2833 40L36.6666 38.3333L35 34.7167ZM51.6666 35L49.5666 30.4333L45 28.3333L49.5666 26.25L51.6666 21.6667L53.75 26.25L58.3333 28.3333L53.75 30.4333L51.6666 35ZM51.6666 58.3333L49.5666 53.7667L45 51.6667L49.5666 49.5833L51.6666 45L53.75 49.5833L58.3333 51.6667L53.75 53.7667L51.6666 58.3333Z" fill="black"/>
</svg>
