<svg width="32" height="32" viewBox="0 0 32 32" fill="none" xmlns="http://www.w3.org/2000/svg">
<rect width="32" height="32" rx="16" fill="#E0E0FF"/>
<path d="M16 16.875L6 10.635V9.875C6 8.765 6.89 7.875 8 7.875H24C24.5304 7.875 25.0391 8.08571 25.4142 8.46079C25.7893 8.83586 26 9.34457 26 9.875V10.625L16 16.875ZM26 22.875C26 23.4054 25.7893 23.9141 25.4142 24.2892C25.0391 24.6643 24.5304 24.875 24 24.875H8C6.89 24.875 6 23.975 6 22.875V12.985L8 14.235V22.875H24V14.235L26 12.985V22.875Z" fill="black"/>
</svg>
