<svg width="88" height="88" viewBox="0 0 88 88" fill="none" xmlns="http://www.w3.org/2000/svg">
<circle cx="44" cy="44" r="43.5" fill="#6E70FF" stroke="white" stroke-dasharray="8 8"/>
<g clip-path="url(#clip0_386_41)">
<path fill-rule="evenodd" clip-rule="evenodd" d="M39.8683 24C39.9121 24 39.956 24 40 24H48.1316C49.9046 23.9999 51.4322 23.9998 52.6556 24.1643C53.9666 24.3406 55.2234 24.738 56.2426 25.7574C57.262 26.7767 57.6594 28.0334 57.8358 29.3444C58.0002 30.5677 58.0002 32.0954 58 33.8683V54.1316C58.0002 55.9046 58.0002 57.4322 57.8358 58.6556C57.6594 59.9666 57.262 61.2234 56.2426 62.2426C55.2234 63.262 53.9666 63.6594 52.6556 63.8358C51.4322 64.0002 49.9046 64.0002 48.1316 64H39.8684C38.0954 64.0002 36.5678 64.0002 35.3444 63.8358C34.0334 63.6594 32.7767 63.262 31.7574 62.2426C30.738 61.2234 30.3406 59.9666 30.1643 58.6556C29.9998 57.4322 29.9999 55.9046 30 54.1316V34C30 33.956 30 33.9121 30 33.8683C29.9999 32.0954 29.9998 30.5677 30.1643 29.3444C30.3406 28.0334 30.738 26.7767 31.7574 25.7574C32.7767 24.738 34.0334 24.3406 35.3444 24.1643C36.5677 23.9998 38.0954 23.9999 39.8683 24ZM41 56C41 54.8954 41.8954 54 43 54H45C46.1046 54 47 54.8954 47 56C47 57.1046 46.1046 58 45 58H43C41.8954 58 41 57.1046 41 56Z" fill="white"/>
</g>
<defs>
<clipPath id="clip0_386_41">
<rect width="48" height="48" fill="white" transform="translate(20 20)"/>
</clipPath>
</defs>
</svg>
