<svg width="88" height="88" viewBox="0 0 88 88" fill="none" xmlns="http://www.w3.org/2000/svg">
<circle cx="44" cy="44" r="43.5" fill="#F8F5F5" stroke="#6E70FF" stroke-dasharray="8 8"/>
<path fill-rule="evenodd" clip-rule="evenodd" d="M24 59C24 57.8954 24.8954 57 26 57H62C63.1046 57 64 57.8954 64 59C64 60.1046 63.1046 61 62 61H26C24.8954 61 24 60.1046 24 59Z" fill="#252323"/>
<path fill-rule="evenodd" clip-rule="evenodd" d="M62 36.8683C62 36.9121 62 36.956 62 37V45.1316C62 46.9046 62.0002 48.4322 61.8522 49.6556C61.6936 50.9666 61.3358 52.2234 60.4184 53.2426C59.501 54.262 58.37 54.6594 57.19 54.8358C56.089 55.0002 54.7142 55 53.1184 55H34.8815C33.2858 55 31.911 55.0002 30.81 54.8358C29.6301 54.6594 28.499 54.262 27.5816 53.2426C26.6642 52.2234 26.3065 50.9666 26.1479 49.6556C25.9998 48.4322 25.9999 46.9046 26 45.1316V36.8684C25.9999 35.0954 25.9998 33.5678 26.1479 32.3444C26.3065 31.0334 26.6642 29.7767 27.5816 28.7574C28.499 27.738 29.6301 27.3406 30.81 27.1643C31.911 26.9998 33.2858 26.9999 34.8815 27H53C53.0396 27 53.0792 27 53.1184 27C54.7142 26.9999 56.089 26.9998 57.19 27.1643C58.37 27.3406 59.501 27.738 60.4184 28.7574C61.3358 29.7767 61.6936 31.0334 61.8522 32.3444C62.0002 33.5677 62 35.0954 62 36.8683Z" fill="#252323"/>
</svg>
