<svg width="88" height="88" viewBox="0 0 88 88" fill="none" xmlns="http://www.w3.org/2000/svg">
<circle cx="44" cy="44" r="43.5" fill="#F8F5F5" stroke="#6E70FF" stroke-dasharray="8 8"/>
<g clip-path="url(#clip0_386_36)">
<path fill-rule="evenodd" clip-rule="evenodd" d="M33.8683 24H54.1316C55.9046 23.9999 57.4322 23.9998 58.6556 24.1643C59.9666 24.3406 61.2234 24.738 62.2426 25.7574C63.262 26.7767 63.6594 28.0334 63.8358 29.3444C64.0002 30.5678 64.0002 32.0954 64 33.8684V46.1316C64.0002 47.9046 64.0002 49.4322 63.8358 50.6556C63.6594 51.9666 63.262 53.2234 62.2426 54.2426C61.2234 55.262 59.9666 55.6594 58.6556 55.8358C57.4322 56.0002 55.9046 56.0002 54.1316 56H46V60H54C55.1046 60 56 60.8954 56 62C56 63.1046 55.1046 64 54 64H34C32.8954 64 32 63.1046 32 62C32 60.8954 32.8954 60 34 60H42V56H33.8683C32.0954 56.0002 30.5677 56.0002 29.3444 55.8358C28.0334 55.6594 26.7767 55.262 25.7574 54.2426C24.738 53.2234 24.3406 51.9666 24.1643 50.6556C23.9998 49.4322 23.9999 47.9046 24 46.1316V33.8683C23.9999 32.0954 23.9998 30.5677 24.1643 29.3444C24.3406 28.0334 24.738 26.7767 25.7574 25.7574C26.7767 24.738 28.0334 24.3406 29.3444 24.1643C30.5677 23.9998 32.0954 23.9999 33.8683 24Z" fill="#252323"/>
</g>
<defs>
<clipPath id="clip0_386_36">
<rect width="48" height="48" fill="white" transform="translate(20 20)"/>
</clipPath>
</defs>
</svg>
