<svg width="710" height="476" viewBox="0 0 710 476" fill="none" xmlns="http://www.w3.org/2000/svg">
<g clip-path="url(#clip0_328_33)">
<path d="M527.143 283.17C516.711 180.098 412.029 114.662 333.384 115.978C242.753 117.507 208.595 207.329 139.625 180.009C76.6852 155.108 72.9768 67.5276 26.7056 53.7254C-15.8187 41.0437 -83.1083 93.9938 -194 356.094" stroke="url(#paint0_linear_328_33)" stroke-miterlimit="10"/>
<path d="M-188.714 367.709C-79.1694 109.397 -11.8414 54.4015 31.286 64.7354C63.2498 72.4547 75.5683 114.982 100.577 148.225C113.06 165.337 128.413 177.884 145.257 184.74C200.434 207.258 233.321 157.42 292.283 136.041C307.312 130.529 322.756 127.484 338.298 126.97C417.264 124 520.778 180.72 532.827 280.04" stroke="url(#paint1_linear_328_33)" stroke-miterlimit="10"/>
<path d="M-183.414 379.288C-75.2165 124.783 -7.88842 67.7594 35.7523 75.7633C67.8316 81.6506 80.8815 122.15 105.942 153.703C118.723 170.2 134.053 182.433 150.763 189.472C205.144 212.363 238.019 167.47 297.186 147.087C312.222 141.863 327.608 138.811 343.098 137.98C422.398 133.694 524.731 181.343 538.397 276.909" stroke="url(#paint2_linear_328_33)" stroke-miterlimit="10"/>
<path d="M-178.127 390.831C-71.3033 140.185 -3.9368 81.1522 40.2685 86.7727C72.489 90.8635 86.2189 129.3 111.369 159.181C124.422 175.052 139.717 186.98 156.28 194.202C209.917 217.467 242.663 177.501 302.1 158.132C317.15 153.149 332.496 150.071 347.948 148.936C427.568 143.138 528.721 181.912 544.003 273.725" stroke="url(#paint3_linear_328_33)" stroke-miterlimit="10"/>
<path d="M-172.84 402.463C-67.3636 155.57 -0.00984252 94.563 44.7985 97.8001C77.1216 100.112 91.5958 136.486 116.823 164.641C130.157 179.896 145.445 191.529 161.888 198.934C214.78 222.572 247.437 187.55 307.169 169.177C322.203 164.485 337.475 161.405 352.85 159.964C432.804 152.653 532.776 182.57 549.688 270.63" stroke="url(#paint4_linear_328_33)" stroke-miterlimit="10"/>
<path d="M-167.605 414.06C-63.4376 170.955 3.95464 106.248 49.3276 108.81C81.7149 110.588 96.9718 143.547 122.25 170.119C135.858 184.729 151.139 196.069 167.456 203.664C219.605 227.676 252.146 197.599 312.083 180.24C327.112 175.792 342.332 172.691 357.648 170.955C437.936 162.062 536.728 183.175 555.257 267.5" stroke="url(#paint5_linear_328_33)" stroke-miterlimit="10"/>
<path d="M-162.254 425.655C-59.498 186.357 7.84293 121.508 53.8446 119.729C86.3346 118.698 102.374 150.713 127.691 175.614C141.558 189.575 156.834 200.626 173.026 208.412C224.43 232.797 256.894 207.647 317.049 191.302C332.074 187.12 347.244 184.009 362.499 181.982C443.121 171.577 540.732 183.76 560.877 264.386" stroke="url(#paint6_linear_328_33)" stroke-miterlimit="10"/>
<path d="M-156.968 437.253C-55.5972 201.743 11.7566 134.884 58.3742 130.847C90.9411 127.965 107.802 157.722 133.132 181.075C147.247 194.373 162.523 205.131 178.595 213.091C229.241 237.867 261.629 217.68 322.015 202.295C336.065 198.737 351.066 195.322 367.349 192.921C448.317 180.951 544.735 184.401 566.498 261.239" stroke="url(#paint7_linear_328_33)" stroke-miterlimit="10"/>
<path d="M-151.681 448.848C-51.6322 217.145 15.6702 148.454 62.8909 141.82C95.5476 137.249 113.243 164.746 138.598 186.517C152.961 199.145 168.248 209.632 184.202 217.803C234.105 242.953 266.389 227.675 327.019 213.339C341.134 209.995 356.096 206.615 372.251 203.912C453.45 190.394 548.738 185.023 572.118 258.089" stroke="url(#paint8_linear_328_33)" stroke-miterlimit="10"/>
<path d="M-146.382 460.428C-47.693 232.531 19.5837 161.99 67.4203 152.884C100.154 146.641 118.747 171.809 144 192.014C158.592 203.965 173.887 214.187 189.719 222.571C238.891 248.094 271.085 237.76 331.946 224.35C346.061 221.219 361.036 217.84 377.063 214.852C458.685 199.698 552.742 185.54 577.738 254.871" stroke="url(#paint9_linear_328_33)" stroke-miterlimit="10"/>
<path d="M-141.095 472.027C-43.7661 247.918 23.4978 175.563 71.9119 163.895C104.723 155.998 124.163 178.8 149.415 197.512C164.235 208.759 179.547 218.709 195.263 227.304C243.677 253.201 275.782 247.794 336.887 235.485C351.066 232.604 366.002 229.207 381.888 225.952C463.844 209.162 556.707 186.253 583.346 251.831" stroke="url(#paint10_linear_328_33)" stroke-miterlimit="10"/>
<path d="M-135.809 483.623C-39.8273 263.321 27.4366 189.134 76.4666 174.905C109.367 165.372 129.667 185.773 154.868 202.99C169.355 212.879 184.189 222.857 200.857 232.035C248.527 258.288 280.542 257.843 341.878 246.531C356.095 243.881 371.006 240.466 386.789 236.944C469.079 218.517 560.761 186.858 589.004 248.701" stroke="url(#paint11_linear_328_33)" stroke-miterlimit="10"/>
<path d="M-130.521 495.219C-35.8871 278.777 31.287 202.74 80.9842 185.932C113.975 174.744 135.173 192.708 160.31 208.467C175.143 217.769 190.015 227.463 206.427 236.765C253.353 263.445 285.265 267.874 346.845 257.575C361.101 255.174 375.998 251.741 391.615 247.935C474.225 227.836 564.74 187.461 594.6 245.569" stroke="url(#paint12_linear_328_33)" stroke-miterlimit="10"/>
<path d="M-125.261 506.816C-31.9613 294.109 35.277 216.365 85.5003 196.96C118.581 184.171 140.677 199.628 165.75 213.963C180.943 222.643 195.84 232.07 211.944 241.514C258.138 268.514 289.935 277.941 351.81 268.657C366.117 266.469 380.976 263.018 396.464 258.963C479.409 237.157 568.743 188.066 600.219 242.439" stroke="url(#paint13_linear_328_33)" stroke-miterlimit="10"/>
<path d="M-119.935 518.393C-28.0214 309.492 39.1783 230.023 90.0304 207.967C123.213 193.561 146.195 206.491 171.178 219.422C186.73 227.461 201.679 236.657 217.565 246.226C262.989 273.599 294.722 287.953 356.776 279.682C371.738 277.471 386.608 274.2 401.328 269.882C484.58 246.457 572.786 188.705 605.84 239.289" stroke="url(#paint14_linear_328_33)" stroke-miterlimit="10"/>
<path d="M-114.648 529.991C-24.0821 324.896 43.1817 243.63 94.5086 218.978C127.794 202.97 151.674 213.34 176.632 224.901C192.543 232.282 207.518 241.247 223.134 250.958C267.827 278.705 299.457 298.003 361.716 290.728C376.665 288.787 391.508 285.513 406.153 280.928C489.751 255.654 576.75 189.31 611.473 236.088" stroke="url(#paint15_linear_328_33)" stroke-miterlimit="10"/>
<path d="M-109.362 541.588C-20.1557 340.282 47.1852 257.362 99.0767 229.988C132.439 212.415 157.23 220.153 182.059 230.362C198.33 237.067 213.33 245.854 228.69 255.69C272.626 283.81 304.179 308.035 366.708 301.774C381.643 300.079 396.461 296.784 411.029 291.921C494.91 264.974 580.754 189.933 617.093 233.03" stroke="url(#paint16_linear_328_33)" stroke-miterlimit="10"/>
<path d="M-104.062 553.185C-16.2165 355.756 51.0859 271.039 103.593 241.016C137.097 221.842 162.748 226.929 187.487 235.84C204.168 241.834 219.156 250.443 234.259 260.421C277.45 288.879 308.901 318.084 371.674 312.837C386.593 311.377 401.388 308.061 415.879 302.93C500.068 274.223 584.757 190.538 622.713 229.9" stroke="url(#paint17_linear_328_33)" stroke-miterlimit="10"/>
<path d="M-98.7754 564.782C-12.3409 371.071 55.0641 284.753 108.123 252.097C141.742 231.359 168.253 233.76 192.928 241.426C209.93 246.762 225.007 255.157 239.828 265.259C282.275 294.127 313.636 328.241 376.64 323.954C391.543 322.729 406.317 319.392 420.73 313.994C505.227 283.508 588.825 191.268 628.334 226.841" stroke="url(#paint18_linear_328_33)" stroke-miterlimit="10"/>
<path d="M-93.4893 576.378C-8.35079 386.473 59.0542 298.465 112.639 263.053C146.4 240.731 173.757 240.411 198.368 246.796C215.73 251.314 230.82 259.656 245.396 269.918C287.087 299.159 318.358 338.2 381.605 334.963C396.493 333.982 411.248 330.622 425.58 324.949C510.372 292.632 592.764 191.765 633.954 223.638" stroke="url(#paint19_linear_328_33)" stroke-miterlimit="10"/>
<path d="M-88.1895 587.958C-4.41113 401.859 63.0452 312.269 117.118 274.064C151.007 250.195 179.198 247.118 203.745 252.276C221.466 255.993 236.594 264.246 250.902 274.598C291.861 304.23 323.042 348.216 386.52 345.975C401.393 345.22 416.136 341.837 430.392 335.907C515.415 301.615 596.717 192.389 639.549 220.492" stroke="url(#paint20_linear_328_33)" stroke-miterlimit="10"/>
<path d="M-82.916 599.554C50.8419 303.678 145.386 247.437 209.237 257.753C278.939 269.012 305.539 358.673 391.537 357.037C492.42 355.098 593.239 188.867 645.194 217.36" stroke="url(#paint21_linear_328_33)" stroke-miterlimit="10"/>
</g>
<defs>
<linearGradient id="paint0_linear_328_33" x1="166.571" y1="52" x2="166.571" y2="356.094" gradientUnits="userSpaceOnUse">
<stop offset="0.244792" stop-color="#F0F0F0" stop-opacity="0.82"/>
<stop offset="1" stop-color="white" stop-opacity="0"/>
</linearGradient>
<linearGradient id="paint1_linear_328_33" x1="172.056" y1="63.5703" x2="172.056" y2="367.709" gradientUnits="userSpaceOnUse">
<stop offset="0.244792" stop-color="#F0F0F0" stop-opacity="0.82"/>
<stop offset="1" stop-color="white" stop-opacity="0"/>
</linearGradient>
<linearGradient id="paint2_linear_328_33" x1="177.492" y1="75.0527" x2="177.492" y2="379.288" gradientUnits="userSpaceOnUse">
<stop offset="0.244792" stop-color="#F0F0F0" stop-opacity="0.82"/>
<stop offset="1" stop-color="white" stop-opacity="0"/>
</linearGradient>
<linearGradient id="paint3_linear_328_33" x1="182.938" y1="86.416" x2="182.938" y2="390.831" gradientUnits="userSpaceOnUse">
<stop offset="0.244792" stop-color="#F0F0F0" stop-opacity="0.82"/>
<stop offset="1" stop-color="white" stop-opacity="0"/>
</linearGradient>
<linearGradient id="paint4_linear_328_33" x1="188.424" y1="97.6797" x2="188.424" y2="402.463" gradientUnits="userSpaceOnUse">
<stop offset="0.244792" stop-color="#F0F0F0" stop-opacity="0.82"/>
<stop offset="1" stop-color="white" stop-opacity="0"/>
</linearGradient>
<linearGradient id="paint5_linear_328_33" x1="193.826" y1="108.737" x2="193.826" y2="414.06" gradientUnits="userSpaceOnUse">
<stop offset="0.244792" stop-color="#F0F0F0" stop-opacity="0.82"/>
<stop offset="1" stop-color="white" stop-opacity="0"/>
</linearGradient>
<linearGradient id="paint6_linear_328_33" x1="199.311" y1="119.705" x2="199.311" y2="425.655" gradientUnits="userSpaceOnUse">
<stop offset="0.244792" stop-color="#F0F0F0" stop-opacity="0.82"/>
<stop offset="1" stop-color="white" stop-opacity="0"/>
</linearGradient>
<linearGradient id="paint7_linear_328_33" x1="204.765" y1="130.652" x2="204.765" y2="437.253" gradientUnits="userSpaceOnUse">
<stop offset="0.244792" stop-color="#F0F0F0" stop-opacity="0.82"/>
<stop offset="1" stop-color="white" stop-opacity="0"/>
</linearGradient>
<linearGradient id="paint8_linear_328_33" x1="210.218" y1="141.316" x2="210.218" y2="448.848" gradientUnits="userSpaceOnUse">
<stop offset="0.244792" stop-color="#F0F0F0" stop-opacity="0.82"/>
<stop offset="1" stop-color="white" stop-opacity="0"/>
</linearGradient>
<linearGradient id="paint9_linear_328_33" x1="215.678" y1="151.914" x2="215.678" y2="460.428" gradientUnits="userSpaceOnUse">
<stop offset="0.244792" stop-color="#F0F0F0" stop-opacity="0.82"/>
<stop offset="1" stop-color="white" stop-opacity="0"/>
</linearGradient>
<linearGradient id="paint10_linear_328_33" x1="221.126" y1="162.288" x2="221.126" y2="472.027" gradientUnits="userSpaceOnUse">
<stop offset="0.244792" stop-color="#F0F0F0" stop-opacity="0.82"/>
<stop offset="1" stop-color="white" stop-opacity="0"/>
</linearGradient>
<linearGradient id="paint11_linear_328_33" x1="226.598" y1="172.473" x2="226.598" y2="483.623" gradientUnits="userSpaceOnUse">
<stop offset="0.244792" stop-color="#F0F0F0" stop-opacity="0.82"/>
<stop offset="1" stop-color="white" stop-opacity="0"/>
</linearGradient>
<linearGradient id="paint12_linear_328_33" x1="232.039" y1="182.446" x2="232.039" y2="495.219" gradientUnits="userSpaceOnUse">
<stop offset="0.244792" stop-color="#F0F0F0" stop-opacity="0.82"/>
<stop offset="1" stop-color="white" stop-opacity="0"/>
</linearGradient>
<linearGradient id="paint13_linear_328_33" x1="237.479" y1="192.196" x2="237.479" y2="506.816" gradientUnits="userSpaceOnUse">
<stop offset="0.244792" stop-color="#F0F0F0" stop-opacity="0.82"/>
<stop offset="1" stop-color="white" stop-opacity="0"/>
</linearGradient>
<linearGradient id="paint14_linear_328_33" x1="242.952" y1="201.636" x2="242.952" y2="518.393" gradientUnits="userSpaceOnUse">
<stop offset="0.244792" stop-color="#F0F0F0" stop-opacity="0.82"/>
<stop offset="1" stop-color="white" stop-opacity="0"/>
</linearGradient>
<linearGradient id="paint15_linear_328_33" x1="248.412" y1="210.767" x2="248.412" y2="529.991" gradientUnits="userSpaceOnUse">
<stop offset="0.244792" stop-color="#F0F0F0" stop-opacity="0.82"/>
<stop offset="1" stop-color="white" stop-opacity="0"/>
</linearGradient>
<linearGradient id="paint16_linear_328_33" x1="253.866" y1="219.543" x2="253.866" y2="541.588" gradientUnits="userSpaceOnUse">
<stop offset="0.244792" stop-color="#F0F0F0" stop-opacity="0.82"/>
<stop offset="1" stop-color="white" stop-opacity="0"/>
</linearGradient>
<linearGradient id="paint17_linear_328_33" x1="259.325" y1="219.561" x2="259.325" y2="553.185" gradientUnits="userSpaceOnUse">
<stop offset="0.244792" stop-color="#F0F0F0" stop-opacity="0.82"/>
<stop offset="1" stop-color="white" stop-opacity="0"/>
</linearGradient>
<linearGradient id="paint18_linear_328_33" x1="264.779" y1="218.804" x2="264.779" y2="564.782" gradientUnits="userSpaceOnUse">
<stop offset="0.244792" stop-color="#F0F0F0" stop-opacity="0.82"/>
<stop offset="1" stop-color="white" stop-opacity="0"/>
</linearGradient>
<linearGradient id="paint19_linear_328_33" x1="270.232" y1="217.491" x2="270.232" y2="576.378" gradientUnits="userSpaceOnUse">
<stop offset="0.244792" stop-color="#F0F0F0" stop-opacity="0.82"/>
<stop offset="1" stop-color="white" stop-opacity="0"/>
</linearGradient>
<linearGradient id="paint20_linear_328_33" x1="275.68" y1="215.919" x2="275.68" y2="587.958" gradientUnits="userSpaceOnUse">
<stop offset="0.244792" stop-color="#F0F0F0" stop-opacity="0.82"/>
<stop offset="1" stop-color="white" stop-opacity="0"/>
</linearGradient>
<linearGradient id="paint21_linear_328_33" x1="281.139" y1="214.076" x2="281.139" y2="599.554" gradientUnits="userSpaceOnUse">
<stop offset="0.244792" stop-color="#F0F0F0" stop-opacity="0.82"/>
<stop offset="1" stop-color="white" stop-opacity="0"/>
</linearGradient>
<clipPath id="clip0_328_33">
<rect width="710" height="476" fill="white"/>
</clipPath>
</defs>
</svg>
