<svg width="1210" height="758" viewBox="0 0 1210 758" fill="none" xmlns="http://www.w3.org/2000/svg">
<g opacity="0.1" clip-path="url(#clip0_1_37)">
<path d="M-465.082 377.002C-464.544 376.694 -463.887 376.36 -463.349 376.052L-480.999 379.929C-493.075 386.756 -505.18 393.494 -517.52 399.905L-515.861 404.948C-498.5 395.917 -481.672 386.433 -465.082 377.002Z" fill="url(#paint0_linear_1_37)"/>
<path d="M-438.733 471.213C-377.409 443.795 -313.964 415.437 -232.738 410.786C-139.063 405.488 -63.9535 439.377 8.75204 472.181C82.6744 505.571 159.239 539.994 254.979 533.199C344.942 526.724 408.15 457.236 469.258 389.918C515.839 338.695 559.779 290.33 614.128 268.144C683.706 239.768 735.176 261.294 785.014 282.136C838.562 304.534 893.92 327.768 969.749 287.296C1047.64 245.707 1109.15 188.168 1168.6 132.507C1232.36 72.8608 1298.13 11.5404 1383.91 -29.7888L1363.27 -25.2562C1284.94 16.1461 1223.27 73.623 1163.53 129.54C1104.38 184.946 1043.14 242.141 966.145 283.343C893.813 322.004 842.61 300.513 788.469 277.866C737.147 256.402 684.163 234.164 611.182 263.857C555.25 286.675 510.83 335.525 463.799 387.321C403.621 453.581 341.373 522.099 254.538 528.361C160.823 535.091 85.2389 500.927 12.2362 467.999C-61.3599 434.822 -137.36 400.56 -233.06 405.923C-315.924 410.649 -380.026 439.341 -442.008 467.093C-457.51 474.009 -472.894 480.899 -488.423 487.346L-486.821 492.213C-470.396 485.379 -454.564 478.296 -438.733 471.213Z" fill="url(#paint1_linear_1_37)"/>
<path d="M-424.566 516.731C-361.383 491.846 -295.93 466.083 -214.095 464.051C-123.147 461.725 -46.5763 495.77 27.561 528.64C107.842 564.242 183.79 597.949 275.681 588.773C361.642 580.236 417.359 517.516 471.305 456.799C513.004 409.778 556.232 361.189 613.399 336.676C679.049 308.403 731.142 326.378 781.632 343.756C836.162 362.524 892.443 381.952 963.602 341.271C1035.06 300.335 1091.35 245.176 1145.69 191.868C1212.92 126.05 1282.34 57.9476 1380.48 16.8454C1440.75 -8.34794 1516.74 -12.9866 1597.13 -17.8341C1671.36 -22.3713 1748.13 -26.99 1811.77 -49.3185C1912.01 -84.4293 2006.16 -135.286 2097.23 -186.601L2079.34 -182.671C1992.94 -134.278 1903.75 -86.9804 1809.24 -53.8875C1746.61 -31.9719 1670.51 -27.3073 1596.9 -22.8127C1515.64 -17.8701 1438.91 -13.1628 1377.41 12.5842C1277.93 54.2663 1208 122.765 1140.41 189.043C1086.25 242.121 1030.23 296.936 959.64 337.397C891.71 376.229 839.646 358.343 784.494 339.237C732.548 321.324 679 302.815 610.214 332.441C551.613 357.648 507.934 406.812 465.726 454.228C410.309 516.693 357.805 575.575 275.091 583.874C185.405 592.754 110.377 559.51 31.1352 524.344C-43.7444 491.162 -121.205 456.744 -213.94 459.082C-297.293 461.163 -363.433 487.172 -427.303 512.302C-442.92 518.484 -458.447 524.551 -473.971 530.238L-472.369 535.106C-456.277 529.199 -440.302 522.939 -424.566 516.731Z" fill="url(#paint2_linear_1_37)"/>
<path d="M-409.601 561.233C-344.205 538.804 -276.538 515.497 -193.977 515.676C-105.522 515.89 -29.2131 548.757 44.4534 580.59C127.025 616.162 204.995 649.802 298.455 641.515C381.578 634.076 434.6 573.277 485.703 514.419C524.134 470.3 563.827 424.575 616.163 400.934C678.177 372.891 730.8 387.427 781.581 401.419C836.878 416.696 894.166 432.58 961.128 391.589C1026.8 351.354 1078.31 298.385 1128.08 247.126C1191.31 181.997 1256.65 114.699 1351.81 73.1121C1414.54 45.6714 1497.33 37.6386 1577.3 29.9429C1651.55 22.7444 1728.27 15.2876 1791.56 -7.34191C1903.47 -47.3892 2008.04 -105.846 2109.27 -162.429C2135.84 -177.28 2162.54 -192.158 2189.53 -206.912L2171.04 -202.851C2148.95 -190.692 2127.13 -178.498 2105.43 -166.329C2004.53 -109.914 1900.17 -51.5979 1788.94 -11.7963C1726.58 10.5351 1650.46 17.8611 1576.71 25.0433C1496.03 32.8961 1412.6 40.9715 1348.63 68.8774C1252.24 111.018 1186.42 178.801 1122.68 244.327C1073.21 295.33 1022 348.044 956.957 387.855C893.076 426.937 840.066 412.391 784.026 396.802C731.79 382.275 677.651 367.408 612.859 396.726C559.209 421.035 519.006 467.156 480.124 511.849C427.492 572.277 377.889 629.477 297.866 636.616C206.521 644.722 129.351 611.571 47.789 576.347C-26.7386 544.228 -103.67 511.024 -193.912 510.823C-277.873 510.666 -346.254 534.13 -412.338 556.805C-428.068 562.253 -444.067 567.664 -460.271 572.836L-458.698 577.615C-441.897 572.312 -425.69 566.759 -409.601 561.233Z" fill="url(#paint3_linear_1_37)"/>
<path d="M3043.93 -394.125C3049.11 -394.314 3054.32 -394.415 3059.51 -394.604L3058.6 -397.347L3043.93 -394.125Z" fill="url(#paint4_linear_1_37)"/>
<path d="M2981.08 -352.187C3011.39 -352.962 3041.97 -353.702 3072.62 -354.644L3070.99 -359.599C3040.88 -358.585 3010.92 -357.888 2981.12 -357.129C2940.65 -356.116 2899.8 -355.112 2858.88 -353.526L2830.85 -347.369C2881 -349.656 2931.23 -350.916 2981.08 -352.187Z" fill="url(#paint5_linear_1_37)"/>
<path d="M-405.456 617.206C-378.967 610.25 -356.612 602.778 -334.855 595.437C-284.744 578.643 -241.437 564.102 -172.675 565.889C-86.6468 568.058 -10.7186 599.774 62.7768 630.316C147.877 665.804 228.229 699.3 323.619 691.443C404.322 684.819 454.324 625.729 502.822 568.677C538.228 527.026 574.686 483.91 622.816 461.098C681.552 433.205 734.377 444.47 785.418 455.368C841.542 467.332 899.479 479.752 962.63 438.459C1023.27 398.857 1070.38 347.707 1115.91 298.33C1175.06 234.004 1236.31 167.509 1328.29 125.578C1393.35 95.9162 1479.14 84.9475 1562.08 74.2274C1635.84 64.7644 1712.18 55.0167 1775.11 32.086C1886.13 -8.33434 1990.58 -65.6236 2091.64 -121.127C2161.74 -159.581 2233.24 -198.818 2307.92 -233.06L2284.66 -227.951C2216.93 -195.9 2151.8 -160.245 2087.89 -125.142C1987.15 -69.8058 1882.92 -12.6577 1772.47 27.5433C1710.43 50.0874 1634.59 59.819 1561.34 69.2656C1477.78 80.0283 1391.36 91.0394 1325.19 121.229C1231.99 163.713 1170.26 230.693 1110.75 295.478C1065.52 344.599 1018.71 395.494 958.698 434.673C898.359 474.02 844.583 462.584 787.775 450.486C735.367 439.319 681.146 427.696 619.75 456.837C570.305 480.317 533.248 523.944 497.482 566.054C447.841 624.686 400.934 679.965 323.387 686.465C230.113 694.142 150.651 661.02 66.4409 625.905C-7.67713 595.025 -84.1992 563.061 -171.894 560.878C-242.204 559.051 -286.197 573.838 -336.995 590.878C-358.543 598.078 -380.868 605.638 -407 612.517C-419.827 615.903 -431.935 618.753 -443.625 621.32L-442.052 626.099C-430.63 623.495 -418.283 620.593 -405.456 617.206Z" fill="url(#paint6_linear_1_37)"/>
<path d="M-386.699 659.272C-360.066 653.137 -337.359 646.347 -315.309 639.891C-263.569 624.541 -218.931 611.321 -150.116 614.426C-66.5078 618.172 9.40257 648.659 82.6708 678.114C170.812 713.507 254.115 747.021 350.643 738.725C430.369 731.842 473.362 678.655 518.88 622.256C551.357 582.195 584.767 540.696 632.695 517.265C689.319 489.551 742.257 497.661 793.442 505.492C849.741 514.097 908.034 522.929 967.641 482.129C1025.57 442.456 1069.73 392.428 1112.39 344.058C1166.88 282.273 1223.23 218.371 1309.45 174.478C1376.6 140.276 1467.06 126.765 1554.61 113.706C1626.44 103.053 1700.69 91.9638 1761.71 69.4517C1870.53 29.3248 1973.21 -26.344 2072.54 -80.1387C2196.41 -147.2 2324.4 -216.495 2466.76 -257.724C2628.86 -304.62 2813.19 -308.858 2991.42 -312.989C3022.39 -313.718 3053.75 -314.438 3085.02 -315.422L3083.38 -320.378C3052.62 -319.409 3021.89 -318.733 2991.42 -318.02C2835.41 -314.403 2674.81 -310.728 2527.97 -278.476C2506.5 -273.76 2485.35 -268.451 2464.56 -262.46C2321.37 -221.047 2192.95 -151.47 2068.75 -84.2426C1969.63 -30.5887 1867.16 24.9393 1758.91 64.8466C1698.7 87.0869 1624.93 98.0709 1553.48 108.734C1465.31 121.836 1374.11 135.416 1305.76 170.259C1218.35 214.794 1161.64 279.155 1106.76 341.311C1064.4 389.425 1020.5 439.109 963.202 478.359C906.199 517.354 852.189 509.1 794.967 500.412C742.444 492.401 688.048 484.136 629.123 513.02C579.88 537.12 545.871 579.13 513.062 619.738C468.446 674.99 426.354 727.03 349.995 733.648C255.582 741.765 173.171 708.624 85.8001 673.632C11.8192 643.954 -64.5657 613.191 -149.602 609.379C-219.965 606.235 -265.171 619.674 -317.627 635.181C-339.528 641.699 -362.145 648.375 -388.54 654.457C-403.153 657.856 -416.93 660.692 -430.316 663.158L-428.714 668.025C-415.209 665.533 -401.313 662.671 -386.699 659.272Z" fill="url(#paint7_linear_1_37)"/>
<path d="M-367.54 700.726C-340.794 695.326 -317.706 689.306 -295.333 683.443C-241.876 669.424 -195.698 657.384 -126.534 661.551C-45.0793 666.528 30.3351 695.512 103.285 723.613C190.576 757.199 280.806 791.944 379.449 783.467C457.445 776.774 497.509 725.179 540.036 670.576C569.88 632.233 600.716 592.628 645.752 569.737C699.754 542.219 752.624 547.403 803.769 552.395C860.597 557.943 919.388 563.628 975.96 522.546C1029.96 483.358 1070.36 434.726 1109.49 387.699C1160.05 326.779 1212.25 263.882 1294.98 219.901C1363.79 183.343 1456.89 167.355 1547.1 151.907C1617.93 139.766 1691.26 127.074 1751.54 104.631C1857.82 64.9661 1958.55 11.1487 2056.02 -40.9091C2181.44 -107.93 2311.23 -177.238 2455.6 -218.152C2625.12 -266.204 2817.25 -270.067 3002.92 -273.744C3034.46 -274.693 3066.11 -275.288 3097.91 -276.2L3096.28 -281.156C3065.1 -280.286 3033.96 -279.707 3003.08 -279.093C2838.52 -275.782 2669.14 -272.361 2514.31 -238.354C2493.79 -233.848 2473.45 -228.81 2453.58 -223.117C2308.25 -181.994 2178.17 -112.43 2052.42 -45.2422C1955.28 6.64852 1854.76 60.3248 1748.96 99.885C1689.37 122.083 1616.51 134.669 1546.03 146.732C1455.23 162.311 1361.41 178.457 1291.53 215.63C1207.57 260.165 1155.04 323.609 1104.09 384.9C1065.26 431.671 1025.16 480.047 971.76 518.724C917.434 558.079 862.986 552.768 805.117 547.165C752.782 542.054 698.602 536.779 642.39 565.351C595.949 589.026 564.753 629.089 534.548 667.891C492.922 721.347 453.64 771.821 379.249 778.197C282.602 786.52 197.211 753.654 106.714 718.874C33.1995 690.613 -42.809 661.38 -125.454 656.284C-196.047 652.052 -242.821 664.223 -296.993 678.399C-319.247 684.235 -342.216 690.229 -368.724 695.577C-385.392 698.953 -401.222 701.766 -416.334 704.041L-414.761 708.82C-399.92 706.889 -384.209 704.102 -367.54 700.726Z" fill="url(#paint8_linear_1_37)"/>
<path d="M-347.828 741.495C-320.997 736.74 -297.466 731.288 -274.651 725.992C-219.239 713.252 -171.342 702.162 -101.648 707.161C-22.3729 712.902 52.5754 740.47 125.149 767.04C215.657 800.299 309.314 834.575 410.342 825.575C486.732 818.665 524.134 768.699 563.612 715.714C591.004 678.859 619.416 640.83 662.127 618.26C713.894 590.948 766.486 593.346 817.293 595.756C874.468 598.475 933.698 601.218 987.711 559.749C1038.25 520.941 1075.22 473.537 1110.89 427.651C1157.54 367.684 1205.72 305.767 1285.11 261.758C1355.22 222.924 1451.1 204.52 1543.65 186.851C1613.18 173.477 1685.15 159.756 1744.56 137.408C1848.25 98.4082 1946.67 46.5212 2041.81 -3.69492C2168.68 -70.5613 2299.92 -139.715 2446.26 -180.111C2622.81 -228.947 2822.32 -232.154 3015.22 -235.237C3046.9 -235.744 3078.7 -236.276 3110.68 -237.038L3109.05 -241.993C3077.69 -241.274 3046.4 -240.758 3015.34 -240.294C2842.19 -237.467 2663.79 -234.627 2500.85 -198.838C2481.76 -194.646 2462.82 -190.012 2444.18 -184.873C2297.04 -144.205 2165.47 -74.8847 2038.15 -7.82508C1943.22 42.2502 1844.89 94.0227 1741.77 132.803C1683.04 154.906 1611.46 168.636 1542.26 181.843C1448.99 199.67 1352.51 218.204 1281.33 257.655C1200.74 302.305 1152.2 364.681 1105.19 425.107C1069.7 470.764 1033.03 517.912 983.092 556.209C931.205 595.977 876.261 593.432 817.925 590.683C765.839 588.269 712.056 585.754 658.317 614.068C614.201 637.421 585.457 675.997 557.704 713.311C519.098 765.06 482.776 814.03 409.694 820.498C310.662 829.344 221.964 796.921 128.101 762.407C55.0526 735.561 -20.4309 707.921 -100.896 702.062C-171.928 696.882 -220.393 708.191 -276.521 721.089C-299.217 726.358 -322.629 731.785 -349.221 736.487C-368.182 739.892 -386.125 742.505 -403.468 744.606L-401.866 749.473C-384.493 747.461 -366.699 744.786 -347.828 741.495Z" fill="url(#paint9_linear_1_37)"/>
<path d="M-327.733 781.613C-300.727 777.39 -276.754 772.504 -253.615 767.801C-196.097 756.022 -146.36 745.857 -76.0178 751.662C1.13902 757.963 75.6815 783.911 147.788 809.066C241.843 841.83 339.075 875.699 442.462 865.707C518.08 858.397 552.346 809.784 588.775 758.419C614.014 722.796 640.036 686.051 681.108 663.556C730.849 636.31 783.042 636.328 833.568 636.333C891.001 636.338 950.459 636.279 1002.39 594.318C1049.98 555.873 1083.58 509.495 1116.24 464.556C1158.97 405.542 1203.24 344.578 1279.46 300.606C1350.85 259.494 1448.99 238.984 1543.93 219.269C1611.92 205.096 1682.29 190.399 1740.66 168.375C1841.3 130.233 1936.97 80.4692 2029.56 32.2357C2157.65 -34.4237 2290.23 -103.396 2438.7 -143.123C2621.15 -191.926 2827.17 -194.381 3026.22 -196.635C3058.47 -196.98 3091.07 -197.404 3123.74 -198.032L3122.11 -202.987C3090.07 -202.402 3058.09 -202.021 3026.47 -201.718C2844.63 -199.639 2657.07 -197.443 2486.37 -159.951C2469.67 -156.283 2453.09 -152.261 2436.74 -147.911C2287.46 -107.913 2154.56 -38.7732 2026.01 28.0796C1933.63 76.1722 1838.06 125.821 1737.89 163.858C1680.24 185.725 1610.23 200.344 1542.48 214.465C1446.97 234.398 1348.09 254.977 1275.61 296.705C1198.21 341.32 1153.6 402.831 1110.51 462.303C1078.12 506.899 1044.7 553.047 997.74 591.069C948.054 631.303 892.675 631.321 833.962 631.312C782.304 631.366 728.979 631.407 677.475 659.514C635.088 682.678 608.645 720.084 583.045 756.166C547.517 806.385 513.856 853.726 442.082 860.666C340.423 870.469 244.052 836.885 150.86 804.406C78.3364 779.153 3.34841 753.018 -74.8792 746.573C-146.502 740.764 -196.715 751.034 -254.979 762.882C-277.998 767.558 -301.852 772.418 -328.709 776.703C-350.35 780.128 -370.643 782.593 -390.099 784.494L-388.497 789.361C-369.309 787.424 -349.135 784.985 -327.733 781.613Z" fill="url(#paint10_linear_1_37)"/>
<path d="M-307.14 821.148C-279.869 817.341 -255.482 812.934 -231.931 808.71C-172.186 797.865 -120.521 788.51 -49.2882 794.689C25.9013 801.232 99.7996 825.613 171.382 849.175C269.102 881.418 370.238 914.715 476.254 903.386C550.745 895.375 582.53 848.161 615.942 798.122C639.18 763.413 663.051 727.521 702.84 705.402C769.296 668.317 816.29 670.805 861.826 673.139C911.291 675.749 958.017 678.201 1019.91 626.083C1066.49 586.911 1098.3 540.545 1129.05 495.645C1167.75 439.132 1207.87 380.694 1277.8 336.298C1346.57 292.633 1451.36 269.427 1552.69 246.98C1621.37 231.801 1686.35 217.434 1739.31 197.261C1836.94 160.066 1929.98 112.399 2020.02 66.1483C2149.15 -0.0748495 2282.65 -68.5849 2432.42 -107.459C2621.28 -156.625 2833.87 -157.772 3039.28 -158.956C3071.32 -159.16 3103.74 -159.355 3136.23 -159.753L3134.6 -164.709C3102.74 -164.353 3071.09 -164.138 3039.55 -163.95C2848.82 -162.859 2652.1 -161.687 2473.29 -122.414C2458.86 -119.244 2444.63 -115.834 2430.49 -112.159C2279.79 -72.9867 2145.85 -4.28337 2016.39 62.1068C1926.55 108.217 1833.76 155.831 1736.46 192.859C1684.06 212.812 1619.44 227.101 1551 242.228C1448.95 264.832 1343.53 288.081 1273.63 332.565C1202.65 377.666 1162.29 436.535 1123.11 493.534C1092.51 538.116 1060.88 584.252 1014.99 622.798C955.286 673.013 912.31 670.686 862.459 668.066C817.935 665.7 767.458 663.122 698.94 701.325C657.865 724.2 633.543 760.666 609.974 795.922C577.434 844.725 546.699 890.855 475.606 898.309C371.437 909.422 271.163 876.411 174.185 844.479C102.158 820.731 27.7233 796.277 -48.4179 789.563C-120.84 783.266 -172.983 792.726 -233.353 803.614C-256.876 807.926 -281.143 812.307 -308.203 815.974C-332.553 819.329 -355.436 821.698 -377.391 823.389L-375.789 828.256C-353.866 826.857 -331.25 824.451 -307.14 821.148Z" fill="url(#paint11_linear_1_37)"/>
<path d="M-301.161 846.342C-211.72 837.894 -119.21 829.056 -21.6684 836.668C54.7457 842.658 129.872 866.105 202.443 888.785C301.837 919.902 404.5 952.008 511.539 939.126C585.649 930.344 614.596 884.228 645.021 835.605C666.347 801.696 688.308 766.603 727.206 744.111C791.16 707.196 837.841 707.57 883.094 707.879C932.991 708.306 980.15 708.575 1040.17 655.444C1084.04 616.583 1112.81 571.076 1140.79 527.07C1176.06 471.405 1212.59 413.754 1280.08 369.325C1349.67 323.487 1456.14 298.774 1559.12 274.732C1625.9 259.211 1688.97 244.503 1740.77 224.68C1838.49 187.371 1930.83 141.471 2020.2 97.0749C2147.7 33.6767 2279.63 -31.8313 2427.99 -72.6722C2622.47 -126.11 2842.87 -124.513 3056.06 -123.041C3086.7 -122.843 3117.6 -122.609 3148.6 -122.489L3146.96 -127.445C3116.63 -127.518 3086.38 -127.706 3056.37 -127.947C2862.61 -129.419 2662.76 -130.784 2481.33 -90.9346C2462.6 -86.8213 2444.14 -82.2919 2425.85 -77.2314C2276.65 -36.207 2144.4 29.4681 2016.57 93.0334C1927.4 137.289 1835.19 183.162 1737.92 220.278C1686.56 239.908 1623.73 254.564 1557.31 270.005C1453.58 294.116 1346.43 319.076 1275.79 365.618C1207.25 410.751 1170.36 468.861 1134.76 525.074C1107.05 568.735 1078.44 613.924 1035.16 652.274C977.358 703.59 933.862 703.18 883.488 702.858C839.248 702.517 789.112 702.142 723.216 740.148C683.002 763.308 660.62 799.063 638.963 833.52C609.262 880.845 581.277 925.611 510.653 934.102C405.58 946.742 303.631 914.858 205.097 884.027C132.081 861.16 56.5101 837.526 -20.7973 831.543C-118.993 823.885 -211.891 832.712 -301.689 841.239C-324.124 843.415 -346.707 845.528 -369.498 847.403L-367.895 852.27C-345.434 850.562 -323.118 848.413 -301.161 846.342Z" fill="url(#paint12_linear_1_37)"/>
<path d="M-280.62 884.943C-188.328 877.387 -93.057 869.556 6.74465 877.431C81.1941 883.282 155.824 905.225 228.048 926.463C331.824 956.902 439.165 988.455 547.948 973.102C646.002 959.346 657.987 924.262 671.889 883.728C682.991 851.4 695.523 814.867 753.894 780.032C815.374 743.376 861.801 741.814 906.801 740.185C957.249 738.404 1004.93 736.756 1062.93 682.55C1104.42 643.833 1130.41 599.22 1155.58 556.021C1187.63 501.063 1220.74 444.26 1285.97 399.949C1356.07 352.194 1463.98 326.026 1568.22 300.758C1632.88 285.038 1694 270.191 1744.78 250.782C1839.07 214.701 1928.32 171.091 2014.46 128.923C2142.58 66.2432 2275.1 1.36469 2424.82 -38.4469C2624.98 -91.7102 2851.06 -88.4175 3069.57 -85.172C3099.9 -84.7183 3130.48 -84.3169 3161.14 -84.0304L3159.48 -89.0743C3129.59 -89.3411 3099.64 -89.7849 3070.08 -90.2188C2868.03 -93.1899 2659.55 -96.2667 2470.49 -54.7408C2454.51 -51.2301 2438.64 -47.3654 2422.86 -43.2352C2272.33 -3.15171 2139.46 61.8054 2011.01 124.653C1924.87 166.821 1835.85 210.377 1741.9 246.291C1691.56 265.508 1630.8 280.275 1566.38 295.944C1461.45 321.457 1352.83 347.783 1281.56 396.268C1215.19 441.399 1181.76 498.748 1149.49 554.227C1124.47 597.109 1098.63 641.403 1057.86 679.583C1001.81 731.938 957.791 733.445 906.837 735.243C862.969 736.813 813.117 738.463 749.933 776.158C689.738 812.057 676.901 849.606 665.525 882.658C651.685 922.989 640.704 954.911 547.091 968.166C440.155 983.303 333.676 952.035 230.732 921.793C158.092 900.457 83.0456 878.416 7.79289 872.456C-92.6633 864.535 -188.322 872.357 -280.972 879.992C-305.996 882.072 -331.288 884.116 -356.668 885.895L-355.065 890.762C-330.073 888.973 -305.287 886.945 -280.62 884.943Z" fill="url(#paint13_linear_1_37)"/>
<path d="M-259.233 923.076C-164.386 916.287 -66.3212 909.171 35.8312 917.193C108.317 922.907 182.512 943.142 254.092 962.813C362.339 992.459 474.39 1023.17 585.366 1005.15C684.209 989.134 694.583 954.593 706.515 914.682C715.884 883.304 726.682 847.721 782.551 813.057C841.29 776.623 887.493 773.212 932.206 769.939C983.413 766.188 1031.64 762.711 1087.9 707.466C1127.27 668.929 1150.66 624.981 1173.27 582.535C1202.13 528.373 1232.04 472.367 1295.19 427.944C1365.63 378.502 1474.44 351.186 1579.7 324.746C1642.31 309.002 1701.52 294.195 1751.05 275.25C1841.81 240.512 1927.71 199.157 2010.74 159.191C2139.24 97.2813 2272.17 33.2617 2423.01 -5.46813C2628.5 -58.0981 2859.65 -52.9794 3083.36 -47.9338C3113.25 -47.2868 3143.4 -46.6038 3173.65 -46.0354L3171.99 -51.0793C3142.52 -51.6279 3113.02 -52.2649 3083.9 -52.8921C2873.59 -57.6538 2656.46 -62.5312 2459.88 -19.3546C2446.88 -16.4989 2434.06 -13.4924 2421.2 -10.1943C2269.64 28.6928 2136.27 92.9057 2007.44 154.983C1924.53 194.922 1838.75 236.252 1748.31 270.822C1699.11 289.599 1640.29 304.416 1577.89 320.02C1471.91 346.617 1362.39 374.09 1290.83 424.44C1226.52 469.593 1196.31 526.236 1167.24 580.918C1144.78 623.047 1121.54 666.676 1082.86 704.588C1028.43 758.008 983.716 761.282 931.974 764.961C888.393 768.175 838.914 771.736 778.589 809.183C720.807 845.026 709.793 881.51 700.181 913.701C688.22 953.524 678.88 984.99 584.36 1000.15C475.202 1017.87 364.133 987.416 256.718 957.966C184.602 938.223 110.229 917.837 36.821 912.041C-65.9861 903.973 -164.318 911.053 -259.523 917.92C-287.524 919.896 -315.763 921.923 -344.358 923.649L-342.755 928.516C-314.609 926.983 -286.727 925.035 -259.233 923.076Z" fill="url(#paint14_linear_1_37)"/>
<path d="M-236.742 960.684C-139.399 954.486 -38.8089 948.049 65.6066 955.953C136.308 961.299 209.86 979.968 280.916 998.046C393.873 1026.85 510.694 1056.51 623.924 1035.62C723.529 1017.26 732.591 983.005 742.823 943.372C750.787 912.777 759.852 878.145 813.456 843.598C869.603 807.449 915.549 802.481 960.005 797.651C1011.76 792.071 1060.66 786.74 1115.22 730.633C1152.54 692.072 1173.22 648.816 1193.23 607.035C1220.11 550.746 1245.36 497.663 1307.96 453.928C1378.14 404.83 1481.4 378.163 1581.24 352.344C1645.85 335.686 1706.91 319.902 1759.85 298.5C1838.09 266.894 1913.32 231.203 1986.12 196.709C2128.6 129.073 2263.26 65.2438 2422.67 26.9086C2632.67 -23.6755 2866.22 -16.7115 3092.23 -10.086C3123.37 -9.14394 3154.86 -8.2804 3186.33 -7.5054L3184.67 -12.5493C3153.86 -13.2783 3123.23 -14.2368 3092.75 -15.1329C2874.35 -21.5343 2648.84 -28.1761 2443.79 16.8605C2436.16 18.5373 2428.55 20.3026 2420.86 22.1826C2260.61 60.7011 2119.35 127.783 1982.7 192.527C1910.01 226.995 1834.9 262.659 1756.88 294.125C1704.38 315.333 1643.56 331.065 1579.31 347.644C1478.76 373.62 1374.77 400.444 1303.46 450.362C1239.63 495.03 1212.84 551.204 1186.87 605.586C1167.01 647.049 1146.6 689.961 1109.82 727.834C1057.09 782.116 1011.77 787.041 959.296 792.778C915.943 797.461 866.927 802.818 809.195 839.979C753.677 875.706 744.426 911.327 736.218 942.735C725.928 982.191 717.961 1013.17 622.499 1030.91C511.088 1051.49 395.218 1022 283.242 993.455C211.889 975.252 138.041 956.459 66.5652 951.093C-38.5052 943.143 -139.334 949.632 -236.944 955.795C-268.25 957.832 -299.973 959.77 -331.931 961.381L-330.329 966.248C-298.758 964.627 -267.69 962.643 -236.742 960.684Z" fill="url(#paint15_linear_1_37)"/>
<path d="M-214.361 997.556C-114.402 991.921 -10.929 986.084 95.9596 993.73C164.58 998.584 235.886 1015.09 304.842 1031.07C421.416 1058.03 542.03 1086 660.079 1061.5C662.107 1061.05 664.135 1060.61 666.163 1060.16C763.497 1038.78 771.3 1005.76 780.27 967.73C787.181 938.599 794.893 905.687 845.964 871.602C887.31 844.113 935.855 833.83 982.73 823.914C1042.28 811.309 1103.85 798.259 1146.99 749.406C1181.22 710.766 1199 669.191 1216.11 629.09C1239.76 573.889 1262.12 521.726 1323.68 477.555C1395.51 426.101 1502.6 398.215 1606.25 371.178C1668.09 355.034 1726.53 339.827 1777.58 320.073C1859.69 288.185 1936.5 251.863 2010.74 216.674C2143.99 153.627 2269.82 94.1063 2423.41 58.2839C2636.89 8.54907 2875.01 17.7359 3105.24 26.6626C3136.07 27.8603 3167.29 29.0677 3198.58 30.0721L3196.92 25.0284C3166.5 23.929 3136.08 22.8297 3105.9 21.678C2880.34 12.9585 2647.26 3.90039 2436.48 50.1945C2431.59 51.2687 2426.7 52.3428 2421.72 53.5316C2267.3 89.5375 2141.01 149.252 2007.47 212.554C1933.31 247.628 1856.62 283.924 1774.75 315.76C1724.18 335.409 1665.98 350.563 1604.35 366.566C1499.98 393.761 1392.06 421.83 1319.21 474.077C1256.3 519.208 1233.64 572.007 1209.69 627.844C1192.61 667.653 1175.07 708.795 1141.41 746.835C1099.66 794.057 1042.02 806.243 981.158 819.136C933.447 829.235 884.186 839.675 841.703 867.984C788.718 903.248 780.701 937.176 773.665 967.093C764.756 1004.92 757.63 1034.95 664.59 1055.38C662.562 1055.83 660.534 1056.27 658.387 1056.75C542.217 1080.74 422.583 1053.03 306.842 1026.26C237.618 1010.25 166.045 993.708 96.7404 988.719C-10.6546 981.09 -114.396 986.891 -214.712 992.604C-249.501 994.552 -284.529 996.552 -319.999 997.985L-318.397 1002.85C-283.314 1001.41 -248.644 999.487 -214.361 997.556Z" fill="url(#paint16_linear_1_37)"/>
<path d="M-191.536 1033.96C-88.1875 1028.91 18.7052 1023.75 126.76 1030.66C194.046 1034.96 262.961 1048.48 329.825 1061.59C448.925 1084.96 572.128 1109.14 693.997 1083.42C695.548 1083.08 697.099 1082.74 698.649 1082.4C801.232 1059.86 808.822 1027.36 817.671 989.738C824.155 962.03 831.589 930.603 880.122 897.359C921.145 869.277 969.646 856.916 1016.48 844.922C1076.4 829.578 1138.33 813.699 1182.63 764.876C1218.19 725.656 1232.82 684.205 1247.01 644.176C1265.43 592.117 1282.79 543.043 1342.5 499.469C1416.46 445.554 1527.1 417.174 1634.24 389.845C1695.24 374.265 1752.69 359.559 1803.44 340.441C1886.86 309.025 1962.89 272.683 2036.36 237.474C2160.23 178.195 2277.23 122.134 2425.74 89.1352C2426.81 88.8994 2427.89 88.6636 2428.96 88.4278C2645.82 40.7974 2886.24 52.3246 3118.74 63.503C3149.4 64.9301 3180.35 66.4816 3211.24 67.8563L3209.58 62.8124C3179.34 61.4838 3149.31 60.0142 3119.43 58.6069C2886.42 47.4448 2645.46 35.8456 2427.42 83.738C2426.34 83.9737 2425.27 84.2095 2424.2 84.4453C2274.85 117.627 2157.41 173.882 2033.12 233.443C1959.86 268.51 1884.06 304.801 1800.86 336.075C1750.55 355 1693.22 369.68 1632.58 385.181C1524.75 412.756 1413.4 441.293 1338.3 496.027C1277.15 540.676 1258.76 592.824 1240.82 643.257C1226.87 682.854 1212.34 723.81 1177.43 762.315C1134.45 809.71 1076.32 824.662 1014.84 840.347C967.296 852.498 918.228 865.079 876.038 893.892C825.71 928.288 818.091 960.705 811.363 989.226C802.482 1027.14 795.834 1057.07 692.721 1078.76C572.641 1104.09 450.27 1080.11 332.002 1056.94C264.99 1043.76 195.688 1030.23 127.867 1025.86C19.2767 1018.88 -87.8546 1024.09 -191.442 1029.2C-229.833 1031.08 -268.611 1032.96 -307.86 1034.18L-306.229 1039.13C-267.722 1037.6 -229.45 1035.74 -191.536 1033.96Z" fill="url(#paint17_linear_1_37)"/>
<path d="M-176.445 1069.31C-67.9776 1064.66 44.2716 1059.83 158.103 1066.81C219.825 1070.52 284.954 1080.7 347.941 1090.58C474.808 1110.35 605.988 1130.79 728.669 1104.03C729.027 1103.95 729.265 1103.9 729.623 1103.82C839.84 1079.61 847.55 1047.08 856.398 1009.46C862.545 983.059 869.58 953.142 915.813 921.069C955.821 893.399 1004.37 878.846 1051.42 864.81C1113.01 846.349 1176.59 827.354 1220.06 778.714C1254.73 739.881 1266.67 698.829 1278.3 659.173C1293.08 608.863 1306.97 561.31 1364.05 519.452C1439.27 464.311 1553.57 435.411 1664.2 407.411C1724.19 392.243 1780.98 377.872 1831.01 359.671C1914.77 329.318 1989.8 293.008 2062.43 257.982C2178.66 201.901 2288.4 149.046 2428.85 119.147C2650.91 72.176 2895.63 86.27 3132.4 99.9267C3162.52 101.662 3192.9 103.433 3223.5 105.063L3221.81 99.9307C3192.14 98.3825 3162.64 96.6051 3133.33 94.9783C2896.02 81.2493 2650.65 67.1093 2427.51 114.316C2424.77 114.919 2422.14 115.495 2419.4 116.098C2281.87 146.305 2173.59 198.554 2059.13 253.774C1986.73 288.747 1911.8 324.942 1828.48 355.103C1778.78 373.136 1722.35 387.429 1662.48 402.57C1551.13 430.727 1436.03 459.9 1359.67 515.86C1301.06 558.907 1286.89 607.185 1271.85 658.218C1260.43 697.353 1248.46 737.937 1214.54 775.941C1172.42 823.241 1112.57 841.132 1049.22 860.074C1001.6 874.329 952.339 889.04 911.404 917.388C863.376 950.615 856.155 981.521 849.764 1008.73C840.947 1046.06 834.063 1075.66 728.021 1098.95C727.663 1099.03 727.424 1099.08 727.066 1099.16C605.937 1125.58 475.679 1105.23 349.615 1085.57C286.389 1075.73 221.112 1065.49 159.002 1061.77C44.6652 1054.81 -67.7027 1059.66 -176.437 1064.28C-216.048 1065.96 -256.045 1067.63 -296.456 1068.82L-294.824 1073.77C-255.039 1072.63 -215.549 1070.97 -176.445 1069.31Z" fill="url(#paint18_linear_1_37)"/>
<path d="M-152.318 1101.82C-43.0125 1096.6 69.9553 1091.24 183.204 1096.45C241.51 1099.11 303.019 1107.61 368.008 1116.59C501.733 1135.04 639.948 1154.31 763.73 1123.51C879.279 1094.91 886.98 1063.52 895.759 1027.24C901.866 1002.27 908.652 973.926 953.697 941.354C993.865 912.226 1043.11 896.287 1090.83 880.776C1152.3 860.821 1215.75 840.243 1258.77 791.416C1292.85 752.714 1302.76 712.107 1312.36 672.897C1324.3 624.065 1335.59 577.936 1390.46 536.753C1466.05 480.013 1583.6 451.254 1697.36 423.421C1756.08 409.099 1811.59 395.484 1860.45 378.395C1943.4 349.453 2017.88 314.212 2090.06 280.14C2203.65 226.535 2311.02 175.814 2446.69 148.483C2669.42 103.547 2914.12 120.302 3150.85 136.532C3178.97 138.421 3207.24 140.372 3235.72 142.182L3234.03 137.049C3206.44 135.233 3178.98 133.39 3151.75 131.495C2914.52 115.282 2669.16 98.4806 2445.33 143.564C2439.57 144.733 2433.82 145.902 2428.09 147.159C2299.38 175.428 2195.99 224.233 2086.85 275.816C2014.88 309.748 1940.49 344.875 1858.02 373.711C1809.6 390.608 1754.21 404.196 1695.72 418.466C1581.25 446.455 1462.75 475.424 1386.06 533.072C1329.65 575.444 1318.24 622.36 1306.06 672.004C1296.55 710.72 1286.84 750.806 1253.49 788.59C1211.7 836.104 1151.96 855.489 1088.63 876.041C1040.43 891.656 990.503 907.841 949.407 937.647C902.716 971.435 895.685 1000.59 889.364 1026.46C880.646 1062.54 873.65 1091.02 762.009 1118.67C757.982 1119.65 753.956 1120.63 749.9 1121.52C630.975 1147.64 498.201 1129.36 369.562 1111.59C304.306 1102.59 242.678 1094.11 183.956 1091.35C70.3202 1086.13 -42.8866 1091.55 -152.34 1096.7C-196.3 1098.77 -240.618 1100.91 -285.407 1102.4L-283.776 1107.35C-239.583 1106 -195.771 1103.87 -152.318 1101.82Z" fill="url(#paint19_linear_1_37)"/>
<path d="M-135.195 1132.74C-23.9761 1126.34 91.1161 1119.66 206.488 1123.55C265.484 1125.58 327.536 1133.02 393.159 1140.81C530.562 1157.22 672.425 1174.36 799.108 1141.88C918.482 1111.3 926.33 1080.35 935.612 1044.44C941.864 1019.91 948.973 992.16 993.218 959.099C1033.45 929.007 1083.15 911.734 1131.27 895.093C1192.69 873.82 1256.3 851.784 1299.02 802.832C1332.62 764.235 1340.74 724.021 1348.53 685.115C1358.08 637.567 1367.07 592.608 1420.09 552.021C1495.69 494.14 1615.94 465.83 1732.16 438.5C1789.75 424.997 1844.01 412.227 1891.55 396.186C1973.66 368.568 2047.44 334.713 2118.93 302.027C2230.71 250.716 2336.4 202.262 2469.91 176.923C2692.74 134.623 2936.15 154.035 3171.4 172.772C3196.75 174.795 3222.34 176.765 3247.96 178.824L3246.27 173.691C3221.6 171.803 3196.9 169.826 3172.47 167.886C2936.54 149.015 2692.6 129.53 2468.61 172.181C2459.09 173.985 2449.88 175.914 2440.7 177.931C2319.15 204.629 2220.15 250.095 2115.77 297.88C2044.53 330.514 1970.98 364.317 1889.2 391.768C1841.98 407.642 1787.85 420.385 1730.5 433.836C1613.32 461.376 1492.24 489.869 1415.53 548.658C1360.89 590.549 1351.31 638.388 1341.98 684.655C1334.26 722.978 1326.35 762.67 1293.56 800.236C1251.98 847.989 1192.14 868.629 1128.89 890.587C1080.2 907.447 1029.91 924.851 988.897 955.684C943.153 990.022 935.92 1018.56 929.394 1043.81C920.292 1079.49 913.06 1107.65 797.593 1137.28C672.641 1169.19 531.52 1152.36 394.891 1135.97C329.12 1128.11 266.919 1120.62 207.537 1118.57C91.7481 1114.59 -23.4629 1121.3 -134.921 1127.75C-180.85 1130.43 -227.435 1133.08 -274.252 1135.01L-272.621 1139.96C-226.726 1137.95 -180.648 1135.32 -135.195 1132.74Z" fill="url(#paint20_linear_1_37)"/>
<path d="M-117.495 1163.25C-4.30001 1155.47 112.677 1147.52 230.025 1150.03C289.8 1151.32 352.397 1157.69 418.712 1164.47C559.554 1178.89 705.274 1193.76 834.442 1159.51C957.613 1126.86 965.627 1097.58 975.662 1060.46C982.209 1036.43 989.702 1009.07 1033.24 975.41C1073.51 944.266 1123.63 925.951 1172.26 908.153C1233.67 885.651 1297.28 862.475 1339.83 813.372C1373.19 774.827 1379.52 735.006 1385.64 696.466C1393 650.062 1399.96 606.308 1451.46 566.15C1527.22 507.191 1650.35 479.481 1769.55 452.636C1825.29 440.109 1877.92 428.264 1923.76 413.641C2005.59 387.508 2079.73 354.714 2151.26 322.966C2261.12 274.355 2364.83 228.424 2493.59 204.982C2714.92 164.719 2957.14 187.144 3191.3 208.777C3214 210.908 3236.79 212.924 3259.61 215.028L3257.9 209.807C3236 207.785 3214.13 205.851 3192.35 203.803C2957.54 182.123 2714.78 159.627 2492.23 200.063C2480.39 202.188 2468.88 204.526 2457.55 207.015C2343.64 232.035 2248.41 274.205 2148.05 318.643C2076.6 350.276 2002.83 382.991 1921.33 408.958C1875.85 423.502 1823.33 435.321 1767.83 447.795C1647.8 474.824 1523.71 502.743 1446.75 562.724C1393.61 604.098 1386.21 650.795 1378.97 696.033C1372.92 733.989 1366.65 773.226 1334.22 810.713C1292.79 858.528 1232.84 880.424 1169.5 903.637C1120.39 921.539 1069.61 940.189 1028.5 971.896C983.527 1006.63 975.909 1034.78 969.089 1059.53C959.393 1094.96 951.746 1123.02 832.333 1154.66C705.046 1188.4 559.889 1173.7 419.731 1159.41C353.297 1152.65 290.432 1146.25 230.39 1144.92C112.536 1142.43 -4.68005 1150.43 -118.023 1158.15C-166.31 1161.45 -214.983 1164.74 -264.277 1167.31L-262.675 1172.18C-213.681 1169.86 -165.394 1166.56 -117.495 1163.25Z" fill="url(#paint21_linear_1_37)"/>
<path d="M-114.011 1193.28C5.45087 1183.55 128.875 1173.43 253.786 1175.98C309.811 1177.15 369.113 1182.05 432.105 1187.29C582.161 1199.78 737.455 1212.65 870.032 1176.31C996.971 1141.51 1005.61 1112.19 1016.45 1075.17C1023.47 1051.43 1031.35 1024.46 1074.35 990.339C1114.72 958.32 1165.38 938.936 1214.47 920.185C1275.94 896.719 1339.45 872.429 1381.84 823.263C1415.08 784.744 1419.96 745.149 1424.52 706.95C1429.94 661.636 1435.17 618.833 1485.32 579.254C1560.85 519.587 1685.97 492.864 1806.89 466.97C1861.49 455.262 1913.02 444.324 1957.63 430.635C2038.64 405.915 2111.7 374.497 2182.3 344.187C2290.12 297.922 2391.97 254.108 2518.33 232.711C2739.31 195.276 2979.52 220.516 3211.78 244.938C3231.66 247.026 3251.53 249.113 3271.52 251.174L3269.8 245.953C3250.85 243.948 3231.81 242.057 3212.98 240.026C2980.06 215.558 2739.32 190.246 2517.12 227.854C2501.61 230.499 2486.47 233.447 2471.68 236.695C2364.8 260.17 2274.24 299.037 2179.24 339.926C2108.75 370.21 2035.91 401.487 1955.37 426.103C1911.09 439.624 1859.71 450.625 1805.35 462.28C1683.44 488.295 1557.39 515.317 1480.55 576.032C1428.81 617.003 1423.24 662.635 1417.97 706.87C1413.47 744.486 1408.75 783.383 1376.44 820.844C1334.95 868.862 1275.17 891.669 1211.79 915.934C1162.26 934.879 1110.9 954.508 1069.73 987.179C1025.41 1022.34 1017.26 1050.04 1010.08 1074.48C999.641 1109.99 991.458 1137.97 868.159 1171.79C737.133 1207.78 582.614 1194.94 433.331 1182.47C370.339 1177.23 310.769 1172.29 254.506 1171.17C129.208 1168.61 5.5158 1178.7 -114.185 1188.48C-160.152 1192.22 -206.626 1195.97 -253.452 1199.04L-251.821 1204C-205.678 1200.79 -159.591 1197.03 -114.011 1193.28Z" fill="url(#paint22_linear_1_37)"/>
<path d="M-95.665 1223.46C25.4756 1212.22 150.608 1200.68 277.526 1201.56C334.33 1201.98 394.593 1205.92 458.307 1210.24C611.595 1220.51 770.211 1231.03 905.185 1192.65C1035.95 1155.48 1045.22 1126.12 1057.04 1088.99C1064.51 1065.43 1072.98 1038.7 1115.57 1004.11C1156.06 971.304 1207.42 950.914 1257.1 931.272C1318.67 906.931 1382.39 881.739 1424.28 832.589C1466.3 783.414 1463.32 750.287 1460.43 718.186C1457.12 681.716 1454.1 647.271 1520.66 591.469C1595.58 528.803 1721.91 504.188 1844.18 480.463C1897.91 469.991 1948.65 460.173 1992.43 447.428C2072.39 424.172 2144.48 394.105 2214.24 365.118C2319.99 321.111 2419.88 279.528 2543.94 260.061C2764.37 225.596 3002.32 253.702 3232.45 280.966C3249.35 282.948 3266.39 284.992 3283.41 286.948L3281.66 281.639C3265.69 279.739 3249.71 277.839 3233.77 276.027C3002.98 248.718 2764.35 220.476 2542.85 255.178C2523.5 258.193 2504.84 261.723 2486.59 265.731C2386.63 287.687 2301.04 323.376 2211.15 360.769C2141.62 389.703 2069.74 419.629 1990.26 442.781C1946.84 455.447 1896.34 465.212 1842.85 475.632C1725.4 498.486 1592.19 524.329 1515.86 588.158C1447.26 645.546 1450.4 681.105 1453.82 718.689C1456.66 749.853 1459.49 782.158 1418.8 829.905C1377.9 877.792 1317.94 901.589 1254.31 926.666C1204.06 946.529 1152.1 967.05 1110.83 1000.6C1067.01 1036.12 1058.27 1063.57 1050.53 1087.85C1039.22 1123.45 1030.2 1151.62 902.957 1187.83C769.266 1225.83 611.663 1215.27 459.058 1205.14C395.226 1200.85 334.934 1196.82 277.771 1196.47C150.466 1195.59 24.976 1207.21 -96.2839 1218.47C-144.698 1222.94 -193.738 1227.44 -243.25 1231.3L-241.648 1236.16C-192.375 1232.36 -143.841 1227.87 -95.665 1223.46Z" fill="url(#paint23_linear_1_37)"/>
<path d="M-57.5332 1253.37C58.9086 1241.46 179.314 1229.15 301.404 1226.63C366.052 1225.24 432.55 1227.53 503.036 1229.88C652.166 1234.9 806.116 1240.18 939.822 1208.44C1027.24 1187.62 1058.41 1142.44 1091.39 1094.58C1109.48 1068.31 1128.29 1041.13 1157.34 1016.71C1197.54 983.023 1249.77 961.778 1300.21 941.306C1361.93 916.268 1425.69 890.403 1467.4 841.483C1509.68 791.963 1505.6 758.984 1501.76 727.092C1497.43 691.414 1493.24 657.7 1557.89 603.078C1632.36 540.225 1765.51 516.105 1883.03 494.657C1935.77 485.067 1985.5 476.042 2028.4 464.152C2107.4 442.246 2178.32 413.669 2246.97 385.971C2350.5 344.159 2448.41 304.719 2570.08 287.296C2789.71 255.852 3025.2 286.968 3253.05 317.01C3266.97 318.887 3281.01 320.738 3295.02 322.5L3293.27 317.19C3280.3 315.484 3267.33 313.778 3254.48 312.045C3026.07 281.842 2789.92 250.681 2569.19 282.272C2546.09 285.543 2523.91 289.655 2502.44 294.371C2409.4 314.807 2328.65 347.344 2244.2 381.454C2175.79 409.101 2104.99 437.651 2026.44 459.364C1984.02 471.149 1934.41 480.147 1881.91 489.685C1763.4 511.255 1629.18 535.61 1553.21 599.741C1486.43 656.064 1490.71 690.804 1495.29 727.658C1499.12 758.701 1503.02 790.77 1462.03 838.772C1421.31 886.431 1361.2 910.925 1297.44 936.79C1246.44 957.481 1193.64 978.945 1152.63 1013.29C1122.95 1038.12 1103.99 1065.63 1085.75 1092.22C1053.47 1139.07 1022.89 1183.36 938.31 1203.46C805.826 1235.02 652.262 1229.75 503.878 1224.67C433.392 1222.31 366.775 1220.05 301.739 1221.43C179.291 1224.04 58.619 1236.31 -57.9422 1248.24C-115.239 1254.09 -173.162 1259.98 -231.822 1264.8L-230.22 1269.67C-172.127 1265.07 -114.473 1259.14 -57.5332 1253.37Z" fill="url(#paint24_linear_1_37)"/>
<path d="M-38.1593 1282.66C79.7229 1269.29 201.658 1255.42 325.368 1251.21C391.006 1248.94 458.344 1250.28 529.762 1251.58C681.647 1254.47 838.92 1257.4 974.517 1223.64C1063.64 1201.4 1097.21 1154.94 1132.79 1105.65C1151.59 1079.61 1171.02 1052.76 1199.54 1028.27C1239.86 993.795 1292.66 971.95 1343.76 950.763C1405.43 925.168 1469.37 898.694 1511.05 850.065C1553.78 800.352 1548.84 767.467 1544.12 735.67C1538.87 700.671 1533.96 667.494 1596.96 614.087C1670.96 551.339 1804.87 528.759 1922.92 508.904C1974.79 500.169 2023.74 491.885 2065.65 480.876C2143.6 460.435 2213.41 433.146 2280.95 406.735C2382.26 367.118 2478.04 329.759 2597.28 314.293C2815.79 286.037 3048.67 320.099 3273.99 352.973C3284.88 354.567 3295.91 356.224 3306.92 357.792L3305.14 352.394C3295.21 350.97 3285.39 349.52 3275.58 348.07C3049.69 315.036 2816.27 280.902 2596.54 309.331C2569.81 312.83 2544.17 317.323 2519.48 322.746C2433.12 341.714 2357.42 371.339 2278.18 402.218C2210.85 428.489 2141.28 455.725 2063.81 476.062C2022.25 486.991 1973.51 495.134 1921.91 503.906C1802.79 523.997 1667.78 546.724 1592.28 610.75C1527.3 665.92 1532.41 700.096 1537.81 736.298C1542.5 767.246 1547.24 799.132 1505.95 847.39C1465.2 894.96 1402.15 921.048 1341.14 946.309C1289.48 967.715 1236.02 989.894 1195.01 1025C1165.98 1049.88 1146.39 1077.05 1127.42 1103.32C1092.53 1151.6 1059.71 1197.24 973.183 1218.8C838.659 1252.34 682.011 1249.36 530.752 1246.43C462.401 1245.12 391.729 1243.75 325.971 1246.05C201.903 1250.33 79.8198 1264.15 -38.3008 1277.57C-98.3445 1284.4 -159.253 1291.32 -220.836 1296.97L-219.234 1301.84C-158.486 1296.37 -97.9352 1289.52 -38.1593 1282.66Z" fill="url(#paint25_linear_1_37)"/>
<path d="M-18.7245 1311.85C100.569 1296.94 223.915 1281.52 349.098 1275.56C415.844 1272.38 484.262 1272.73 556.64 1273.06C711.012 1273.79 870.564 1274.71 1008.5 1238.72C1099.45 1215.04 1135.47 1167.08 1173.62 1116.29C1193.01 1090.49 1213.13 1063.77 1241.26 1039.28C1281.74 1004.1 1335.23 981.633 1387.02 959.821C1448.81 933.819 1512.63 906.991 1554.52 858.601C1597.7 808.695 1592.1 775.763 1586.76 744.008C1580.91 709.52 1575.31 676.969 1636.76 624.663C1710.22 562.222 1844.35 541.491 1962.66 523.193C2013.66 515.313 2061.97 507.832 2103.02 497.678C2180 478.587 2248.61 452.7 2315.07 427.666C2413.83 390.412 2507.04 355.326 2624.51 341.101C2842.62 314.737 3074.52 352.43 3298.87 388.935C3305.24 390.004 3311.57 390.985 3317.93 392.055L3316.13 386.568C3310.98 385.706 3305.72 384.869 3300.57 384.006C3075.69 347.429 2843.1 309.602 2623.78 336.14C2593.89 339.763 2565.57 344.655 2538.25 350.654C2457.49 368.392 2386.5 395.182 2312.3 423.149C2246.2 448.105 2177.8 473.851 2101.18 492.864C2060.49 502.938 2012.41 510.367 1961.56 518.31C1842.15 536.755 1706.95 557.722 1631.87 621.467C1568.3 675.474 1574.01 709.139 1580.12 744.804C1585.43 775.71 1590.83 807.641 1549.03 855.916C1508.07 903.247 1445.03 929.715 1384.01 955.357C1331.78 977.362 1277.6 1000.08 1236.34 1035.99C1207.7 1060.88 1187.41 1087.83 1167.83 1113.86C1130.4 1163.74 1094.87 1210.83 1006.51 1233.84C870.006 1269.51 710.841 1268.6 556.975 1267.86C487.664 1267.52 415.912 1267.15 348.927 1270.38C223.357 1276.32 99.7725 1291.8 -19.64 1306.73C-82.5496 1314.57 -146.294 1322.59 -210.892 1329.19L-209.29 1334.06C-144.902 1327.6 -81.3663 1319.72 -18.7245 1311.85Z" fill="url(#paint26_linear_1_37)"/>
<path d="M0.910978 1340.88C121.496 1324.46 246.105 1307.43 372.789 1299.82C440.644 1295.73 513.476 1295.11 584.015 1294.51C740.545 1293.25 902.407 1291.86 1042 1253.89C1134.72 1228.59 1173.43 1179.1 1214.39 1126.74C1234.46 1101.07 1255.23 1074.4 1283.34 1049.82C1324.03 1014.12 1378.24 991.115 1430.65 968.881C1492.39 942.701 1556.24 915.581 1598.36 867.52C1642.26 817.456 1636.16 784.54 1630.28 752.713C1623.92 718.622 1617.96 686.529 1678.27 635.422C1751.28 573.555 1885.16 554.777 2003.27 538.229C2053.64 531.151 2101.24 524.588 2141.59 515.06C2217.5 497.345 2284.88 472.772 2350.08 448.963C2446.47 413.842 2537.58 380.546 2652.78 368.34C2869.4 345.242 3098.34 385.96 3319.66 425.313C3322.93 425.923 3326.32 426.507 3329.59 427.117L3327.78 421.63C3325.61 421.253 3323.56 420.85 3321.39 420.473C3099.42 381.074 2869.92 340.195 2652.04 363.378C2618.31 366.99 2586.8 372.298 2556.5 378.953C2482.31 395.249 2416.18 419.356 2347.31 444.447C2282.32 468.115 2215.3 492.609 2139.75 510.245C2099.73 519.606 2052.4 526.205 2002.15 533.257C1882.93 549.952 1747.83 568.903 1673.11 632.19C1610.68 684.997 1616.93 718.355 1623.52 753.535C1629.22 784.451 1635.12 816.366 1592.76 864.861C1551.56 911.864 1488.49 938.623 1427.44 964.557C1374.46 987.012 1319.83 1010.3 1278.21 1046.68C1249.72 1071.63 1228.86 1098.41 1208.6 1124.31C1168.39 1175.84 1130.31 1224.53 1039.92 1249.13C901.521 1286.84 740.285 1288.18 584.26 1289.43C513.721 1290.03 440.741 1290.59 372.647 1294.73C245.605 1302.42 120.877 1319.47 0.172664 1335.92C-65.6932 1344.88 -132.423 1353.94 -200.006 1361.57L-198.404 1366.44C-131.208 1358.8 -64.7161 1349.79 0.910978 1340.88Z" fill="url(#paint27_linear_1_37)"/>
<path d="M20.4821 1369.66C142.21 1351.65 268.112 1333.11 396.12 1323.69C465.322 1318.64 539.501 1317.06 611.296 1315.62C769.719 1312.32 933.471 1308.91 1074.42 1268.84C1168.91 1241.92 1210.31 1190.88 1254.17 1136.84C1274.99 1111.11 1296.56 1084.54 1324.64 1059.87C1365.78 1023.6 1420.65 1000.26 1473.69 977.604C1535.4 951.336 1599.31 924.013 1641.73 876.456C1686.19 826.552 1679.11 792.998 1672.28 760.62C1665.12 726.42 1658.21 694.156 1720.25 645.989C1799 584.853 1919.85 569.603 2036.64 554.864C2087.72 548.389 2136.12 542.314 2180.37 532.594C2255.16 516.167 2321.28 492.82 2385.22 470.236C2479.28 436.956 2568.09 405.59 2681.19 395.172C2896.24 375.457 3121.91 419.075 3340.09 461.302C3340.35 461.338 3340.62 461.374 3340.92 461.498L3339.08 455.923C3121.2 413.821 2896.01 370.479 2680.72 390.246C2643.48 393.682 2608.75 399.317 2575.71 406.574C2507.59 421.534 2446.4 443.135 2382.7 465.667C2318.99 488.198 2253.23 511.467 2178.8 527.815C2134.78 537.483 2086.77 543.568 2035.81 550.016C1917.91 564.903 1795.97 580.3 1715.6 642.741C1651.1 692.775 1658.18 726.33 1665.76 761.769C1672.4 793.236 1679.28 825.791 1636.33 874.036C1594.75 920.65 1531.7 947.497 1470.68 973.52C1417.07 996.397 1361.76 1019.93 1319.84 1056.94C1291.37 1081.98 1269.74 1108.75 1248.71 1134.62C1205.59 1187.84 1164.85 1238.16 1072.57 1264.41C932.672 1304.15 769.574 1307.61 611.777 1310.86C539.862 1312.33 465.535 1313.85 396.124 1319.04C267.729 1328.45 141.738 1347.11 19.8605 1365.05C-48.932 1375.23 -118.589 1385.5 -189.276 1394.19L-187.703 1398.97C-117.49 1390 -48.072 1379.78 20.4821 1369.66Z" fill="url(#paint28_linear_1_37)"/>
<path d="M26.5536 1399.31C153.659 1378.98 285.116 1357.89 419.205 1347.51C486.175 1342.29 557.282 1341.48 632.678 1340.48C800.977 1338.43 974.993 1336.27 1106.35 1283.79C1200.62 1246.1 1239.59 1202.43 1284.82 1151.79C1307.79 1125.96 1331.62 1099.28 1365.34 1069.58C1406.96 1032.82 1462.51 1009.24 1516.12 986.359C1577.83 960.092 1641.65 932.883 1684.57 885.69C1730.04 835.753 1722.88 801.933 1715.94 769.201C1708.71 735.204 1702.01 703.18 1762.97 656.39C1842.91 594.991 1966.37 581.446 2085.65 568.437C2133.29 563.191 2178.38 558.318 2219.37 550.358C2291.35 536.637 2359.01 513.71 2424.41 491.66C2513.62 461.532 2605.73 430.484 2709.83 421.855C2918.88 404.882 3138.87 450.314 3351.91 495.189L3350.05 489.525C3137.6 444.9 2918.5 399.841 2709.53 417.08C2673.28 420.014 2638.46 425.763 2604.82 433.152C2540.88 447.195 2480.8 467.508 2422.06 487.242C2356.9 509.239 2289.57 531.999 2218.1 545.704C2177.43 553.497 2132.49 558.432 2085.09 563.626C1964.7 576.782 1840.15 590.475 1758.44 653.115C1695.02 701.773 1702.01 735.062 1709.41 770.351C1716.15 802.083 1722.99 834.93 1679.11 883.093C1637.12 929.228 1574.08 956.076 1513.06 982.098C1458.88 1005.2 1402.79 1029.09 1360.36 1066.5C1326.35 1096.46 1301.4 1124.43 1279.25 1149.22C1232.69 1201.29 1195.97 1242.47 1103.38 1279.42C973.361 1331.32 800.239 1333.47 632.833 1335.51C557.408 1336.42 486.063 1337.29 418.854 1342.56C284.378 1352.93 152.801 1374.04 25.4575 1394.42C-41.8512 1405.22 -110.024 1416.11 -179.198 1425.52L-177.625 1430.3C-108.57 1420.92 -40.6359 1410.08 26.5536 1399.31Z" fill="url(#paint29_linear_1_37)"/>
<path d="M45.5064 1428.12C173.874 1406.19 306.475 1383.52 441.916 1371.42C509.995 1365.29 582.449 1363.52 659.22 1361.65C828.874 1357.5 1004.39 1353.3 1136.78 1299.27C1232.52 1260.21 1274.53 1214.55 1323.15 1161.74C1347.1 1135.79 1371.77 1108.93 1405.42 1079.43C1447.7 1042.34 1503.82 1018.53 1558.06 995.61C1619.7 969.545 1683.46 942.54 1726.95 895.887C1773.55 845.892 1766.16 810.223 1759.75 778.704C1752.82 744.832 1746.26 712.87 1806.44 667.58C1885.83 607.63 2007.81 596.211 2125.83 585.189C2173.23 580.755 2218.01 576.518 2258.74 569.282C2329.3 556.724 2395.71 535.022 2459.79 514.021C2546.85 485.506 2636.92 456.044 2738.89 449.115C2943.03 435.497 3156.26 482.132 3363.06 529.04L3361.19 523.377C3155.11 476.691 2942.68 430.545 2738.83 444.288C2635.85 451.249 2545.21 480.93 2457.68 509.551C2393.81 530.411 2327.88 552.008 2257.82 564.549C2217.45 571.707 2172.79 575.918 2125.63 580.299C2064.7 585.995 2002.78 591.812 1945.88 604.31C1891.49 616.257 1841.78 634.291 1802.14 664.253C1739.54 711.499 1746.24 744.663 1753.46 779.801C1760.04 811.851 1766.74 845.016 1721.85 893.212C1679.29 938.806 1616.22 965.566 1555.26 991.385C1500.48 1014.61 1443.77 1038.55 1400.71 1076.38C1366.76 1106.14 1341.97 1133.03 1317.93 1159.09C1269.76 1211.33 1228.23 1256.51 1133.95 1294.96C1003.03 1348.38 828.285 1352.6 659.375 1356.68C582.485 1358.58 509.882 1360.29 441.565 1366.47C305.766 1378.64 172.926 1401.37 44.4398 1423.33C-25.557 1435.28 -96.4182 1447.34 -168.429 1457.84L-166.856 1462.62C-95.0838 1452.17 -24.2228 1440.12 45.5064 1428.12Z" fill="url(#paint30_linear_1_37)"/>
<path d="M66.6033 1456.85C195.369 1433.41 328.458 1409.12 464.21 1395.24C533.636 1388.15 607.494 1385.6 685.761 1382.83C856.471 1376.84 1033.08 1370.5 1165.95 1315.22C1262.8 1274.88 1307.8 1227.42 1359.92 1172.41C1384.8 1146.17 1410.51 1118.98 1444.55 1089.49C1487.72 1052.02 1544.38 1028.28 1599.24 1005.32C1660.85 979.544 1724.47 952.857 1768.57 906.922C1816.36 857.045 1809.57 820.865 1803.4 788.914C1796.66 753.671 1790.84 723.161 1850.44 679.231C1929.37 620.995 2049.61 611.667 2165.88 602.735C2213.16 599.089 2257.82 595.638 2298.48 588.985C2367.79 577.653 2432.73 556.937 2495.49 536.985C2580.6 509.941 2668.49 482.002 2768.33 476.774C2967.33 466.184 3173.64 513.958 3374.12 562.635L3372.2 556.794C3172.44 508.34 2966.95 461.143 2768.28 471.566C2667.31 476.853 2578.73 505.037 2493.29 532.249C2430.77 552.149 2366.16 572.697 2297.47 583.987C2257.2 590.65 2212.78 594.048 2165.62 597.669C2102.38 602.545 2037.88 607.507 1979.31 620.371C1929.21 631.375 1883.32 648.19 1846.06 675.639C1784 721.436 1790.31 754.591 1797.02 789.745C1803.25 822.254 1809.55 855.789 1763.38 903.982C1720.15 949.061 1657.19 975.414 1596.36 1000.83C1540.93 1024.01 1483.59 1047.99 1439.75 1086.18C1405.53 1115.9 1379.7 1143.11 1354.73 1169.47C1303.18 1223.88 1258.54 1270.88 1163.15 1310.62C1031.66 1365.41 855.913 1371.65 685.978 1377.66C607.592 1380.45 533.494 1383.06 463.83 1390.2C327.691 1404.06 194.363 1428.41 65.4785 1451.88C-7.77365 1465.22 -82.0998 1478.79 -157.663 1490.55L-156.09 1495.33C-80.7362 1483.71 -6.52969 1470.17 66.6033 1456.85Z" fill="url(#paint31_linear_1_37)"/>
<path d="M85.1363 1485.58C214.926 1460.58 349.039 1434.73 486.144 1419.14C555.427 1411.23 627.755 1406.35 704.223 1401.23C873.781 1389.8 1049.24 1378.02 1193.59 1331.6C1291.69 1300.1 1344.93 1242.28 1401.17 1181.16C1426.32 1153.81 1452.34 1125.6 1482.69 1099.68C1527.06 1061.94 1584.28 1038.36 1639.59 1015.59C1700.96 990.247 1764.48 964.054 1809.41 918.696C1858.63 868.885 1852.44 832.194 1846.9 799.819C1840.87 764.419 1835.68 733.867 1894.73 691.385C1973 635.004 2091.14 627.846 2205.4 620.968C2252.68 618.082 2297.48 615.454 2338.04 609.296C2406.03 599.012 2469.63 579.257 2531.04 560.264C2614.03 534.54 2699.91 507.896 2797.96 504.201C2991.54 496.983 3191.12 545.667 3385.1 595.962L3383.17 590.122C3189.91 540.049 2991.34 492.093 2797.99 499.259C2698.82 503.012 2612.46 529.762 2528.9 555.705C2467.75 574.734 2404.61 594.296 2337.1 604.475C2296.89 610.554 2252.35 613.218 2205.2 616.078C2139.97 619.968 2073.39 624.057 2013.39 637.236C1967.34 647.349 1925.13 662.884 1890.26 687.907C1828.75 732.257 1834.32 765.48 1840.4 800.677C1846.03 833.697 1851.85 867.717 1804.25 915.844C1760.31 960.321 1700.25 984.993 1636.73 1011.19C1580.86 1034.18 1522.98 1058.09 1477.92 1096.45C1447.15 1122.66 1421.04 1150.98 1395.8 1178.45C1340.13 1238.97 1287.55 1296.07 1191.33 1327.07C1048.02 1373.16 873.191 1384.9 704.139 1396.31C627.432 1401.49 555.105 1406.36 485.554 1414.24C348.182 1429.8 213.83 1455.7 83.921 1480.72C8.12872 1495.28 -68.737 1510.08 -146.989 1522.99L-145.416 1527.77C-67.4026 1514.91 9.37306 1500.23 85.1363 1485.58Z" fill="url(#paint32_linear_1_37)"/>
<path d="M103.315 1514.38C234.009 1487.86 369.146 1460.45 507.394 1443.28C578.053 1434.5 652.173 1428.84 730.404 1422.86C900.123 1409.97 1075.8 1396.53 1219.96 1348.74C1319.11 1315.76 1374.89 1256.73 1433.88 1194.24C1460.31 1166.13 1487.74 1137.15 1519.52 1110.52C1564.85 1072.58 1622.78 1049.22 1678.8 1026.67C1740.11 1001.91 1803.47 976.42 1849.05 931.868C1899.85 882.185 1894.59 844.815 1889.77 811.903C1884.6 776.409 1880.24 745.673 1938.9 704.702C2014.61 651.824 2126.21 646.955 2234.27 642.2C2285.2 639.934 2333.24 637.828 2377.42 630.972C2445.08 620.476 2505.57 602.161 2563.93 584.407C2648.5 558.811 2728.26 534.555 2827.43 532.323C3015.72 528.069 3208.45 577.309 3395.98 629.02L3394.03 623.091C3207.24 571.692 3015.58 522.976 2827.79 527.213C2727.35 529.442 2646.99 553.83 2561.85 579.645C2503.7 597.258 2443.57 615.494 2376.53 625.948C2332.86 632.787 2285.06 634.841 2234.37 637.055C2170.06 639.886 2104.48 642.714 2045.55 655.657C2004.4 664.696 1966.51 678.615 1934.7 700.88C1873.44 743.656 1878.17 777.063 1883.3 812.469C1888.09 846.053 1893.11 880.725 1843.93 928.724C1799.22 972.421 1739.34 996.483 1675.89 1022.09C1619.3 1044.86 1560.8 1068.44 1514.69 1107.12C1482.61 1134 1455.1 1163.11 1428.45 1191.35C1370.03 1253.24 1314.85 1311.76 1217.52 1344.05C1074.32 1391.64 899.355 1404.92 730.024 1417.82C651.525 1423.77 577.405 1429.42 506.508 1438.25C368.021 1455.48 232.645 1482.94 101.713 1509.51C23.529 1525.35 -55.8474 1541.46 -136.549 1555.48L-134.975 1560.26C-54.1257 1546.3 25.1316 1530.22 103.315 1514.38Z" fill="url(#paint33_linear_1_37)"/>
<path d="M121.018 1543.28C252.646 1515.32 388.807 1486.37 528.049 1467.55C600.174 1457.78 675.848 1451.41 755.9 1444.74C925.568 1430.53 1101.05 1415.71 1244.74 1366.5C1344.85 1332.18 1403.05 1271.95 1464.76 1208.01C1492.69 1179.01 1521.73 1149.09 1554.95 1121.78C1601.17 1083.82 1659.75 1060.9 1716.4 1038.68C1777.7 1014.68 1841 989.774 1887.62 946.038C1940.29 896.607 1935.92 858.471 1932.15 824.855C1928.15 789.01 1924.62 758.09 1983.27 718.64C2058.34 668.086 2167.16 665.252 2272.43 662.532C2323.68 661.239 2372.13 659.991 2416.81 653.499C2483.61 643.858 2542.66 626.238 2599.83 609.127C2682.16 584.497 2759.83 561.27 2857.58 560.581C3039.81 559.272 3225.69 609.069 3406.84 661.991L3404.86 655.973C3224.6 603.425 3039.7 554.268 2857.62 555.638C2758.61 556.412 2680.35 579.771 2597.42 604.531C2540.61 621.565 2481.89 639.017 2415.72 648.616C2371.63 654.977 2323.45 656.26 2272.44 657.501C2206.98 659.162 2140.27 660.908 2080.63 674.008C2043.17 682.235 2008.6 694.952 1978.98 714.933C1917.85 756.162 1921.51 789.805 1925.56 825.447C1929.42 859.709 1933.39 895.086 1882.52 942.983C1836.89 985.837 1777.08 1009.32 1713.63 1034.17C1656.42 1056.6 1597.27 1079.74 1550.27 1118.44C1516.84 1145.9 1487.74 1176.01 1459.6 1205.16C1398.43 1268.41 1340.74 1328.24 1242.33 1361.91C1099.68 1410.79 924.801 1425.48 755.639 1439.67C675.348 1446.39 599.675 1452.77 527.311 1462.59C387.71 1481.48 251.431 1510.47 119.684 1538.45C39.228 1555.55 -42.3012 1572.89 -125.423 1588.11L-123.85 1592.89C-40.9668 1577.72 40.5624 1560.39 121.018 1543.28Z" fill="url(#paint34_linear_1_37)"/>
<path d="M138.24 1572.29C270.801 1542.89 407.747 1512.43 547.894 1492.09C621.396 1481.45 698.623 1474.36 780.467 1466.91C949.728 1451.47 1124.83 1435.5 1267.66 1385.24C1368.41 1349.74 1429.12 1288.2 1493.52 1223.1C1523.16 1193.05 1553.87 1162.01 1588.64 1133.98C1635.57 1096.24 1694.81 1073.74 1752.02 1052.07C1813.43 1028.81 1876.88 1004.72 1924.32 961.941C1978.87 912.763 1975.91 873.844 1973.42 839.471C1970.7 803.249 1968.37 772.067 2026.97 734.049C2101.31 685.933 2206.99 685.213 2309.21 684.491C2361.02 684.119 2410.03 683.793 2455.33 677.639C2521.35 668.738 2579.03 651.61 2634.85 635.078C2714.91 611.326 2790.55 588.924 2887.08 589.549C3063.87 590.764 3242.95 640.913 3417.61 694.693L3415.6 688.587C3241.84 635.181 3063.76 585.759 2887.35 584.555C2789.4 583.864 2713.19 606.485 2632.57 630.456C2577.09 646.91 2519.74 663.871 2454.36 672.729C2409.65 678.752 2360.91 679.115 2309.33 679.434C2243.23 679.909 2175.58 680.344 2115.58 693.522C2081.7 700.963 2050.18 712.442 2022.77 730.227C1961.51 769.874 1964.12 803.841 1966.77 839.886C1969.35 874.905 1972.06 911.127 1919.31 958.771C1872.77 1000.78 1812.85 1023.53 1749.25 1047.55C1691.48 1069.45 1631.67 1092.17 1583.82 1130.58C1548.71 1158.78 1518.03 1189.91 1488.18 1220.09C1424.38 1284.68 1364.24 1345.62 1265.11 1380.59C1123.32 1430.52 948.722 1446.47 780.058 1461.78C698.094 1469.25 620.718 1476.28 546.979 1486.98C406.473 1507.4 269.26 1537.82 136.58 1567.25C54.0906 1585.55 -29.7112 1604.15 -115.044 1620.42L-113.471 1625.2C-28.0506 1609.19 55.7509 1590.6 138.24 1572.29Z" fill="url(#paint35_linear_1_37)"/>
<path d="M154.75 1601.45C288.006 1570.66 425.915 1538.85 567.085 1516.96C640.95 1505.48 720.226 1499.17 804.209 1492.39C974.826 1478.74 1151.16 1464.59 1286.06 1404.97C1388.34 1359.73 1449.14 1302.35 1513.35 1241.75C1545.97 1211.05 1579.64 1179.27 1620.48 1147.15C1668.25 1109.61 1728.25 1087.89 1786.17 1066.82C1847.19 1044.69 1910.24 1021.73 1958.44 980.493C2015.1 931.895 2014.14 891.682 2013.24 856.296C2012.29 819.212 2011.48 787.222 2070.34 750.76C2143.05 705.849 2245.4 707.471 2344.39 708.978C2397.89 709.849 2448.53 710.588 2494.9 704.578C2561 695.943 2616.81 678.942 2670.85 662.423C2747.57 639.025 2820.08 616.835 2916.71 618.955C3087.8 622.656 3260.3 673.017 3428.43 727.566L3426.39 721.372C3259.18 667.285 3087.81 617.625 2917.14 614.022C2819.1 611.926 2745.99 634.246 2668.47 657.916C2614.76 674.268 2559.31 691.19 2493.95 699.757C2448.21 705.724 2397.92 704.907 2344.69 704.072C2277.56 702.97 2208.91 701.917 2148.43 715.2C2118.61 721.75 2090.81 731.745 2066.17 747.027C2004.74 785.002 2005.58 819.831 2006.57 856.622C2007.49 892.857 2008.41 930.232 1953.55 977.296C1906.37 1017.74 1843.97 1040.37 1783.55 1062.37C1725.04 1083.57 1664.49 1105.6 1615.8 1143.81C1574.75 1176.07 1540.87 1208 1508.28 1238.78C1444.34 1299.04 1384.05 1356.03 1282.87 1400.74C1149.35 1459.86 973.73 1473.85 803.887 1487.53C719.755 1494.24 640.389 1500.67 566.138 1512.14C424.58 1534.02 286.582 1565.94 153.088 1596.78C68.8034 1616.24 -16.793 1635.99 -104.159 1653.47L-102.586 1658.25C-15.2491 1640.68 70.347 1620.93 154.75 1601.45Z" fill="url(#paint36_linear_1_37)"/>
<path d="M169.554 1630.89C304.041 1598.79 443.27 1565.55 585.403 1542.3C659.69 1530.16 738.168 1522.98 821.144 1515.48C986.591 1500.49 1157.76 1485.01 1292.26 1426.53C1401.82 1378.93 1468.68 1318.98 1539.38 1255.53C1573.46 1224.99 1608.61 1193.45 1650.29 1161.52C1698.82 1124.39 1758.91 1104.07 1816.96 1084.59C1876.71 1064.44 1938.44 1043.67 1987.08 1004.52C2032.57 967.864 2040.9 924.378 2048.91 882.288C2057.21 839.093 2065.01 798.285 2112.74 769.202C2186.88 723.977 2289.94 730.092 2389.71 735.889C2439.68 738.863 2491.46 741.913 2537.67 738.122C2605.3 732.567 2661.51 712.916 2715.92 694.037C2783.62 670.437 2853.62 646.048 2945.99 649.199C3112.6 654.834 3278.25 706.131 3439.55 761.325L3437.48 755.042C3277.22 700.284 3112.6 649.803 2946.59 644.038C2852.65 640.758 2781.87 665.508 2713.37 689.379C2659.55 708.127 2603.79 727.586 2537.29 733.081C2491.71 736.83 2442.54 733.964 2390.61 730.852C2319.65 726.698 2247.12 722.416 2183.78 736.328C2156.82 742.25 2131.57 751.403 2108.9 765.301C2058.92 795.731 2050.94 837.529 2042.61 881.775C2034.71 923.079 2026.63 965.752 1982.52 1001.16C1934.78 1039.54 1873.77 1060.15 1814.7 1080.05C1756.08 1099.76 1695.4 1120.21 1645.85 1158.13C1603.96 1190.2 1568.59 1221.88 1534.55 1252.51C1464.24 1315.59 1397.77 1375.17 1289.34 1422.33C1156.07 1480.26 985.644 1495.67 820.823 1510.62C737.607 1518.17 658.981 1525.29 584.337 1537.51C441.726 1560.86 302.496 1594.09 167.771 1626.25C82.1399 1646.67 -4.89331 1667.49 -93.5164 1685.82L-91.9434 1690.6C-3.23028 1672.16 83.8325 1651.42 169.554 1630.89Z" fill="url(#paint37_linear_1_37)"/>
<path d="M183.195 1660.68C319.18 1627.3 459.759 1592.72 602.946 1568.01C676.045 1555.37 753.307 1547.61 835.158 1539.4C996.982 1523.12 1164.35 1506.2 1296.57 1449.35C1414.55 1398.58 1490.44 1333.8 1570.83 1265.19C1604.47 1236.45 1639.23 1206.8 1678.21 1177.17C1727.1 1139.96 1787.26 1121.81 1845.42 1104.2C1904.05 1086.48 1964.69 1068.23 2014 1030.35C2062 993.523 2073.35 948.33 2084.38 904.532C2095.57 860.037 2106.15 817.954 2154.74 789.157C2228.07 745.724 2329.62 755.778 2427.86 765.515C2479.3 770.632 2532.44 775.852 2580.16 773.152C2650.58 769.073 2704.93 747.268 2757.6 726.209C2819.89 701.33 2884.3 675.512 2975.26 679.826C3138.08 687.528 3297.1 741.23 3451.46 797.475L3449.36 791.103C3296.07 735.383 3138.23 682.559 2975.93 674.841C2883.15 670.451 2817.81 696.568 2754.63 721.833C2702.64 742.646 2648.83 764.144 2579.93 768.174C2532.87 770.919 2480.08 765.621 2429.06 760.602C2356.07 753.383 2281.36 745.974 2216.83 760.149C2193.33 765.31 2171.15 773.313 2150.93 785.344C2100.31 815.347 2089.39 858.358 2078.04 903.932C2067.25 946.916 2056.06 991.411 2009.59 1027.05C1961.27 1064.04 1901.35 1082.14 1843.43 1099.7C1784.55 1117.47 1723.83 1135.84 1673.8 1173.87C1634.61 1203.64 1599.76 1233.4 1566.12 1262.14C1486.15 1330.47 1410.56 1394.99 1293.69 1445.24C1162.6 1501.65 995.945 1518.42 834.746 1534.65C752.776 1542.88 675.395 1550.67 601.937 1563.39C458.483 1588.07 317.784 1622.67 181.589 1656.19C94.9691 1677.49 6.91751 1699.11 -82.6657 1718.4L-81.0926 1723.18C8.40315 1703.62 96.455 1682 183.195 1660.68Z" fill="url(#paint38_linear_1_37)"/>
<path d="M191.35 1690.92C327.434 1656.28 468.112 1620.45 611.37 1594.4C685.965 1580.86 763.654 1571.67 845.784 1561.99C1001.43 1543.65 1162.26 1524.74 1298.26 1473.52C1423.93 1426.28 1505.24 1357.36 1591.25 1284.48C1626.36 1254.75 1662.76 1223.89 1702.22 1194.92C1751.76 1158.51 1811.81 1142.38 1869.96 1126.66C1928.22 1110.93 1988.37 1094.68 2038.56 1058.32C2089.45 1021.33 2103.78 974.722 2117.45 929.587C2131.45 883.906 2144.59 840.689 2194.88 811.994C2268.29 769.966 2368.5 783.731 2465.47 796.974C2518 804.225 2572.37 811.641 2621.42 809.882C2691.47 807.403 2747.08 784.371 2801.02 762.087C2861.82 736.966 2924.62 710.93 3008.23 715.057C3160.62 722.58 3313.21 773.807 3461.94 829.294L3459.82 822.834C3312.12 767.783 3160.75 717.523 3008.89 710.072C2923.35 705.896 2859.5 732.256 2797.92 757.737C2744.79 779.75 2689.84 802.447 2621.34 804.966C2573.18 806.718 2519.19 799.313 2466.93 792.097C2392.45 781.886 2315.95 771.36 2250.22 785.796C2229.22 790.407 2209.31 797.533 2191.01 808.004C2138.69 837.906 2125.21 882.05 2110.99 928.633C2097.45 972.98 2083.51 1018.84 2034.06 1054.75C1984.91 1090.41 1925.46 1106.41 1867.91 1121.99C1809.05 1137.86 1748.3 1154.24 1697.63 1191.46C1657.96 1220.58 1621.56 1251.44 1586.24 1281.31C1500.62 1353.82 1419.79 1422.25 1295.28 1469.14C1160.3 1519.95 999.858 1538.87 844.807 1557.08C766.134 1566.38 684.72 1575.91 609.887 1589.5C466.362 1615.52 325.564 1651.38 189.27 1686.16C103.359 1708.06 16.2556 1730.23 -72.4987 1750.1L-70.9256 1754.88C18.0962 1735.04 105.32 1712.85 191.35 1690.92Z" fill="url(#paint39_linear_1_37)"/>
<path d="M189.28 1722.35C325.347 1686.1 466.008 1648.66 609.303 1621.55C686.377 1607 770.297 1596.92 851.505 1587.15C1004.83 1568.75 1163.19 1549.72 1297.58 1499.42C1427.75 1450.72 1519.31 1376.42 1607.97 1304.57C1644.42 1275.02 1682.16 1244.34 1722.32 1215.59C1773.06 1179.3 1833.6 1165.05 1892.15 1151.34C1949.86 1137.81 2009.6 1123.83 2060.75 1088.78C2114.61 1051.9 2131.78 1004.19 2148.31 958.052C2165.06 911.387 2180.89 867.39 2233.21 838.249C2308.01 796.579 2406.97 813.939 2502.67 830.689C2556.13 840.012 2611.38 849.702 2661.5 848.848C2733.24 847.611 2783.88 823.487 2833 800.173C2893.48 771.329 2950.63 744.066 3045.29 755.729C3192.43 773.707 3336.4 822.081 3476.33 872.956L3474.23 866.585C3335.49 816.208 3192.82 768.686 3046.73 750.764C2949.57 738.891 2888.65 767.929 2829.7 795.965C2781.5 818.981 2731.61 842.655 2661.78 843.854C2612.43 844.727 2557.6 835.135 2504.52 825.822C2429.04 812.602 2351.67 799.041 2284.63 813.765C2265.3 818.01 2246.76 824.644 2229.45 834.234C2175.19 864.466 2159.03 909.39 2141.92 956.894C2125.66 1002.31 2108.73 1049.21 2056.45 1085.08C2006.45 1119.31 1947.55 1133.1 1890.43 1146.5C1831.17 1160.37 1769.78 1174.8 1717.8 1211.93C1677.42 1240.82 1639.65 1271.42 1603.11 1301.08C1510.95 1375.89 1423.94 1446.52 1294.78 1494.82C1161.41 1544.7 1003.41 1563.65 850.709 1582.01C769.381 1591.8 685.223 1601.94 607.911 1616.55C464.257 1643.73 323.358 1681.23 187.171 1717.5C105.311 1739.27 22.2859 1761.4 -62.1828 1781.47L-60.6096 1786.25C24.1559 1766.3 107.329 1744.24 189.28 1722.35Z" fill="url(#paint40_linear_1_37)"/>
<path d="M186.378 1754.34C322.338 1716.6 462.833 1677.49 606.315 1649.39C684.765 1633.96 771.243 1624.27 854.861 1614.82C1007.67 1597.58 1165.67 1579.77 1294.71 1526.85C1427.25 1472.5 1522.16 1400.6 1622.55 1324.37C1660.12 1295.91 1698.9 1266.42 1739.81 1237.98C1791.97 1201.76 1852.91 1189.89 1911.65 1178.32C1969.11 1167.12 2028.33 1155.44 2080.53 1121.68C2137.46 1084.79 2157.74 1036.02 2177.38 988.812C2197.13 941.201 2215.83 896.195 2270.33 866.671C2346.97 825.165 2445.47 846.14 2540.9 866.364C2594.65 877.712 2650.09 889.543 2700.71 889.813C2769.78 890.204 2825.63 870.631 2866.35 831.891C2919.57 793.062 2992.22 781.377 3082.32 797.077C3216.83 820.582 3350.62 868.345 3491.68 919.542L3489.58 913.17C3350.12 862.571 3217.61 815.571 3083.94 792.263C2991.51 776.123 2916.72 788.28 2861.34 828.721C2821.79 866.35 2767.76 885.239 2700.89 884.933C2651.17 884.656 2596.05 873.039 2542.81 861.674C2466.05 845.32 2387.26 828.652 2318.31 843.796C2300.3 847.752 2283.02 853.92 2266.49 862.77C2210.14 893.27 2191.08 939.115 2170.95 987.566C2151.59 1034.05 2131.74 1082.15 2076.27 1118.06C2025.36 1151.07 1966.82 1162.5 1910.23 1173.6C1850.51 1185.29 1788.84 1197.32 1735.34 1234.5C1694.31 1262.97 1655.41 1292.48 1617.75 1321.06C1517.75 1396.92 1423.29 1468.63 1291.65 1522.59C1163.71 1574.98 1006.34 1592.75 854.152 1609.95C770.415 1619.42 683.699 1629.17 604.891 1644.67C461.08 1672.94 320.436 1711.99 184.267 1749.87C106.814 1771.43 28.2587 1793.15 -51.7148 1813.28L-50.1414 1818.05C30.0122 1797.7 108.658 1775.87 186.378 1754.34Z" fill="url(#paint41_linear_1_37)"/>
<path d="M182.482 1786.83C318.185 1747.54 458.692 1706.9 602.003 1677.89C682.336 1661.58 771.02 1651.59 856.873 1641.94C1006.74 1625.06 1161.66 1607.64 1288.76 1556.19C1424.88 1501.05 1525.31 1427.66 1631.46 1349.88C1670.94 1320.99 1711.74 1291.06 1754.29 1262.55C1807.91 1226.48 1868.9 1217.07 1927.95 1207.99C1985.06 1199.24 2043.99 1190.19 2097.44 1157.48C2157.73 1120.7 2181.29 1070.64 2204.12 1022.26C2227.1 973.561 2248.67 927.546 2305.52 897.789C2383.32 857.073 2480.15 881.164 2573.77 904.443C2628.82 918.164 2685.65 932.253 2738.13 933.157C2807.98 934.328 2864.43 914.623 2905.39 874.691C2957.57 835.426 3029.3 823.658 3118.6 839.63C3245.93 862.337 3371.67 907.79 3503.96 956.832L3501.83 950.371C3371.14 901.926 3246.83 857.3 3120.42 834.675C3028.8 818.263 2954.81 830.529 2900.47 871.406C2860.65 910.139 2806.17 929.222 2738.62 928.021C2687.02 927.111 2630.73 913.094 2576.13 899.56C2499.33 880.368 2420.33 860.71 2350.31 876.09C2333.61 879.758 2317.43 885.399 2301.95 893.544C2243.24 924.277 2221.17 971.069 2197.82 1020.61C2175.41 1068.33 2152.13 1117.66 2093.33 1153.54C2041.14 1185.4 1983.04 1194.27 1926.79 1202.93C1866.88 1212.1 1804.93 1221.72 1749.82 1258.69C1707.18 1287.32 1666.26 1317.27 1626.81 1346.25C1520.96 1423.77 1420.95 1496.89 1285.73 1551.64C1159.76 1602.65 1005.34 1620.05 856.106 1636.89C770.134 1646.57 681.211 1656.61 600.52 1673C456.642 1702.23 316.254 1742.84 180.312 1782.18C107.447 1803.31 33.5992 1824.56 -41.3699 1844.35L-39.7967 1849.13C35.4107 1829.29 109.469 1807.9 182.482 1786.83Z" fill="url(#paint42_linear_1_37)"/>
<path d="M177.872 1819.86C313.229 1779.13 453.39 1737.05 596.53 1707.13C678.507 1689.98 769.336 1679.9 857.215 1670.18C1003.83 1653.92 1155.24 1637.09 1280.06 1587.27C1419.01 1531.8 1528.85 1453.96 1635.19 1378.7C1677.33 1348.95 1720.79 1318.15 1765.67 1288.93C1821.01 1253.05 1879.3 1246.71 1941.04 1239.98C1997.75 1233.88 2056.39 1227.45 2111.47 1195.81C2175.46 1158.98 2202.45 1107.69 2228.69 1057.99C2254.89 1008.21 2279.68 961.103 2339.24 931.035C2418.32 891.082 2513.19 918.166 2604.86 944.437C2661.2 960.532 2719.53 977.234 2774.33 978.576C2845.27 980.361 2902.35 960.233 2943.74 918.878C2995.04 878.859 3066.02 866.78 3154.61 882.91C3274.92 904.881 3392.78 947.793 3516.4 994.566L3514.27 988.106C3392.17 942.044 3275.7 899.87 3156.37 878.158C3065.23 861.641 2992.09 874.191 2938.67 915.911C2898.51 955.952 2843.4 975.457 2774.78 973.732C2720.99 972.357 2663.26 955.904 2607.33 939.908C2530.67 918.028 2451.99 895.453 2380.77 911.095C2365.27 914.501 2350.22 919.703 2335.52 927.108C2274.22 958.126 2249.01 1005.89 2222.29 1056.45C2196.45 1105.4 2169.79 1156.14 2107.42 1192.05C2053.87 1222.88 1996.06 1229.13 1940.24 1235.22C1880.23 1241.76 1818.22 1248.45 1761.31 1285.43C1716.32 1314.67 1672.74 1345.5 1630.63 1375.34C1524.71 1450.32 1415.05 1527.93 1277 1583.01C1153.31 1632.39 1002.37 1649.12 856.387 1665.33C768.389 1675.08 677.321 1685.21 594.838 1702.38C451.192 1732.31 311.06 1774.48 175.463 1815.27C107.487 1835.7 38.7034 1856.41 -31.1714 1875.74L-29.598 1880.52C40.6344 1861.11 109.656 1840.35 177.872 1819.86Z" fill="url(#paint43_linear_1_37)"/>
<path d="M172.384 1853.36C307.187 1811.32 446.615 1767.79 589.642 1737.14C674.605 1718.95 768.269 1708.16 858.863 1697.75C999.134 1681.65 1144.2 1664.97 1268.1 1620.49C1409.15 1569.87 1518.9 1492.52 1625.06 1417.87C1672.95 1384.2 1722.48 1349.31 1773.65 1317.86C1831.65 1282.25 1891.02 1278.04 1954 1273.5C2009.59 1269.46 2066.97 1265.4 2122.11 1237.44C2188.54 1203.77 2220.2 1149.94 2250.77 1097.87C2281.25 1045.91 2310.1 996.772 2370.76 967.317C2451.05 928.332 2539.64 956.893 2633.66 987.202C2691.61 1005.88 2751.44 1025.2 2808.72 1026.66C2883.95 1028.64 2934.65 1001.19 2983.58 974.591C3041.55 943.166 3096.34 913.386 3189.97 927.364C3309.36 945.363 3420.25 985.347 3527.35 1027.78L3525.16 1021.14C3419.43 979.359 3309.7 940.165 3191.44 922.487C3094.98 908.086 3036.36 939.845 2979.71 970.602C2931.73 996.608 2882.14 1023.54 2809.11 1021.64C2753.11 1020.18 2693.73 1001.05 2636.34 982.532C2560.05 957.912 2481.66 932.712 2409.37 948.589C2395.05 951.734 2381.02 956.523 2367.22 963.161C2304.8 993.477 2274.23 1045.55 2244.65 1095.98C2214.47 1147.31 2183.24 1200.48 2118.56 1233.28C2064.86 1260.54 2008.37 1264.6 1953.62 1268.46C1892.4 1272.9 1829.15 1277.39 1769.57 1314.01C1718.28 1345.49 1668.63 1380.4 1620.65 1414.19C1514.82 1488.68 1405.46 1565.65 1265.45 1615.95C1142.48 1660.13 997.889 1676.7 858.125 1692.79C767.292 1703.25 673.48 1713.98 588.159 1732.25C444.774 1762.98 305.197 1806.45 170.186 1848.62C107.425 1868.2 43.8586 1888.04 -20.7121 1906.78L-19.1387 1911.56C45.6095 1892.97 109.415 1873.07 172.384 1853.36Z" fill="url(#paint44_linear_1_37)"/>
<path d="M166.242 1887.57C299.534 1844.44 437.243 1799.96 578.845 1768.86C579.68 1768.68 580.635 1768.47 581.47 1768.28C667.748 1749.43 763.197 1739 855.575 1728.96C991.908 1714.11 1132.77 1698.64 1253.23 1656.14C1395.53 1605.81 1508.65 1528.59 1618.08 1453.78C1669.88 1418.4 1723.35 1381.88 1778.32 1349.51C1838.31 1314.12 1897.42 1313 1959.93 1311.71C2015.35 1310.64 2072.53 1309.47 2129.72 1282.29C2200.05 1248.81 2235.68 1193.45 2270.1 1139.86C2304.37 1086.59 2336.69 1036.32 2400.24 1006.7C2481.98 968.633 2569.26 999.852 2661.6 1032.81C2720.76 1053.98 2781.94 1075.84 2841.33 1077.51C2917.51 1079.66 2968.28 1050.86 3017.43 1022.98C3075.44 990.125 3130.21 959.116 3224.38 973.165C3336.54 989.81 3440.22 1026.92 3540.22 1066.83L3538.03 1060.19C3439.4 1020.93 3336.91 984.701 3226.05 968.148C3128.94 953.701 3070.28 986.893 3013.68 1018.97C2965.48 1046.25 2915.67 1074.47 2841.96 1072.43C2783.88 1070.86 2723.38 1049.13 2664.82 1028.21C2588.55 1000.93 2510.27 972.954 2436.3 989.198C2423.06 992.107 2410.02 996.395 2397.05 1002.47C2331.71 1032.86 2297.35 1086.24 2264.31 1137.81C2230.31 1190.73 2195.22 1245.41 2126.53 1278.06C2070.9 1304.51 2014.58 1305.59 1960.2 1306.71C1899.33 1307.93 1836.41 1309.13 1774.59 1345.58C1719.42 1378.1 1665.83 1414.64 1613.94 1450.14C1504.92 1524.66 1392.11 1601.63 1250.82 1651.55C1131.32 1693.83 990.902 1709.11 855.075 1723.95C762.459 1734.04 666.772 1744.52 580.016 1763.48C579.181 1763.66 578.227 1763.87 577.391 1764.06C435.431 1795.23 297.393 1839.88 163.982 1883.04C106.647 1901.61 48.478 1920.36 -10.37 1938.22L-8.79665 1943C50.2607 1925 108.549 1906.22 166.242 1887.57Z" fill="url(#paint45_linear_1_37)"/>
<path d="M181.857 1919.09C308.128 1875.22 438.639 1829.85 571.774 1800.23C572.609 1800.05 573.325 1799.89 574.16 1799.71C660.887 1780.66 756.956 1770.95 849.926 1761.54C981.872 1748.12 1118.29 1734.3 1235.18 1693.82C1378.11 1644.21 1494.02 1567.31 1606.02 1492.9C1662.18 1455.6 1720.1 1417.07 1779.57 1383.61C1841.94 1348.46 1900.34 1350.63 1962.23 1352.88C2017.39 1354.91 2074.37 1357.01 2134.05 1330.42C2208.71 1297.23 2248.48 1240.1 2286.88 1184.98C2324.94 1130.4 2360.9 1078.76 2427.63 1049.11C2510.98 1012.01 2596.64 1045.68 2687.41 1081.26C2747.8 1105 2810.36 1129.5 2872.16 1131.11C2949.24 1132.88 3000.53 1102.54 3049.96 1073.18C3108.18 1038.66 3163.18 1005.99 3258.33 1019.92C3363.27 1035.21 3460.12 1069.45 3553.35 1106.67L3551.16 1100.04C3459.18 1063.49 3363.64 1030.1 3259.92 1015.02C3161.7 1000.72 3102.94 1035.54 3046 1069.31C2997.52 1098.08 2947.31 1127.8 2872.62 1125.89C2812.24 1124.35 2750.39 1100.07 2690.63 1076.66C2614.67 1046.84 2536.41 1016.2 2460.89 1032.79C2448.73 1035.46 2436.46 1039.39 2424.42 1044.78C2355.92 1075.3 2317.89 1129.96 2281.03 1182.75C2243.09 1237.3 2203.82 1293.66 2130.84 1326.1C2072.95 1351.91 2017.01 1349.87 1962.86 1347.81C1902.52 1345.59 1840.13 1343.36 1775.82 1379.59C1716.14 1413.2 1657.98 1451.78 1601.84 1489.16C1490.15 1563.32 1374.81 1640 1232.78 1689.22C1116.92 1729.38 981.014 1743.19 849.545 1756.5C755.473 1766.06 658.54 1775.86 570.439 1795.4C436.798 1825.04 306.078 1870.55 179.568 1914.46C121.029 1934.82 61.7743 1955.33 1.72485 1974.59L3.29803 1979.37C63.5252 1960.26 123.108 1939.58 181.857 1919.09Z" fill="url(#paint46_linear_1_37)"/>
<path d="M174.48 1954.22C299.42 1909.42 428.569 1863.02 560.664 1833.35C648.32 1813.62 746.677 1804.64 841.548 1795.95C968.986 1784.38 1100.62 1772.36 1213.61 1733.97C1356.74 1685.36 1474.52 1609.1 1588.39 1535.32C1652.08 1494.09 1712.27 1455.06 1776.75 1420.5C1841.77 1385.62 1899.37 1391.19 1960.31 1397.17C2015.15 1402.49 2071.86 1408.06 2134.53 1381.97C2214.54 1348.73 2258.13 1291.14 2300.19 1235.5C2339.85 1183.04 2380.98 1128.84 2452.54 1094.43C2537.34 1053.59 2635.07 1094.76 2729.53 1134.56C2790.26 1160.13 2847.59 1184.27 2900.6 1187.14C2979.65 1191.42 3031.46 1158.4 3081.72 1126.48C3137.48 1091.08 3195.01 1054.44 3291.26 1067.84C3389.6 1081.73 3479.96 1112.95 3566.8 1147.49L3564.62 1140.85C3479.02 1106.98 3389.85 1076.65 3292.76 1063.05C3193.38 1049.1 3134.48 1086.62 3077.58 1122.84C3026.15 1155.49 2977.72 1186.34 2901.41 1182.22C2849.82 1179.41 2793.1 1155.52 2732.95 1130.2C2650.54 1095.54 2565.73 1059.79 2487.71 1076.93C2474.59 1079.81 2461.7 1084.16 2449.12 1090.24C2376.12 1125.35 2334.57 1180.22 2294.43 1233.16C2250.84 1290.75 2209.74 1345.04 2131.43 1377.62C2070.77 1402.8 2015.16 1397.46 1961.36 1392.19C1901.76 1386.4 1840.17 1380.38 1773 1416.48C1708.31 1451.19 1648 1490.24 1584.09 1531.61C1470.53 1605.14 1353.17 1681.12 1211.08 1729.4C1099.11 1767.38 967.979 1779.38 841.048 1790.93C747.638 1799.4 651.158 1808.25 563.833 1827.43C562.283 1827.77 560.613 1828.14 559.062 1828.48C426.49 1858.26 297.102 1904.71 171.953 1949.65C119.201 1968.55 65.8817 1987.66 11.8547 2005.79L13.4572 2010.66C67.7225 1992.48 121.4 1973.28 174.48 1954.22Z" fill="url(#paint47_linear_1_37)"/>
<path d="M141.124 1994.03C272.123 1947.42 407.6 1899.25 547.96 1867.48C636.484 1847.27 734.951 1839.79 830.231 1832.34C952.832 1822.78 1079.66 1812.86 1188.55 1776.8C1331.35 1729.49 1450.46 1654.17 1565.54 1581.35C1634.68 1537.61 1699.89 1496.33 1770 1460.62C1837.94 1426.06 1894.54 1435.17 1954.32 1445.01C2008.77 1453.83 2065.02 1463.02 2131.07 1437.5C2216.17 1404.58 2264.27 1345.14 2310.82 1287.56C2354.26 1233.8 2399.27 1178.17 2474.53 1143.71C2560.66 1104.2 2655.82 1147.26 2747.91 1188.81C2810.74 1217.24 2870.13 1244.15 2927.11 1246.63C3009.29 1250.32 3061.75 1214.98 3112.44 1180.88C3168.03 1143.42 3225.52 1104.7 3323.36 1117.47C3415.43 1129.42 3499.82 1157.67 3580.64 1189.46L3578.49 1182.91C3498.91 1151.8 3415.68 1124.34 3324.8 1112.51C3223.74 1099.3 3164.88 1138.9 3108.15 1177.17C3056.2 1212.11 3007.22 1245.17 2927.89 1241.62C2872.58 1239.16 2813.81 1212.58 2751.61 1184.49C2670.31 1147.78 2586.74 1109.96 2507.52 1127.35C2495.36 1130.03 2483.36 1133.99 2471.35 1139.47C2394.65 1174.63 2349.19 1230.83 2305.3 1285.17C2257.1 1344.72 2211.64 1400.92 2128.36 1433.16C2064.49 1457.92 2009.32 1448.87 1956.05 1440.17C1897.52 1430.63 1836.85 1420.8 1766.52 1456.64C1696.2 1492.49 1630.77 1533.91 1561.52 1577.68C1446.77 1650.33 1328.07 1725.37 1186.2 1772.38C1078.24 1808.14 952.004 1817.93 829.909 1827.47C736.238 1834.76 639.468 1842.35 552.023 1861.55C550.114 1861.97 548.325 1862.37 546.416 1862.79C405.578 1894.67 269.892 1942.97 138.655 1989.64C99.4867 2003.55 60.109 2017.61 20.228 2031.3L21.8012 2036.08C61.8919 2022.25 101.747 2008.09 141.124 1994.03Z" fill="url(#paint48_linear_1_37)"/>
<path d="M158.121 2026.27C279.263 1980.02 404.465 1932.12 533.494 1902.83C621.571 1882.82 720.476 1876.67 815.894 1870.8C933.507 1863.57 1055.11 1856.03 1159.78 1822.32C1301.94 1776.58 1421.68 1702.35 1537.62 1630.58C1612.43 1584.26 1682.96 1540.49 1759.07 1503.94C1829.62 1469.94 1884.22 1483.09 1942.01 1496.97C1996.32 1510 2052.44 1523.49 2123.89 1496.89C2216.15 1462.39 2268.29 1401.21 2318.65 1342.03C2365.44 1287.15 2413.77 1230.33 2493.75 1196.63C2580.46 1160.03 2672.75 1204.1 2762.1 1246.63C2824.77 1276.52 2889.55 1307.37 2951.21 1309.3C3036.8 1312.05 3089.93 1274.09 3141.32 1237.46C3199.54 1195.92 3254.55 1156.7 3354.34 1168.38C3440.8 1178.43 3519.58 1203.64 3594.92 1232.74L3592.76 1226.19C3518.55 1197.79 3440.9 1173.28 3355.86 1163.3C3252.72 1151.12 3193.9 1193.18 3137.03 1233.76C3084.41 1271.32 3034.69 1306.81 2951.93 1304.11C2891.94 1302.2 2827.9 1271.66 2766 1242.17C2685.59 1203.84 2602.73 1164.34 2522.33 1182C2511.83 1184.3 2501.26 1187.57 2490.84 1192.05C2409.3 1226.47 2360.38 1283.81 2313.25 1339.23C2263.34 1397.84 2211.77 1458.41 2121.33 1492.23C2052.3 1518.02 1997.55 1504.8 1944.49 1492.06C1887.8 1478.42 1829.18 1464.34 1755.97 1499.59C1679.56 1536.39 1608.79 1580.22 1533.89 1626.65C1418.41 1698.23 1298.97 1772.2 1157.85 1817.62C1054.08 1850.94 933.097 1858.44 816.111 1865.63C720.334 1871.57 621.071 1877.81 532.249 1897.89C402.624 1927.31 277.064 1975.28 155.713 2021.68C115.043 2037.25 74.016 2052.9 32.5462 2067.99L34.1775 2072.95C75.7376 2057.75 117.094 2041.93 158.121 2026.27Z" fill="url(#paint49_linear_1_37)"/>
<path d="M147.444 2063.45C266.806 2016.45 390.109 1967.83 517.347 1939.31C518.301 1939.1 519.136 1938.92 520.091 1938.71C602.885 1920.53 700.019 1916.37 793.996 1912.34C910.432 1907.36 1030.89 1902.16 1127.3 1870.55C1263.08 1826.02 1382.74 1754.28 1498.57 1684.9C1581.51 1635.28 1659.71 1588.4 1743.78 1550.38C1818.05 1516.8 1871.2 1533.69 1927.38 1551.63C1980.83 1568.64 2036.15 1586.29 2112.33 1560.07C2210.78 1526.11 2267.58 1462.77 2322.61 1401.43C2373.25 1345.04 2425.55 1286.68 2509.97 1252.85C2598.37 1217.5 2687.91 1262.93 2774.57 1307.01C2839.24 1339.88 2906.06 1373.79 2972.93 1374.86C3062.28 1376.21 3116.3 1335.49 3168.42 1296.05C3227.02 1251.77 3282.35 1210.01 3384.53 1220.4C3465.85 1228.83 3539.51 1251.28 3609.74 1277.7L3607.61 1271.24C3538.48 1245.43 3465.83 1223.71 3385.76 1215.58C3280.13 1204.8 3221.02 1249.48 3163.86 1292.69C3110.39 1333.09 3059.79 1371.35 2973.38 1370.01C2908.32 1369.02 2842.25 1335.42 2778.35 1302.95C2699.52 1262.85 2618.26 1221.57 2536.18 1239.6C2526.52 1241.72 2516.76 1244.72 2507.03 1248.57C2421.02 1283.02 2368.12 1341.9 2317.03 1398.86C2262.54 1459.51 2206.31 1522.25 2109.71 1555.62C2036.3 1580.94 1982.41 1563.74 1930.24 1547.11C1875.07 1529.52 1817.8 1511.35 1740.63 1546.24C1656.23 1584.42 1574.16 1633.57 1494.64 1681.12C1379.23 1750.21 1259.87 1821.69 1124.92 1866.04C1029.56 1897.33 909.843 1902.46 794.032 1907.4C699.668 1911.42 602.147 1915.56 518.517 1933.93C517.563 1934.14 516.609 1934.35 515.773 1934.53C387.94 1963.18 264.158 2011.91 144.588 2059.05C110.723 2072.37 76.74 2085.71 42.2819 2098.79L43.9133 2103.74C78.7 2090.5 113.251 2076.94 147.444 2063.45Z" fill="url(#paint50_linear_1_37)"/>
<path d="M137.326 2101.16C254.04 2053.89 374.697 2005 499.489 1977.21C499.966 1977.11 500.443 1977 500.921 1976.9C583.119 1958.84 680 1957.02 773.694 1955.23C884.542 1953.1 999.113 1950.99 1090.86 1921.92C1224.42 1879.59 1343.78 1809.25 1459.18 1741.29C1544.59 1691.02 1632.99 1638.96 1724 1600.66C1802.32 1567.71 1853.69 1588.5 1908.11 1610.43C1960.63 1631.63 2015.06 1653.56 2096.39 1627.82C2198.55 1595.42 2259.15 1529.63 2317.65 1466.01C2375.79 1402.85 2430.71 1343.15 2522.7 1313.64C2625.7 1280.68 2699.95 1324.73 2778.61 1371.32C2842.39 1409.22 2908.48 1448.33 2992.18 1444.18C3076.9 1440 3131.19 1398.56 3183.62 1358.48C3243.54 1312.77 3305.37 1265.5 3413.43 1274.32C3490.07 1280.55 3559.25 1300.28 3625.06 1324.17L3622.96 1317.79C3558.13 1294.55 3489.95 1275.55 3414.63 1269.41C3303.27 1260.27 3240.21 1308.47 3179.18 1355.09C3125.31 1396.25 3074.41 1435.14 2992.22 1439.24C2910.9 1443.24 2845.88 1404.66 2783.05 1367.31C2712.01 1325.21 2638.89 1281.86 2543.8 1302.74C2536.17 1304.42 2528.41 1306.5 2520.53 1308.99C2426.54 1339.03 2368.53 1402.17 2312.37 1463.18C2254.44 1526.2 2194.41 1591.39 2094.22 1623.17C2015.78 1647.99 1962.84 1626.69 1911.63 1605.95C1858.06 1584.31 1802.75 1562.01 1721.15 1596.26C1629.69 1634.75 1541.05 1686.87 1455.46 1737.36C1340.38 1805.15 1221.45 1875.21 1088.81 1917.25C998.464 1945.92 884.31 1948.12 774.087 1950.21C679.381 1952.03 581.575 1954.15 498.155 1972.38C372.647 2000.32 251.631 2049.3 134.708 2096.71C107.62 2107.69 80.2926 2118.72 52.6691 2129.63L54.3006 2134.58C82.0144 2123.56 109.789 2112.34 137.326 2101.16Z" fill="url(#paint51_linear_1_37)"/>
<path d="M2791.25 1436.52C2721.33 1392.38 2649.13 1346.75 2550.12 1368.49C2543.56 1369.93 2536.96 1371.67 2530.22 1373.72C2431.3 1403.51 2369.11 1468.32 2308.92 1531.07C2246.16 1596.47 2181.29 1664.05 2073.97 1695.12C1989.88 1719.47 1938.29 1693.7 1888.39 1668.79C1836.68 1643.04 1783.28 1616.44 1696.9 1650.12C1598.03 1688.63 1503.63 1743.43 1412.35 1796.4C1350.93 1832.1 1288.41 1868.32 1223.38 1900.44L1244.26 1895.86C1303.31 1865.81 1360.24 1832.8 1416.31 1800.28C1507.39 1747.44 1601.57 1692.78 1699.72 1654.43C1782.49 1622.21 1832.04 1646.82 1884.52 1672.96C1935.9 1698.49 1989.01 1724.98 2076.13 1699.77C2185.46 1668.16 2250.98 1599.87 2314.29 1533.78C2376.69 1468.83 2435.53 1407.42 2532.48 1378.25C2638.02 1346.43 2710.34 1392.04 2786.87 1440.33C2842.15 1475.35 2899.23 1511.21 2970.77 1516.75L2989.86 1512.56C2911.52 1512.4 2850.49 1473.9 2791.25 1436.52Z" fill="url(#paint52_linear_1_37)"/>
<path d="M118.674 2140.85C232.92 2093.46 350.989 2044.47 475.304 2017.17C476.735 2016.85 478.048 2016.57 479.479 2016.25C561.2 1998.68 656.812 1999.61 749.327 2000.45C754.984 2000.54 760.613 2000.54 766.27 2000.62L788.221 1995.8C775.388 1995.68 762.554 1995.55 749.75 1995.52C656.699 1994.6 560.581 1993.69 477.906 2011.47C476.474 2011.79 475.162 2012.07 473.731 2012.39C348.7 2039.85 230.302 2089.01 115.698 2136.48C103.661 2141.49 91.5044 2146.54 79.438 2151.46L108.191 2145.15C111.714 2143.81 115.208 2142.38 118.674 2140.85Z" fill="url(#paint53_linear_1_37)"/>
<path d="M3202.58 1418.98C3170.57 1444.52 3137.81 1470.5 3098.26 1488.68L3119.61 1483.99C3151.98 1466.53 3179.95 1444.26 3207.38 1422.29C3271.32 1371.34 3331.69 1323.16 3441.62 1329.57C3511.41 1333.69 3575.09 1349.98 3635.62 1370.65L3640.27 1369.63L3639.16 1366.27C3577.92 1345.37 3513.5 1328.78 3442.43 1324.65C3329.23 1318.01 3264.78 1369.36 3202.58 1418.98Z" fill="url(#paint54_linear_1_37)"/>
<path d="M3265.61 1451.87L3278.74 1448.99C3332.23 1409.82 3389.01 1380.26 3467.99 1386.64C3487.96 1388.23 3507.44 1391.07 3526.62 1394.54L3539.62 1391.69C3516.49 1387.09 3492.96 1383.62 3468.92 1381.69C3382.83 1374.69 3322.77 1408.67 3265.61 1451.87Z" fill="url(#paint55_linear_1_37)"/>
<path d="M2794.78 1509.61C2727.33 1463.23 2657.73 1415.34 2555.75 1437.73C2549.43 1439.12 2543.08 1440.8 2536.55 1442.71C2431.89 1473.67 2366.09 1540.3 2302.4 1604.77C2276.78 1630.69 2250.9 1656.97 2222.15 1681.12L2233.72 1678.58C2259.9 1655.94 2284.01 1631.67 2307.67 1607.59C2370.68 1543.75 2435.91 1477.72 2538.72 1447.36C2647.46 1415.22 2716.86 1462.88 2790.25 1513.35C2806.16 1524.38 2822.18 1535.37 2838.87 1545.65L2846.86 1543.9C2828.99 1533.12 2811.81 1521.33 2794.78 1509.61Z" fill="url(#paint56_linear_1_37)"/>
<path d="M449.471 2058.79C452.216 2058.18 455.079 2057.55 457.823 2056.95C490.959 2049.96 526.212 2046.68 562.494 2045.35L587.907 2039.77C542.132 2040.24 497.647 2043.46 456.249 2052.17C453.386 2052.8 450.642 2053.4 447.779 2054.03C383.232 2068.21 320.665 2088.78 259.597 2111.97L295.867 2104C345.997 2086.07 397.095 2070.29 449.471 2058.79Z" fill="url(#paint57_linear_1_37)"/>
<path d="M1861.28 1734.95C1800.41 1705.43 1743.03 1677.61 1667.39 1707.79C1576.29 1744.22 1488.34 1793.71 1395.24 1846.23C1379.37 1855.12 1363.53 1864.11 1347.53 1873.03L1365.31 1869.13C1376.52 1862.77 1387.88 1856.48 1399.09 1850.13C1491.97 1797.75 1579.69 1748.31 1670.37 1712.17C1742.48 1683.33 1798.46 1710.41 1857.65 1739.07C1868.12 1744.07 1878.51 1749.19 1889.19 1754.06L1898.14 1752.09C1885.64 1746.77 1873.45 1740.82 1861.28 1734.95Z" fill="url(#paint58_linear_1_37)"/>
<path d="M1635.9 1774.17C1686.95 1755.17 1728.52 1763.31 1768.02 1780.73L1776.85 1778.79C1734.24 1758.93 1689.44 1748.74 1633.02 1769.68C1575.45 1791.05 1519.34 1817.99 1462.76 1847.78L1482.44 1843.46C1533.52 1817.15 1584.16 1793.41 1635.9 1774.17Z" fill="url(#paint59_linear_1_37)"/>
<path d="M2554.26 1512.48C2549.25 1513.58 2544.18 1514.89 2538.9 1516.33C2439.98 1543.75 2372.9 1601.84 2310.84 1661.58L2321.45 1659.25C2381.38 1601.97 2446.71 1547.11 2540.83 1521.03C2632.5 1495.68 2694.75 1524.32 2754.07 1564.24L2761.7 1562.56C2704.73 1523.93 2642.16 1493.18 2554.26 1512.48Z" fill="url(#paint60_linear_1_37)"/>
<path d="M2539.34 1599.19C2572.13 1590.76 2600.88 1589.09 2627.18 1592.05L2641.14 1588.98C2613.45 1584.15 2583.05 1584.28 2548.45 1591.88C2544.87 1592.66 2541.2 1593.56 2537.53 1594.46C2501.34 1603.83 2469.03 1617.2 2439.52 1633.26L2459.44 1628.89C2484.01 1616.85 2510.35 1606.7 2539.34 1599.19Z" fill="url(#paint61_linear_1_37)"/>
<g filter="url(#filter0_f_1_37)">
<ellipse cx="733" cy="421.425" rx="326" ry="307.348" fill="#6E70FF" fill-opacity="0.8"/>
</g>
</g>
<defs>
<filter id="filter0_f_1_37" x="137" y="-155.923" width="888" height="868" filterUnits="userSpaceOnUse" color-interpolation-filters="sRGB">
<feFlood flood-opacity="0" result="BackgroundImageFix"/>
<feBlend mode="normal" in="SourceGraphic" in2="BackgroundImageFix" result="shape"/>
<feGaussianBlur stdDeviation="135" result="effect1_foregroundBlur_1_37"/>
</filter>
<linearGradient id="paint0_linear_1_37" x1="1136.74" y1="812.277" x2="819.636" y2="159.123" gradientUnits="userSpaceOnUse">
<stop stop-color="white"/>
<stop offset="1" stop-color="white" stop-opacity="0"/>
</linearGradient>
<linearGradient id="paint1_linear_1_37" x1="1136.74" y1="812.277" x2="819.636" y2="159.123" gradientUnits="userSpaceOnUse">
<stop stop-color="white"/>
<stop offset="1" stop-color="white" stop-opacity="0"/>
</linearGradient>
<linearGradient id="paint2_linear_1_37" x1="1136.74" y1="812.277" x2="819.636" y2="159.123" gradientUnits="userSpaceOnUse">
<stop stop-color="white"/>
<stop offset="1" stop-color="white" stop-opacity="0"/>
</linearGradient>
<linearGradient id="paint3_linear_1_37" x1="1136.74" y1="812.277" x2="819.636" y2="159.123" gradientUnits="userSpaceOnUse">
<stop stop-color="white"/>
<stop offset="1" stop-color="white" stop-opacity="0"/>
</linearGradient>
<linearGradient id="paint4_linear_1_37" x1="1136.74" y1="812.277" x2="819.636" y2="159.123" gradientUnits="userSpaceOnUse">
<stop stop-color="white"/>
<stop offset="1" stop-color="white" stop-opacity="0"/>
</linearGradient>
<linearGradient id="paint5_linear_1_37" x1="1136.74" y1="812.277" x2="819.636" y2="159.123" gradientUnits="userSpaceOnUse">
<stop stop-color="white"/>
<stop offset="1" stop-color="white" stop-opacity="0"/>
</linearGradient>
<linearGradient id="paint6_linear_1_37" x1="1136.74" y1="812.277" x2="819.636" y2="159.123" gradientUnits="userSpaceOnUse">
<stop stop-color="white"/>
<stop offset="1" stop-color="white" stop-opacity="0"/>
</linearGradient>
<linearGradient id="paint7_linear_1_37" x1="1136.74" y1="812.277" x2="819.636" y2="159.123" gradientUnits="userSpaceOnUse">
<stop stop-color="white"/>
<stop offset="1" stop-color="white" stop-opacity="0"/>
</linearGradient>
<linearGradient id="paint8_linear_1_37" x1="1136.74" y1="812.277" x2="819.636" y2="159.123" gradientUnits="userSpaceOnUse">
<stop stop-color="white"/>
<stop offset="1" stop-color="white" stop-opacity="0"/>
</linearGradient>
<linearGradient id="paint9_linear_1_37" x1="1136.74" y1="812.277" x2="819.636" y2="159.123" gradientUnits="userSpaceOnUse">
<stop stop-color="white"/>
<stop offset="1" stop-color="white" stop-opacity="0"/>
</linearGradient>
<linearGradient id="paint10_linear_1_37" x1="1136.74" y1="812.277" x2="819.636" y2="159.123" gradientUnits="userSpaceOnUse">
<stop stop-color="white"/>
<stop offset="1" stop-color="white" stop-opacity="0"/>
</linearGradient>
<linearGradient id="paint11_linear_1_37" x1="1136.74" y1="812.277" x2="819.636" y2="159.123" gradientUnits="userSpaceOnUse">
<stop stop-color="white"/>
<stop offset="1" stop-color="white" stop-opacity="0"/>
</linearGradient>
<linearGradient id="paint12_linear_1_37" x1="1136.74" y1="812.277" x2="819.636" y2="159.123" gradientUnits="userSpaceOnUse">
<stop stop-color="white"/>
<stop offset="1" stop-color="white" stop-opacity="0"/>
</linearGradient>
<linearGradient id="paint13_linear_1_37" x1="1136.74" y1="812.277" x2="819.636" y2="159.123" gradientUnits="userSpaceOnUse">
<stop stop-color="white"/>
<stop offset="1" stop-color="white" stop-opacity="0"/>
</linearGradient>
<linearGradient id="paint14_linear_1_37" x1="1136.74" y1="812.277" x2="819.636" y2="159.123" gradientUnits="userSpaceOnUse">
<stop stop-color="white"/>
<stop offset="1" stop-color="white" stop-opacity="0"/>
</linearGradient>
<linearGradient id="paint15_linear_1_37" x1="1136.74" y1="812.277" x2="819.636" y2="159.123" gradientUnits="userSpaceOnUse">
<stop stop-color="white"/>
<stop offset="1" stop-color="white" stop-opacity="0"/>
</linearGradient>
<linearGradient id="paint16_linear_1_37" x1="1136.74" y1="812.277" x2="819.636" y2="159.123" gradientUnits="userSpaceOnUse">
<stop stop-color="white"/>
<stop offset="1" stop-color="white" stop-opacity="0"/>
</linearGradient>
<linearGradient id="paint17_linear_1_37" x1="1136.74" y1="812.277" x2="819.636" y2="159.123" gradientUnits="userSpaceOnUse">
<stop stop-color="white"/>
<stop offset="1" stop-color="white" stop-opacity="0"/>
</linearGradient>
<linearGradient id="paint18_linear_1_37" x1="1136.74" y1="812.277" x2="819.636" y2="159.123" gradientUnits="userSpaceOnUse">
<stop stop-color="white"/>
<stop offset="1" stop-color="white" stop-opacity="0"/>
</linearGradient>
<linearGradient id="paint19_linear_1_37" x1="1136.74" y1="812.277" x2="819.636" y2="159.123" gradientUnits="userSpaceOnUse">
<stop stop-color="white"/>
<stop offset="1" stop-color="white" stop-opacity="0"/>
</linearGradient>
<linearGradient id="paint20_linear_1_37" x1="1136.74" y1="812.277" x2="819.636" y2="159.123" gradientUnits="userSpaceOnUse">
<stop stop-color="white"/>
<stop offset="1" stop-color="white" stop-opacity="0"/>
</linearGradient>
<linearGradient id="paint21_linear_1_37" x1="1136.74" y1="812.277" x2="819.636" y2="159.123" gradientUnits="userSpaceOnUse">
<stop stop-color="white"/>
<stop offset="1" stop-color="white" stop-opacity="0"/>
</linearGradient>
<linearGradient id="paint22_linear_1_37" x1="1136.74" y1="812.277" x2="819.636" y2="159.123" gradientUnits="userSpaceOnUse">
<stop stop-color="white"/>
<stop offset="1" stop-color="white" stop-opacity="0"/>
</linearGradient>
<linearGradient id="paint23_linear_1_37" x1="1136.74" y1="812.277" x2="819.636" y2="159.123" gradientUnits="userSpaceOnUse">
<stop stop-color="white"/>
<stop offset="1" stop-color="white" stop-opacity="0"/>
</linearGradient>
<linearGradient id="paint24_linear_1_37" x1="1136.74" y1="812.277" x2="819.636" y2="159.123" gradientUnits="userSpaceOnUse">
<stop stop-color="white"/>
<stop offset="1" stop-color="white" stop-opacity="0"/>
</linearGradient>
<linearGradient id="paint25_linear_1_37" x1="1136.74" y1="812.277" x2="819.636" y2="159.123" gradientUnits="userSpaceOnUse">
<stop stop-color="white"/>
<stop offset="1" stop-color="white" stop-opacity="0"/>
</linearGradient>
<linearGradient id="paint26_linear_1_37" x1="1136.74" y1="812.277" x2="819.636" y2="159.123" gradientUnits="userSpaceOnUse">
<stop stop-color="white"/>
<stop offset="1" stop-color="white" stop-opacity="0"/>
</linearGradient>
<linearGradient id="paint27_linear_1_37" x1="1136.74" y1="812.277" x2="819.636" y2="159.123" gradientUnits="userSpaceOnUse">
<stop stop-color="white"/>
<stop offset="1" stop-color="white" stop-opacity="0"/>
</linearGradient>
<linearGradient id="paint28_linear_1_37" x1="1136.74" y1="812.277" x2="819.636" y2="159.123" gradientUnits="userSpaceOnUse">
<stop stop-color="white"/>
<stop offset="1" stop-color="white" stop-opacity="0"/>
</linearGradient>
<linearGradient id="paint29_linear_1_37" x1="1136.74" y1="812.277" x2="819.636" y2="159.123" gradientUnits="userSpaceOnUse">
<stop stop-color="white"/>
<stop offset="1" stop-color="white" stop-opacity="0"/>
</linearGradient>
<linearGradient id="paint30_linear_1_37" x1="1136.74" y1="812.277" x2="819.636" y2="159.123" gradientUnits="userSpaceOnUse">
<stop stop-color="white"/>
<stop offset="1" stop-color="white" stop-opacity="0"/>
</linearGradient>
<linearGradient id="paint31_linear_1_37" x1="1136.74" y1="812.277" x2="819.636" y2="159.123" gradientUnits="userSpaceOnUse">
<stop stop-color="white"/>
<stop offset="1" stop-color="white" stop-opacity="0"/>
</linearGradient>
<linearGradient id="paint32_linear_1_37" x1="1136.74" y1="812.277" x2="819.636" y2="159.123" gradientUnits="userSpaceOnUse">
<stop stop-color="white"/>
<stop offset="1" stop-color="white" stop-opacity="0"/>
</linearGradient>
<linearGradient id="paint33_linear_1_37" x1="1136.74" y1="812.277" x2="819.636" y2="159.123" gradientUnits="userSpaceOnUse">
<stop stop-color="white"/>
<stop offset="1" stop-color="white" stop-opacity="0"/>
</linearGradient>
<linearGradient id="paint34_linear_1_37" x1="1136.74" y1="812.277" x2="819.636" y2="159.123" gradientUnits="userSpaceOnUse">
<stop stop-color="white"/>
<stop offset="1" stop-color="white" stop-opacity="0"/>
</linearGradient>
<linearGradient id="paint35_linear_1_37" x1="1136.74" y1="812.277" x2="819.636" y2="159.123" gradientUnits="userSpaceOnUse">
<stop stop-color="white"/>
<stop offset="1" stop-color="white" stop-opacity="0"/>
</linearGradient>
<linearGradient id="paint36_linear_1_37" x1="1136.74" y1="812.277" x2="819.636" y2="159.123" gradientUnits="userSpaceOnUse">
<stop stop-color="white"/>
<stop offset="1" stop-color="white" stop-opacity="0"/>
</linearGradient>
<linearGradient id="paint37_linear_1_37" x1="1136.74" y1="812.277" x2="819.636" y2="159.123" gradientUnits="userSpaceOnUse">
<stop stop-color="white"/>
<stop offset="1" stop-color="white" stop-opacity="0"/>
</linearGradient>
<linearGradient id="paint38_linear_1_37" x1="1136.74" y1="812.277" x2="819.636" y2="159.123" gradientUnits="userSpaceOnUse">
<stop stop-color="white"/>
<stop offset="1" stop-color="white" stop-opacity="0"/>
</linearGradient>
<linearGradient id="paint39_linear_1_37" x1="1136.74" y1="812.277" x2="819.636" y2="159.123" gradientUnits="userSpaceOnUse">
<stop stop-color="white"/>
<stop offset="1" stop-color="white" stop-opacity="0"/>
</linearGradient>
<linearGradient id="paint40_linear_1_37" x1="1136.74" y1="812.277" x2="819.636" y2="159.123" gradientUnits="userSpaceOnUse">
<stop stop-color="white"/>
<stop offset="1" stop-color="white" stop-opacity="0"/>
</linearGradient>
<linearGradient id="paint41_linear_1_37" x1="1136.74" y1="812.277" x2="819.636" y2="159.123" gradientUnits="userSpaceOnUse">
<stop stop-color="white"/>
<stop offset="1" stop-color="white" stop-opacity="0"/>
</linearGradient>
<linearGradient id="paint42_linear_1_37" x1="1136.74" y1="812.277" x2="819.636" y2="159.123" gradientUnits="userSpaceOnUse">
<stop stop-color="white"/>
<stop offset="1" stop-color="white" stop-opacity="0"/>
</linearGradient>
<linearGradient id="paint43_linear_1_37" x1="1136.74" y1="812.277" x2="819.636" y2="159.123" gradientUnits="userSpaceOnUse">
<stop stop-color="white"/>
<stop offset="1" stop-color="white" stop-opacity="0"/>
</linearGradient>
<linearGradient id="paint44_linear_1_37" x1="1136.74" y1="812.277" x2="819.636" y2="159.123" gradientUnits="userSpaceOnUse">
<stop stop-color="white"/>
<stop offset="1" stop-color="white" stop-opacity="0"/>
</linearGradient>
<linearGradient id="paint45_linear_1_37" x1="1136.74" y1="812.277" x2="819.636" y2="159.123" gradientUnits="userSpaceOnUse">
<stop stop-color="white"/>
<stop offset="1" stop-color="white" stop-opacity="0"/>
</linearGradient>
<linearGradient id="paint46_linear_1_37" x1="1136.74" y1="812.277" x2="819.636" y2="159.123" gradientUnits="userSpaceOnUse">
<stop stop-color="white"/>
<stop offset="1" stop-color="white" stop-opacity="0"/>
</linearGradient>
<linearGradient id="paint47_linear_1_37" x1="1136.74" y1="812.277" x2="819.636" y2="159.123" gradientUnits="userSpaceOnUse">
<stop stop-color="white"/>
<stop offset="1" stop-color="white" stop-opacity="0"/>
</linearGradient>
<linearGradient id="paint48_linear_1_37" x1="1136.74" y1="812.277" x2="819.636" y2="159.123" gradientUnits="userSpaceOnUse">
<stop stop-color="white"/>
<stop offset="1" stop-color="white" stop-opacity="0"/>
</linearGradient>
<linearGradient id="paint49_linear_1_37" x1="1136.74" y1="812.277" x2="819.636" y2="159.123" gradientUnits="userSpaceOnUse">
<stop stop-color="white"/>
<stop offset="1" stop-color="white" stop-opacity="0"/>
</linearGradient>
<linearGradient id="paint50_linear_1_37" x1="1136.74" y1="812.277" x2="819.636" y2="159.123" gradientUnits="userSpaceOnUse">
<stop stop-color="white"/>
<stop offset="1" stop-color="white" stop-opacity="0"/>
</linearGradient>
<linearGradient id="paint51_linear_1_37" x1="1136.74" y1="812.277" x2="819.636" y2="159.123" gradientUnits="userSpaceOnUse">
<stop stop-color="white"/>
<stop offset="1" stop-color="white" stop-opacity="0"/>
</linearGradient>
<linearGradient id="paint52_linear_1_37" x1="1136.74" y1="812.277" x2="819.636" y2="159.123" gradientUnits="userSpaceOnUse">
<stop stop-color="white"/>
<stop offset="1" stop-color="white" stop-opacity="0"/>
</linearGradient>
<linearGradient id="paint53_linear_1_37" x1="1136.74" y1="812.277" x2="819.636" y2="159.123" gradientUnits="userSpaceOnUse">
<stop stop-color="white"/>
<stop offset="1" stop-color="white" stop-opacity="0"/>
</linearGradient>
<linearGradient id="paint54_linear_1_37" x1="1136.74" y1="812.277" x2="819.636" y2="159.123" gradientUnits="userSpaceOnUse">
<stop stop-color="white"/>
<stop offset="1" stop-color="white" stop-opacity="0"/>
</linearGradient>
<linearGradient id="paint55_linear_1_37" x1="1136.74" y1="812.277" x2="819.636" y2="159.123" gradientUnits="userSpaceOnUse">
<stop stop-color="white"/>
<stop offset="1" stop-color="white" stop-opacity="0"/>
</linearGradient>
<linearGradient id="paint56_linear_1_37" x1="1136.74" y1="812.277" x2="819.636" y2="159.123" gradientUnits="userSpaceOnUse">
<stop stop-color="white"/>
<stop offset="1" stop-color="white" stop-opacity="0"/>
</linearGradient>
<linearGradient id="paint57_linear_1_37" x1="1136.74" y1="812.277" x2="819.636" y2="159.123" gradientUnits="userSpaceOnUse">
<stop stop-color="white"/>
<stop offset="1" stop-color="white" stop-opacity="0"/>
</linearGradient>
<linearGradient id="paint58_linear_1_37" x1="1136.74" y1="812.277" x2="819.636" y2="159.123" gradientUnits="userSpaceOnUse">
<stop stop-color="white"/>
<stop offset="1" stop-color="white" stop-opacity="0"/>
</linearGradient>
<linearGradient id="paint59_linear_1_37" x1="1136.74" y1="812.277" x2="819.636" y2="159.123" gradientUnits="userSpaceOnUse">
<stop stop-color="white"/>
<stop offset="1" stop-color="white" stop-opacity="0"/>
</linearGradient>
<linearGradient id="paint60_linear_1_37" x1="1136.74" y1="812.277" x2="819.636" y2="159.123" gradientUnits="userSpaceOnUse">
<stop stop-color="white"/>
<stop offset="1" stop-color="white" stop-opacity="0"/>
</linearGradient>
<linearGradient id="paint61_linear_1_37" x1="1136.74" y1="812.277" x2="819.636" y2="159.123" gradientUnits="userSpaceOnUse">
<stop stop-color="white"/>
<stop offset="1" stop-color="white" stop-opacity="0"/>
</linearGradient>
<clipPath id="clip0_1_37">
<rect width="1210" height="758" fill="white" transform="matrix(-1 0 0 -1 1210 758)"/>
</clipPath>
</defs>
</svg>
