<svg width="1920" height="758" viewBox="0 0 1920 758" fill="none" xmlns="http://www.w3.org/2000/svg">
<g opacity="0.1" clip-path="url(#clip0_1_37)">
<path d="M-737.981 377.002C-737.128 376.694 -736.084 376.36 -735.231 376.052L-763.238 379.929C-782.399 386.756 -801.607 393.494 -821.189 399.905L-818.555 404.948C-791.008 395.917 -764.305 386.433 -737.981 377.002Z" fill="url(#paint0_linear_1_37)"/>
<path d="M-696.171 471.213C-598.863 443.795 -498.19 415.437 -369.304 410.786C-220.662 405.488 -101.48 439.377 13.8878 472.18C131.186 505.571 252.677 539.994 404.596 533.199C547.346 526.724 647.643 457.236 744.608 389.918C818.521 338.695 888.244 290.33 974.484 268.145C1084.89 239.768 1166.56 261.294 1245.64 282.136C1330.61 304.534 1418.45 327.768 1538.78 287.296C1662.37 245.707 1759.98 188.168 1854.31 132.507C1955.48 72.8608 2059.84 11.5405 2195.96 -29.7886L2163.21 -25.2562C2038.91 16.1462 1941.06 73.623 1846.26 129.54C1752.41 184.946 1655.23 242.141 1533.06 283.343C1418.28 322.004 1337.03 300.513 1251.12 277.866C1169.69 256.402 1085.62 234.164 969.809 263.857C881.058 286.675 810.574 335.525 735.945 387.321C640.457 453.581 541.683 522.099 403.896 528.361C255.19 535.091 135.255 500.927 19.4165 467.999C-97.3641 434.822 -217.96 400.56 -369.815 405.923C-501.301 410.649 -603.016 439.341 -701.367 467.093C-725.966 474.009 -750.377 480.899 -775.018 487.346L-772.475 492.213C-746.413 485.379 -721.292 478.296 -696.171 471.213Z" fill="url(#paint1_linear_1_37)"/>
<path d="M-673.692 516.73C-573.433 491.846 -469.575 466.083 -339.721 464.051C-195.406 461.725 -73.9058 495.77 43.7337 528.64C171.121 564.242 291.633 597.948 437.444 588.773C573.845 580.236 662.256 517.516 747.857 456.799C814.023 409.778 882.617 361.189 973.327 336.676C1077.5 308.403 1160.16 326.378 1240.28 343.756C1326.8 362.524 1416.11 381.952 1529.02 341.271C1642.41 300.335 1731.73 245.176 1817.95 191.869C1924.63 126.05 2034.79 57.9476 2190.51 16.8454C2286.15 -8.3479 2406.72 -12.9865 2534.29 -17.8341C2652.08 -22.3713 2773.89 -26.9899 2874.87 -49.3184C3033.93 -84.4293 3183.34 -135.286 3327.84 -186.601L3299.44 -182.671C3162.35 -134.278 3020.82 -86.9804 2870.86 -53.8874C2771.49 -31.9718 2650.72 -27.3073 2533.93 -22.8126C2404.98 -17.8701 2283.23 -13.1628 2185.65 12.5843C2027.79 54.2664 1916.83 122.765 1809.57 189.043C1723.64 242.121 1634.75 296.936 1522.74 337.397C1414.95 376.229 1332.33 358.343 1244.82 339.237C1162.39 321.324 1077.42 302.815 968.274 332.442C875.288 357.648 805.978 406.812 739.004 454.228C651.068 516.693 567.757 575.575 436.508 583.873C294.198 592.754 175.144 559.51 49.4051 524.344C-69.4125 491.162 -192.325 456.744 -339.474 459.082C-471.738 461.163 -576.687 487.172 -678.035 512.302C-702.815 518.484 -727.453 524.551 -752.086 530.238L-749.543 535.106C-724.01 529.199 -698.662 522.939 -673.692 516.73Z" fill="url(#paint2_linear_1_37)"/>
<path d="M-649.946 561.233C-546.175 538.804 -438.804 515.497 -307.799 515.676C-167.439 515.89 -46.3545 548.757 70.5378 580.59C201.56 616.162 325.282 649.802 473.582 641.515C605.479 634.076 689.614 573.277 770.703 514.419C831.684 470.3 894.669 424.575 977.713 400.935C1076.12 372.891 1159.62 387.427 1240.19 401.419C1327.94 416.696 1418.84 432.58 1525.1 391.589C1629.31 351.354 1711.04 298.385 1790.01 247.127C1890.35 181.997 1994.02 114.699 2145.02 73.112C2244.55 45.6714 2375.94 37.6386 2502.83 29.9429C2620.64 22.7445 2742.38 15.2876 2842.8 -7.34187C3020.38 -47.3891 3186.32 -105.846 3346.94 -162.429C3389.11 -177.28 3431.47 -192.158 3474.3 -206.912L3444.96 -202.851C3409.91 -190.692 3375.28 -178.498 3340.84 -166.329C3180.74 -109.914 3015.14 -51.5978 2838.65 -11.7962C2739.7 10.5352 2618.9 17.8611 2501.89 25.0432C2373.86 32.8962 2241.49 40.9716 2139.97 68.8774C1987.03 111.018 1882.59 178.801 1781.44 244.327C1702.95 295.33 1621.69 348.044 1518.48 387.855C1417.11 426.937 1333 412.39 1244.07 396.802C1161.19 382.275 1075.28 367.408 972.471 396.726C887.339 421.035 823.548 467.156 761.851 511.849C678.334 572.277 599.626 629.477 472.647 636.616C327.703 644.722 205.251 611.571 75.8307 576.347C-42.4282 544.228 -164.501 511.024 -307.695 510.823C-440.921 510.666 -549.428 534.13 -654.288 556.805C-679.248 562.253 -704.634 567.664 -730.347 572.836L-727.851 577.615C-701.191 572.312 -675.474 566.759 -649.946 561.233Z" fill="url(#paint3_linear_1_37)"/>
<path d="M4830.04 -394.125C4838.26 -394.314 4846.53 -394.415 4854.75 -394.604L4853.32 -397.347L4830.04 -394.125Z" fill="url(#paint4_linear_1_37)"/>
<path d="M4730.31 -352.187C4778.41 -352.962 4826.94 -353.701 4875.56 -354.644L4872.97 -359.599C4825.2 -358.584 4777.66 -357.888 4730.37 -357.129C4666.16 -356.116 4601.33 -355.112 4536.4 -353.526L4491.92 -347.369C4571.5 -349.656 4651.21 -350.916 4730.31 -352.187Z" fill="url(#paint5_linear_1_37)"/>
<path d="M-643.368 617.206C-601.336 610.25 -565.864 602.778 -531.339 595.437C-451.824 578.643 -383.106 564.102 -273.996 565.888C-137.489 568.058 -17.0075 599.774 99.6133 630.315C234.649 665.804 362.149 699.3 513.512 691.443C641.569 684.819 720.911 625.729 797.867 568.677C854.047 527.026 911.898 483.91 988.27 461.098C1081.47 433.205 1165.29 444.47 1246.28 455.368C1335.34 467.332 1427.27 479.752 1527.48 438.459C1623.7 398.857 1698.46 347.707 1770.7 298.33C1864.56 234.004 1961.75 167.509 2107.69 125.578C2210.93 95.9163 2347.07 84.9475 2478.67 74.2275C2595.71 64.7645 2716.86 55.0168 2816.71 32.086C2992.87 -8.33442 3158.6 -65.6236 3318.97 -121.127C3430.2 -159.581 3543.66 -198.818 3662.16 -233.06L3625.25 -227.951C3517.78 -195.9 3414.43 -160.244 3313.02 -125.142C3153.17 -69.8058 2987.77 -12.6576 2812.51 27.5433C2714.08 50.0874 2593.73 59.819 2477.5 69.2656C2344.91 80.0282 2207.77 91.0395 2102.78 121.229C1954.89 163.713 1856.94 230.693 1762.51 295.478C1690.75 344.599 1616.46 395.494 1521.24 434.673C1425.5 474.02 1340.17 462.584 1250.02 450.486C1166.86 439.319 1080.83 427.696 983.406 456.837C904.948 480.317 846.146 523.944 789.393 566.054C710.624 624.686 636.192 679.965 513.144 686.465C365.138 694.142 239.05 661.02 105.427 625.905C-12.1815 595.025 -133.605 563.061 -272.758 560.878C-384.324 559.051 -454.131 573.838 -534.735 590.878C-568.928 598.078 -604.353 605.638 -645.817 612.517C-666.171 615.903 -685.384 618.753 -703.933 621.32L-701.437 626.099C-683.313 623.495 -663.721 620.593 -643.368 617.206Z" fill="url(#paint6_linear_1_37)"/>
<path d="M-613.605 659.271C-571.344 653.137 -535.313 646.347 -500.324 639.891C-418.225 624.541 -347.394 611.321 -238.2 614.426C-105.532 618.172 14.9198 648.659 131.18 678.114C271.041 713.507 403.224 747.021 556.392 738.725C682.899 731.842 751.12 678.655 823.346 622.256C874.88 582.195 927.896 540.697 1003.95 517.265C1093.8 489.551 1177.8 497.661 1259.01 505.492C1348.35 514.097 1440.85 522.929 1535.43 482.129C1627.35 442.456 1697.43 392.428 1765.12 344.058C1851.58 282.273 1941 218.371 2077.81 174.478C2184.36 140.276 2327.9 126.765 2466.81 113.706C2580.8 103.053 2698.61 91.9639 2795.44 69.4517C2968.11 29.3249 3131.04 -26.3439 3288.65 -80.1387C3485.21 -147.199 3688.31 -216.495 3914.19 -257.724C4171.41 -304.62 4463.91 -308.858 4746.71 -312.989C4795.86 -313.718 4845.61 -314.437 4895.23 -315.422L4892.64 -320.378C4843.83 -319.409 4795.06 -318.733 4746.72 -318.02C4499.17 -314.403 4244.33 -310.728 4011.33 -278.476C3977.26 -273.76 3943.7 -268.451 3910.7 -262.46C3683.5 -221.047 3479.73 -151.47 3282.65 -84.2426C3125.37 -30.5886 2962.77 24.9393 2791 64.8466C2695.45 87.0869 2578.4 98.0708 2465.03 108.734C2325.13 121.836 2180.4 135.416 2071.95 170.259C1933.25 214.794 1843.26 279.155 1756.18 341.311C1688.96 389.425 1619.31 439.109 1528.39 478.359C1437.94 517.354 1352.23 509.1 1261.44 500.412C1178.09 492.401 1091.78 484.136 998.279 513.02C920.141 537.12 866.175 579.13 814.116 619.738C743.319 674.99 676.529 727.03 555.364 733.648C405.552 741.765 274.783 708.624 136.146 673.632C18.7544 643.954 -102.451 613.191 -237.385 609.379C-349.036 606.234 -420.767 619.674 -504.002 635.181C-538.755 641.699 -574.643 648.375 -616.525 654.457C-639.714 657.856 -661.575 660.692 -682.816 663.158L-680.273 668.025C-658.843 665.533 -636.794 662.671 -613.605 659.271Z" fill="url(#paint7_linear_1_37)"/>
<path d="M-583.204 700.726C-540.764 695.326 -504.128 689.306 -468.627 683.443C-383.803 669.424 -310.529 657.384 -200.781 661.55C-71.5306 666.528 48.1353 695.512 163.89 723.613C302.402 757.2 445.576 791.943 602.101 783.468C725.864 776.774 789.436 725.179 856.917 670.576C904.273 632.233 953.203 592.628 1024.66 569.737C1110.35 542.219 1194.25 547.402 1275.4 552.395C1365.57 557.943 1458.86 563.628 1548.63 522.546C1634.31 483.358 1698.42 434.726 1760.52 387.699C1840.73 326.779 1923.57 263.882 2054.85 219.901C2164.03 183.343 2311.76 167.355 2454.9 151.907C2567.29 139.766 2683.66 127.074 2779.3 104.631C2947.95 64.9662 3107.79 11.1487 3262.45 -40.9091C3461.46 -107.93 3667.4 -177.238 3896.49 -218.152C4165.48 -266.203 4470.35 -270.067 4764.96 -273.744C4815 -274.693 4865.23 -275.288 4915.7 -276.2L4913.11 -281.156C4863.64 -280.286 4814.21 -279.707 4765.21 -279.093C4504.1 -275.782 4235.33 -272.361 3989.65 -238.354C3957.09 -233.848 3924.81 -228.81 3893.28 -223.117C3662.68 -181.994 3456.27 -112.43 3256.74 -45.2422C3102.6 6.64858 2943.09 60.3248 2775.2 99.885C2680.65 122.083 2565.04 134.669 2453.21 146.732C2309.12 162.311 2160.26 178.457 2049.37 215.63C1916.15 260.165 1832.79 323.609 1751.95 384.9C1690.33 431.671 1626.7 480.047 1541.97 518.724C1455.76 558.08 1369.37 552.768 1277.54 547.165C1194.5 542.054 1108.53 536.779 1019.33 565.351C945.638 589.026 896.137 629.089 848.208 667.891C782.158 721.347 719.827 771.821 601.784 778.197C448.427 786.52 312.931 753.654 169.331 718.875C52.6805 690.613 -67.928 661.38 -199.067 656.284C-311.082 652.052 -385.302 664.223 -471.261 678.399C-506.573 684.235 -543.02 690.229 -585.082 695.577C-611.531 698.953 -636.65 701.766 -660.629 704.041L-658.133 708.82C-634.583 706.889 -609.653 704.102 -583.204 700.726Z" fill="url(#paint8_linear_1_37)"/>
<path d="M-551.925 741.495C-509.351 736.74 -472.012 731.288 -435.809 725.992C-347.882 713.252 -271.881 702.162 -161.292 707.161C-35.5007 712.902 83.4259 740.47 198.584 767.04C342.2 800.299 490.812 834.575 651.121 825.575C772.335 818.665 831.683 768.699 894.326 715.714C937.791 678.859 982.876 640.83 1050.65 618.26C1132.79 590.948 1216.24 593.346 1296.86 595.756C1387.59 598.475 1481.57 601.218 1567.28 559.749C1647.47 520.941 1706.13 473.537 1762.74 427.651C1836.75 367.684 1913.2 305.767 2039.19 261.759C2150.43 222.924 2302.58 204.52 2449.43 186.851C2559.75 173.477 2673.96 159.756 2768.23 137.408C2932.76 98.4082 3088.94 46.5212 3239.89 -3.6949C3441.22 -70.5613 3649.46 -139.715 3881.66 -180.111C4161.82 -228.947 4478.39 -232.154 4784.47 -235.237C4834.75 -235.744 4885.21 -236.276 4935.96 -237.038L4933.37 -241.993C4883.61 -241.274 4833.95 -240.758 4784.67 -240.294C4509.92 -237.467 4226.84 -234.627 3968.29 -198.838C3938 -194.646 3907.95 -190.012 3878.36 -184.873C3644.89 -144.205 3436.12 -74.8847 3234.08 -7.82504C3083.46 42.2503 2927.43 94.0228 2763.8 132.803C2670.61 154.906 2557.02 168.636 2447.22 181.843C2299.23 199.67 2146.13 218.204 2033.19 257.655C1905.3 302.305 1828.29 364.681 1753.7 425.107C1697.38 470.764 1639.19 517.912 1559.95 556.209C1477.62 595.977 1390.43 593.432 1297.86 590.683C1215.22 588.269 1129.87 585.754 1044.6 614.068C974.601 637.421 928.989 675.997 884.952 713.311C823.694 765.06 766.058 814.03 650.093 820.498C492.951 829.344 352.208 796.921 203.267 762.407C87.3564 735.561 -32.4193 707.921 -160.099 702.062C-272.812 696.883 -349.715 708.191 -438.777 721.089C-474.791 726.358 -511.939 731.785 -554.136 736.487C-584.222 739.892 -612.693 742.505 -640.214 744.606L-637.671 749.473C-610.105 747.46 -581.868 744.786 -551.925 741.495Z" fill="url(#paint9_linear_1_37)"/>
<path d="M-520.039 781.613C-477.187 777.39 -439.146 772.504 -402.43 767.801C-311.161 756.022 -232.241 745.857 -120.623 751.662C1.80775 757.963 120.09 783.911 234.507 809.066C383.751 841.83 538.036 875.7 702.088 865.707C822.078 858.397 876.45 809.784 934.255 758.419C974.304 722.795 1015.59 686.051 1080.77 663.556C1159.69 636.31 1242.51 636.328 1322.69 636.333C1413.82 636.338 1508.17 636.279 1590.57 594.318C1666.09 555.873 1719.39 509.495 1771.22 464.556C1839.03 405.542 1909.28 344.578 2030.21 300.606C2143.51 259.494 2299.22 238.984 2449.87 219.269C2557.75 205.096 2669.42 190.399 2762.03 168.375C2921.73 130.233 3073.54 80.4693 3220.45 32.2357C3423.71 -34.4237 3634.08 -103.396 3869.67 -143.123C4159.18 -191.926 4486.09 -194.381 4801.94 -196.634C4853.11 -196.98 4904.85 -197.404 4956.68 -198.032L4954.09 -202.987C4903.25 -202.402 4852.51 -202.021 4802.33 -201.717C4513.79 -199.639 4216.17 -197.442 3945.32 -159.951C3918.82 -156.283 3892.5 -152.261 3866.56 -147.911C3629.69 -107.913 3418.8 -38.7732 3214.83 28.0796C3068.25 76.1722 2916.59 125.821 2757.65 163.858C2666.17 185.725 2555.07 200.344 2447.57 214.465C2296.01 234.398 2139.12 254.977 2024.12 296.705C1901.29 341.32 1830.51 402.831 1762.13 462.303C1710.73 506.899 1657.71 553.047 1583.19 591.069C1504.35 631.303 1416.48 631.321 1323.31 631.312C1241.34 631.366 1156.73 631.407 1075 659.514C1007.74 682.678 965.784 720.084 925.163 756.166C868.788 806.385 815.376 853.726 701.485 860.666C540.176 870.469 387.257 836.885 239.381 804.406C124.303 779.153 5.31368 753.018 -118.816 746.573C-232.465 740.764 -312.143 751.034 -404.594 762.882C-441.12 767.558 -478.972 772.418 -521.588 776.704C-555.927 780.128 -588.128 782.593 -619 784.494L-616.457 789.361C-586.01 787.424 -553.998 784.985 -520.039 781.613Z" fill="url(#paint10_linear_1_37)"/>
<path d="M-487.362 821.149C-444.09 817.341 -405.393 812.934 -368.022 808.71C-273.221 797.865 -191.239 788.51 -78.2088 794.689C41.1002 801.232 158.36 825.613 271.946 849.175C427.005 881.418 587.485 914.715 755.709 903.386C873.91 895.375 924.345 848.161 977.363 798.122C1014.24 763.413 1052.11 727.521 1115.25 705.402C1220.7 668.317 1295.27 670.805 1367.53 673.139C1446.02 675.749 1520.16 678.201 1618.37 626.083C1692.28 586.91 1742.75 540.545 1791.56 495.645C1852.96 439.132 1916.61 380.694 2027.58 336.298C2136.7 292.633 2302.98 269.427 2463.77 246.98C2572.75 231.801 2675.86 217.434 2759.9 197.261C2914.82 160.066 3062.44 112.399 3205.32 66.1483C3410.22 -0.0748122 3622.05 -68.5849 3859.71 -107.459C4159.38 -156.625 4496.71 -157.772 4822.66 -158.956C4873.5 -159.16 4924.95 -159.355 4976.49 -159.753L4973.91 -164.709C4923.35 -164.353 4873.13 -164.138 4823.09 -163.95C4520.44 -162.859 4208.29 -161.687 3924.56 -122.414C3901.66 -119.244 3879.08 -115.834 3856.65 -112.159C3617.52 -72.9866 3404.98 -4.28336 3199.56 62.1069C3057.01 108.217 2909.77 155.831 2755.37 192.859C2672.23 212.812 2569.69 227.101 2461.09 242.228C2299.16 264.832 2131.89 288.081 2020.96 332.565C1908.33 377.666 1844.3 436.535 1782.13 493.534C1733.57 538.116 1683.38 584.252 1610.56 622.798C1515.83 673.013 1447.63 670.686 1368.53 668.066C1297.88 665.7 1217.79 663.122 1109.06 701.325C1043.88 724.2 1005.29 760.666 967.892 795.922C916.258 844.725 867.49 890.854 754.681 898.309C589.389 909.422 430.275 876.411 276.393 844.479C162.102 820.731 43.9912 796.277 -76.8278 789.563C-191.746 783.266 -274.485 792.726 -370.279 803.614C-407.604 807.926 -446.11 812.307 -489.05 815.974C-527.687 819.329 -563.997 821.698 -598.835 823.389L-596.293 828.256C-561.505 826.857 -525.62 824.451 -487.362 821.149Z" fill="url(#paint11_linear_1_37)"/>
<path d="M-477.874 846.342C-335.952 837.894 -189.159 829.056 -34.3825 836.668C86.8692 842.658 206.077 866.105 321.231 888.785C478.949 919.902 641.852 952.008 811.699 939.126C929.295 930.344 975.228 884.228 1023.5 835.605C1057.35 801.696 1092.19 766.603 1153.91 744.111C1255.39 707.196 1329.47 707.57 1401.27 707.879C1480.45 708.306 1555.28 708.575 1650.52 655.444C1720.13 616.583 1765.78 571.076 1810.17 527.07C1866.14 471.405 1924.11 413.754 2031.21 369.325C2141.62 323.487 2310.57 298.774 2473.98 274.732C2579.93 259.211 2680.02 244.503 2762.22 224.68C2917.28 187.371 3063.79 141.471 3205.61 97.0749C3407.93 33.6767 3617.26 -31.8313 3852.68 -72.6722C4161.27 -126.11 4511 -124.513 4849.29 -123.041C4897.9 -122.843 4946.94 -122.609 4996.12 -122.489L4993.53 -127.445C4945.39 -127.518 4897.39 -127.706 4849.77 -127.947C4542.33 -129.419 4225.2 -130.784 3937.31 -90.9346C3907.6 -86.8213 3878.3 -82.2919 3849.28 -77.2314C3612.54 -36.2071 3402.69 29.4681 3199.84 93.0335C3058.36 137.289 2912.04 183.162 2757.69 220.278C2676.2 239.908 2576.49 254.563 2471.1 270.005C2306.51 294.116 2136.48 319.076 2024.4 365.618C1915.64 410.751 1857.1 468.861 1800.61 525.074C1756.64 568.735 1711.24 613.924 1642.57 652.274C1550.85 703.59 1481.83 703.18 1401.9 702.858C1331.7 702.517 1252.15 702.142 1147.58 740.148C1083.77 763.308 1048.26 799.063 1013.89 833.52C966.763 880.845 922.357 925.611 810.292 934.102C643.566 946.742 481.794 914.858 325.444 884.027C209.583 861.16 89.6694 837.526 -33.0001 831.543C-188.815 823.885 -336.222 832.712 -478.713 841.239C-514.312 843.415 -550.147 845.529 -586.31 847.403L-583.768 852.27C-548.126 850.562 -512.717 848.413 -477.874 846.342Z" fill="url(#paint12_linear_1_37)"/>
<path d="M-445.281 884.943C-298.835 877.387 -147.66 869.556 10.7024 877.431C128.837 883.282 247.259 905.225 361.862 926.463C526.531 956.902 696.856 988.455 869.472 973.102C1025.06 959.346 1044.08 924.262 1066.14 883.728C1083.75 851.4 1103.64 814.867 1196.26 780.033C1293.82 743.376 1367.49 741.814 1438.89 740.185C1518.94 738.404 1594.6 736.756 1686.64 682.55C1752.47 643.833 1793.71 599.22 1833.66 556.02C1884.51 501.063 1937.04 444.26 2040.54 399.949C2151.78 352.194 2323.01 326.026 2488.42 300.758C2591.02 285.038 2688 270.191 2768.58 250.782C2918.19 214.701 3059.81 171.091 3196.5 128.923C3399.8 66.2433 3610.07 1.36469 3847.65 -38.4469C4165.26 -91.7102 4523.99 -88.4176 4870.72 -85.1719C4918.86 -84.7182 4967.37 -84.3169 5016.03 -84.0303L5013.39 -89.0743C4965.96 -89.3411 4918.44 -89.7849 4871.53 -90.2189C4550.93 -93.1899 4220.12 -96.2667 3920.12 -54.7407C3894.76 -51.23 3869.58 -47.3653 3844.54 -43.2352C3605.69 -3.15173 3394.85 61.8054 3191.02 124.653C3054.33 166.821 2913.09 210.378 2764 246.291C2684.13 265.508 2587.72 280.275 2485.5 295.944C2319 321.457 2146.64 347.783 2033.54 396.268C1928.24 441.399 1875.18 498.748 1823.99 554.227C1784.28 597.109 1743.29 641.403 1678.59 679.583C1589.64 731.938 1519.8 733.445 1438.95 735.243C1369.34 736.813 1290.24 738.463 1189.98 776.158C1094.46 812.057 1074.09 849.606 1056.04 882.658C1034.08 922.989 1016.66 954.911 868.111 968.166C698.428 983.303 529.469 952.035 366.12 921.793C250.857 900.457 131.775 878.416 12.3662 872.456C-147.036 864.536 -298.824 872.357 -445.839 879.992C-485.547 882.072 -525.68 884.116 -565.952 885.895L-563.409 890.762C-523.752 888.973 -484.422 886.945 -445.281 884.943Z" fill="url(#paint13_linear_1_37)"/>
<path d="M-411.344 923.076C-260.844 916.287 -105.237 909.171 56.8562 917.193C171.874 922.907 289.606 943.142 403.188 962.813C574.952 992.459 752.751 1023.17 928.845 1005.15C1085.69 989.134 1102.15 954.593 1121.08 914.682C1135.95 883.304 1153.08 847.721 1241.73 813.057C1334.94 776.623 1408.25 773.212 1479.2 769.939C1560.46 766.188 1636.98 762.711 1726.25 707.466C1788.72 668.929 1825.85 624.981 1861.72 582.535C1907.51 528.373 1954.98 472.367 2055.17 427.944C2166.95 378.502 2339.61 351.186 2506.64 324.746C2605.98 309.002 2699.93 294.195 2778.53 275.25C2922.55 240.512 3058.85 199.157 3190.6 159.191C3394.5 97.2812 3605.43 33.2618 3844.78 -5.46812C4170.85 -58.098 4537.63 -52.9793 4892.61 -47.9338C4940.03 -47.2868 4987.88 -46.6038 5035.87 -46.0354L5033.24 -51.0793C4986.47 -51.6279 4939.66 -52.2649 4893.47 -52.8921C4559.75 -57.6537 4215.21 -62.5311 3903.29 -19.3546C3882.66 -16.4989 3862.31 -13.4924 3841.91 -10.1943C3601.42 28.6927 3389.78 92.9057 3185.35 154.983C3053.79 194.923 2917.68 236.251 2774.18 270.822C2696.11 289.599 2602.77 304.417 2503.76 320.02C2335.6 346.617 2161.81 374.09 2048.27 424.44C1946.22 469.593 1898.28 526.236 1852.15 580.918C1816.51 623.047 1779.63 666.676 1718.25 704.588C1631.89 758.008 1560.94 761.282 1478.84 764.961C1409.68 768.175 1331.17 771.736 1235.45 809.183C1143.76 845.026 1126.28 881.51 1111.03 913.701C1092.05 953.524 1077.23 984.99 927.249 1000.15C754.04 1017.87 577.797 987.416 407.354 957.966C292.923 938.223 174.909 917.837 58.427 912.041C-104.705 903.973 -260.736 911.053 -411.804 917.921C-456.235 919.896 -501.045 921.923 -546.419 923.649L-543.876 928.516C-499.214 926.983 -454.972 925.035 -411.344 923.076Z" fill="url(#paint14_linear_1_37)"/>
<path d="M-375.656 960.684C-221.194 954.486 -61.5809 948.049 104.104 955.953C216.291 961.299 333.002 979.968 445.751 998.046C624.989 1026.85 810.358 1056.51 990.028 1035.62C1148.08 1017.26 1162.46 983.005 1178.7 943.372C1191.33 912.777 1205.72 878.145 1290.77 843.598C1379.87 807.449 1452.77 802.481 1523.31 797.651C1605.44 792.071 1683.03 786.74 1769.61 730.633C1828.83 692.072 1861.64 648.816 1893.4 607.035C1936.05 550.746 1976.11 497.663 2075.44 453.928C2186.8 404.83 2350.66 378.163 2509.08 352.344C2611.6 335.686 2708.49 319.902 2792.5 298.501C2916.64 266.894 3036.01 231.204 3151.54 196.709C3377.62 129.073 3591.28 65.2438 3844.24 26.9086C4177.46 -23.6755 4548.05 -16.7115 4906.69 -10.086C4956.09 -9.1439 5006.06 -8.2804 5055.99 -7.50538L5053.36 -12.5492C5004.47 -13.2783 4955.87 -14.2367 4907.5 -15.1329C4560.95 -21.5343 4203.12 -28.176 3877.75 16.8606C3865.64 18.5373 3853.57 20.3026 3841.36 22.1825C3587.08 60.7011 3362.94 127.784 3146.11 192.527C3030.77 226.995 2911.58 262.659 2787.78 294.125C2704.48 315.334 2607.97 331.065 2506.01 347.644C2346.46 373.62 2181.46 400.444 2068.3 450.362C1967.02 495.03 1924.51 551.204 1883.3 605.585C1851.79 647.049 1819.4 689.961 1761.04 727.833C1677.36 782.116 1605.45 787.041 1522.19 792.778C1453.4 797.461 1375.62 802.818 1284.01 839.979C1195.92 875.705 1181.24 911.327 1168.21 942.735C1151.89 982.191 1139.24 1013.17 987.768 1030.91C810.983 1051.49 627.124 1022 449.441 993.455C336.222 975.252 219.04 956.459 105.624 951.093C-61.0985 943.143 -221.091 949.632 -375.977 955.795C-425.653 957.832 -475.989 959.77 -526.7 961.381L-524.158 966.248C-474.061 964.627 -424.764 962.643 -375.656 960.684Z" fill="url(#paint15_linear_1_37)"/>
<path d="M-340.143 997.556C-181.531 991.921 -17.3414 986.084 152.267 993.73C261.153 998.584 374.298 1015.09 483.717 1031.07C668.692 1058.03 860.081 1086 1047.4 1061.5C1050.62 1061.05 1053.83 1060.61 1057.05 1060.16C1211.5 1038.78 1223.88 1005.76 1238.11 967.73C1249.08 938.6 1261.32 905.688 1342.36 871.603C1407.96 844.113 1484.99 833.83 1559.37 823.914C1653.86 811.309 1751.57 798.259 1820.02 749.406C1874.33 710.766 1902.54 669.191 1929.69 629.09C1967.23 573.889 2002.7 521.726 2100.38 477.555C2214.36 426.101 2384.29 398.215 2548.77 371.178C2646.89 355.034 2739.61 339.827 2820.63 320.073C2950.91 288.185 3072.79 251.863 3190.6 216.674C3402.03 153.627 3601.7 94.1063 3845.42 58.2839C4184.16 8.54906 4562 17.7359 4927.32 26.6626C4976.25 27.8603 5025.79 29.0678 5075.43 30.0721L5072.8 25.0283C5024.53 23.929 4976.26 22.8297 4928.37 21.678C4570.46 12.9585 4200.6 3.90034 3866.16 50.1945C3858.4 51.2687 3850.64 52.3428 3842.73 53.5317C3597.69 89.5375 3397.31 149.252 3185.4 212.554C3067.74 247.628 2946.05 283.924 2816.14 315.76C2735.88 335.409 2643.54 350.563 2545.75 366.566C2380.13 393.761 2208.88 421.83 2093.29 474.077C1993.46 519.208 1957.52 572.007 1919.5 627.844C1892.4 667.653 1864.57 708.795 1811.17 746.835C1744.91 794.057 1653.45 806.242 1556.88 819.136C1481.17 829.235 1403.01 839.675 1335.6 867.984C1251.52 903.248 1238.8 937.176 1227.63 967.093C1213.5 1004.92 1202.19 1034.95 1054.56 1055.38C1051.34 1055.83 1048.12 1056.27 1044.71 1056.75C860.378 1080.74 670.545 1053.03 486.89 1026.26C377.047 1010.25 263.477 993.708 153.506 988.719C-16.9062 981.09 -181.52 986.891 -340.7 992.604C-395.903 994.552 -451.483 996.552 -507.766 997.985L-505.224 1002.85C-449.555 1001.41 -394.542 999.487 -340.143 997.556Z" fill="url(#paint16_linear_1_37)"/>
<path d="M-303.925 1033.96C-139.933 1028.91 29.6809 1023.75 201.141 1030.66C307.907 1034.96 417.261 1048.48 523.359 1061.59C712.344 1084.96 907.84 1109.14 1101.22 1083.42C1103.68 1083.08 1106.14 1082.74 1108.6 1082.4C1271.38 1059.86 1283.42 1027.36 1297.46 989.738C1307.75 962.03 1319.55 930.603 1396.56 897.36C1461.65 869.277 1538.61 856.916 1612.92 844.922C1708.01 829.578 1806.27 813.699 1876.56 764.876C1933 725.656 1956.2 684.205 1978.73 644.176C2007.96 592.117 2035.5 543.043 2130.25 499.469C2247.61 445.554 2423.16 417.174 2593.18 389.845C2689.97 374.265 2781.13 359.559 2861.66 340.441C2994.02 309.025 3114.68 272.683 3231.25 237.474C3427.81 178.195 3613.46 122.134 3849.11 89.1353C3850.81 88.8995 3852.51 88.6636 3854.22 88.4278C4198.32 40.7975 4579.82 52.3246 4948.75 63.5031C4997.39 64.9301 5046.51 66.4816 5095.53 67.8563L5092.89 62.8125C5044.91 61.4838 4997.26 60.0142 4949.84 58.607C4580.11 47.4447 4197.76 35.8456 3851.77 83.738C3850.07 83.9737 3848.36 84.2095 3846.66 84.4453C3609.68 117.627 3423.32 173.882 3226.1 233.443C3109.86 268.511 2989.58 304.801 2857.56 336.075C2777.73 355 2686.76 369.68 2590.54 385.181C2419.44 412.755 2242.75 441.293 2123.58 496.027C2026.55 540.676 1997.37 592.824 1968.91 643.258C1946.77 682.854 1923.71 723.81 1868.33 762.315C1800.13 809.71 1707.88 824.662 1610.33 840.347C1534.88 852.498 1457.02 865.079 1390.08 893.892C1310.22 928.288 1298.13 960.705 1287.45 989.226C1273.36 1027.14 1262.81 1057.07 1099.19 1078.76C908.654 1104.09 714.479 1080.11 526.814 1056.94C420.481 1043.76 310.513 1030.23 202.897 1025.86C30.5877 1018.88 -139.405 1024.09 -303.775 1029.2C-364.693 1031.08 -426.225 1032.96 -488.505 1034.18L-485.917 1039.13C-424.814 1037.6 -364.086 1035.74 -303.925 1033.96Z" fill="url(#paint17_linear_1_37)"/>
<path d="M-279.978 1069.31C-107.865 1064.66 70.2498 1059.83 250.874 1066.81C348.813 1070.52 452.158 1080.7 552.105 1090.58C753.415 1110.35 961.568 1130.79 1156.23 1104.03C1156.8 1103.95 1157.18 1103.9 1157.75 1103.82C1332.64 1079.61 1344.87 1047.08 1358.91 1009.46C1368.67 983.059 1379.83 953.142 1453.19 921.069C1516.67 893.399 1593.71 878.846 1668.37 864.81C1766.09 846.349 1866.99 827.354 1935.96 778.714C1990.97 739.881 2009.92 698.829 2028.38 659.173C2051.82 608.863 2073.87 561.31 2164.44 519.452C2283.8 464.311 2465.17 435.411 2640.72 407.411C2735.9 392.243 2826.02 377.872 2905.41 359.671C3038.32 329.318 3157.37 293.008 3272.62 257.982C3457.04 201.901 3631.18 149.046 3854.04 119.147C4206.4 72.176 4594.71 86.27 4970.42 99.9268C5018.21 101.662 5066.43 103.433 5114.97 105.063L5112.29 99.9307C5065.21 98.3825 5018.41 96.6051 4971.9 94.9783C4595.34 81.2493 4205.98 67.1094 3851.92 114.316C3847.56 114.919 3843.4 115.495 3839.05 116.098C3620.81 146.305 3449 198.554 3267.38 253.774C3152.5 288.747 3033.6 324.942 2901.39 355.102C2822.53 373.136 2732.98 387.429 2637.99 402.57C2461.3 430.727 2278.66 459.9 2157.49 515.86C2064.49 558.907 2042.02 607.184 2018.14 658.218C2000.01 697.353 1981.03 737.937 1927.2 775.941C1860.37 823.241 1765.4 841.132 1664.88 860.074C1589.32 874.329 1511.15 889.04 1446.19 917.388C1369.99 950.615 1358.53 981.521 1348.39 1008.73C1334.4 1046.06 1323.47 1075.66 1155.21 1098.95C1154.64 1099.03 1154.26 1099.08 1153.69 1099.16C961.486 1125.58 754.797 1105.23 554.761 1085.57C454.436 1075.73 350.855 1065.49 252.302 1061.77C70.8741 1054.81 -107.429 1059.66 -279.967 1064.28C-342.819 1065.96 -406.286 1067.63 -470.409 1068.82L-467.82 1073.77C-404.69 1072.63 -342.027 1070.97 -279.978 1069.31Z" fill="url(#paint18_linear_1_37)"/>
<path d="M-241.693 1101.82C-68.2508 1096.6 111.004 1091.24 290.704 1096.45C383.222 1099.11 480.824 1107.61 583.946 1116.59C796.138 1135.04 1015.45 1154.31 1211.87 1123.51C1395.22 1094.91 1407.44 1063.52 1421.37 1027.24C1431.06 1002.27 1441.83 973.926 1513.31 941.355C1577.04 912.226 1655.18 896.287 1730.9 880.776C1828.45 860.821 1929.13 840.243 1997.39 791.416C2051.46 752.714 2067.19 712.107 2082.43 672.897C2101.37 624.065 2119.29 577.936 2206.36 536.753C2326.3 480.013 2512.82 451.254 2693.33 423.421C2786.51 409.099 2874.59 395.484 2952.12 378.395C3083.75 349.453 3201.93 314.212 3316.46 280.14C3496.7 226.535 3667.08 175.814 3882.35 148.483C4235.78 103.547 4624.06 120.302 4999.69 136.532C5044.32 138.421 5089.18 140.372 5134.37 142.182L5131.69 137.049C5087.91 135.233 5044.33 133.39 5001.12 131.495C4624.69 115.282 4235.36 98.4807 3880.19 143.564C3871.06 144.733 3861.92 145.902 3852.84 147.159C3648.61 175.428 3484.54 224.233 3311.36 275.816C3197.16 309.748 3079.12 344.874 2948.26 373.711C2871.43 390.608 2783.55 404.196 2690.74 418.466C2509.09 446.455 2321.06 475.424 2199.36 533.072C2109.87 575.444 2091.75 622.359 2072.42 672.004C2057.33 710.72 2041.94 750.806 1989.01 788.59C1922.7 836.103 1827.9 855.489 1727.41 876.041C1650.93 891.656 1571.71 907.841 1506.5 937.647C1432.41 971.435 1421.25 1000.59 1411.22 1026.46C1397.39 1062.54 1386.29 1091.02 1209.14 1118.67C1202.75 1119.65 1196.36 1120.63 1189.92 1121.52C1001.22 1147.64 790.535 1129.36 586.413 1111.59C482.866 1102.59 385.076 1094.11 291.897 1091.35C111.583 1086.13 -68.0509 1091.55 -241.729 1096.7C-311.484 1098.77 -381.806 1100.91 -452.877 1102.4L-450.289 1107.35C-380.164 1106 -310.645 1103.87 -241.693 1101.82Z" fill="url(#paint19_linear_1_37)"/>
<path d="M-214.525 1132.74C-38.0444 1126.34 144.581 1119.66 327.651 1123.55C421.264 1125.58 519.727 1133.02 623.856 1140.81C841.883 1157.22 1066.99 1174.36 1268.01 1141.88C1457.43 1111.3 1469.88 1080.35 1484.61 1044.44C1494.53 1019.91 1505.81 992.16 1576.02 959.099C1639.86 929.007 1718.72 911.734 1795.07 895.093C1892.54 873.82 1993.47 851.784 2061.26 802.832C2114.57 764.235 2127.46 724.021 2139.82 685.115C2154.96 637.567 2169.23 592.608 2253.37 552.021C2373.32 494.14 2564.14 465.83 2748.56 438.5C2839.94 424.997 2926.03 412.227 3001.47 396.186C3131.75 368.568 3248.84 334.713 3362.27 302.027C3539.64 250.716 3707.35 202.262 3919.2 176.923C4272.78 134.623 4659.01 154.035 5032.3 172.772C5072.53 174.795 5113.13 176.765 5153.78 178.824L5151.1 173.691C5111.96 171.803 5072.77 169.826 5034.01 167.886C4659.63 149.015 4272.56 129.53 3917.13 172.181C3902.04 173.985 3887.41 175.914 3872.84 177.932C3679.97 204.629 3522.88 250.095 3357.26 297.88C3244.21 330.514 3127.5 364.317 2997.74 391.768C2922.82 407.642 2836.92 420.385 2745.92 433.836C2559.98 461.376 2367.85 489.869 2246.13 548.658C2159.43 590.549 2144.23 638.388 2129.43 684.655C2117.18 722.978 2104.62 762.671 2052.6 800.236C1986.62 847.988 1891.65 868.629 1791.29 890.587C1714.04 907.447 1634.24 924.851 1569.16 955.684C1496.57 990.022 1485.1 1018.56 1474.74 1043.81C1460.3 1079.49 1448.82 1107.65 1265.6 1137.28C1067.33 1169.19 843.404 1152.36 626.605 1135.97C522.241 1128.11 423.541 1120.62 329.315 1118.57C145.584 1114.59 -37.2298 1121.3 -214.089 1127.75C-286.969 1130.43 -360.888 1133.08 -435.177 1135.01L-432.589 1139.96C-359.763 1137.95 -286.648 1135.32 -214.525 1132.74Z" fill="url(#paint20_linear_1_37)"/>
<path d="M-186.438 1163.25C-6.82288 1155.47 178.794 1147.52 364.999 1150.03C459.849 1151.32 559.175 1157.69 664.403 1164.47C887.887 1178.89 1119.11 1193.76 1324.07 1159.51C1519.52 1126.86 1532.23 1097.58 1548.16 1060.46C1558.55 1036.43 1570.44 1009.07 1639.52 975.41C1703.42 944.266 1782.95 925.951 1860.12 908.153C1957.56 885.651 2058.5 862.475 2126.01 813.372C2178.94 774.827 2188.99 735.006 2198.7 696.466C2210.38 650.061 2221.43 606.308 2303.15 566.15C2423.35 507.191 2618.74 479.481 2807.88 452.636C2896.33 440.109 2979.85 428.264 3052.58 413.641C3182.43 387.508 3300.06 354.714 3413.58 322.966C3587.9 274.355 3752.46 228.424 3956.77 204.982C4307.98 164.719 4692.33 187.144 5063.88 208.777C5099.9 210.908 5136.07 212.924 5172.28 215.028L5169.55 209.807C5134.81 207.785 5100.1 205.851 5065.55 203.803C4692.95 182.123 4307.75 159.627 3954.61 200.063C3935.83 202.188 3917.57 204.526 3899.59 207.015C3718.83 232.035 3567.73 274.205 3408.48 318.643C3295.11 350.276 3178.04 382.992 3048.72 408.958C2976.55 423.501 2893.22 435.321 2805.15 447.796C2614.69 474.824 2417.78 502.743 2295.68 562.725C2211.34 604.098 2199.6 650.795 2188.12 696.033C2178.52 733.989 2168.57 773.226 2117.11 810.713C2051.37 858.528 1956.25 880.424 1855.73 903.637C1777.81 921.539 1697.23 940.189 1632 971.896C1560.64 1006.63 1548.55 1034.78 1537.73 1059.53C1522.34 1094.96 1510.21 1123.02 1320.73 1154.66C1118.75 1188.4 888.419 1173.7 666.02 1159.41C560.604 1152.65 460.852 1146.25 365.577 1144.92C178.569 1142.43 -7.42586 1150.43 -187.276 1158.15C-263.896 1161.45 -341.13 1164.74 -419.348 1167.31L-416.805 1172.18C-339.063 1169.86 -262.444 1166.56 -186.438 1163.25Z" fill="url(#paint21_linear_1_37)"/>
<path d="M-180.909 1193.28C8.65002 1183.55 204.497 1173.43 402.702 1175.98C491.601 1177.15 585.701 1182.05 685.655 1187.29C923.76 1199.78 1170.18 1212.65 1380.55 1176.31C1581.97 1141.51 1595.68 1112.19 1612.88 1075.17C1624.02 1051.43 1636.52 1024.46 1704.75 990.339C1768.81 958.32 1849.2 938.936 1927.09 920.185C2024.63 896.719 2125.4 872.429 2192.68 823.263C2245.42 784.744 2253.15 745.149 2260.4 706.95C2269 661.636 2277.29 618.833 2356.88 579.254C2476.72 519.587 2675.26 492.864 2867.13 466.97C2953.77 455.262 3035.53 444.324 3106.32 430.635C3234.87 405.915 3350.79 374.497 3462.83 344.187C3633.91 297.922 3795.52 254.108 3996.03 232.711C4346.68 195.276 4727.83 220.516 5096.38 244.938C5127.92 247.026 5159.45 249.113 5191.17 251.174L5188.45 245.953C5158.38 243.948 5128.16 242.057 5098.28 240.026C4728.69 215.558 4346.69 190.246 3994.1 227.854C3969.5 230.499 3945.47 233.447 3922 236.695C3752.41 260.17 3608.72 299.037 3457.96 339.926C3346.12 370.21 3230.53 401.487 3102.73 426.103C3032.47 439.624 2950.94 450.625 2864.68 462.28C2671.25 488.296 2471.24 515.316 2349.31 576.032C2267.2 617.003 2258.36 662.635 2250.01 706.87C2242.86 744.486 2235.37 783.383 2184.11 820.844C2118.26 868.862 2023.42 891.669 1922.84 915.934C1844.24 934.879 1762.76 954.508 1697.42 987.179C1627.09 1022.34 1614.16 1050.04 1602.78 1074.48C1586.21 1109.99 1573.22 1137.97 1377.58 1171.79C1169.67 1207.78 924.478 1194.94 687.6 1182.47C587.646 1177.23 493.122 1172.28 403.844 1171.17C205.025 1168.61 8.75256 1178.7 -181.185 1188.48C-254.125 1192.22 -327.869 1195.97 -402.171 1199.04L-399.583 1204C-326.366 1200.79 -253.236 1197.03 -180.909 1193.28Z" fill="url(#paint22_linear_1_37)"/>
<path d="M-151.799 1223.46C40.4244 1212.22 238.981 1200.68 440.372 1201.56C530.508 1201.98 626.132 1205.92 727.231 1210.24C970.465 1220.51 1222.15 1231.03 1436.33 1192.65C1643.83 1155.48 1658.53 1126.12 1677.29 1088.99C1689.13 1065.43 1702.58 1038.7 1770.16 1004.11C1834.41 971.304 1915.9 950.914 1994.74 931.272C2092.44 906.931 2193.55 881.739 2260.02 832.589C2326.68 783.414 2321.96 750.287 2317.37 718.186C2312.13 681.716 2307.33 647.271 2412.95 591.469C2531.83 528.803 2732.28 504.188 2926.3 480.463C3011.56 469.991 3092.08 460.173 3161.53 447.428C3288.42 424.172 3402.81 394.105 3513.51 365.118C3681.3 321.111 3839.82 279.528 4036.67 260.061C4386.43 225.595 4764.01 253.702 5129.18 280.966C5155.99 282.948 5183.04 284.992 5210.04 286.948L5207.26 281.639C5181.92 279.739 5156.57 277.839 5131.27 276.027C4765.06 248.718 4386.4 220.476 4034.93 255.178C4004.23 258.193 3974.62 261.723 3945.66 265.731C3787.04 287.687 3651.23 323.376 3508.6 360.769C3398.28 389.703 3284.22 419.629 3158.09 442.781C3089.21 455.447 3009.06 465.212 2924.19 475.632C2737.83 498.486 2526.45 524.329 2405.33 588.159C2296.48 645.546 2301.46 681.105 2306.88 718.689C2311.39 749.853 2315.88 782.158 2251.31 829.905C2186.41 877.792 2091.27 901.589 1990.31 926.666C1910.57 946.529 1828.13 967.05 1762.64 1000.6C1693.11 1036.12 1679.23 1063.57 1666.95 1087.85C1649.01 1123.45 1634.71 1151.62 1432.79 1187.83C1220.65 1225.83 970.573 1215.27 728.424 1205.14C627.135 1200.85 531.465 1196.82 440.761 1196.47C238.757 1195.59 39.6317 1207.21 -152.781 1218.47C-229.603 1222.94 -307.419 1227.44 -385.983 1231.3L-383.441 1236.16C-305.255 1232.36 -228.243 1227.87 -151.799 1223.46Z" fill="url(#paint23_linear_1_37)"/>
<path d="M-91.2921 1253.37C93.4753 1241.46 284.531 1229.15 478.261 1226.63C580.844 1225.24 686.36 1227.53 798.207 1229.88C1034.84 1234.9 1279.13 1240.18 1491.29 1208.44C1630 1187.62 1679.47 1142.44 1731.8 1094.58C1760.5 1068.31 1790.34 1041.13 1836.45 1016.71C1900.24 983.023 1983.11 961.778 2063.14 941.306C2161.09 916.267 2262.25 890.403 2328.44 841.483C2395.53 791.963 2389.06 758.983 2382.95 727.092C2376.09 691.414 2369.44 657.7 2472.02 603.078C2590.2 540.225 2801.47 516.105 2987.95 494.657C3071.64 485.067 3150.54 476.042 3218.62 464.152C3343.97 442.246 3456.51 413.669 3565.44 385.971C3729.72 344.159 3885.09 304.719 4078.14 287.296C4426.64 255.852 4800.32 286.968 5161.86 317.01C5183.95 318.887 5206.22 320.738 5228.46 322.5L5225.68 317.19C5205.1 315.484 5184.52 313.778 5164.14 312.045C4801.7 281.842 4426.99 250.681 4076.73 282.272C4040.08 285.543 4004.88 289.655 3970.81 294.371C3823.18 314.807 3695.05 347.344 3561.05 381.454C3452.5 409.1 3340.15 437.651 3215.51 459.364C3148.19 471.149 3069.47 480.147 2986.17 489.686C2798.12 511.255 2585.15 535.61 2464.6 599.741C2358.64 656.064 2365.42 690.804 2372.7 727.658C2378.76 758.701 2384.96 790.769 2319.92 838.772C2255.3 886.431 2159.92 910.925 2058.75 936.79C1977.82 957.481 1894.05 978.945 1828.97 1013.29C1781.87 1038.12 1751.79 1065.63 1722.85 1092.22C1671.62 1139.07 1623.11 1183.36 1488.89 1203.46C1278.67 1235.02 1035 1229.75 799.542 1224.67C687.696 1222.31 581.99 1220.05 478.793 1221.43C284.495 1224.04 93.0154 1236.31 -91.9408 1248.24C-182.859 1254.09 -274.77 1259.98 -367.849 1264.8L-365.307 1269.67C-273.128 1265.07 -181.642 1259.14 -91.2921 1253.37Z" fill="url(#paint24_linear_1_37)"/>
<path d="M-60.5499 1282.66C126.503 1269.29 319.986 1255.42 516.287 1251.21C620.44 1248.94 727.29 1250.28 840.614 1251.58C1081.62 1254.47 1331.18 1257.4 1546.34 1223.64C1687.76 1201.4 1741.02 1154.94 1797.48 1105.65C1827.31 1079.61 1858.14 1052.76 1903.4 1028.27C1967.39 993.795 2051.17 971.95 2132.25 950.763C2230.1 925.168 2331.56 898.694 2397.7 850.065C2465.5 800.352 2457.66 767.467 2450.18 735.67C2441.84 700.671 2434.05 667.494 2534.03 614.087C2651.44 551.339 2863.93 528.759 3051.24 508.904C3133.55 500.169 3211.22 491.885 3277.72 480.876C3401.41 460.435 3512.18 433.146 3619.35 406.735C3780.11 367.119 3932.1 329.759 4121.3 314.293C4468.02 286.037 4837.55 320.099 5195.1 352.973C5212.37 354.567 5229.88 356.224 5247.34 357.792L5244.52 352.394C5228.76 350.97 5213.18 349.52 5197.61 348.07C4839.17 315.036 4468.79 280.902 4120.13 309.331C4077.71 312.83 4037.03 317.323 3997.85 322.746C3860.81 341.714 3740.71 371.339 3614.96 402.218C3508.12 428.489 3397.73 455.725 3274.8 476.062C3208.86 486.991 3131.53 495.134 3049.65 503.906C2860.63 523.997 2646.39 546.724 2526.6 610.75C2423.49 665.92 2431.6 700.096 2440.16 736.298C2447.6 767.246 2455.12 799.132 2389.6 847.39C2324.94 894.96 2224.91 921.048 2128.1 946.309C2046.12 967.715 1961.29 989.894 1896.21 1025C1850.14 1049.88 1819.07 1077.05 1788.96 1103.32C1733.6 1151.6 1681.53 1197.24 1544.22 1218.8C1330.77 1252.34 1082.2 1249.36 842.186 1246.43C733.728 1245.12 621.586 1243.75 517.244 1246.05C320.375 1250.33 126.656 1264.15 -60.7744 1277.57C-156.051 1284.4 -252.698 1291.32 -350.417 1296.97L-347.875 1301.84C-251.481 1296.37 -155.401 1289.52 -60.5499 1282.66Z" fill="url(#paint25_linear_1_37)"/>
<path d="M-29.7114 1311.85C159.581 1296.94 355.304 1281.52 553.941 1275.56C659.852 1272.38 768.416 1272.73 883.263 1273.06C1128.22 1273.79 1381.39 1274.71 1600.26 1238.72C1744.59 1215.04 1801.74 1167.08 1862.28 1116.29C1893.05 1090.49 1924.96 1063.77 1969.61 1039.28C2033.84 1004.1 2118.72 981.633 2200.89 959.821C2298.94 933.819 2400.21 906.991 2466.67 858.601C2535.19 808.694 2526.31 775.763 2517.84 744.008C2508.55 709.52 2499.67 676.969 2597.17 624.663C2713.73 562.222 2926.57 541.491 3114.3 523.193C3195.22 515.313 3271.89 507.831 3337.02 497.678C3459.18 478.587 3568.04 452.7 3673.5 427.666C3830.21 390.411 3978.12 355.326 4164.52 341.102C4510.6 314.737 4878.58 352.43 5234.57 388.935C5244.67 390.004 5254.72 390.985 5264.82 392.055L5261.95 386.568C5253.79 385.706 5245.44 384.869 5237.28 384.006C4880.43 347.429 4511.37 309.602 4163.35 336.14C4115.92 339.763 4070.98 344.655 4027.63 350.654C3899.49 368.392 3786.84 395.182 3669.11 423.149C3564.22 448.105 3455.69 473.851 3334.1 492.864C3269.54 502.938 3193.25 510.367 3112.56 518.31C2923.08 536.755 2708.54 557.722 2589.41 621.467C2488.54 675.474 2497.6 709.139 2507.29 744.804C2515.73 775.71 2524.29 807.641 2457.96 855.916C2392.98 903.247 2292.94 929.715 2196.12 955.357C2113.24 977.362 2027.27 1000.08 1961.8 1035.99C1916.35 1060.88 1884.15 1087.83 1853.09 1113.86C1793.7 1163.74 1737.31 1210.83 1597.11 1233.84C1380.51 1269.51 1127.95 1268.6 883.796 1267.86C773.815 1267.52 659.96 1267.15 553.67 1270.38C354.418 1276.32 158.317 1291.8 -31.1638 1306.73C-130.987 1314.57 -232.136 1322.59 -334.638 1329.19L-332.096 1334.06C-229.926 1327.6 -129.11 1319.72 -29.7114 1311.85Z" fill="url(#paint26_linear_1_37)"/>
<path d="M1.44579 1340.88C192.788 1324.46 390.514 1307.43 591.534 1299.82C699.204 1295.73 814.771 1295.11 926.701 1294.51C1175.08 1293.25 1431.92 1291.86 1653.42 1253.89C1800.54 1228.59 1861.97 1179.1 1926.96 1126.74C1958.82 1101.07 1991.77 1074.4 2036.37 1049.82C2100.94 1014.12 2186.96 991.115 2270.13 968.88C2368.09 942.701 2469.41 915.582 2536.25 867.52C2605.9 817.456 2596.21 784.54 2586.9 752.713C2576.8 718.622 2567.34 686.529 2663.04 635.422C2778.89 573.554 2991.33 554.777 3178.75 538.229C3258.67 531.151 3334.2 524.588 3398.23 515.06C3518.67 497.345 3625.59 472.772 3729.05 448.963C3882 413.842 4026.58 380.546 4209.37 368.34C4553.1 345.242 4916.37 385.96 5267.56 425.313C5272.75 425.923 5278.13 426.507 5283.32 427.117L5280.45 421.63C5277.01 421.253 5273.75 420.85 5270.31 420.473C4918.08 381.074 4553.92 340.195 4208.2 363.377C4154.67 366.99 4104.68 372.298 4056.6 378.953C3938.87 395.249 3833.94 419.356 3724.66 444.447C3621.53 468.115 3515.18 492.609 3395.31 510.246C3331.8 519.606 3256.7 526.205 3176.96 533.257C2987.79 549.952 2773.41 568.903 2654.85 632.19C2555.79 684.997 2565.7 718.355 2576.16 753.535C2585.21 784.451 2594.57 816.366 2527.35 864.861C2461.99 911.864 2361.9 938.624 2265.03 964.557C2180.96 987.012 2094.28 1010.3 2028.24 1046.68C1983.02 1071.63 1949.92 1098.41 1917.78 1124.31C1853.97 1175.84 1793.55 1224.53 1650.12 1249.13C1430.51 1286.84 1174.67 1288.18 927.091 1289.43C815.161 1290.03 699.358 1290.59 591.308 1294.73C389.721 1302.42 191.805 1319.47 0.273894 1335.92C-104.24 1344.88 -210.126 1353.94 -317.365 1361.57L-314.822 1366.44C-208.197 1358.8 -102.69 1349.79 1.44579 1340.88Z" fill="url(#paint27_linear_1_37)"/>
<path d="M32.501 1369.66C225.657 1351.65 425.434 1333.11 628.554 1323.69C738.362 1318.64 856.067 1317.06 969.992 1315.62C1221.37 1312.33 1481.21 1308.91 1704.86 1268.84C1854.79 1241.92 1920.49 1190.88 1990.09 1136.84C2023.12 1111.11 2057.35 1084.54 2101.91 1059.87C2167.19 1023.6 2254.25 1000.26 2338.42 977.604C2436.33 951.336 2537.75 924.013 2605.06 876.456C2675.6 826.552 2664.37 792.998 2653.54 760.62C2642.17 726.419 2631.21 694.156 2729.65 645.989C2854.61 584.853 3046.37 569.603 3231.69 554.864C3312.74 548.389 3389.54 542.314 3459.76 532.594C3578.44 516.167 3683.36 492.82 3784.82 470.236C3934.07 436.956 4074.99 405.59 4254.45 395.172C4595.69 375.457 4953.77 419.075 5299.97 461.302C5300.4 461.338 5300.82 461.374 5301.29 461.498L5298.38 455.923C4952.65 413.821 4595.32 370.479 4253.7 390.246C4194.61 393.682 4139.5 399.317 4087.07 406.574C3978.99 421.534 3881.89 443.135 3780.81 465.667C3679.73 488.198 3575.38 511.467 3457.27 527.815C3387.42 537.483 3311.24 543.568 3230.38 550.016C3043.3 564.903 2849.8 580.3 2722.27 642.741C2619.93 692.775 2631.17 726.33 2643.18 761.769C2653.73 793.236 2664.65 825.791 2596.48 874.036C2530.51 920.65 2430.47 947.497 2333.65 973.52C2248.58 996.397 2160.81 1019.93 2094.29 1056.94C2049.11 1081.98 2014.79 1108.75 1981.42 1134.62C1913.01 1187.84 1848.36 1238.16 1701.93 1264.41C1479.94 1304.15 1221.14 1307.61 970.755 1310.86C856.641 1312.33 738.7 1313.85 628.56 1319.04C424.826 1328.45 224.906 1347.11 31.5147 1365.05C-77.644 1375.23 -188.174 1385.5 -300.339 1394.19L-297.843 1398.97C-186.43 1390 -76.2792 1379.78 32.501 1369.66Z" fill="url(#paint28_linear_1_37)"/>
<path d="M42.135 1399.31C243.822 1378.98 452.416 1357.89 665.185 1347.51C771.452 1342.29 884.283 1341.48 1003.92 1340.48C1270.97 1338.43 1547.1 1336.27 1755.53 1283.79C1905.12 1246.1 1966.95 1202.43 2038.73 1151.79C2075.17 1125.96 2112.99 1099.28 2166.48 1069.58C2232.53 1032.82 2320.68 1009.24 2405.75 986.359C2503.66 960.092 2604.94 932.883 2673.04 885.69C2745.19 835.753 2733.82 801.933 2722.81 769.201C2711.35 735.204 2700.71 703.18 2797.44 656.39C2924.29 594.991 3120.18 581.446 3309.45 568.437C3385.06 563.191 3456.6 558.318 3521.65 550.358C3635.86 536.637 3743.23 513.71 3847 491.66C3988.56 461.532 4134.72 430.484 4299.89 421.855C4631.6 404.882 4980.69 450.314 5318.73 495.189L5315.77 489.525C4978.68 444.9 4631 399.841 4299.43 417.08C4241.89 420.014 4186.65 425.763 4133.27 433.152C4031.81 447.195 3936.47 467.508 3843.27 487.242C3739.88 509.239 3633.03 531.999 3519.63 545.704C3455.09 553.497 3383.79 558.432 3308.57 563.626C3117.54 576.782 2919.9 590.475 2790.25 653.115C2689.62 701.773 2700.72 735.063 2712.45 770.351C2723.14 802.083 2734.01 834.93 2664.38 883.093C2597.75 929.228 2497.71 956.076 2400.88 982.098C2314.92 1005.2 2225.91 1029.09 2158.58 1066.5C2104.61 1096.46 2065.03 1124.43 2029.88 1149.22C1956 1201.29 1897.74 1242.47 1750.81 1279.42C1544.51 1331.32 1269.8 1333.47 1004.17 1335.51C884.483 1336.42 771.274 1337.29 664.629 1342.56C451.245 1352.93 242.462 1374.04 40.3958 1394.42C-66.408 1405.22 -174.584 1416.11 -284.348 1425.52L-281.851 1430.3C-172.277 1420.92 -64.4795 1410.08 42.135 1399.31Z" fill="url(#paint29_linear_1_37)"/>
<path d="M72.2088 1428.12C275.899 1406.19 486.307 1383.52 701.223 1371.42C809.248 1365.29 924.216 1363.52 1046.04 1361.65C1315.24 1357.5 1593.75 1353.3 1803.81 1299.27C1955.73 1260.21 2022.4 1214.55 2099.55 1161.74C2137.55 1135.79 2176.69 1108.93 2230.09 1079.43C2297.18 1042.34 2386.23 1018.53 2472.29 995.61C2570.1 969.545 2671.28 942.54 2740.28 895.887C2814.23 845.892 2802.5 810.223 2792.33 778.704C2781.33 744.832 2770.93 712.87 2866.41 667.58C2992.4 607.63 3185.95 596.211 3373.22 585.189C3448.43 580.755 3519.49 576.518 3584.11 569.282C3696.09 556.724 3801.46 535.022 3903.13 514.021C4041.28 485.506 4184.2 456.044 4346 449.115C4669.93 435.497 5008.28 482.132 5336.42 529.04L5333.47 523.377C5006.45 476.691 4669.37 430.545 4345.92 444.288C4182.51 451.249 4038.68 480.93 3899.78 509.551C3798.44 530.411 3693.83 552.008 3582.66 564.549C3518.6 571.707 3447.73 575.918 3372.89 580.299C3276.21 585.995 3177.97 591.812 3087.68 604.31C3001.37 616.257 2922.5 634.291 2859.6 664.253C2760.27 711.499 2770.89 744.663 2782.34 779.801C2792.79 811.851 2803.42 845.016 2732.18 893.212C2664.66 938.806 2564.57 965.566 2467.85 991.385C2380.93 1014.61 2290.94 1038.55 2222.61 1076.38C2168.74 1106.14 2129.4 1133.03 2091.26 1159.09C2014.83 1211.33 1948.92 1256.51 1799.32 1294.96C1591.59 1348.38 1314.3 1352.6 1046.28 1356.68C924.274 1358.58 809.07 1360.29 700.666 1366.47C485.182 1378.64 274.396 1401.37 70.5163 1423.33C-40.5529 1435.28 -152.994 1447.34 -267.259 1457.84L-264.763 1462.62C-150.876 1452.17 -38.4356 1440.12 72.2088 1428.12Z" fill="url(#paint30_linear_1_37)"/>
<path d="M105.685 1456.85C310.007 1433.41 521.19 1409.12 736.599 1395.24C846.761 1388.15 963.959 1385.6 1088.15 1382.83C1359.03 1376.84 1639.27 1370.5 1850.1 1315.22C2003.78 1274.88 2075.19 1227.42 2157.89 1172.41C2197.36 1146.17 2238.16 1118.98 2292.17 1089.49C2360.69 1052.02 2450.59 1028.28 2537.64 1005.32C2635.4 979.544 2736.34 952.857 2806.32 906.922C2882.16 857.045 2871.38 820.865 2861.59 788.914C2850.9 753.671 2841.66 723.161 2936.23 679.231C3061.49 620.995 3252.28 611.667 3436.78 602.735C3511.8 599.089 3582.66 595.638 3647.18 588.985C3757.15 577.653 3860.2 556.937 3959.78 536.985C4094.84 509.941 4234.3 482.002 4392.72 476.774C4708.49 466.184 5035.87 513.958 5353.97 562.635L5350.92 556.794C5033.95 508.34 4707.89 461.143 4392.64 471.566C4232.42 476.853 4091.87 505.037 3956.29 532.249C3857.09 552.149 3754.56 572.697 3645.58 583.987C3581.67 590.65 3511.19 594.048 3436.36 597.669C3336 602.545 3233.66 607.507 3140.72 620.371C3061.23 631.375 2988.42 648.19 2929.28 675.639C2830.81 721.436 2840.82 754.591 2851.47 789.745C2861.35 822.254 2871.36 855.789 2798.09 903.982C2729.49 949.061 2629.59 975.414 2533.06 1000.83C2445.11 1024.01 2354.12 1047.99 2284.56 1086.18C2230.26 1115.9 2189.27 1143.11 2149.66 1169.47C2067.86 1223.88 1997.02 1270.88 1845.66 1310.62C1637.01 1365.4 1358.14 1371.65 1088.49 1377.66C964.113 1380.45 846.536 1383.06 735.995 1390.2C519.972 1404.06 308.412 1428.41 103.9 1451.88C-12.3347 1465.22 -130.274 1478.79 -250.175 1490.55L-247.679 1495.33C-128.11 1483.71 -10.361 1470.17 105.685 1456.85Z" fill="url(#paint31_linear_1_37)"/>
<path d="M135.093 1485.58C341.04 1460.58 553.847 1434.73 771.402 1419.14C881.339 1411.23 996.107 1406.35 1117.44 1401.23C1386.5 1389.8 1664.91 1378.02 1893.97 1331.6C2049.63 1300.1 2134.11 1242.28 2223.35 1181.16C2263.26 1153.81 2304.54 1125.6 2352.7 1099.68C2423.11 1061.94 2513.9 1038.36 2601.66 1015.59C2699.04 990.247 2799.84 964.054 2871.13 918.696C2949.24 868.885 2939.41 832.194 2930.62 799.819C2921.06 764.419 2912.81 733.867 3006.52 691.385C3130.71 635.004 3318.17 627.846 3499.48 620.968C3574.49 618.082 3645.58 615.454 3709.95 609.296C3817.84 599.012 3918.74 579.256 4016.19 560.264C4147.88 534.54 4284.16 507.896 4439.73 504.201C4746.91 496.983 5063.6 545.667 5371.39 595.962L5368.34 590.122C5061.68 540.049 4746.59 492.093 4439.79 499.259C4282.42 503.012 4145.38 529.762 4012.8 555.705C3915.77 574.734 3815.58 594.296 3708.45 604.474C3644.64 610.554 3573.98 613.218 3499.16 616.078C3395.65 619.968 3290.01 624.057 3194.8 637.236C3121.73 647.349 3054.75 662.884 2999.42 687.907C2901.82 732.257 2910.65 765.48 2920.31 800.677C2929.23 833.697 2938.48 867.717 2862.95 915.844C2793.22 960.321 2697.92 984.993 2597.13 1011.19C2508.47 1034.18 2416.63 1058.09 2345.13 1096.45C2296.31 1122.66 2254.88 1150.98 2214.83 1178.45C2126.49 1238.97 2043.06 1296.07 1890.38 1327.07C1662.98 1373.16 1385.56 1384.9 1117.31 1396.31C995.595 1401.49 880.828 1406.36 770.467 1414.24C552.487 1429.8 339.3 1455.7 133.164 1480.72C12.8988 1495.28 -109.07 1510.08 -233.238 1522.99L-230.741 1527.77C-106.953 1514.91 14.8732 1500.23 135.093 1485.58Z" fill="url(#paint32_linear_1_37)"/>
<path d="M163.938 1514.38C371.321 1487.86 585.753 1460.45 805.122 1443.28C917.242 1434.5 1034.85 1428.84 1158.99 1422.86C1428.29 1409.97 1707.05 1396.53 1935.8 1348.74C2093.13 1315.76 2181.64 1256.73 2275.25 1194.24C2317.19 1166.13 2360.71 1137.15 2411.14 1110.52C2483.06 1072.58 2574.99 1049.22 2663.88 1026.67C2761.16 1001.91 2861.71 976.42 2934.04 931.868C3014.64 882.185 3006.29 844.815 2998.64 811.903C2990.45 776.409 2983.53 745.673 3076.6 704.702C3196.74 651.824 3373.82 646.955 3545.29 642.2C3626.1 639.934 3702.33 637.828 3772.43 630.972C3879.8 620.475 3975.77 602.161 4068.39 584.407C4202.58 558.811 4329.15 534.555 4486.5 532.323C4785.28 528.069 5091.1 577.309 5388.67 629.02L5385.57 623.091C5089.18 571.692 4785.05 522.976 4487.08 527.213C4327.69 529.442 4200.18 553.83 4065.09 579.645C3972.81 597.258 3877.4 615.494 3771.02 625.948C3701.73 632.787 3625.88 634.841 3545.44 637.055C3443.4 639.886 3339.34 642.714 3245.83 655.657C3180.53 664.696 3120.41 678.615 3069.93 700.88C2972.73 743.656 2980.23 777.063 2988.38 812.469C2995.97 846.053 3003.94 880.725 2925.9 928.724C2854.95 972.421 2759.95 996.483 2659.26 1022.09C2569.46 1044.86 2476.64 1068.44 2403.48 1107.12C2352.57 1134 2308.91 1163.11 2266.63 1191.35C2173.93 1253.24 2086.37 1311.76 1931.93 1344.05C1704.7 1391.64 1427.08 1404.92 1158.39 1417.82C1033.83 1423.77 916.214 1429.42 803.715 1438.25C583.967 1455.48 369.157 1482.94 161.396 1509.51C37.3356 1525.35 -88.6169 1541.46 -216.672 1555.48L-214.176 1560.26C-85.8851 1546.3 39.8783 1530.22 163.938 1514.38Z" fill="url(#paint33_linear_1_37)"/>
<path d="M192.03 1543.28C400.893 1515.32 616.949 1486.37 837.897 1467.55C952.343 1457.78 1072.42 1451.41 1199.44 1444.74C1468.67 1430.53 1747.12 1415.71 1975.12 1366.5C2133.98 1332.18 2226.33 1271.95 2324.25 1208.01C2368.57 1179.01 2414.65 1149.09 2467.36 1121.78C2540.7 1083.82 2633.66 1060.9 2723.54 1038.68C2820.81 1014.68 2921.26 989.774 2995.23 946.038C3078.81 896.607 3071.88 858.471 3065.89 824.855C3059.55 789.01 3053.95 758.09 3147.01 718.64C3266.13 668.086 3438.8 665.252 3605.84 662.532C3687.16 661.239 3764.05 659.991 3834.94 653.499C3940.93 643.858 4034.63 626.238 4125.35 609.127C4255.99 584.497 4379.23 561.27 4534.35 560.581C4823.5 559.272 5118.45 609.069 5405.89 661.991L5402.75 655.973C5116.72 603.425 4823.33 554.268 4534.4 555.638C4377.3 556.412 4253.11 579.771 4121.53 604.531C4031.38 621.565 3938.2 639.017 3833.2 648.616C3763.25 654.977 3686.8 656.26 3605.85 657.501C3501.99 659.162 3396.14 660.908 3301.49 674.008C3242.06 682.235 3187.2 694.952 3140.2 714.933C3043.2 756.162 3049 789.805 3055.44 825.447C3061.57 859.709 3067.87 895.086 2987.14 942.983C2914.74 985.837 2819.83 1009.32 2719.15 1034.17C2628.37 1056.6 2534.51 1079.74 2459.94 1118.44C2406.89 1145.9 2360.72 1176.01 2316.06 1205.16C2219 1268.41 2127.46 1328.24 1971.3 1361.91C1744.95 1410.79 1467.45 1425.48 1199.03 1439.67C1071.63 1446.39 951.55 1452.77 836.726 1462.59C615.21 1481.48 398.964 1510.47 189.912 1538.45C62.2464 1555.55 -67.1224 1572.89 -199.018 1588.11L-196.521 1592.89C-65.0045 1577.72 64.3641 1560.39 192.03 1543.28Z" fill="url(#paint34_linear_1_37)"/>
<path d="M219.357 1572.29C429.702 1542.89 647.004 1512.43 869.386 1492.09C986.016 1481.45 1108.56 1474.36 1238.43 1466.91C1507.01 1451.47 1784.85 1435.5 2011.5 1385.24C2171.36 1349.74 2267.7 1288.2 2369.89 1223.1C2416.91 1193.05 2465.65 1162.01 2520.82 1133.98C2595.29 1096.24 2689.29 1073.74 2780.06 1052.07C2877.51 1028.81 2978.19 1004.72 3053.47 961.941C3140.02 912.763 3135.32 873.844 3131.37 839.471C3127.07 803.249 3123.36 772.067 3216.36 734.049C3334.32 685.933 3502 685.213 3664.2 684.491C3746.41 684.119 3824.18 683.793 3896.06 677.639C4000.82 668.738 4092.34 651.61 4180.93 635.078C4307.96 611.326 4427.98 588.924 4581.15 589.549C4861.68 590.764 5145.85 640.913 5422.98 694.693L5419.79 688.587C5144.07 635.181 4861.5 585.759 4581.58 584.555C4426.15 583.864 4305.23 606.485 4177.29 630.456C4089.27 646.91 3998.27 663.871 3894.51 672.729C3823.58 678.752 3746.23 679.115 3664.4 679.434C3559.51 679.909 3452.16 680.344 3356.95 693.523C3303.2 700.963 3253.17 712.442 3209.69 730.227C3112.47 769.874 3116.62 803.841 3120.83 839.886C3124.92 874.905 3129.22 911.127 3045.52 958.771C2971.66 1000.78 2876.58 1023.53 2775.67 1047.55C2684 1069.45 2589.1 1092.17 2513.16 1130.58C2457.46 1158.78 2408.77 1189.91 2361.42 1220.09C2260.18 1284.68 2164.75 1345.62 2007.44 1380.59C1782.45 1430.52 1505.41 1446.47 1237.78 1461.78C1107.72 1469.25 984.942 1476.28 867.934 1486.98C644.983 1507.4 427.256 1537.82 216.722 1567.25C85.8296 1585.55 -47.1445 1604.15 -182.549 1620.42L-180.052 1625.2C-44.5097 1609.19 88.4647 1590.6 219.357 1572.29Z" fill="url(#paint35_linear_1_37)"/>
<path d="M245.554 1601.45C457.002 1570.66 675.832 1538.85 899.839 1516.96C1017.05 1505.48 1142.84 1499.17 1276.1 1492.39C1546.83 1478.74 1826.64 1464.59 2040.69 1404.97C2202.98 1359.73 2299.45 1302.35 2401.35 1241.75C2453.11 1211.05 2506.53 1179.27 2571.35 1147.15C2647.14 1109.61 2742.35 1087.89 2834.25 1066.82C2931.07 1044.69 3031.12 1021.73 3107.61 980.493C3197.52 931.895 3196 891.682 3194.56 856.296C3193.05 819.212 3191.77 787.222 3285.17 750.76C3400.54 705.849 3562.95 707.471 3720.02 708.978C3804.91 709.849 3885.27 710.588 3958.85 704.578C4063.74 695.943 4152.29 678.942 4238.04 662.423C4359.78 639.025 4474.84 616.835 4628.17 618.955C4899.65 622.656 5173.37 673.017 5440.15 727.566L5436.92 721.371C5171.6 667.285 4899.66 617.625 4628.84 614.022C4473.29 611.926 4357.28 634.246 4234.26 657.916C4149.03 674.268 4061.06 691.19 3957.35 699.757C3884.76 705.724 3804.97 704.907 3720.5 704.072C3613.98 702.97 3505.04 701.917 3409.08 715.2C3361.76 721.75 3317.65 731.745 3278.55 747.027C3181.07 785.002 3182.41 819.831 3183.97 856.623C3185.45 892.857 3186.9 930.232 3099.86 977.296C3024.98 1017.74 2925.97 1040.37 2830.1 1062.37C2737.25 1083.57 2641.18 1105.6 2563.92 1143.81C2498.78 1176.07 2445.02 1208 2393.31 1238.78C2291.84 1299.04 2196.17 1356.03 2035.63 1400.74C1823.77 1459.86 1545.09 1473.86 1275.59 1487.53C1142.09 1494.24 1016.16 1500.67 898.335 1512.14C673.714 1534.02 454.742 1565.94 242.916 1596.78C109.176 1616.24 -26.6463 1635.99 -165.277 1653.47L-162.781 1658.25C-24.1962 1640.68 111.625 1620.93 245.554 1601.45Z" fill="url(#paint36_linear_1_37)"/>
<path d="M269.044 1630.89C482.445 1598.78 703.37 1565.55 928.905 1542.3C1046.78 1530.16 1171.31 1522.98 1302.97 1515.48C1565.5 1500.49 1837.1 1485.01 2050.53 1426.53C2224.37 1378.93 2330.47 1318.98 2442.65 1255.53C2496.72 1224.99 2552.51 1193.45 2618.64 1161.52C2695.65 1124.39 2790.99 1104.07 2883.11 1084.59C2977.93 1064.44 3075.87 1043.67 3153.05 1004.52C3225.24 967.864 3238.45 924.378 3251.17 882.288C3264.33 839.093 3276.71 798.285 3352.45 769.202C3470.09 723.977 3633.63 730.092 3791.93 735.889C3871.22 738.863 3953.39 741.913 4026.72 738.122C4134.03 732.568 4223.22 712.915 4309.56 694.037C4416.99 670.437 4528.06 646.048 4674.63 649.199C4939 654.834 5201.84 706.131 5457.8 761.325L5454.52 755.042C5200.21 700.284 4939.01 649.803 4675.58 644.038C4526.52 640.758 4414.21 665.508 4305.51 689.379C4220.11 708.127 4131.63 727.586 4026.11 733.081C3953.78 736.83 3875.77 733.964 3793.36 730.852C3680.77 726.698 3565.69 722.416 3465.18 736.328C3422.4 742.25 3382.32 751.402 3346.35 765.301C3267.05 795.731 3254.38 837.529 3241.16 881.775C3228.64 923.079 3215.81 965.752 3145.81 1001.16C3070.06 1039.54 2973.25 1060.15 2879.52 1080.05C2786.51 1099.76 2690.22 1120.2 2611.59 1158.13C2545.12 1190.2 2489.01 1221.88 2434.99 1252.51C2323.42 1315.59 2217.94 1375.17 2045.9 1422.33C1834.42 1480.26 1564 1495.67 1302.46 1510.62C1170.42 1518.17 1045.66 1525.29 927.212 1537.51C700.92 1560.86 479.994 1594.09 266.216 1626.25C130.338 1646.67 -7.7642 1667.49 -148.389 1685.82L-145.894 1690.6C-5.12561 1672.16 133.024 1651.42 269.044 1630.89Z" fill="url(#paint37_linear_1_37)"/>
<path d="M290.69 1660.68C506.467 1627.3 729.535 1592.72 956.741 1568.01C1072.73 1555.37 1195.33 1547.61 1325.21 1539.4C1581.99 1523.12 1847.56 1506.2 2057.37 1449.35C2244.58 1398.58 2365 1333.8 2492.55 1265.19C2545.94 1236.45 2601.09 1206.8 2662.94 1177.17C2740.53 1139.96 2835.98 1121.81 2928.27 1104.2C3021.31 1086.48 3117.52 1068.23 3195.77 1030.35C3271.93 993.523 3289.94 948.33 3307.45 904.532C3325.21 860.037 3341.99 817.954 3419.1 789.157C3535.45 745.723 3696.58 755.778 3852.47 765.515C3934.1 770.632 4018.42 775.852 4094.14 773.152C4205.88 769.073 4292.12 747.268 4375.7 726.209C4474.54 701.331 4576.75 675.512 4721.08 679.826C4979.43 687.528 5231.76 741.23 5476.69 797.475L5473.37 791.103C5230.13 735.383 4979.67 682.559 4722.13 674.841C4574.92 670.451 4471.24 696.568 4370.98 721.833C4288.48 742.646 4203.1 764.144 4093.77 768.174C4019.09 770.919 3935.34 765.621 3854.37 760.602C3738.56 753.383 3620.01 745.974 3517.61 760.149C3480.32 765.31 3445.13 773.313 3413.05 785.344C3332.72 815.347 3315.4 858.358 3297.39 903.932C3280.27 946.916 3262.51 991.411 3188.77 1027.05C3112.09 1064.04 3017.01 1082.14 2925.11 1099.7C2831.69 1117.47 2735.33 1135.84 2655.94 1173.87C2593.75 1203.64 2538.46 1233.4 2485.08 1262.14C2358.19 1330.47 2238.24 1394.99 2052.79 1445.24C1844.78 1501.65 1580.34 1518.42 1324.56 1534.65C1194.49 1542.88 1071.7 1550.67 955.141 1563.39C727.51 1588.07 504.253 1622.67 288.142 1656.19C150.695 1677.49 10.9769 1699.11 -131.172 1718.4L-128.675 1723.18C13.3342 1703.62 153.053 1682 290.69 1660.68Z" fill="url(#paint38_linear_1_37)"/>
<path d="M303.63 1690.92C519.565 1656.28 742.79 1620.45 970.108 1594.4C1088.47 1580.86 1211.75 1571.67 1342.07 1561.99C1589.05 1543.65 1844.25 1524.74 2060.05 1473.52C2259.45 1426.28 2388.47 1357.36 2524.96 1284.48C2580.67 1254.75 2638.43 1223.89 2701.04 1194.92C2779.65 1158.51 2874.94 1142.38 2967.2 1126.66C3059.66 1110.93 3155.09 1094.68 3234.74 1058.32C3315.49 1021.33 3338.23 974.722 3359.92 929.587C3382.13 883.906 3402.99 840.689 3482.79 811.993C3599.26 769.966 3758.28 783.731 3912.15 796.974C3995.5 804.225 4081.78 811.641 4159.61 809.882C4270.77 807.403 4359 784.371 4444.59 762.087C4541.07 736.966 4640.73 710.93 4773.39 715.057C5015.21 722.58 5257.32 773.807 5493.33 829.294L5489.96 822.834C5255.59 767.783 5015.41 717.523 4774.44 710.072C4638.71 705.896 4537.39 732.256 4439.68 757.737C4355.37 779.75 4268.18 802.447 4159.48 804.966C4083.06 806.718 3997.4 799.313 3914.47 792.097C3796.28 781.886 3674.89 771.36 3570.59 785.796C3537.28 790.407 3505.68 797.533 3476.65 808.004C3393.62 837.905 3372.23 882.05 3349.68 928.633C3328.19 972.98 3306.07 1018.84 3227.6 1054.75C3149.61 1090.41 3055.27 1106.41 2963.95 1121.99C2870.55 1137.86 2774.17 1154.24 2693.75 1191.46C2630.82 1220.58 2573.06 1251.44 2517.01 1281.31C2381.14 1353.82 2252.88 1422.25 2055.33 1469.14C1841.14 1519.95 1586.55 1538.87 1340.52 1557.08C1215.68 1566.38 1086.5 1575.91 967.754 1589.5C740.012 1615.52 516.598 1651.38 300.33 1686.16C164.008 1708.06 25.7942 1730.23 -115.039 1750.1L-112.543 1754.88C28.7151 1735.04 167.119 1712.85 303.63 1690.92Z" fill="url(#paint39_linear_1_37)"/>
<path d="M300.346 1722.35C516.253 1686.1 739.451 1648.66 966.829 1621.55C1089.13 1607 1222.29 1596.92 1351.15 1587.15C1594.44 1568.75 1845.73 1549.72 2058.96 1499.42C2265.52 1450.72 2410.81 1376.42 2551.48 1304.57C2609.32 1275.02 2669.21 1244.34 2732.94 1215.59C2813.45 1179.3 2909.52 1165.05 3002.42 1151.34C3094 1137.81 3188.79 1123.83 3269.94 1088.78C3355.41 1051.9 3382.66 1004.19 3408.89 958.052C3435.46 911.387 3460.58 867.39 3543.6 838.249C3662.29 796.579 3819.33 813.939 3971.17 830.689C4056.01 840.012 4143.68 849.702 4223.21 848.848C4337.04 847.611 4417.4 823.487 4495.34 800.173C4591.3 771.329 4682 744.066 4832.2 755.729C5065.67 773.707 5294.12 822.081 5516.15 872.956L5512.83 866.585C5292.67 816.208 5066.3 768.686 4834.48 750.764C4680.31 738.891 4583.64 767.929 4490.1 795.965C4413.63 818.981 4334.45 842.655 4223.65 843.854C4145.35 844.727 4058.34 835.135 3974.11 825.822C3854.35 812.602 3731.57 799.041 3625.19 813.765C3594.53 818.01 3565.11 824.644 3537.65 834.234C3451.55 864.466 3425.89 909.39 3398.75 956.894C3372.94 1002.31 3346.09 1049.21 3263.14 1085.08C3183.79 1119.31 3090.32 1133.1 2999.69 1146.5C2905.65 1160.37 2808.25 1174.8 2725.76 1211.93C2661.69 1240.82 2601.76 1271.42 2543.78 1301.08C2397.54 1375.89 2259.47 1446.52 2054.53 1494.82C1842.9 1544.7 1592.19 1563.65 1349.88 1582.01C1220.84 1591.8 1087.3 1601.94 964.619 1616.55C736.673 1643.73 513.097 1681.23 296.999 1717.49C167.105 1739.27 35.3632 1761.4 -98.6696 1781.47L-96.1734 1786.24C38.3304 1766.3 170.308 1744.24 300.346 1722.35Z" fill="url(#paint40_linear_1_37)"/>
<path d="M295.741 1754.34C511.478 1716.6 734.413 1677.49 962.087 1649.39C1086.57 1633.96 1223.79 1624.27 1356.47 1614.82C1598.95 1597.58 1849.66 1579.77 2054.42 1526.85C2264.73 1472.5 2415.33 1400.6 2574.62 1324.37C2634.25 1295.91 2695.77 1266.42 2760.68 1237.98C2843.45 1201.76 2940.16 1189.89 3033.37 1178.32C3124.54 1167.12 3218.51 1155.44 3301.34 1121.68C3391.68 1084.79 3423.85 1036.02 3455.01 988.812C3486.36 941.201 3516.03 896.195 3602.5 866.671C3724.12 825.165 3880.41 846.14 4031.84 866.364C4117.13 877.712 4205.1 889.543 4285.42 889.813C4395.03 890.204 4483.65 870.631 4548.26 831.891C4632.71 793.062 4747.98 781.377 4890.96 797.077C5104.38 820.582 5316.68 868.345 5540.51 919.542L5537.18 913.17C5315.9 862.57 5105.62 815.571 4893.52 792.263C4746.86 776.123 4628.18 788.28 4540.31 828.721C4477.56 866.35 4391.82 885.239 4285.71 884.933C4206.81 884.656 4119.35 873.039 4034.87 861.674C3913.06 845.32 3788.05 828.652 3678.65 843.795C3650.06 847.752 3622.64 853.92 3596.41 862.77C3507 893.27 3476.75 939.116 3444.82 987.566C3414.09 1034.05 3382.59 1082.15 3294.58 1118.06C3213.79 1151.07 3120.91 1162.5 3031.11 1173.6C2936.34 1185.29 2838.5 1197.32 2753.59 1234.5C2688.49 1262.97 2626.77 1292.48 2567.01 1321.06C2408.33 1396.92 2258.44 1468.63 2049.56 1522.59C1846.55 1574.98 1596.83 1592.75 1355.35 1609.95C1222.48 1619.42 1084.88 1629.17 959.827 1644.67C731.631 1672.94 508.461 1711.99 292.391 1749.87C169.491 1771.43 44.8406 1793.15 -82.0592 1813.27L-79.5631 1818.05C47.6228 1797.7 172.416 1775.87 295.741 1754.34Z" fill="url(#paint41_linear_1_37)"/>
<path d="M289.558 1786.83C504.889 1747.54 727.842 1706.9 955.245 1677.89C1082.72 1661.58 1223.44 1651.59 1359.67 1641.94C1597.46 1625.06 1843.3 1607.64 2044.98 1556.19C2260.96 1501.05 2420.32 1427.66 2588.76 1349.88C2651.41 1320.99 2716.15 1291.06 2783.66 1262.55C2868.75 1226.48 2965.52 1217.07 3059.22 1207.99C3149.85 1199.24 3243.36 1190.19 3328.16 1157.48C3423.84 1120.7 3461.22 1070.64 3497.45 1022.26C3533.92 973.561 3568.14 927.546 3658.34 897.789C3781.8 857.073 3935.45 881.164 4084.01 904.443C4171.35 918.164 4261.52 932.253 4344.81 933.157C4455.63 934.328 4545.21 914.623 4610.2 874.691C4693.01 835.426 4806.82 823.658 4948.52 839.63C5150.57 862.337 5350.08 907.79 5560 956.832L5556.63 950.371C5349.25 901.926 5151.99 857.3 4951.41 834.675C4806.03 818.263 4688.62 830.529 4602.4 871.406C4539.21 910.139 4452.76 929.222 4345.58 928.021C4263.71 927.111 4174.38 913.094 4087.75 899.56C3965.88 880.368 3840.53 860.71 3729.42 876.09C3702.92 879.758 3677.24 885.399 3652.67 893.544C3559.53 924.277 3524.5 971.069 3487.45 1020.61C3451.89 1068.33 3414.94 1117.66 3321.64 1153.54C3238.83 1185.4 3146.64 1194.27 3057.39 1202.93C2962.32 1212.1 2864.03 1221.72 2776.57 1258.69C2708.92 1287.32 2643.98 1317.27 2581.38 1346.25C2413.42 1423.77 2254.73 1496.89 2040.16 1551.64C1840.29 1602.65 1595.25 1620.05 1358.45 1636.89C1222.03 1646.57 1080.93 1656.61 952.892 1673C724.589 1702.23 501.825 1742.84 286.115 1782.18C170.495 1803.31 53.3148 1824.56 -65.6445 1844.35L-63.1484 1849.13C56.1894 1829.29 173.703 1807.9 289.558 1786.83Z" fill="url(#paint42_linear_1_37)"/>
<path d="M282.243 1819.86C497.025 1779.13 719.43 1737.05 946.56 1707.13C1076.64 1689.98 1220.77 1679.9 1360.21 1670.18C1592.85 1653.92 1833.11 1637.09 2031.18 1587.27C2251.66 1531.8 2425.95 1453.96 2594.69 1378.7C2661.55 1348.95 2730.51 1318.15 2801.72 1288.93C2889.54 1253.05 2982.03 1246.71 3080 1239.98C3169.98 1233.88 3263.04 1227.45 3350.43 1195.81C3451.97 1158.98 3494.8 1107.69 3536.43 1057.99C3578.01 1008.21 3617.34 961.103 3711.85 931.035C3837.33 891.082 3987.88 918.166 4133.33 944.437C4222.73 960.532 4315.28 977.233 4402.25 978.576C4514.82 980.361 4605.38 960.233 4671.06 918.878C4752.46 878.859 4865.09 866.78 5005.65 882.91C5196.56 904.881 5383.59 947.793 5579.74 994.566L5576.37 988.105C5382.62 942.044 5197.8 899.87 5008.45 878.158C4863.83 861.641 4747.79 874.191 4663.02 915.911C4599.29 955.952 4511.85 975.457 4402.96 973.732C4317.6 972.357 4225.99 955.904 4137.26 939.908C4015.61 918.028 3890.76 895.453 3777.76 911.095C3753.15 914.501 3729.28 919.703 3705.95 927.108C3608.68 958.126 3568.68 1005.89 3526.29 1056.45C3485.28 1105.4 3442.97 1156.14 3344 1192.05C3259.03 1222.88 3167.3 1229.13 3078.73 1235.22C2983.5 1241.76 2885.1 1248.45 2794.81 1285.43C2723.42 1314.67 2654.27 1345.5 2587.45 1375.34C2419.38 1450.32 2245.37 1527.93 2026.31 1583.01C1830.04 1632.39 1590.54 1649.12 1358.89 1665.33C1219.26 1675.08 1074.76 1685.21 943.875 1702.38C715.941 1732.31 493.583 1774.48 278.422 1815.27C170.557 1835.7 61.4138 1856.41 -49.4613 1875.74L-46.9649 1880.52C64.4782 1861.11 174 1840.35 282.243 1819.86Z" fill="url(#paint43_linear_1_37)"/>
<path d="M273.536 1853.36C487.437 1811.32 708.678 1767.79 935.631 1737.14C1070.45 1718.95 1219.07 1708.16 1362.82 1697.75C1585.4 1681.65 1815.6 1664.97 2012.19 1620.49C2236.01 1569.87 2410.16 1492.52 2578.61 1417.87C2654.59 1384.2 2733.19 1349.31 2814.39 1317.86C2906.41 1282.25 3000.63 1278.04 3100.56 1273.51C3188.77 1269.46 3279.82 1265.4 3367.31 1237.44C3472.73 1203.77 3522.96 1149.94 3571.47 1097.87C3619.83 1045.91 3665.62 996.772 3761.87 967.317C3889.27 928.332 4029.83 956.893 4179.02 987.202C4270.99 1005.88 4365.92 1025.2 4456.81 1026.66C4576.18 1028.64 4656.63 1001.19 4734.28 974.591C4826.25 943.166 4913.2 913.386 5061.78 927.364C5251.22 945.363 5427.18 985.347 5597.11 1027.78L5593.64 1021.14C5425.88 979.359 5251.75 940.165 5064.1 922.487C4911.04 908.086 4818.02 939.845 4728.14 970.602C4652 996.608 4573.31 1023.54 4457.43 1021.64C4368.58 1020.18 4274.35 1001.05 4183.28 982.532C4062.23 957.912 3937.84 932.712 3823.13 948.589C3800.41 951.734 3778.15 956.523 3756.25 963.161C3657.2 993.477 3608.69 1045.55 3561.76 1095.98C3513.87 1147.31 3464.31 1200.48 3361.69 1233.28C3276.47 1260.54 3186.84 1264.6 3099.96 1268.46C3002.81 1272.9 2902.45 1277.39 2807.92 1314.01C2726.52 1345.49 2647.74 1380.4 2571.61 1414.19C2403.68 1488.68 2230.16 1565.65 2007.98 1615.95C1812.86 1660.13 1583.43 1676.7 1361.65 1692.79C1217.52 1703.25 1068.66 1713.98 933.278 1732.25C705.758 1762.98 484.28 1806.45 270.047 1848.62C170.46 1868.2 69.5944 1888.04 -32.8651 1906.78L-30.3683 1911.56C72.3728 1892.97 173.617 1873.07 273.536 1853.36Z" fill="url(#paint44_linear_1_37)"/>
<path d="M263.788 1887.57C475.294 1844.44 693.808 1799.96 918.499 1768.86C919.824 1768.68 921.338 1768.47 922.663 1768.28C1059.57 1749.43 1211.02 1739 1357.61 1728.96C1573.94 1714.11 1797.46 1698.64 1988.59 1656.14C2214.4 1605.81 2393.89 1528.59 2567.53 1453.78C2649.73 1418.4 2734.58 1381.89 2821.79 1349.51C2916.98 1314.12 3010.78 1313 3109.97 1311.71C3197.91 1310.64 3288.64 1309.47 3379.38 1282.29C3490.99 1248.81 3547.52 1193.45 3602.14 1139.86C3656.53 1086.59 3707.8 1036.32 3808.64 1006.7C3938.35 968.633 4076.85 999.852 4223.36 1032.81C4317.24 1053.98 4414.32 1075.84 4508.56 1077.51C4629.44 1079.66 4710 1050.86 4787.99 1022.98C4880.03 990.125 4966.95 959.116 5116.37 973.165C5294.35 989.81 5458.87 1026.92 5617.54 1066.83L5614.07 1060.19C5457.56 1020.93 5294.93 984.701 5119.03 968.148C4964.93 953.701 4871.85 986.893 4782.04 1018.97C4705.56 1046.25 4626.52 1074.47 4509.56 1072.43C4417.4 1070.86 4321.4 1049.13 4228.47 1028.21C4107.45 1000.93 3983.23 972.954 3865.87 989.198C3844.86 992.107 3824.16 996.395 3803.59 1002.47C3699.91 1032.86 3645.38 1086.24 3592.96 1137.81C3539 1190.73 3483.33 1245.41 3374.33 1278.06C3286.05 1304.51 3196.69 1305.59 3110.4 1306.71C3013.82 1307.93 2913.97 1309.13 2815.89 1345.58C2728.34 1378.1 2643.3 1414.64 2560.96 1450.14C2387.98 1524.66 2208.97 1601.63 1984.77 1651.55C1795.15 1693.83 1572.34 1709.11 1356.81 1723.94C1209.85 1734.04 1058.02 1744.52 920.356 1763.48C919.031 1763.66 917.517 1763.87 916.192 1764.06C690.933 1795.23 471.897 1839.88 260.203 1883.04C169.226 1901.61 76.9242 1920.36 -16.4544 1938.22L-13.9579 1943C79.7529 1925 172.244 1906.22 263.788 1887.57Z" fill="url(#paint45_linear_1_37)"/>
<path d="M288.566 1919.09C488.931 1875.22 696.022 1829.85 907.279 1800.23C908.604 1800.05 909.739 1799.89 911.064 1799.71C1048.68 1780.66 1201.12 1770.95 1348.64 1761.54C1558.01 1748.12 1774.47 1734.3 1959.96 1693.82C2186.76 1644.21 2370.68 1567.31 2548.39 1492.9C2637.5 1455.6 2729.42 1417.07 2823.78 1383.61C2922.75 1348.46 3015.42 1350.63 3113.62 1352.88C3201.15 1354.91 3291.56 1357.01 3386.27 1330.42C3504.72 1297.23 3567.84 1240.1 3628.77 1184.98C3689.16 1130.4 3746.22 1078.76 3852.11 1049.11C3984.36 1012.01 4120.29 1045.68 4264.31 1081.26C4360.14 1105 4459.41 1129.5 4557.48 1131.11C4679.78 1132.88 4761.16 1102.54 4839.6 1073.18C4931.99 1038.66 5019.26 1005.99 5170.25 1019.92C5336.76 1035.21 5490.44 1069.45 5638.37 1106.67L5634.9 1100.04C5488.95 1063.49 5337.34 1030.1 5172.76 1015.02C5016.91 1000.72 4923.67 1035.54 4833.32 1069.31C4756.4 1098.08 4676.72 1127.8 4558.2 1125.89C4462.4 1124.35 4364.26 1100.07 4269.42 1076.66C4148.91 1046.84 4024.71 1016.2 3904.89 1032.79C3885.58 1035.46 3866.12 1039.39 3847.01 1044.78C3738.32 1075.3 3677.97 1129.96 3619.48 1182.75C3559.28 1237.3 3496.97 1293.66 3381.17 1326.1C3289.3 1351.91 3200.55 1349.87 3114.63 1347.81C3018.88 1345.59 2919.88 1343.36 2817.83 1379.59C2723.13 1413.2 2630.84 1451.78 2541.77 1489.16C2364.54 1563.32 2181.51 1640 1956.14 1689.22C1772.31 1729.38 1556.65 1743.19 1348.04 1756.5C1198.77 1766.06 1044.96 1775.86 905.161 1795.4C693.101 1825.04 485.678 1870.55 284.934 1914.46C192.046 1934.82 98.0223 1955.33 2.73747 1974.59L5.23373 1979.37C100.8 1960.26 195.346 1939.58 288.566 1919.09Z" fill="url(#paint46_linear_1_37)"/>
<path d="M276.862 1954.22C475.113 1909.42 680.044 1863.02 889.65 1833.35C1028.74 1813.62 1184.81 1804.64 1335.35 1795.95C1537.56 1784.38 1746.45 1772.36 1925.72 1733.97C2152.84 1685.36 2339.74 1609.1 2520.41 1535.32C2621.48 1494.09 2716.99 1455.06 2819.31 1420.5C2922.47 1385.62 3013.88 1391.19 3110.58 1397.17C3197.6 1402.49 3287.59 1408.06 3387.02 1381.97C3513.98 1348.73 3583.15 1291.14 3649.89 1235.5C3712.82 1183.04 3778.08 1128.84 3891.63 1094.43C4026.2 1053.59 4181.26 1094.76 4331.15 1134.56C4427.52 1160.13 4518.48 1184.27 4602.6 1187.14C4728.04 1191.42 4810.26 1158.4 4890 1126.48C4978.48 1091.08 5069.76 1054.44 5222.5 1067.84C5378.55 1081.73 5521.92 1112.95 5659.72 1147.49L5656.25 1140.85C5520.43 1106.98 5378.94 1076.65 5224.87 1063.05C5067.18 1049.1 4973.71 1086.62 4883.43 1122.84C4801.83 1155.49 4724.98 1186.34 4603.88 1182.22C4522.04 1179.41 4432.02 1155.52 4336.59 1130.2C4205.82 1095.54 4071.25 1059.79 3947.45 1076.93C3926.62 1079.81 3906.16 1084.16 3886.2 1090.24C3770.37 1125.35 3704.44 1180.22 3640.75 1233.16C3571.58 1290.75 3506.36 1345.04 3382.1 1377.62C3285.85 1402.8 3197.61 1397.46 3112.24 1392.19C3017.67 1386.4 2919.94 1380.38 2813.35 1416.48C2710.71 1451.19 2615 1490.24 2513.6 1531.61C2333.4 1605.14 2147.17 1681.12 1921.71 1729.4C1744.05 1767.38 1535.97 1779.38 1334.56 1790.93C1186.33 1799.4 1033.24 1808.25 894.678 1827.43C892.217 1827.77 889.568 1828.14 887.107 1828.48C676.744 1858.26 471.435 1904.71 272.851 1949.65C189.146 1968.55 104.54 1987.66 18.8113 2005.79L21.3539 2010.66C107.461 1992.48 192.634 1973.28 276.862 1954.22Z" fill="url(#paint47_linear_1_37)"/>
<path d="M223.933 1994.03C431.799 1947.42 646.77 1899.25 869.491 1867.48C1009.96 1847.27 1166.2 1839.79 1317.39 1832.34C1511.93 1822.78 1713.19 1812.86 1885.97 1776.8C2112.55 1729.49 2301.56 1654.17 2484.17 1581.35C2593.87 1537.61 2697.35 1496.33 2808.6 1460.62C2916.4 1426.06 3006.21 1435.17 3101.07 1445.01C3187.48 1453.83 3276.72 1463.02 3381.53 1437.5C3516.57 1404.58 3592.9 1345.14 3666.75 1287.56C3735.69 1233.8 3807.11 1178.17 3926.53 1143.71C4063.2 1104.2 4214.19 1147.26 4360.32 1188.81C4460.02 1217.24 4554.26 1244.15 4644.66 1246.63C4775.08 1250.32 4858.31 1214.98 4938.74 1180.88C5026.96 1143.42 5118.18 1104.7 5273.43 1117.47C5419.53 1129.42 5553.44 1157.67 5681.68 1189.46L5678.26 1182.91C5551.99 1151.8 5419.92 1124.34 5275.71 1112.51C5115.36 1099.3 5021.96 1138.9 4931.94 1177.17C4849.51 1212.11 4771.78 1245.17 4645.9 1241.62C4558.14 1239.16 4464.9 1212.58 4366.18 1184.49C4237.19 1147.78 4104.57 1109.96 3978.88 1127.35C3959.57 1130.03 3940.53 1133.99 3921.48 1139.47C3799.78 1174.63 3727.65 1230.83 3657.99 1285.17C3581.52 1344.72 3509.38 1400.92 3377.23 1433.16C3275.88 1457.92 3188.34 1448.87 3103.82 1440.17C3010.94 1430.63 2914.66 1420.8 2803.07 1456.64C2691.48 1492.49 2587.67 1533.91 2477.79 1577.68C2295.7 1650.33 2107.35 1725.37 1882.24 1772.38C1710.92 1808.14 1510.62 1817.93 1316.88 1827.47C1168.25 1834.76 1014.69 1842.35 875.937 1861.55C872.908 1861.97 870.069 1862.37 867.04 1862.79C643.563 1894.67 428.259 1942.97 220.014 1989.64C157.863 2003.55 95.38 2017.61 32.0974 2031.3L34.594 2036.08C98.2089 2022.25 161.45 2008.09 223.933 1994.03Z" fill="url(#paint48_linear_1_37)"/>
<path d="M250.904 2026.27C443.128 1980.02 641.797 1932.12 846.536 1902.83C986.295 1882.82 1143.23 1876.67 1294.64 1870.8C1481.27 1863.57 1674.23 1856.03 1840.32 1822.32C2065.9 1776.58 2255.89 1702.35 2439.86 1630.58C2558.56 1584.26 2670.48 1540.49 2791.25 1503.94C2903.19 1469.94 2989.84 1483.09 3081.53 1496.97C3167.71 1510 3256.76 1523.49 3370.14 1496.89C3516.53 1462.39 3599.26 1401.21 3679.18 1342.03C3753.43 1287.15 3830.11 1230.33 3957.03 1196.63C4094.62 1160.03 4241.06 1204.1 4382.84 1246.63C4482.28 1276.52 4585.07 1307.37 4682.91 1309.3C4818.72 1312.05 4903.02 1274.09 4984.57 1237.46C5076.95 1195.92 5164.25 1156.7 5322.59 1168.38C5459.78 1178.43 5584.79 1203.64 5704.33 1232.74L5700.91 1226.19C5583.16 1197.79 5459.93 1173.28 5325.01 1163.3C5161.33 1151.12 5068 1193.18 4977.76 1233.76C4894.27 1271.32 4815.37 1306.81 4684.05 1304.11C4588.87 1302.2 4487.25 1271.66 4389.03 1242.17C4261.42 1203.84 4129.96 1164.34 4002.37 1182C3985.71 1184.3 3968.95 1187.57 3952.41 1192.05C3823.02 1226.47 3745.39 1283.81 3670.62 1339.23C3591.41 1397.84 3509.59 1458.41 3366.08 1492.23C3256.54 1518.02 3169.66 1504.8 3085.46 1492.06C2995.52 1478.42 2902.5 1464.34 2786.34 1499.59C2665.09 1536.39 2552.8 1580.22 2433.95 1626.65C2250.69 1698.23 2061.17 1772.2 1837.26 1817.62C1672.58 1850.94 1480.62 1858.44 1294.99 1865.63C1143.01 1871.57 985.502 1877.81 844.561 1897.89C638.875 1927.31 439.639 1975.28 247.082 2021.68C182.549 2037.25 117.447 2052.9 51.644 2067.99L54.2325 2072.95C120.179 2057.75 185.803 2041.92 250.904 2026.27Z" fill="url(#paint49_linear_1_37)"/>
<path d="M233.962 2063.45C423.361 2016.45 619.017 1967.83 820.914 1939.31C822.429 1939.1 823.754 1938.92 825.268 1938.71C956.644 1920.53 1110.77 1916.37 1259.9 1912.34C1444.65 1907.36 1635.79 1902.16 1788.77 1870.55C2004.23 1826.02 2194.1 1754.28 2377.9 1684.9C2509.5 1635.28 2633.6 1588.4 2767 1550.38C2884.85 1516.8 2969.18 1533.69 3058.33 1551.63C3143.13 1568.64 3230.91 1586.29 3351.79 1560.07C3508.02 1526.11 3598.14 1462.77 3685.46 1401.43C3765.82 1345.04 3848.8 1286.68 3982.77 1252.85C4123.03 1217.5 4265.11 1262.93 4402.62 1307.01C4505.25 1339.88 4611.26 1373.79 4717.38 1374.86C4859.16 1376.21 4944.87 1335.49 5027.58 1296.05C5120.56 1251.77 5208.36 1210.01 5370.5 1220.4C5499.53 1228.83 5616.41 1251.28 5727.85 1277.7L5724.48 1271.24C5614.78 1245.43 5499.5 1223.71 5372.44 1215.58C5204.83 1204.8 5111.04 1249.48 5020.34 1292.69C4935.49 1333.09 4855.2 1371.35 4718.09 1370.01C4614.86 1369.02 4510.02 1335.42 4408.62 1302.95C4283.54 1262.85 4154.6 1221.57 4024.36 1239.6C4009.02 1241.72 3993.54 1244.72 3978.09 1248.57C3841.61 1283.02 3757.68 1341.9 3676.6 1398.86C3590.15 1459.51 3500.92 1522.25 3347.64 1555.62C3231.16 1580.94 3145.65 1563.74 3062.87 1547.11C2975.33 1529.52 2884.44 1511.35 2761.99 1546.24C2628.07 1584.42 2497.85 1633.57 2371.66 1681.12C2188.53 1750.21 1999.13 1821.69 1785 1866.04C1633.67 1897.33 1443.72 1902.46 1259.95 1907.4C1110.22 1911.42 955.472 1915.56 822.772 1933.93C821.257 1934.14 819.743 1934.35 818.418 1934.53C615.574 1963.18 419.161 2011.91 229.429 2059.05C175.693 2072.37 121.77 2085.71 67.0924 2098.79L69.6811 2103.74C124.88 2090.5 179.705 2076.94 233.962 2063.45Z" fill="url(#paint50_linear_1_37)"/>
<path d="M217.906 2101.16C403.105 2053.89 594.561 2005 792.578 1977.21C793.335 1977.1 794.092 1977 794.85 1976.89C925.28 1958.84 1079.01 1957.02 1227.68 1955.23C1403.57 1953.1 1585.37 1950.99 1730.95 1921.92C1942.89 1879.59 2132.27 1809.25 2315.4 1741.29C2450.92 1691.02 2591.2 1638.96 2735.61 1600.66C2859.88 1567.71 2941.39 1588.5 3027.74 1610.43C3111.09 1631.63 3197.44 1653.56 3326.5 1627.82C3488.61 1595.42 3584.77 1529.63 3677.59 1466.01C3769.84 1402.85 3857 1343.15 4002.97 1313.64C4166.41 1280.68 4284.22 1324.73 4409.04 1371.32C4510.24 1409.22 4615.11 1448.33 4747.93 1444.18C4882.36 1440 4968.5 1398.56 5051.7 1358.48C5146.77 1312.77 5244.89 1265.5 5416.36 1274.32C5537.96 1280.55 5647.73 1300.28 5752.16 1324.17L5748.83 1317.79C5645.95 1294.55 5537.78 1275.55 5418.26 1269.41C5241.55 1260.27 5141.48 1308.47 5044.65 1355.09C4959.17 1396.25 4878.4 1435.14 4747.99 1439.24C4618.95 1443.24 4515.77 1404.66 4416.08 1367.31C4303.35 1325.21 4187.33 1281.86 4036.45 1302.74C4024.33 1304.42 4012.03 1306.5 3999.52 1308.99C3850.38 1339.03 3758.32 1402.17 3669.21 1463.18C3577.29 1526.2 3482.04 1591.39 3323.06 1623.17C3198.59 1647.99 3114.59 1626.69 3033.32 1605.95C2948.33 1584.31 2860.56 1562.01 2731.08 1596.26C2585.95 1634.75 2445.3 1686.87 2309.49 1737.36C2126.89 1805.15 1938.16 1875.21 1727.7 1917.25C1584.34 1945.92 1403.2 1948.12 1228.3 1950.21C1078.03 1952.03 922.831 1954.15 790.461 1972.38C591.308 2000.32 399.284 2049.3 213.751 2096.71C170.768 2107.69 127.407 2118.72 83.5746 2129.63L86.1633 2134.58C130.139 2123.56 174.212 2112.34 217.906 2101.16Z" fill="url(#paint51_linear_1_37)"/>
<path d="M4429.08 1436.52C4318.14 1392.38 4203.58 1346.75 4046.47 1368.49C4036.06 1369.93 4025.6 1371.67 4014.89 1373.72C3857.93 1403.51 3759.24 1468.32 3663.74 1531.07C3564.15 1596.47 3461.22 1664.05 3290.92 1695.12C3157.5 1719.47 3075.64 1693.7 2996.46 1668.79C2914.4 1643.04 2829.67 1616.44 2692.6 1650.12C2535.72 1688.63 2385.93 1743.43 2241.08 1796.4C2143.62 1832.1 2044.41 1868.32 1941.24 1900.44L1974.36 1895.86C2068.07 1865.81 2158.4 1832.8 2247.36 1800.28C2391.89 1747.44 2541.34 1692.78 2697.08 1654.43C2828.42 1622.21 2907.04 1646.82 2990.31 1672.96C3071.85 1698.49 3156.11 1724.98 3294.36 1699.77C3467.84 1668.16 3571.81 1599.87 3672.26 1533.78C3771.28 1468.83 3864.64 1407.42 4018.48 1378.25C4185.96 1346.43 4300.71 1392.04 4422.14 1440.33C4509.85 1475.35 4600.43 1511.21 4713.95 1516.75L4744.24 1512.56C4619.93 1512.4 4523.1 1473.9 4429.08 1436.52Z" fill="url(#paint52_linear_1_37)"/>
<path d="M188.309 2140.85C369.592 2093.46 556.942 2044.47 754.202 2017.17C756.473 2016.85 758.556 2016.57 760.827 2016.25C890.499 1998.68 1042.21 1999.61 1189.02 2000.45C1197.99 2000.54 1206.92 2000.54 1215.9 2000.62L1250.73 1995.8C1230.37 1995.68 1210 1995.55 1189.69 1995.52C1042.04 1994.6 889.517 1993.69 758.331 2011.47C756.059 2011.79 753.977 2012.07 751.705 2012.39C553.31 2039.85 365.438 2089.01 183.587 2136.48C164.487 2141.49 145.198 2146.54 126.051 2151.46L171.675 2145.15C177.266 2143.81 182.81 2142.38 188.309 2140.85Z" fill="url(#paint53_linear_1_37)"/>
<path d="M5081.79 1418.98C5030.99 1444.52 4979.01 1470.5 4916.25 1488.68L4950.13 1483.99C5001.49 1466.53 5045.87 1444.26 5089.4 1422.29C5190.85 1371.34 5286.65 1323.16 5461.09 1329.57C5571.82 1333.69 5672.87 1349.98 5768.91 1370.65L5776.3 1369.63L5774.54 1366.27C5677.37 1345.37 5575.14 1328.78 5462.37 1324.65C5282.74 1318.01 5180.48 1369.36 5081.79 1418.98Z" fill="url(#paint54_linear_1_37)"/>
<path d="M5181.8 1451.87L5202.62 1448.99C5287.5 1409.82 5377.61 1380.26 5502.93 1386.64C5534.61 1388.23 5565.53 1391.07 5595.96 1394.54L5616.59 1391.69C5579.89 1387.09 5542.55 1383.62 5504.4 1381.69C5367.8 1374.69 5272.49 1408.67 5181.8 1451.87Z" fill="url(#paint55_linear_1_37)"/>
<path d="M4434.69 1509.61C4327.67 1463.23 4217.22 1415.34 4055.41 1437.73C4045.38 1439.12 4035.3 1440.8 4024.93 1442.71C3858.87 1473.67 3754.46 1540.3 3653.39 1604.77C3612.75 1630.69 3571.68 1656.97 3526.05 1681.12L3544.41 1678.58C3585.96 1655.94 3624.22 1631.67 3661.76 1607.59C3761.75 1543.75 3865.25 1477.72 4028.38 1447.36C4200.92 1415.22 4311.04 1462.88 4427.51 1513.35C4452.75 1524.38 4478.18 1535.37 4504.65 1545.65L4517.33 1543.9C4488.97 1533.12 4461.71 1521.33 4434.69 1509.61Z" fill="url(#paint56_linear_1_37)"/>
<path d="M713.211 2058.79C717.565 2058.18 722.109 2057.55 726.463 2056.95C779.043 2049.96 834.982 2046.68 892.552 2045.35L932.877 2039.77C860.242 2040.24 789.655 2043.46 723.966 2052.17C719.423 2052.8 715.069 2053.4 710.525 2054.03C608.104 2068.21 508.824 2088.78 411.923 2111.97L469.475 2104C549.021 2086.07 630.101 2070.29 713.211 2058.79Z" fill="url(#paint57_linear_1_37)"/>
<path d="M2953.44 1734.95C2856.84 1705.43 2765.8 1677.61 2645.78 1707.79C2501.22 1744.22 2361.66 1793.71 2213.94 1846.23C2188.75 1855.12 2163.61 1864.11 2138.23 1873.03L2166.43 1869.13C2184.22 1862.77 2202.25 1856.48 2220.04 1850.13C2367.43 1797.75 2506.61 1748.31 2650.5 1712.17C2764.93 1683.33 2853.76 1710.41 2947.68 1739.07C2964.3 1744.07 2980.77 1749.19 2997.72 1754.06L3011.92 1752.09C2992.09 1746.77 2972.74 1740.82 2953.44 1734.95Z" fill="url(#paint58_linear_1_37)"/>
<path d="M2595.81 1774.17C2676.82 1755.17 2742.78 1763.31 2805.46 1780.73L2819.47 1778.79C2751.85 1758.93 2680.77 1748.74 2591.23 1769.68C2499.9 1791.05 2410.86 1817.99 2321.08 1847.78L2352.31 1843.46C2433.36 1817.15 2513.71 1793.41 2595.81 1774.17Z" fill="url(#paint59_linear_1_37)"/>
<path d="M4053.04 1512.48C4045.09 1513.58 4037.04 1514.89 4028.66 1516.33C3871.7 1543.75 3765.26 1601.84 3666.78 1661.58L3683.62 1659.25C3778.72 1601.97 3882.38 1547.11 4031.73 1521.03C4177.19 1495.68 4275.97 1524.32 4370.09 1564.24L4382.2 1562.56C4291.8 1523.93 4192.52 1493.18 4053.04 1512.48Z" fill="url(#paint60_linear_1_37)"/>
<path d="M4029.37 1599.19C4081.4 1590.76 4127.01 1589.09 4168.75 1592.05L4190.9 1588.98C4146.96 1584.15 4098.72 1584.28 4043.82 1591.88C4038.14 1592.66 4032.32 1593.56 4026.5 1594.46C3969.07 1603.83 3917.79 1617.2 3870.97 1633.26L3902.59 1628.89C3941.57 1616.85 3983.36 1606.7 4029.37 1599.19Z" fill="url(#paint61_linear_1_37)"/>
</g>
<defs>
<linearGradient id="paint0_linear_1_37" x1="1803.75" y1="812.277" x2="1577.95" y2="74.2596" gradientUnits="userSpaceOnUse">
<stop stop-color="white"/>
<stop offset="1" stop-color="white" stop-opacity="0"/>
</linearGradient>
<linearGradient id="paint1_linear_1_37" x1="1803.75" y1="812.277" x2="1577.95" y2="74.2596" gradientUnits="userSpaceOnUse">
<stop stop-color="white"/>
<stop offset="1" stop-color="white" stop-opacity="0"/>
</linearGradient>
<linearGradient id="paint2_linear_1_37" x1="1803.75" y1="812.277" x2="1577.95" y2="74.2596" gradientUnits="userSpaceOnUse">
<stop stop-color="white"/>
<stop offset="1" stop-color="white" stop-opacity="0"/>
</linearGradient>
<linearGradient id="paint3_linear_1_37" x1="1803.75" y1="812.277" x2="1577.95" y2="74.2596" gradientUnits="userSpaceOnUse">
<stop stop-color="white"/>
<stop offset="1" stop-color="white" stop-opacity="0"/>
</linearGradient>
<linearGradient id="paint4_linear_1_37" x1="1803.75" y1="812.277" x2="1577.95" y2="74.2596" gradientUnits="userSpaceOnUse">
<stop stop-color="white"/>
<stop offset="1" stop-color="white" stop-opacity="0"/>
</linearGradient>
<linearGradient id="paint5_linear_1_37" x1="1803.75" y1="812.277" x2="1577.95" y2="74.2596" gradientUnits="userSpaceOnUse">
<stop stop-color="white"/>
<stop offset="1" stop-color="white" stop-opacity="0"/>
</linearGradient>
<linearGradient id="paint6_linear_1_37" x1="1803.75" y1="812.277" x2="1577.95" y2="74.2596" gradientUnits="userSpaceOnUse">
<stop stop-color="white"/>
<stop offset="1" stop-color="white" stop-opacity="0"/>
</linearGradient>
<linearGradient id="paint7_linear_1_37" x1="1803.75" y1="812.277" x2="1577.95" y2="74.2596" gradientUnits="userSpaceOnUse">
<stop stop-color="white"/>
<stop offset="1" stop-color="white" stop-opacity="0"/>
</linearGradient>
<linearGradient id="paint8_linear_1_37" x1="1803.75" y1="812.277" x2="1577.95" y2="74.2596" gradientUnits="userSpaceOnUse">
<stop stop-color="white"/>
<stop offset="1" stop-color="white" stop-opacity="0"/>
</linearGradient>
<linearGradient id="paint9_linear_1_37" x1="1803.75" y1="812.277" x2="1577.95" y2="74.2596" gradientUnits="userSpaceOnUse">
<stop stop-color="white"/>
<stop offset="1" stop-color="white" stop-opacity="0"/>
</linearGradient>
<linearGradient id="paint10_linear_1_37" x1="1803.75" y1="812.277" x2="1577.95" y2="74.2596" gradientUnits="userSpaceOnUse">
<stop stop-color="white"/>
<stop offset="1" stop-color="white" stop-opacity="0"/>
</linearGradient>
<linearGradient id="paint11_linear_1_37" x1="1803.75" y1="812.277" x2="1577.95" y2="74.2596" gradientUnits="userSpaceOnUse">
<stop stop-color="white"/>
<stop offset="1" stop-color="white" stop-opacity="0"/>
</linearGradient>
<linearGradient id="paint12_linear_1_37" x1="1803.75" y1="812.277" x2="1577.95" y2="74.2596" gradientUnits="userSpaceOnUse">
<stop stop-color="white"/>
<stop offset="1" stop-color="white" stop-opacity="0"/>
</linearGradient>
<linearGradient id="paint13_linear_1_37" x1="1803.75" y1="812.277" x2="1577.95" y2="74.2596" gradientUnits="userSpaceOnUse">
<stop stop-color="white"/>
<stop offset="1" stop-color="white" stop-opacity="0"/>
</linearGradient>
<linearGradient id="paint14_linear_1_37" x1="1803.75" y1="812.277" x2="1577.95" y2="74.2596" gradientUnits="userSpaceOnUse">
<stop stop-color="white"/>
<stop offset="1" stop-color="white" stop-opacity="0"/>
</linearGradient>
<linearGradient id="paint15_linear_1_37" x1="1803.75" y1="812.277" x2="1577.95" y2="74.2596" gradientUnits="userSpaceOnUse">
<stop stop-color="white"/>
<stop offset="1" stop-color="white" stop-opacity="0"/>
</linearGradient>
<linearGradient id="paint16_linear_1_37" x1="1803.75" y1="812.277" x2="1577.95" y2="74.2596" gradientUnits="userSpaceOnUse">
<stop stop-color="white"/>
<stop offset="1" stop-color="white" stop-opacity="0"/>
</linearGradient>
<linearGradient id="paint17_linear_1_37" x1="1803.75" y1="812.277" x2="1577.95" y2="74.2596" gradientUnits="userSpaceOnUse">
<stop stop-color="white"/>
<stop offset="1" stop-color="white" stop-opacity="0"/>
</linearGradient>
<linearGradient id="paint18_linear_1_37" x1="1803.75" y1="812.277" x2="1577.95" y2="74.2596" gradientUnits="userSpaceOnUse">
<stop stop-color="white"/>
<stop offset="1" stop-color="white" stop-opacity="0"/>
</linearGradient>
<linearGradient id="paint19_linear_1_37" x1="1803.75" y1="812.277" x2="1577.95" y2="74.2596" gradientUnits="userSpaceOnUse">
<stop stop-color="white"/>
<stop offset="1" stop-color="white" stop-opacity="0"/>
</linearGradient>
<linearGradient id="paint20_linear_1_37" x1="1803.75" y1="812.277" x2="1577.95" y2="74.2596" gradientUnits="userSpaceOnUse">
<stop stop-color="white"/>
<stop offset="1" stop-color="white" stop-opacity="0"/>
</linearGradient>
<linearGradient id="paint21_linear_1_37" x1="1803.75" y1="812.277" x2="1577.95" y2="74.2596" gradientUnits="userSpaceOnUse">
<stop stop-color="white"/>
<stop offset="1" stop-color="white" stop-opacity="0"/>
</linearGradient>
<linearGradient id="paint22_linear_1_37" x1="1803.75" y1="812.277" x2="1577.95" y2="74.2596" gradientUnits="userSpaceOnUse">
<stop stop-color="white"/>
<stop offset="1" stop-color="white" stop-opacity="0"/>
</linearGradient>
<linearGradient id="paint23_linear_1_37" x1="1803.75" y1="812.277" x2="1577.95" y2="74.2596" gradientUnits="userSpaceOnUse">
<stop stop-color="white"/>
<stop offset="1" stop-color="white" stop-opacity="0"/>
</linearGradient>
<linearGradient id="paint24_linear_1_37" x1="1803.75" y1="812.277" x2="1577.95" y2="74.2596" gradientUnits="userSpaceOnUse">
<stop stop-color="white"/>
<stop offset="1" stop-color="white" stop-opacity="0"/>
</linearGradient>
<linearGradient id="paint25_linear_1_37" x1="1803.75" y1="812.277" x2="1577.95" y2="74.2596" gradientUnits="userSpaceOnUse">
<stop stop-color="white"/>
<stop offset="1" stop-color="white" stop-opacity="0"/>
</linearGradient>
<linearGradient id="paint26_linear_1_37" x1="1803.75" y1="812.277" x2="1577.95" y2="74.2596" gradientUnits="userSpaceOnUse">
<stop stop-color="white"/>
<stop offset="1" stop-color="white" stop-opacity="0"/>
</linearGradient>
<linearGradient id="paint27_linear_1_37" x1="1803.75" y1="812.277" x2="1577.95" y2="74.2596" gradientUnits="userSpaceOnUse">
<stop stop-color="white"/>
<stop offset="1" stop-color="white" stop-opacity="0"/>
</linearGradient>
<linearGradient id="paint28_linear_1_37" x1="1803.75" y1="812.277" x2="1577.95" y2="74.2596" gradientUnits="userSpaceOnUse">
<stop stop-color="white"/>
<stop offset="1" stop-color="white" stop-opacity="0"/>
</linearGradient>
<linearGradient id="paint29_linear_1_37" x1="1803.75" y1="812.277" x2="1577.95" y2="74.2596" gradientUnits="userSpaceOnUse">
<stop stop-color="white"/>
<stop offset="1" stop-color="white" stop-opacity="0"/>
</linearGradient>
<linearGradient id="paint30_linear_1_37" x1="1803.75" y1="812.277" x2="1577.95" y2="74.2596" gradientUnits="userSpaceOnUse">
<stop stop-color="white"/>
<stop offset="1" stop-color="white" stop-opacity="0"/>
</linearGradient>
<linearGradient id="paint31_linear_1_37" x1="1803.75" y1="812.277" x2="1577.95" y2="74.2596" gradientUnits="userSpaceOnUse">
<stop stop-color="white"/>
<stop offset="1" stop-color="white" stop-opacity="0"/>
</linearGradient>
<linearGradient id="paint32_linear_1_37" x1="1803.75" y1="812.277" x2="1577.95" y2="74.2596" gradientUnits="userSpaceOnUse">
<stop stop-color="white"/>
<stop offset="1" stop-color="white" stop-opacity="0"/>
</linearGradient>
<linearGradient id="paint33_linear_1_37" x1="1803.75" y1="812.277" x2="1577.95" y2="74.2596" gradientUnits="userSpaceOnUse">
<stop stop-color="white"/>
<stop offset="1" stop-color="white" stop-opacity="0"/>
</linearGradient>
<linearGradient id="paint34_linear_1_37" x1="1803.75" y1="812.277" x2="1577.95" y2="74.2596" gradientUnits="userSpaceOnUse">
<stop stop-color="white"/>
<stop offset="1" stop-color="white" stop-opacity="0"/>
</linearGradient>
<linearGradient id="paint35_linear_1_37" x1="1803.75" y1="812.277" x2="1577.95" y2="74.2596" gradientUnits="userSpaceOnUse">
<stop stop-color="white"/>
<stop offset="1" stop-color="white" stop-opacity="0"/>
</linearGradient>
<linearGradient id="paint36_linear_1_37" x1="1803.75" y1="812.277" x2="1577.95" y2="74.2596" gradientUnits="userSpaceOnUse">
<stop stop-color="white"/>
<stop offset="1" stop-color="white" stop-opacity="0"/>
</linearGradient>
<linearGradient id="paint37_linear_1_37" x1="1803.75" y1="812.277" x2="1577.95" y2="74.2596" gradientUnits="userSpaceOnUse">
<stop stop-color="white"/>
<stop offset="1" stop-color="white" stop-opacity="0"/>
</linearGradient>
<linearGradient id="paint38_linear_1_37" x1="1803.75" y1="812.277" x2="1577.95" y2="74.2596" gradientUnits="userSpaceOnUse">
<stop stop-color="white"/>
<stop offset="1" stop-color="white" stop-opacity="0"/>
</linearGradient>
<linearGradient id="paint39_linear_1_37" x1="1803.75" y1="812.277" x2="1577.95" y2="74.2596" gradientUnits="userSpaceOnUse">
<stop stop-color="white"/>
<stop offset="1" stop-color="white" stop-opacity="0"/>
</linearGradient>
<linearGradient id="paint40_linear_1_37" x1="1803.75" y1="812.277" x2="1577.95" y2="74.2596" gradientUnits="userSpaceOnUse">
<stop stop-color="white"/>
<stop offset="1" stop-color="white" stop-opacity="0"/>
</linearGradient>
<linearGradient id="paint41_linear_1_37" x1="1803.75" y1="812.277" x2="1577.95" y2="74.2596" gradientUnits="userSpaceOnUse">
<stop stop-color="white"/>
<stop offset="1" stop-color="white" stop-opacity="0"/>
</linearGradient>
<linearGradient id="paint42_linear_1_37" x1="1803.75" y1="812.277" x2="1577.95" y2="74.2596" gradientUnits="userSpaceOnUse">
<stop stop-color="white"/>
<stop offset="1" stop-color="white" stop-opacity="0"/>
</linearGradient>
<linearGradient id="paint43_linear_1_37" x1="1803.75" y1="812.277" x2="1577.95" y2="74.2596" gradientUnits="userSpaceOnUse">
<stop stop-color="white"/>
<stop offset="1" stop-color="white" stop-opacity="0"/>
</linearGradient>
<linearGradient id="paint44_linear_1_37" x1="1803.75" y1="812.277" x2="1577.95" y2="74.2596" gradientUnits="userSpaceOnUse">
<stop stop-color="white"/>
<stop offset="1" stop-color="white" stop-opacity="0"/>
</linearGradient>
<linearGradient id="paint45_linear_1_37" x1="1803.75" y1="812.277" x2="1577.95" y2="74.2596" gradientUnits="userSpaceOnUse">
<stop stop-color="white"/>
<stop offset="1" stop-color="white" stop-opacity="0"/>
</linearGradient>
<linearGradient id="paint46_linear_1_37" x1="1803.75" y1="812.277" x2="1577.95" y2="74.2596" gradientUnits="userSpaceOnUse">
<stop stop-color="white"/>
<stop offset="1" stop-color="white" stop-opacity="0"/>
</linearGradient>
<linearGradient id="paint47_linear_1_37" x1="1803.75" y1="812.277" x2="1577.95" y2="74.2596" gradientUnits="userSpaceOnUse">
<stop stop-color="white"/>
<stop offset="1" stop-color="white" stop-opacity="0"/>
</linearGradient>
<linearGradient id="paint48_linear_1_37" x1="1803.75" y1="812.277" x2="1577.95" y2="74.2596" gradientUnits="userSpaceOnUse">
<stop stop-color="white"/>
<stop offset="1" stop-color="white" stop-opacity="0"/>
</linearGradient>
<linearGradient id="paint49_linear_1_37" x1="1803.75" y1="812.277" x2="1577.95" y2="74.2596" gradientUnits="userSpaceOnUse">
<stop stop-color="white"/>
<stop offset="1" stop-color="white" stop-opacity="0"/>
</linearGradient>
<linearGradient id="paint50_linear_1_37" x1="1803.75" y1="812.277" x2="1577.95" y2="74.2596" gradientUnits="userSpaceOnUse">
<stop stop-color="white"/>
<stop offset="1" stop-color="white" stop-opacity="0"/>
</linearGradient>
<linearGradient id="paint51_linear_1_37" x1="1803.75" y1="812.277" x2="1577.95" y2="74.2596" gradientUnits="userSpaceOnUse">
<stop stop-color="white"/>
<stop offset="1" stop-color="white" stop-opacity="0"/>
</linearGradient>
<linearGradient id="paint52_linear_1_37" x1="1803.75" y1="812.277" x2="1577.95" y2="74.2596" gradientUnits="userSpaceOnUse">
<stop stop-color="white"/>
<stop offset="1" stop-color="white" stop-opacity="0"/>
</linearGradient>
<linearGradient id="paint53_linear_1_37" x1="1803.75" y1="812.277" x2="1577.95" y2="74.2596" gradientUnits="userSpaceOnUse">
<stop stop-color="white"/>
<stop offset="1" stop-color="white" stop-opacity="0"/>
</linearGradient>
<linearGradient id="paint54_linear_1_37" x1="1803.75" y1="812.277" x2="1577.95" y2="74.2596" gradientUnits="userSpaceOnUse">
<stop stop-color="white"/>
<stop offset="1" stop-color="white" stop-opacity="0"/>
</linearGradient>
<linearGradient id="paint55_linear_1_37" x1="1803.75" y1="812.277" x2="1577.95" y2="74.2596" gradientUnits="userSpaceOnUse">
<stop stop-color="white"/>
<stop offset="1" stop-color="white" stop-opacity="0"/>
</linearGradient>
<linearGradient id="paint56_linear_1_37" x1="1803.75" y1="812.277" x2="1577.95" y2="74.2596" gradientUnits="userSpaceOnUse">
<stop stop-color="white"/>
<stop offset="1" stop-color="white" stop-opacity="0"/>
</linearGradient>
<linearGradient id="paint57_linear_1_37" x1="1803.75" y1="812.277" x2="1577.95" y2="74.2596" gradientUnits="userSpaceOnUse">
<stop stop-color="white"/>
<stop offset="1" stop-color="white" stop-opacity="0"/>
</linearGradient>
<linearGradient id="paint58_linear_1_37" x1="1803.75" y1="812.277" x2="1577.95" y2="74.2596" gradientUnits="userSpaceOnUse">
<stop stop-color="white"/>
<stop offset="1" stop-color="white" stop-opacity="0"/>
</linearGradient>
<linearGradient id="paint59_linear_1_37" x1="1803.75" y1="812.277" x2="1577.95" y2="74.2596" gradientUnits="userSpaceOnUse">
<stop stop-color="white"/>
<stop offset="1" stop-color="white" stop-opacity="0"/>
</linearGradient>
<linearGradient id="paint60_linear_1_37" x1="1803.75" y1="812.277" x2="1577.95" y2="74.2596" gradientUnits="userSpaceOnUse">
<stop stop-color="white"/>
<stop offset="1" stop-color="white" stop-opacity="0"/>
</linearGradient>
<linearGradient id="paint61_linear_1_37" x1="1803.75" y1="812.277" x2="1577.95" y2="74.2596" gradientUnits="userSpaceOnUse">
<stop stop-color="white"/>
<stop offset="1" stop-color="white" stop-opacity="0"/>
</linearGradient>
<clipPath id="clip0_1_37">
<rect width="1920" height="758" fill="white" transform="matrix(-1 0 0 -1 1920 758)"/>
</clipPath>
</defs>
</svg>
