<svg width="18" height="21" viewBox="0 0 18 21" fill="none" xmlns="http://www.w3.org/2000/svg">
<path fill-rule="evenodd" clip-rule="evenodd" d="M9 0C4.02944 0 0 4.02944 0 9C0 11.704 1.40858 14.0555 2.97592 15.8473C4.55461 17.652 6.3972 19.0075 7.4939 19.7371C8.411 20.3473 9.589 20.3473 10.5061 19.7371C11.6028 19.0075 13.4454 17.652 15.0241 15.8473C16.5914 14.0555 18 11.704 18 9C18 4.02944 13.9706 0 9 0ZM7 9C7 7.89543 7.8954 7 9 7C10.1046 7 11 7.89543 11 9C11 10.1046 10.1046 11 9 11C7.8954 11 7 10.1046 7 9ZM9 5C6.79086 5 5 6.79086 5 9C5 11.2091 6.79086 13 9 13C11.2091 13 13 11.2091 13 9C13 6.79086 11.2091 5 9 5Z" fill="#323232"/>
</svg>
