<svg width="1920" height="312" viewBox="0 0 1920 312" fill="none" xmlns="http://www.w3.org/2000/svg">
<path d="M-86.3677 11.7871C-13.5576 29.2715 50.9502 53.7516 103.133 83.7009C180.042 128.39 175.859 155.769 249.729 181.298C321.524 206.091 420.065 212.923 500.013 203.557C609.101 190.767 614.036 155.957 753.873 100.823C836.109 68.4277 990.32 7.60926 1172.21 13.4993C1264.1 16.4786 1355.45 36.2378 1440.37 54.5929C1544.45 77.0916 1559.4 88.6492 1615.57 93.9743C1682.29 100.31 1785.44 95.8063 1933.79 39.1828" stroke="#4A3AFF" stroke-opacity="0.17" stroke-miterlimit="10"/>
<path d="M-88.4053 18.1914C-22.7965 33.5517 36.3498 54.5625 86.0788 80.1742C90.8342 82.6569 95.5896 85.2082 100.381 87.8279C178.076 131.113 175.001 157.259 247.941 182.155C279.736 193.049 315.735 200.807 353.847 204.979C381.146 207.955 409.144 209.198 437.121 208.677C458.041 208.282 478.803 206.76 499.012 204.14C521.532 201.368 542.94 196.832 562.37 190.716C598.125 179.415 623.153 164.159 661.662 145.016C690.668 130.61 722.227 117.433 755.983 105.635C773.86 99.2998 794.741 91.6633 818.876 83.8384C883.449 62.8464 966.079 40.0395 1065.23 32.1632C1098.87 29.4142 1133.05 28.4951 1167.13 29.4236C1172.35 29.5606 1177.53 29.7661 1182.65 30.0058C1233.28 32.3516 1281.51 38.567 1330.78 46.8199C1367.64 52.9155 1402.5 60.5178 1437.08 67.6578C1451.56 70.7056 1464.5 73.4794 1476.19 76.082C1546.81 91.8516 1565.15 100.31 1613.39 104.008C1650.03 106.817 1697.45 106.32 1757.62 96.3206C1806.96 88.1361 1865.39 73.3938 1933.79 49.0116" stroke="#4A3AFF" stroke-opacity="0.17" stroke-miterlimit="10"/>
<path d="M-90.3003 24.6289C-25.371 39.4087 33.4111 59.7145 83.1826 84.557C87.9499 86.9542 92.7172 89.4084 97.4845 91.9196C176.145 133.818 174.25 158.697 246.189 183.01C278.059 194.047 314.174 201.955 352.453 206.28C379.913 209.275 408.094 210.473 436.227 209.841C457.179 209.33 477.925 207.605 498.011 204.704C520.419 201.603 541.711 196.886 561.154 190.715C598.339 179.072 624.727 164.313 662.806 146.437C691.948 132.87 723.872 120.743 758.092 110.241C775.97 104.624 796.386 97.7412 820.27 90.9265C883.914 72.7598 961.502 53.7026 1059.65 47.4872C1093.56 45.2499 1127.83 44.5162 1162.02 45.2955C1167.31 45.4325 1172.53 45.6038 1177.68 45.8263C1229.16 47.9838 1276.18 53.3088 1326.45 60.6543C1364.32 66.2019 1398.86 73.6672 1433.72 80.7045C1448.2 83.6153 1461.28 86.2693 1473.26 88.752C1544.09 103.494 1563.08 111.268 1611.13 114.007C1647.75 116.096 1694.8 114.949 1755.3 104.83C1804.71 96.5426 1863.88 82.0743 1933.79 58.8735" stroke="#4A3AFF" stroke-opacity="0.17" stroke-miterlimit="10"/>
<path d="M-92.5532 30.9639C-28.1548 45.184 30.3875 64.8269 80.2861 88.9572C85.0415 91.2858 89.8326 93.6487 94.588 96.0629C174.286 136.557 173.392 160.203 244.365 183.866C277.975 195.064 311.084 203.129 350.951 207.598C378.595 210.618 406.986 211.77 435.297 211.022C456.289 210.39 477.021 208.456 496.974 205.269C519.282 201.841 540.485 196.942 559.974 190.715C598.518 178.729 626.228 164.501 663.914 147.909C693.219 135.174 725.535 124.123 760.202 114.983C778.258 110.086 798.066 103.956 821.664 98.1519C884.7 82.639 956.925 67.4515 1054.07 62.8628C1088.25 61.1439 1122.64 60.6003 1156.97 61.2361C1162.3 61.356 1167.7 61.5101 1172.71 61.7156C1223.22 63.697 1273.23 68.0031 1322.02 74.5744C1360.88 79.557 1395.14 86.9539 1430.43 93.8028C1444.91 96.6108 1458.1 99.1278 1470.4 101.491C1541.41 115.189 1561.08 122.243 1608.92 124.075C1645.53 125.479 1692.33 123.63 1753.04 113.391C1802.56 105.104 1862.38 90.7379 1933.79 68.633" stroke="#4A3AFF" stroke-opacity="0.17" stroke-miterlimit="10"/>
<path d="M-94.627 37.3506C-30.8509 51.0179 27.3826 69.9724 77.39 93.3406C82.1454 95.6007 86.9723 97.8609 91.692 100.189C172.248 139.348 172.605 161.607 242.578 184.739C276.938 196.057 308.939 204.345 349.521 208.916C377.324 211.966 405.904 213.068 434.367 212.187C455.455 211.454 476.226 209.316 496.08 205.834C518.238 202.106 539.332 197.062 558.866 190.818C598.768 178.473 627.98 164.826 665.129 149.365C691.338 138.475 722.337 128.955 762.419 119.709C780.618 115.497 799.997 110.103 823.202 105.326C885.988 92.3988 952.492 81.1837 1048.46 78.2216C1082.85 77.0068 1117.35 76.6467 1151.83 77.1428C1157.22 77.2456 1162.55 77.3826 1167.66 77.5538C1218.27 79.1428 1268.51 82.7858 1317.84 88.4436C1357.77 92.8611 1391.53 100.207 1427.17 106.816C1441.48 109.521 1455.03 111.953 1467.61 114.161C1538.77 126.9 1559.11 133.15 1606.81 134.057C1643.42 134.759 1689.9 132.242 1750.86 121.901C1800.38 113.494 1860.92 99.3847 1933.79 78.4099" stroke="#4A3AFF" stroke-opacity="0.17" stroke-miterlimit="10"/>
<path d="M-96.665 43.7373C-33.526 56.861 24.3843 75.127 74.4938 97.724C79.2492 99.8985 84.0761 102.056 88.7957 104.282C170.317 141.951 171.783 163.097 240.718 185.579C275.83 197.033 306.722 205.543 347.983 210.218C375.971 213.294 404.764 214.344 433.402 213.334C454.494 212.496 475.209 210.159 494.864 206.399C516.89 202.357 537.892 197.135 557.471 190.835C598.768 178.165 629.517 165.152 666.059 150.82C693.054 140.273 724.733 131.986 764.349 124.418C782.763 120.89 801.713 116.267 824.418 112.432C887.453 101.987 947.844 94.8474 1042.81 93.4776C1075.81 92.9982 1112.32 92.3989 1146.68 92.964C1152.15 93.0496 1157.4 93.1694 1162.62 93.3064C1213.25 94.5019 1263.62 97.4778 1313.33 102.21C1354.27 106.063 1387.77 113.357 1423.81 119.829C1438.29 122.431 1451.77 124.675 1464.68 126.798C1535.98 138.663 1557.11 144.485 1604.48 144.125C1641.1 143.852 1687.29 140.924 1748.47 130.428C1798.02 121.866 1859.31 108.049 1933.64 88.2211" stroke="#4A3AFF" stroke-opacity="0.17" stroke-miterlimit="10"/>
<path d="M-98.7388 50.1074C-36.225 62.7008 21.3718 80.284 71.5977 102.108C76.3531 104.197 81.2158 106.269 85.8997 108.392C168.422 144.691 170.996 164.536 238.895 186.435C274.65 197.993 304.505 206.742 346.517 211.537C374.637 214.62 403.577 215.619 432.329 214.499C453.491 213.544 474.207 211.001 493.72 206.965C515.567 202.59 536.464 197.199 556.113 190.87C598.768 177.84 631.198 165.392 666.953 152.259C694.77 141.986 727.164 135.034 766.244 129.127C784.944 126.285 805.289 124.641 825.598 119.693C891.494 118.374 943.338 105.995 1036.98 108.905C1070.05 109.95 1107.13 108.495 1141.35 108.905C1146.89 108.991 1152.25 109.077 1157.4 109.197C1212.54 110.446 1254.73 111.902 1308.79 116.045C1350.73 119.316 1383.87 126.576 1420.31 132.842C1434.61 135.342 1448.38 137.465 1461.61 139.469C1532.94 150.29 1554.82 154.879 1602.12 154.023C1638.77 153.321 1684.68 149.451 1746.07 138.87C1795.7 130.308 1857.63 116.61 1933.5 97.93" stroke="#4A3AFF" stroke-opacity="0.17" stroke-miterlimit="10"/>
<path d="M-100.813 56.4932C-38.9317 68.5553 18.3487 85.444 68.7011 106.473C73.4923 108.494 78.3549 110.463 83.0031 112.483C166.705 147.378 170.352 165.956 237.214 187.291C273.863 198.968 302.467 207.94 345.158 212.854C373.521 215.976 402.74 216.918 431.721 215.645C455.283 214.703 474.627 211.313 493.005 207.512C514.689 202.813 535.511 197.252 555.254 190.886C599.268 177.514 633.522 165.716 668.454 153.697C697.058 143.817 730.31 138.115 768.568 133.818C787.661 131.677 807.541 131.181 827.242 126.866C893.138 129.297 938.904 122.5 1031.62 124.229C1064.87 124.863 1102.38 124.486 1136.49 124.845C1142.06 124.845 1147.5 124.965 1152.61 125.051C1208.68 126.061 1249.65 126.575 1304.68 130.016C1347.58 132.722 1380.41 139.93 1417.23 146.009C1431.54 148.406 1445.41 150.392 1458.96 152.275C1530.47 162.172 1553.03 165.973 1600.16 164.141C1636.8 162.754 1682.39 158.217 1744.03 147.515C1793.7 138.954 1856.34 125.393 1933.71 107.86" stroke="#4A3AFF" stroke-opacity="0.17" stroke-miterlimit="10"/>
<path d="M-102.851 62.8633C-41.6303 74.4128 15.3148 90.6002 65.8054 110.806C70.5966 112.758 75.495 114.641 80.3219 116.542C164.882 150.033 169.709 167.327 235.427 188.079C272.826 199.876 300.322 209.088 343.728 214.088C372.227 217.244 401.613 218.146 430.72 216.759C454.604 215.714 473.626 212.05 491.897 208.026C514.458 203.061 533.015 197.239 553.932 190.904C599.34 177.206 640.423 168.97 669.492 155.135C702.422 148.406 733.207 135.565 770.714 138.527C790.236 140.068 809.687 137.705 828.708 134.041C894.64 140.205 934.579 136.318 1026.11 139.571C1059.51 140.753 1097.62 140.479 1131.45 140.736C1137.13 140.736 1142.57 140.736 1147.71 140.89C1204.64 141.66 1244.43 141.181 1300.39 143.886C1344.4 145.992 1376.8 153.166 1413.98 159.056C1428.28 161.351 1442.3 163.217 1456.14 164.964C1527.65 173.953 1551.1 176.847 1598.05 174.158C1634.73 172.052 1680.03 166.847 1741.85 156.026C1791.59 147.362 1854.77 134.041 1933.79 117.655" stroke="#4A3AFF" stroke-opacity="0.17" stroke-miterlimit="10"/>
<path d="M-104.924 69.2324C-44.3291 80.2934 12.2951 95.8099 62.9098 115.223C67.7009 117.089 72.5994 118.802 77.462 120.668C163.274 152.755 168.887 168.764 233.64 188.952C271.826 200.852 298.177 210.303 342.263 215.423C370.942 218.594 400.526 219.444 429.791 217.94C453.997 216.793 472.697 212.803 490.896 208.608C513.029 203.471 531.371 197.376 552.716 190.921C599.484 176.846 642.712 169.586 670.708 156.556C704.782 150.563 737.498 138.544 772.931 143.218C792.31 145.769 811.868 144.245 830.139 141.215C896.107 151.111 930.253 150.17 1020.57 154.912C1054.11 156.625 1092.51 156.488 1126.4 156.625H1142.74C1200.6 157.138 1239.28 155.717 1296.1 157.652C1341.15 159.176 1373.15 166.333 1410.73 172.018C1425.03 174.209 1439.15 175.939 1453.31 177.548C1524.82 185.664 1549.13 187.668 1595.9 184.089C1632.59 181.264 1677.6 175.391 1739.64 164.467C1789.41 155.717 1853.44 142.619 1933.82 127.363" stroke="#4A3AFF" stroke-opacity="0.17" stroke-miterlimit="10"/>
<path d="M-106.998 75.585C-47.1016 86.1758 9.14498 101.003 59.8702 119.572C64.6971 121.284 69.5955 122.997 74.4582 124.709C161.2 155.375 168.029 170.1 231.78 189.774C270.753 201.759 296.139 211.468 340.761 216.69C369.6 219.902 399.379 220.707 428.789 219.07C453.353 217.82 471.695 213.608 489.787 209.139C511.491 203.728 529.654 197.479 551.429 190.921C599.591 176.504 644.928 170.186 671.637 157.978C706.891 152.704 739.571 150.82 774.861 147.893C795.099 149.742 813.763 150.752 831.426 148.372C897.394 162.07 925.676 164.022 1014.85 170.203C1048.53 172.549 1087.43 172.669 1121.18 172.48C1126.98 172.48 1132.52 172.48 1137.63 172.48C1196.41 172.121 1233.81 170.34 1291.63 171.538C1337.75 172.48 1369.32 179.603 1407.33 185.099C1421.63 187.171 1435.93 188.798 1450.24 190.236C1521.75 197.479 1546.77 198.557 1593.47 194.089C1630.19 190.561 1674.88 184.021 1737.21 172.977C1787.01 164.159 1851.62 151.266 1933.61 137.14" stroke="#4A3AFF" stroke-opacity="0.17" stroke-miterlimit="10"/>
<path d="M-109.036 81.9551C-49.7305 92.0698 6.2365 106.209 57.1528 123.939C61.9439 125.651 66.8781 127.244 71.7408 128.853C159.626 158.081 167.457 171.539 230.064 190.613C269.823 202.736 293.886 212.667 339.366 218.009C368.452 221.259 398.513 222.006 428.146 220.218C453.174 218.865 471.231 214.396 488.929 209.705C510.382 204.071 528.26 197.616 550.392 190.87C599.877 176.111 647.395 170.734 672.888 159.348C709.287 154.811 742.467 154.211 777.114 152.499C797.602 155.239 815.98 157.191 832.999 155.444C898.967 172.823 921.421 177.823 1009.41 185.442C1043.24 188.37 1082.6 188.576 1116.25 188.285C1122.11 188.285 1127.66 188.285 1132.8 188.285C1192.44 187.651 1228.7 184.86 1287.44 185.357C1334.57 185.716 1365.78 192.822 1404.18 198.113C1418.49 200.099 1432.79 201.537 1447.63 202.924C1519.14 209.328 1545.17 209.465 1591.54 204.106C1628.26 199.859 1672.67 192.668 1735.2 181.504C1785.05 172.618 1850.51 159.93 1933.86 146.951" stroke="#4A3AFF" stroke-opacity="0.17" stroke-miterlimit="10"/>
<path d="M-111.11 88.3066C-52.4416 97.9706 3.195 111.428 54.2562 128.304C59.0831 130.017 64.0173 131.421 68.8799 132.945C157.945 160.717 166.777 172.908 228.275 191.451C268.821 203.66 291.74 213.83 337.936 219.292C367.129 222.562 397.32 223.264 427.037 221.364C452.066 219.892 470.229 215.166 487.82 210.235C508.701 204.379 526.436 197.718 549.104 190.955C599.984 175.836 649.611 171.418 673.925 160.837C711.503 157.019 745.041 157.601 779.152 157.292C799.854 160.905 817.981 163.816 834.321 162.703C900.325 183.832 916.915 191.811 1003.76 200.869C1037.73 204.396 1077.56 204.43 1111.03 204.293C1116.96 204.293 1122.54 204.293 1127.69 204.293C1188.26 203.386 1223.34 200.372 1283.01 199.396C1331.14 198.609 1361.99 206.245 1400.79 211.382C1415.23 213.247 1429.88 214.733 1444.66 215.834C1516.17 221.416 1543.06 220.594 1589.25 214.344C1626.01 209.379 1670.09 201.537 1732.84 190.253C1782.9 181.298 1848.9 168.799 1933.75 156.967" stroke="#4A3AFF" stroke-opacity="0.17" stroke-miterlimit="10"/>
<path d="M-113.184 90.9951C-55.1447 100.247 0.15979 113.046 51.3601 129.075C56.187 130.616 61.1569 132.02 66.0554 133.441C156.265 159.758 166.169 170.682 226.488 188.678C267.82 201.006 289.595 211.416 336.47 216.981C365.84 220.284 396.236 220.94 426.107 218.916C451.636 217.324 469.407 212.358 486.891 207.187C507.235 200.989 524.684 194.14 547.889 187.291C600.127 171.881 651.936 168.337 675.033 158.594C713.756 155.495 747.687 157.31 781.261 158.303C802.178 162.806 820.019 166.659 835.716 166.196C901.755 191.058 912.517 202.153 998.15 212.427C1032.3 216.553 1072.59 216.639 1105.99 216.382L1122.72 216.228C1184.22 215.714 1218.08 210.406 1278.68 209.379C1327.92 208.523 1358.31 215.628 1397.5 220.508C1412.1 222.277 1426.9 223.644 1441.83 224.601C1513.16 229.361 1541.09 227.546 1587.07 220.423C1623.86 214.738 1667.66 206.245 1730.63 194.842C1780.68 185.819 1847.44 173.525 1933.79 162.84" stroke="#4A3AFF" stroke-opacity="0.17" stroke-miterlimit="10"/>
<path d="M-115.329 92.0732C-57.9398 100.855 -2.97876 112.928 48.3569 128.03C53.2196 129.503 58.1896 130.804 63.088 132.122C154.621 157.018 165.383 166.744 224.7 184.14C266.855 196.554 287.45 207.221 335.04 212.905C364.598 216.213 395.202 216.794 425.214 214.618C451.029 212.905 468.585 207.769 485.818 202.29C505.805 196.006 523.147 188.917 546.602 181.948C600.234 166.144 654.153 163.593 676.07 154.672C715.973 152.292 751.549 152.669 783.335 157.652C806.111 161.23 822.058 167.925 836.968 167.925C903.007 196.519 907.905 210.731 992.394 222.391C1026.65 227.151 1067.48 227.271 1100.7 226.912C1106.77 226.912 1112.42 226.775 1117.54 226.706C1179.96 225.918 1212.61 219.635 1274.18 217.854C1324.41 216.398 1354.45 223.504 1394.03 228.127C1408.77 229.822 1423.72 231.068 1438.79 231.86C1510.09 235.832 1538.91 233.007 1584.71 225.011C1621.5 218.59 1665.02 209.447 1728.19 197.941C1778.25 188.849 1845.76 176.76 1933.61 167.12" stroke="#4A3AFF" stroke-opacity="0.17" stroke-miterlimit="10"/>
<path d="M-117.295 93.1182C-60.5327 101.484 -5.90452 112.867 45.5683 127.055C50.4667 128.442 55.4724 129.64 60.3351 130.873C153.012 154.228 164.739 162.652 222.913 179.603C265.819 192.102 285.269 203.026 333.753 208.814C363.465 212.22 394.284 212.801 424.463 210.526C450.636 208.694 467.941 203.249 484.961 197.616C504.554 191.126 521.681 183.798 545.744 176.726C600.699 160.58 656.763 158.988 677.537 150.872C718.547 149.16 754.839 151.06 785.731 157.121C808.936 161.676 824.418 169.107 838.791 169.946C904.831 202.29 903.865 219.601 987.246 232.579C1021.64 237.973 1062.87 238.11 1096.05 237.716L1113 237.442C1176.32 236.398 1207.78 229.121 1270.32 226.621C1321.63 224.549 1351.23 231.758 1391.24 236.124C1406.12 237.758 1421.22 238.903 1436.43 239.548C1507.66 242.75 1537.41 238.898 1583.03 230.028C1619.82 222.888 1663.01 213.094 1726.44 201.468C1793.58 188.676 1862.97 178.774 1933.79 171.881" stroke="#4A3AFF" stroke-opacity="0.17" stroke-miterlimit="10"/>
<path d="M-119.369 93.4609C-63.2213 101.451 -8.9255 112.169 42.6722 125.445C47.6064 126.747 52.6121 127.86 57.4747 128.99C151.403 150.855 164.06 158.098 221.125 174.467C264.889 187.052 283.124 198.232 332.144 204.14C362.044 207.561 393.077 208.061 423.391 205.612C449.849 203.66 466.94 197.976 483.781 192.103C502.945 185.408 519.857 177.857 544.278 170.683C600.628 154.194 658.694 153.56 678.395 146.249C720.586 145.324 757.449 148.646 787.59 155.752C811.189 161.317 826.241 169.604 839.936 171.059C906.011 207.136 899.146 227.563 981.382 241.86C1015.92 247.887 1057.65 248.024 1090.68 247.493C1096.87 247.391 1102.63 247.254 1107.74 247.151C1172.1 245.832 1202.24 237.597 1265.67 234.361C1317.98 231.689 1347.23 238.829 1387.63 243.059C1402.66 244.596 1417.91 245.603 1433.25 246.072C1504.44 248.521 1535.08 243.607 1580.53 233.881C1617.32 226.005 1660.23 215.577 1723.87 203.814C1791.6 190.953 1861.96 181.513 1933.79 175.648" stroke="#4A3AFF" stroke-opacity="0.17" stroke-miterlimit="10"/>
<path d="M-121.443 92.4854C-65.8997 100.094 -11.9333 110.129 39.7756 122.467C44.7098 123.682 49.7512 124.71 54.6139 125.754C149.829 146.078 163.559 152.037 219.337 167.961C263.923 180.631 280.978 192.086 330.713 198.079C360.779 201.539 392.012 201.994 422.461 199.414C449.241 197.325 466.117 191.418 482.743 185.305C501.515 178.457 518.212 170.632 543.062 163.355C600.77 146.523 661.053 146.814 679.503 140.342C722.838 140.137 760.202 144.965 789.699 153.115C813.584 159.725 828.315 168.8 841.365 170.888C907.44 210.715 894.64 234.241 975.804 249.839C1010.41 256.517 1052.68 256.688 1085.61 256.038C1091.83 255.918 1097.62 255.764 1102.73 255.644C1167.91 254.069 1196.88 244.823 1261.24 240.867C1314.58 237.58 1343.47 244.737 1384.2 248.761C1399.4 250.207 1414.8 251.095 1430.28 251.415C1501.44 253.127 1532.94 247.134 1578.2 236.553C1614.99 227.991 1657.65 216.862 1721.51 204.996C1789.73 192.005 1860.97 182.974 1933.68 178.097" stroke="#4A3AFF" stroke-opacity="0.17" stroke-miterlimit="10"/>
<path d="M-123.481 91.5088C-68.5464 98.7656 -14.9197 108.127 36.8794 119.504C41.8493 120.634 46.8908 121.541 51.7534 122.5C148.292 141.335 162.594 146.043 217.549 161.453C262.922 174.192 278.833 185.921 329.247 192.034C359.489 195.545 390.941 195.947 421.531 193.215C448.633 190.972 465.295 184.877 481.742 178.507C500.12 171.402 516.567 163.405 541.846 156.026C600.949 138.903 663.413 140.068 680.611 134.417C720.082 134.642 758.616 140.204 791.773 150.461C815.908 158.132 830.388 167.977 842.76 170.717C908.87 214.276 890.099 240.918 970.226 257.818C1004.91 265.163 1047.71 265.3 1080.49 264.581C1086.82 264.444 1092.62 264.273 1097.76 264.119C1163.8 262.235 1191.69 252.133 1256.98 247.373C1311.29 243.486 1339.9 250.644 1381.01 254.462C1395.32 255.78 1410.4 255.986 1427.5 256.739C1498.36 259.873 1531.01 250.661 1576.09 239.206C1612.88 229.857 1655.25 218.145 1719.33 206.16C1788.11 193.039 1860.27 184.401 1933.86 180.476" stroke="#4A3AFF" stroke-opacity="0.17" stroke-miterlimit="10"/>
<path d="M-125.555 90.5332C-71.2016 97.4477 -17.8981 106.132 33.9838 116.525C38.9895 117.552 44.0309 118.391 48.9293 119.247C146.683 136.37 162.094 140.051 215.762 154.947C261.993 167.772 276.545 179.758 327.818 185.99C358.286 189.546 390.002 189.897 420.781 187.017C448.169 184.62 464.616 178.319 480.885 171.71C498.762 164.399 515.066 156.18 540.774 148.698C601.271 131.164 665.916 133.288 681.863 128.511C722.388 129.528 761.372 136.28 793.883 147.91C818.161 156.625 832.463 167.258 844.155 170.631C910.301 217.923 885.523 247.682 964.613 265.9C999.402 273.896 1042.7 274.016 1075.45 273.211C1081.82 273.057 1087.68 272.852 1092.79 272.698C1159.76 270.523 1186.44 259.376 1252.69 253.966C1308.07 249.463 1336.14 256.671 1377.83 260.25C1393.4 261.287 1409.07 261.927 1424.78 262.167C1495.75 264.376 1529.11 254.274 1574.06 241.963C1610.81 231.878 1652.93 219.533 1717.08 207.427C1786.38 194.205 1859.4 185.999 1933.75 183.079" stroke="#4A3AFF" stroke-opacity="0.17" stroke-miterlimit="10"/>
<path d="M-127.629 89.5566C-73.8333 96.1462 -20.8358 104.149 31.1229 113.528C36.1286 114.47 41.1701 115.24 46.0685 115.976C145.11 131.592 161.45 134.023 214.117 148.509C261.027 161.316 274.399 173.593 326.351 179.928C356.947 183.535 388.836 183.84 419.707 180.819C447.418 178.267 463.686 171.761 479.704 164.912C497.296 157.412 513.278 148.954 539.451 141.369C601.271 123.493 668.168 126.609 682.828 122.534C724.524 124.306 764.053 132.213 795.992 145.17C820.341 154.964 834.5 166.35 845.549 170.357C911.695 221.398 880.91 254.376 959.035 273.793C993.896 282.457 1037.7 282.559 1070.3 281.669C1076.74 281.498 1082.64 281.275 1087.75 281.087C1155.69 278.621 1181.11 266.516 1248.33 260.386C1304.75 255.249 1332.42 262.509 1374.44 265.865C1390.15 266.846 1405.97 267.366 1421.81 267.423C1492.89 268.707 1526.97 257.715 1571.73 244.531C1608.52 233.727 1650.39 220.731 1714.75 208.574C1784.61 195.234 1858.54 187.443 1933.64 185.51" stroke="#4A3AFF" stroke-opacity="0.17" stroke-miterlimit="10"/>
<path d="M-129.631 88.5811C-68.3832 96.0293 -13.4278 103.614 28.2624 110.566C33.3396 111.422 38.381 112.073 43.2437 112.758C143.608 126.73 160.842 128.031 212.222 141.866C260.097 154.81 272.433 167.361 324.957 173.816C355.721 177.467 387.816 177.719 418.813 174.552C446.845 171.83 462.935 165.152 478.739 158.046C495.901 150.341 511.669 141.66 538.271 133.972C601.485 115.754 670.564 119.812 683.972 116.627C726.81 119.172 766.82 128.221 798.138 142.448C822.522 153.321 838.147 164.793 847.014 170.118C929.251 219.652 876.298 261.054 953.493 281.704C988.389 291.053 1032.8 291.121 1065.26 290.145C1071.77 289.957 1077.67 289.7 1082.82 289.494C1151.57 286.738 1175.78 273.673 1244 266.842C1301.46 261.071 1328.74 268.365 1371.18 271.482C1387 272.605 1403.01 273.012 1418.99 272.697C1490.1 271.533 1524.96 261.157 1569.59 247.134C1606.34 235.576 1647.89 221.947 1712.61 209.619C1783.06 196.168 1857.93 188.788 1933.75 187.822" stroke="#4A3AFF" stroke-opacity="0.17" stroke-miterlimit="10"/>
<path d="M-131.74 87.6045C-69.8127 94.8301 -15.2149 101.679 25.3312 107.586C30.4441 108.34 35.4856 108.905 40.3482 109.504C142.107 121.832 160.163 122.02 210.399 135.41C259.133 148.423 270.252 161.282 323.456 167.84C354.412 171.539 386.74 171.738 417.884 168.422C446.202 165.511 462.078 158.662 477.667 151.3C494.472 143.389 509.846 134.485 537.02 126.695C601.593 108.117 672.638 113.134 685.081 110.754C734.208 114.178 772.824 126.438 800.212 139.862C824.561 151.847 839.971 164.227 848.374 169.997C927.928 224.566 871.615 267.851 947.844 289.751C982.777 299.767 1027.79 299.801 1060.11 298.74C1066.69 298.517 1072.66 298.26 1077.78 298.038C1147.46 294.973 1170.49 280.915 1239.64 273.399C1298.1 267.012 1324.99 274.358 1367.82 277.234C1383.8 278.271 1399.96 278.552 1416.05 278.073C1487.21 276.241 1522.89 264.735 1567.37 249.838C1604.09 237.545 1645.39 223.282 1710.39 210.834C1760.77 201.194 1833.99 190.732 1933.79 190.287" stroke="#4A3AFF" stroke-opacity="0.17" stroke-miterlimit="10"/>
<path d="M-133.815 86.6289C-71.2438 93.6833 -17.0036 99.7104 22.4341 104.624C27.5828 105.258 32.6242 105.737 37.4869 106.337C140.425 116.901 159.518 115.994 208.61 128.904C257.701 141.814 268.106 155.118 322.025 161.779C353.143 165.541 385.687 165.693 416.954 162.224C445.558 159.108 461.29 152.122 476.665 144.519C493.076 136.421 508.344 127.277 535.803 119.384C601.771 100.549 674.961 106.422 686.189 104.864C736.496 109.008 775.147 122.706 802.321 137.225C826.598 150.204 841.651 163.577 849.767 169.758C926.247 229.258 866.894 274.546 942.265 297.662C977.198 308.38 1022.79 308.363 1055.04 307.216C1061.65 306.976 1067.66 306.685 1072.91 306.445C1143.49 303.021 1165.34 288.09 1235.42 279.837C1294.92 272.834 1321.45 280.231 1364.67 282.868C1380.82 283.824 1397.12 283.985 1413.34 283.347C1484.52 280.83 1520.96 268.194 1565.33 252.441C1602.02 239.411 1643.06 224.515 1708.35 211.947C1758.8 202.239 1832.71 191.965 1934 192.702" stroke="#4A3AFF" stroke-opacity="0.17" stroke-miterlimit="10"/>
<path d="M-135.853 85.6533C-72.6736 92.5022 -18.7909 97.7417 19.5384 101.68C24.7228 102.211 29.7643 102.622 34.627 103.032C138.817 111.953 158.875 109.967 206.823 122.415C257.273 135.496 265.926 148.955 320.559 155.735C351.854 159.563 384.63 159.663 416.025 156.026C444.915 152.687 460.504 145.564 475.664 137.739C491.682 129.418 506.699 120.069 534.624 112.056C601.915 92.7933 677.822 97.1938 687.297 98.9574C736.21 108.015 777.435 118.939 804.43 134.589C828.601 148.612 843.511 162.909 851.198 169.673C924.317 233.967 862.139 281.413 936.688 305.744C971.621 317.147 1017.82 317.061 1049.92 315.846C1056.65 315.589 1062.65 315.281 1067.8 315.024C1139.31 311.36 1159.91 295.402 1230.95 286.43C1291.45 278.793 1317.59 286.258 1361.24 288.656C1377.55 289.528 1394.01 289.568 1410.33 288.775C1481.56 285.591 1518.78 271.807 1562.97 255.199C1599.66 241.501 1640.45 225.885 1705.99 213.197C1756.48 203.421 1831.13 193.37 1933.89 195.236" stroke="#4A3AFF" stroke-opacity="0.17" stroke-miterlimit="10"/>
<path d="M-137.926 84.6768C-74.1037 91.4058 -20.6144 95.7207 16.6423 98.6657C21.8625 99.0766 26.904 99.4191 31.8024 99.7444C137.208 106.97 158.268 103.939 205.035 115.891C256.522 129.075 263.673 142.773 319.129 149.622C350.606 153.498 383.607 153.546 415.131 149.759C444.236 146.18 459.717 138.955 474.627 130.924C490.288 122.363 505.055 112.826 533.408 104.727C602.094 85.1219 679.61 92.5359 688.406 93.0324C742.038 96.0973 779.688 115.154 806.397 131.934C824.463 143.64 839.899 156.226 852.45 169.484C922.172 238.452 857.241 288.175 931.11 313.722C966.007 325.81 1012.85 325.708 1044.85 324.389C1051.6 324.115 1057.68 323.773 1062.72 323.499C1135.09 319.475 1154.51 302.575 1226.55 292.936C1288.02 284.648 1313.83 292.234 1357.88 294.357C1374.36 295.145 1390.97 295.059 1407.4 294.1C1478.7 290.247 1516.6 275.265 1560.72 257.852C1597.33 243.315 1637.88 227.169 1703.74 214.378C1754.3 204.533 1829.6 194.671 1933.89 197.684" stroke="#4A3AFF" stroke-opacity="0.17" stroke-miterlimit="10"/>
<path d="M-140 83.7012C-75.6411 90.1392 -22.4736 93.6664 13.7462 95.6868C133.597 102.365 155.55 97.399 203.247 109.385C255.449 122.517 261.635 136.626 317.663 143.629C349.316 147.571 382.548 147.571 414.201 143.629C474.198 135.753 475.843 113.46 532.193 97.399C602.236 77.4344 681.863 86.2182 689.514 87.1256C791.487 99.1113 839.041 152.721 853.987 169.313C920.241 242.802 852.557 294.939 925.497 321.701C967.831 337.231 1028.76 333.687 1057.79 331.975C1131.05 327.694 1149.29 309.819 1222.26 299.442C1304.5 287.731 1322.63 304.579 1404.61 299.442C1535.4 291.172 1556.39 243.966 1701.38 215.543C1751.97 205.629 1827.99 195.972 1933.79 200.133" stroke="#4A3AFF" stroke-opacity="0.17" stroke-miterlimit="10"/>
<path d="M-138.069 85.8418C-74.8541 92.2798 -22.5804 96.1152 13.6393 98.2384C130.308 105.293 153.084 100.635 200.495 112.638C251.731 125.651 258.561 139.349 313.194 146.403C344.185 150.324 376.718 150.524 407.909 146.986C467.119 140.291 469.407 118.545 524.899 103.101C593.441 83.8899 670.672 91.886 679.611 92.588C763.241 99.0774 809.365 138.544 832.069 159.605C836.718 163.902 840.079 167.601 842.796 170.272C910.73 239.84 846.586 289.94 918.453 315.212C961.359 330.263 1022.79 326.479 1053.03 324.852C1080.75 323.395 1107.62 319.383 1132.16 313.038C1157.19 307.028 1180.61 300.247 1219.12 295.744C1230.92 294.375 1241.43 293.621 1250.87 292.97C1308.07 289.015 1330.14 298.758 1399.07 292.885C1425.74 290.643 1451.42 286.248 1475.01 279.889C1539.05 262.767 1579.1 231.947 1678.25 209.448C1684.06 208.124 1690.14 206.834 1696.48 205.578C1747.54 195.408 1824.7 185.288 1932.11 189.175" stroke="#4A3AFF" stroke-opacity="0.17" stroke-miterlimit="10"/>
<path d="M-136.138 87.9814C-74.2107 94.4194 -22.6878 98.4089 13.5677 100.772C126.982 108.186 150.473 103.871 197.741 115.908C248.048 128.647 255.486 142.225 308.582 149.16C338.936 153.07 370.794 153.481 401.544 150.358C459.861 144.759 462.971 123.716 517.569 108.785C584.645 90.4471 659.838 96.3543 669.635 98.0494C747.008 111.319 797.208 141.283 820.592 161.128C825.348 165.169 828.637 168.713 831.319 171.213C900.826 236.946 840.472 284.888 911.195 308.722C954.459 323.276 1016.56 319.27 1048.03 317.712C1075.97 316.338 1103.2 312.66 1128.51 306.839C1153.94 301.411 1177.71 295.538 1215.76 292.062C1227.59 290.967 1238.17 290.556 1247.61 289.905C1304.64 285.95 1325.74 293.638 1393.28 286.309C1419.64 283.4 1444.88 278.523 1468.08 271.858C1529.72 254.736 1571.77 222.837 1672.92 199.585C1678.82 198.249 1684.97 196.914 1691.37 195.612C1742.85 185.185 1821.16 174.603 1930.21 178.199" stroke="#4A3AFF" stroke-opacity="0.17" stroke-miterlimit="10"/>
<path d="M-134.208 90.1211C-73.5672 96.542 -22.8309 100.771 13.3888 103.391C123.585 111.113 147.863 107.192 194.917 119.229C244.258 131.763 252.339 145.084 304.148 151.984C333.85 155.86 365.006 156.446 395.251 153.696C452.459 149.159 456.571 128.818 510.275 114.469C575.885 96.9358 648.682 101.422 659.731 103.477C721.169 115.269 773.4 135.942 809.15 162.617C814.013 166.401 817.267 169.791 819.877 172.137C890.886 233.897 834.393 279.871 903.865 302.267C947.629 316.341 1010.31 312.078 1042.99 310.622C1071.15 309.306 1098.73 305.952 1124.79 300.674C1150.68 295.829 1174.85 290.88 1212.32 288.398C1224.27 287.61 1234.88 287.524 1244.32 286.874C1301.28 282.901 1321.23 288.586 1387.34 279.768C1413.35 276.176 1438.15 270.825 1461 263.878C1520.24 246.636 1564.47 213.83 1667.41 189.756C1673.35 188.386 1679.57 187.022 1686.08 185.664C1737.99 174.996 1817.48 163.953 1928.14 167.274" stroke="#4A3AFF" stroke-opacity="0.17" stroke-miterlimit="10"/>
<path d="M-132.277 92.2451C-72.9242 98.6831 -22.9388 103.135 13.3525 105.943C120.331 113.973 145.431 110.446 192.127 122.5C240.468 134.845 249.335 147.876 299.571 154.759C328.65 158.655 359.152 159.473 388.958 157.156C445.343 153.731 450.17 134.041 503.016 120.257C567.161 103.392 636.704 110.104 649.826 108.957C725.448 116.268 773.002 146.626 797.744 164.159C802.714 167.669 805.896 170.888 808.685 173.097C881.267 230.936 828.636 274.82 896.821 295.744C941.157 309.339 1004.3 304.836 1038.23 303.449C1066.64 302.197 1094.59 299.169 1121.36 294.443C1147.75 290.179 1172.21 286.172 1209.21 284.666C1221.23 284.169 1231.88 284.426 1241.39 283.775C1298.28 279.803 1317.08 283.416 1381.98 273.177C1409.47 268.828 1432.04 262.595 1454.49 255.815C1511.41 238.538 1557.61 204.636 1662.51 179.86C1668.47 178.456 1674.76 177.058 1681.39 175.665C1733.77 164.724 1814.4 153.218 1926.67 156.265" stroke="#4A3AFF" stroke-opacity="0.17" stroke-miterlimit="10"/>
<path d="M-130.382 94.3857C-72.4231 100.807 -23.0813 105.481 13.3887 108.392C117.078 116.713 142.822 113.665 189.517 125.651C236.857 137.842 246.261 150.564 295.245 157.413C323.647 161.307 353.434 162.322 382.701 160.392C438.014 157.858 443.806 139.041 495.758 125.839C558.401 109.933 625.406 116.045 639.994 114.385C713.363 121.028 760.881 149.28 786.374 165.649C791.452 168.902 794.598 171.967 797.458 174.022C871.578 227.906 822.916 269.718 889.742 289.221C934.65 302.336 998.294 297.576 1033.41 296.292C1069.16 294.991 1094.37 291.447 1117.89 288.228C1144.78 284.546 1169.81 279.204 1206.03 280.933C1216.74 281.486 1227.55 281.4 1238.21 280.677C1295.06 276.704 1312.65 278.331 1376.29 266.568C1402.93 261.654 1425.1 254.89 1447.8 247.733C1502.4 230.474 1550.56 195.527 1657.4 169.947C1663.43 168.508 1669.8 167.07 1676.49 165.632C1729.3 154.451 1811.07 142.482 1924.99 145.239" stroke="#4A3AFF" stroke-opacity="0.17" stroke-miterlimit="10"/>
<path d="M-128.451 96.543C-71.6366 102.964 -23.1887 107.861 13.1383 110.96C113.717 119.521 140.283 116.919 186.764 128.938C233.246 140.958 243.221 153.355 290.74 160.221C332.144 166.197 366.647 164.912 376.551 163.799C429.361 157.807 437.514 144.194 488.607 131.575C549.748 116.473 614.286 122.038 630.233 119.881C701.313 125.873 748.76 151.951 775.112 167.19C780.26 170.186 783.371 173.097 786.267 175.015C861.924 224.943 817.338 264.633 882.805 282.782C928.357 295.419 992.394 290.402 1028.76 289.203C1065.12 288.005 1090.61 284.786 1114.57 282.063C1141.92 278.964 1167.81 274.324 1202.99 277.286C1213.61 278.227 1224.47 278.348 1235.17 277.646C1291.95 273.673 1308.36 273.314 1370.72 260.044C1396.53 254.565 1418.2 247.254 1440.94 239.788C1493.25 222.666 1543.41 186.538 1652.14 160.152C1658.22 158.68 1664.66 157.207 1671.45 155.735C1724.73 144.297 1807.64 131.866 1923.17 134.332" stroke="#4A3AFF" stroke-opacity="0.17" stroke-miterlimit="10"/>
<path d="M-126.521 98.6318C-70.9931 105.104 -23.3318 110.241 13.031 113.46C110.392 122.226 137.744 120.12 184.011 132.14C229.42 143.955 240.146 156.111 286.27 162.96C326.53 168.936 360.068 168.2 370.115 167.138C421.889 161.625 430.899 149.297 481.17 137.26C540.809 122.946 602.737 127.997 620.185 125.274C689.014 130.599 736.282 154.382 763.527 168.645C767.548 170.965 771.32 173.383 774.825 175.888C851.949 221.861 811.546 259.41 875.44 276.225C921.671 288.364 986.101 283.073 1023.68 281.995C1059.83 280.933 1086.39 278.005 1110.81 275.796C1138.67 273.279 1165.41 269.461 1199.52 273.519C1210.08 274.858 1221.09 275.196 1231.92 274.512C1288.66 270.523 1303.86 268.211 1364.96 253.4C1389.99 247.356 1411.08 239.531 1434 231.689C1484.06 214.567 1536.19 177.412 1646.82 150.221C1652.94 148.715 1659.45 147.208 1666.34 145.701C1719.97 134.007 1804.1 121.113 1921.27 123.305" stroke="#4A3AFF" stroke-opacity="0.17" stroke-miterlimit="10"/>
<path d="M-124.59 100.737C-70.3496 107.175 -23.4749 112.483 12.9593 115.976C107.066 124.983 135.205 123.356 181.437 135.376C225.88 147.002 237.25 158.85 281.944 165.665C321.274 171.641 353.668 171.452 364.001 170.442C414.773 165.46 424.784 154.364 474.055 142.892C532.192 129.383 591.724 133.903 610.46 130.718C677 135.376 724.017 157.035 752.3 170.1C756.358 172.228 760.166 174.463 763.705 176.795C842.366 218.796 806.146 254.17 868.467 269.683C915.378 281.344 980.166 275.813 1018.96 274.82C1055.43 273.861 1082.6 271.241 1107.45 269.546C1136.99 267.601 1166.95 267.676 1196.45 269.769C1209.03 270.539 1219.62 272.046 1228.95 271.481C1285.62 267.474 1299.6 263.245 1359.45 246.876C1383.55 240.284 1404.25 231.894 1427.39 223.71C1475.26 206.724 1529.25 168.388 1641.92 140.393C1648.07 138.869 1654.68 137.311 1661.69 135.752C1715.82 123.767 1801.13 110.446 1919.81 112.363" stroke="#4A3AFF" stroke-opacity="0.17" stroke-miterlimit="10"/>
<path d="M-122.48 103.683C-69.5269 110.104 -23.4031 115.669 13.0312 119.316C103.777 128.511 132.703 127.363 178.505 139.435C222.019 150.872 233.997 162.43 277.296 169.228C315.339 175.203 346.875 175.546 357.494 174.604C407.337 170.204 418.099 160.273 466.618 149.383C523.218 136.678 580.283 140.668 600.377 136.986C664.736 140.976 711.218 160.375 740.68 172.464C744.776 174.397 748.632 176.444 752.229 178.593C832.141 216.622 800.462 249.805 861.138 264.034C908.799 275.215 973.873 269.444 1013.92 268.537C1050.64 267.698 1078.46 265.387 1103.74 264.205C1132.55 262.852 1159.41 264 1193.12 266.928C1205.89 268.04 1216.43 269.838 1225.73 269.188C1282.33 265.181 1295.13 259.034 1353.73 241.073C1376.97 233.933 1397.18 225.012 1420.49 216.451C1466.22 199.637 1522.07 160.118 1636.48 131.302C1642.71 129.726 1649.36 128.151 1656.47 126.542C1711.03 114.351 1797.38 100.533 1917.8 102.159" stroke="#4A3AFF" stroke-opacity="0.17" stroke-miterlimit="10"/>
<path d="M-120.728 111.096C-69.0617 117.517 -23.7244 123.253 12.7456 127.14C100.452 136.506 130.165 135.924 175.752 147.909C218.301 159.159 230.922 170.442 272.827 177.206C309.726 183.181 340.261 184.055 351.202 183.181C400.114 179.397 411.663 170.597 459.325 160.289C514.387 148.303 568.985 151.865 590.474 147.653C652.473 151.077 695.057 170.871 729.274 179.209C733.815 181.538 737.748 183.421 740.895 184.757C822.166 218.796 795.028 249.822 853.988 262.766C902.435 273.433 967.795 267.423 1009.06 266.619C1046.03 265.899 1074.49 263.896 1100.2 263.194C1129.51 262.424 1156.87 264.701 1189.76 268.416C1202.71 269.872 1213.22 271.961 1222.48 271.293C1279.04 267.286 1290.63 259.307 1347.94 239.685C1370.36 232.031 1390.06 222.563 1413.55 213.608C1457.17 196.982 1514.85 156.248 1631.16 126.626C1637.43 125.04 1644.16 123.419 1651.36 121.764C1706.38 109.401 1793.98 95.1214 1915.91 96.5425" stroke="#4A3AFF" stroke-opacity="0.17" stroke-miterlimit="10"/>
<path d="M-118.904 117.775C-68.4183 124.196 -23.8677 130.12 12.6381 134.212C97.1627 143.732 127.805 143.732 172.999 155.787C214.582 166.83 227.847 177.84 268.322 184.586C304.076 190.545 333.61 191.88 344.909 191.144C392.927 188.011 405.227 180.323 452.173 170.597C505.806 159.468 557.829 162.43 580.712 157.721C640.423 160.392 682.578 178.388 717.975 185.323C721.685 187.094 725.613 188.758 729.739 190.305C812.261 220.389 789.771 249.086 846.979 260.883C896.25 271.037 961.824 264.787 1004.3 264.102C1041.56 263.486 1070.66 261.791 1096.76 261.637C1126.58 261.448 1154.47 264.89 1186.65 269.359C1199.74 271.174 1210.25 273.537 1219.51 272.783C1275.97 268.76 1286.41 258.88 1342.44 237.665C1363.89 229.498 1383.23 219.499 1406.79 210.15C1448.31 193.747 1507.77 151.763 1625.97 121.319C1632.26 119.607 1639.09 118.032 1646.39 116.354C1701.84 103.632 1790.48 88.9581 1914.16 89.9684" stroke="#4A3AFF" stroke-opacity="0.17" stroke-miterlimit="10"/>
<path d="M-116.902 124.452C-67.7393 130.873 -23.9396 136.986 12.5305 141.318C93.8729 150.94 125.087 151.506 170.245 163.577C210.863 174.432 224.772 185.168 263.852 191.88C298.534 197.838 326.995 198.335 338.615 199.037C385.633 201.914 398.791 189.962 444.736 180.836C496.759 170.563 546.387 172.943 570.665 167.72C628.123 169.724 669.778 185.853 706.534 191.383C710.28 192.981 714.245 194.457 718.404 195.801C802.142 221.912 784.372 248.298 839.971 258.931C890.028 268.554 955.853 262.099 999.581 261.499C1037.12 261.003 1066.84 259.633 1093.37 259.975C1123.69 260.369 1152.04 265.009 1183.54 270.249C1196.81 272.423 1207.25 275.043 1216.51 274.392C1272.93 270.351 1282.22 258.623 1336.89 235.764C1357.67 227.083 1376.4 216.536 1400.21 206.793C1439.55 190.63 1500.9 147.379 1621 116.045C1627.37 114.401 1634.24 112.689 1641.63 110.908C1697.52 97.9298 1787.33 82.7251 1912.62 83.5128" stroke="#4A3AFF" stroke-opacity="0.17" stroke-miterlimit="10"/>
<path d="M-114.972 131.147C-67.0958 137.636 -24.1184 143.852 12.4231 148.406C90.5834 158.132 122.548 159.296 167.492 171.384C207.144 182.034 221.697 192.428 259.347 199.277C292.921 205.235 320.416 206.126 332.287 207.033C378.125 210.458 392.319 199.705 437.442 191.161C487.928 181.589 535.124 183.541 560.761 177.805C615.93 179.158 657.299 193.387 694.985 197.53C698.767 198.958 702.771 200.246 706.963 201.383C791.845 223.539 779.009 247.613 832.534 257.082C883.556 266.139 949.488 259.479 994.396 258.999C1032.23 258.606 1062.58 257.561 1089.54 258.417C1120.36 259.393 1149.18 265.266 1180 271.139C1193.41 273.707 1203.85 276.584 1213.07 275.916C1269.42 271.875 1277.65 258.314 1331.06 233.795C1351.02 224.601 1369.25 213.522 1393.21 203.369C1430.68 187.462 1493.61 142.927 1615.6 110.908C1622.01 109.208 1628.96 107.495 1636.45 105.772C1692.8 92.5533 1783.72 76.8863 1910.65 77.4" stroke="#4A3AFF" stroke-opacity="0.17" stroke-miterlimit="10"/>
<path d="M-113.041 137.825C-66.5591 144.229 -24.261 150.701 12.3162 155.495C87.4016 165.289 120.01 167.104 164.74 179.176C203.462 189.637 218.622 199.842 254.878 206.571C287.307 212.53 313.838 213.814 325.994 214.927C370.616 218.985 385.884 209.328 430.148 201.383C479.097 192.6 523.826 194.038 550.857 187.788C603.774 188.473 644.535 200.835 683.579 203.575C687.407 204.827 691.45 205.921 695.664 206.845C781.476 225.115 773.753 246.689 825.383 255.113C877.013 263.537 943.375 256.825 989.534 256.397C1027.61 256.106 1058.61 255.37 1086.07 256.74C1117.36 258.298 1146.64 265.301 1176.82 271.979C1190.37 274.941 1200.81 278.04 1210 277.389C1266.28 273.331 1273.46 257.973 1325.34 231.758C1344.54 222.067 1362.28 210.458 1386.38 199.877C1421.85 184.278 1486.49 138.424 1610.35 105.515C1616.78 103.803 1623.83 102.091 1631.41 100.225C1688.11 86.6808 1780.22 70.5516 1908.76 70.8598" stroke="#4A3AFF" stroke-opacity="0.17" stroke-miterlimit="10"/>
<path d="M-111.11 144.485C-65.8089 150.889 -24.3689 157.533 12.2441 162.55C84.04 172.412 117.471 174.86 161.986 186.949C199.743 197.222 215.618 207.136 250.372 213.779C281.729 219.738 307.294 221.416 319.701 222.734C363.143 227.34 379.412 218.882 422.889 211.519C470.265 203.506 512.527 204.465 540.881 197.702C591.51 197.702 631.806 208.198 672.066 209.533C675.969 210.609 680.06 211.52 684.294 212.256C771.393 226.673 768.532 245.713 818.232 253.109C871.113 260.969 937.26 254 984.671 253.76C1023 253.555 1054.64 253.144 1082.46 255.027C1114.25 257.167 1143.92 265.489 1173.49 272.766C1187.19 276.19 1197.59 279.461 1206.78 278.793C1263.02 274.752 1269.17 257.578 1319.62 229.669C1338.04 219.481 1355.38 207.41 1379.48 196.332C1413.01 181.042 1479.3 133.87 1605.05 100.139C1611.56 98.3922 1618.65 96.5886 1626.33 94.728C1683.54 81.0301 1776.79 64.4215 1906.97 64.3701" stroke="#4A3AFF" stroke-opacity="0.17" stroke-miterlimit="10"/>
<path d="M-109.179 151.197C-65.1649 157.601 -24.5115 164.399 12.1373 169.672C80.7867 179.569 114.968 182.685 159.233 194.808C196.025 204.859 212.472 214.516 245.903 221.125C267.788 225.235 290.374 228.431 313.408 230.679C355.671 235.816 372.94 228.556 415.596 221.793C461.398 214.55 501.408 214.944 531.049 207.735C579.389 207.102 619.256 215.697 660.732 215.646C664.697 216.54 668.826 217.256 673.067 217.786C760.953 228.333 763.384 244.788 811.081 251.175C864.964 258.383 931.182 251.723 979.773 251.175C1018.39 250.747 1050.64 251.003 1078.92 253.383C1111.1 256.106 1141.28 265.694 1170.24 273.622C1184.04 277.389 1194.48 280.95 1203.63 280.283C1259.81 276.225 1264.99 257.27 1313.97 227.649C1331.6 216.981 1348.41 204.345 1372.68 192.856C1404.26 177.891 1472.19 129.384 1599.83 94.8307C1606.38 93.1185 1613.53 91.2179 1621.29 89.3173C1678.96 75.3284 1773.35 58.2745 1905.15 57.9492" stroke="#4A3AFF" stroke-opacity="0.17" stroke-miterlimit="10"/>
<path d="M-107.249 157.892C-64.3426 164.296 -24.6189 171.23 12.0299 176.727C77.5329 186.623 112.43 190.424 156.516 202.564C192.27 212.409 209.397 221.81 241.398 228.385C262.726 232.605 284.696 236.039 307.115 238.658C348.269 244.291 366.468 238.247 408.302 232.117C452.531 225.611 489.966 225.594 521.144 217.82C567.232 216.502 606.634 223.231 649.29 221.775C653.328 222.481 657.493 223.009 661.733 223.351C750.619 230.114 758.271 243.897 803.93 249.308C858.85 255.815 925.068 249.068 974.91 248.657C1013.81 248.349 1046.67 248.914 1075.38 251.808C1108.13 255.113 1138.56 265.968 1167.02 274.546C1180.86 278.724 1191.37 282.508 1200.49 281.84C1256.62 277.765 1260.84 257.03 1308.29 225.696C1325.2 214.533 1341.54 201.4 1365.85 189.466C1395.6 174.843 1465.11 124.983 1594.69 89.5911C1601.26 87.7933 1608.52 85.9098 1616.39 83.9579C1674.53 69.7292 1770.14 52.2131 1903.47 51.5967" stroke="#4A3AFF" stroke-opacity="0.17" stroke-miterlimit="10"/>
<path d="M-105.354 164.587C-63.8778 170.973 -24.7262 178.062 11.9226 183.867C74.172 193.78 109.927 198.266 153.762 210.423C188.623 220.08 206.322 229.258 236.928 235.747C257.698 239.999 279.031 243.591 300.787 246.5C340.868 252.613 359.997 247.818 400.9 242.288C443.592 236.552 478.56 236.055 511.133 227.751C554.933 225.782 593.87 230.628 637.777 227.751C641.885 228.275 646.087 228.613 650.327 228.761C740.215 231.775 752.979 242.767 796.672 247.271C852.628 253.058 918.846 246.243 969.94 246.003C1009.09 245.798 1042.59 246.671 1071.73 250.079C1104.99 253.965 1135.74 266.088 1163.66 275.317C1177.57 279.923 1188.12 283.878 1197.23 283.245C1253.3 279.169 1256.66 256.636 1302.53 223.59C1318.69 211.947 1334.71 198.335 1358.92 185.921C1386.95 171.658 1457.89 120.514 1589.39 84.2147C1596.01 82.3826 1603.34 80.4649 1611.31 78.4787C1669.88 64.0103 1766.56 46.0148 1901.61 45.1758" stroke="#4A3AFF" stroke-opacity="0.17" stroke-miterlimit="10"/>
<path d="M-103.423 171.282C-63.2343 177.686 -24.762 184.877 11.8153 190.99C71.097 200.87 107.388 206.092 151.009 218.249C184.941 227.7 203.247 236.587 232.423 243.076C252.644 247.424 273.368 251.215 294.494 254.428C333.502 261.02 353.489 257.459 393.714 252.545C434.832 247.545 467.369 246.586 501.336 237.785C542.883 235.148 581.355 238.111 626.478 233.864C630.675 234.132 634.902 234.275 639.135 234.292C729.953 236.227 747.973 241.74 789.628 245.37C846.621 250.336 912.875 243.213 965.149 243.453C1004.48 243.641 1038.73 244.549 1068.3 248.47C1102.05 252.938 1133.05 266.345 1160.51 276.208C1174.49 281.242 1185.11 285.42 1194.19 284.769C1250.22 280.694 1252.73 256.397 1296.95 221.639C1312.4 209.499 1327.95 195.408 1352.23 182.48C1378.33 168.577 1450.95 115.994 1584.17 78.9415C1590.87 77.0694 1598.25 75.1232 1606.31 73.1028C1665.3 58.3433 1763.16 39.9026 1899.82 38.7383" stroke="#4A3AFF" stroke-opacity="0.17" stroke-miterlimit="10"/>
<path d="M-101.492 177.959C-62.5903 184.345 -24.8689 191.657 11.7084 198.06C67.9151 207.889 104.85 213.847 148.256 226.038C181.222 235.284 200.137 243.914 227.954 250.369C253.698 256.362 274.436 259.786 288.201 262.355C326.173 269.392 347.018 267.081 386.42 262.817C422.062 258.898 457.139 253.882 491.432 247.801C529.046 241.466 568.305 235.165 615.037 239.942C619.28 240.224 623.59 240.178 627.801 239.805C719.835 235.456 742.825 240.661 782.477 243.452C840.543 247.527 906.761 240.507 960.286 240.883C1000.01 241.157 1034.76 242.407 1064.76 246.825C1098.98 251.962 1130.27 266.584 1157.26 277.08C1171.28 282.542 1182 286.925 1191.08 286.258C1247.01 282.165 1248.72 256.088 1291.2 219.617C1305.93 206.981 1321.13 192.444 1345.3 179.02C1369.47 165.597 1443.87 111.627 1578.85 73.6154C1585.57 71.7491 1593.15 69.7458 1601.19 67.674C1660.65 52.6748 1759.62 33.7718 1897.96 32.3164" stroke="#4A3AFF" stroke-opacity="0.17" stroke-miterlimit="10"/>
<path d="M-99.5615 184.655C-61.9473 191.041 -24.941 198.353 11.6363 205.202C64.7323 214.978 102.347 221.69 145.503 233.899C177.682 242.939 197.061 251.312 223.448 257.733C248.084 263.743 268.106 267.493 281.908 270.283C318.878 277.766 340.51 276.687 379.125 273.074C417.061 269.53 442.233 265.01 481.527 257.836C516.925 251.363 554.611 250.113 603.631 246.021C608.136 245.644 612.462 245.679 616.502 245.336C709.68 237.323 737.676 239.549 775.326 241.535C834.429 244.634 900.682 237.82 955.387 238.316C995.397 238.693 1030.79 240.268 1061.22 245.165C1095.94 250.815 1127.44 266.773 1154.01 277.92C1168.06 283.81 1179.03 288.399 1187.94 287.731C1243.79 283.639 1244.75 255.764 1285.62 217.53C1299.67 204.397 1314.55 189.449 1338.57 175.477C1361.21 162.327 1436.9 107.074 1573.73 68.2401C1580.53 66.3395 1588.04 64.302 1596.29 62.1788C1656.18 46.9399 1756.33 27.5746 1896.24 25.8281" stroke="#4A3AFF" stroke-opacity="0.17" stroke-miterlimit="10"/>
<path d="M-97.4521 191.332C-61.1251 197.719 -24.7982 205.167 11.7076 212.238C61.7645 221.947 99.9865 229.361 142.928 241.655C173.999 250.49 194.165 258.606 219.158 265.009C242.649 271.002 261.813 275.06 275.793 278.142C311.799 286.07 334.217 286.224 372.046 283.279C408.373 280.437 431.363 275.831 471.802 267.869C505.09 261.26 542.096 258.161 592.368 252.116C596.837 251.586 601.271 251.363 605.382 250.866C699.775 239.206 732.813 241.569 768.353 239.617C828.896 236.433 889.81 235.152 950.703 235.782C990.999 236.244 1027 238.145 1057.97 243.589C1093.19 249.822 1124.87 267.064 1150.93 278.844C1164.98 285.162 1175.96 289.94 1184.97 289.289C1240.78 285.18 1240.96 255.524 1280.15 215.663C1293.52 202.051 1308.15 186.692 1331.96 172.155C1352.87 159.399 1429.96 102.724 1568.69 63.0859C1575.52 61.1511 1582.99 59.0793 1591.47 56.9219C1651.82 41.4091 1753.08 21.5814 1894.63 19.5781" stroke="#4A3AFF" stroke-opacity="0.17" stroke-miterlimit="10"/>
<path d="M-95.7002 196.144C-60.6604 202.53 -25.0127 210.03 11.5646 217.461C58.6181 227.067 97.3764 235.337 140.282 247.579C170.424 256.14 191.197 264.085 214.796 270.437C237.142 276.447 255.485 280.813 269.572 284.135C304.719 292.491 327.817 293.878 364.859 291.601C399.613 289.46 420.529 284.854 462.005 275.882C493.255 269.119 529.725 264.239 581.069 256.192C585.538 255.49 589.972 255.027 594.191 254.359C689.871 239.086 727.807 237.648 761.31 235.696C822.553 232.087 884.256 230.582 945.948 231.193C986.494 231.758 1023.14 233.984 1054.39 239.942C1090.15 246.791 1121.97 265.266 1147.78 277.612C1161.8 284.358 1172.81 289.358 1181.93 288.69C1237.67 284.563 1237.17 253.127 1274.57 211.537C1287.26 197.411 1301.75 181.675 1325.24 166.573C1344.51 154.194 1422.95 96.115 1563.58 55.6549C1570.44 53.6859 1578.13 51.5798 1586.57 49.3882C1647.35 33.6185 1749.79 13.3286 1892.95 11.0342" stroke="#4A3AFF" stroke-opacity="0.17" stroke-miterlimit="10"/>
<path d="M-93.8755 198.728C-60.1228 205.115 -25.083 212.615 11.2082 220.439C55.2583 229.942 94.7318 238.966 137.137 251.26C166.349 259.667 187.695 267.32 209.898 273.621C231.137 279.648 248.657 284.289 262.887 287.953C297.176 296.737 320.953 299.339 357.173 297.747C390.353 296.291 409.339 291.805 451.709 281.789C480.956 274.94 516.997 268.228 569.235 258.16C573.741 257.304 578.21 256.602 582.465 255.763C679.575 236.843 722.124 231.552 753.767 229.651C815.372 225.97 882.27 223.607 940.658 224.515C981.49 225.148 1018.75 227.716 1050.46 234.189C1086.68 241.586 1118.65 261.362 1144.14 274.443C1158.15 281.635 1169.42 286.806 1178.39 286.138C1234.1 282.028 1232.88 248.777 1268.53 205.492C1280.54 190.869 1294.95 174.774 1318.02 159.073C1335.68 147.087 1415.45 87.6045 1557.97 46.3226C1564.9 44.3364 1572.63 42.179 1581.17 39.936C1642.42 23.9266 1745.97 3.1744 1890.77 0.554688" stroke="#4A3AFF" stroke-opacity="0.17" stroke-miterlimit="10"/>
<path d="M-91.874 201.194C-59.3728 207.564 -24.9051 215.063 11.2074 223.316C53.4254 232.789 94.5763 243.317 134.49 254.855C162.773 263.074 184.547 270.488 205.535 276.721C225.594 282.799 242.327 287.696 256.701 291.651C290.167 300.88 314.588 304.681 349.985 303.791C381.628 303.003 398.791 298.74 441.911 287.593C469.3 280.522 504.947 272.098 557.936 260.026C562.441 258.999 566.946 258.057 571.273 257.064C669.777 234.497 716.616 224.446 746.722 223.504C809.615 221.587 876.262 216.655 935.901 217.734C977.019 218.436 1014.88 221.381 1047.03 228.35C1083.75 236.329 1115.82 257.458 1140.99 271.156C1154.94 278.775 1166.38 284.152 1175.35 283.501C1230.99 279.357 1228.98 244.308 1262.95 199.328C1274.95 182.478 1291.18 166.39 1311.29 151.419C1327.38 139.793 1408.44 78.9236 1552.82 36.8198C1559.79 34.7993 1567.58 32.6077 1576.24 30.3304C1637.91 14.0642 1742.64 -7.15034 1889.06 -10.0098" stroke="#4A3AFF" stroke-opacity="0.17" stroke-miterlimit="10"/>
<path d="M-89.9429 203.557C-13.347 219.197 60.7459 237.51 131.738 258.349C245.939 291.891 277.153 310.007 342.692 309.716C390.425 309.493 401.687 299.768 546.495 261.773C655.404 233.196 709.859 218.967 739.571 217.255C846.336 211.279 963.04 203.883 1043.49 222.392C1101.48 235.73 1147.18 282.457 1172.21 280.608C1246.4 275.094 1217.11 211.262 1304.5 143.629C1319.05 132.363 1401.36 70.123 1547.63 27.1974C1604.41 10.5374 1718.4 -17.1666 1887.3 -20.7451" stroke="#4A3AFF" stroke-opacity="0.17" stroke-miterlimit="10"/>
</svg>
