<svg width="127" height="8" viewBox="0 0 127 8" fill="none" xmlns="http://www.w3.org/2000/svg">
<path fill-rule="evenodd" clip-rule="evenodd" d="M5.6913 7.40184C3.89301 7.41085 2.01125 7.31975 0.626374 6.86264C0.528913 6.83047 0.432816 6.79358 0.350949 6.74912C0.31009 6.72694 0.257965 6.695 0.207659 6.65038C0.161499 6.60943 0.0820698 6.52735 0.0415684 6.39798C-0.00651286 6.24436 0.0199641 6.08727 0.0968148 5.96335C0.161307 5.85935 0.246363 5.80137 0.29419 5.77317C0.389788 5.71679 0.494629 5.689 0.563407 5.67336C0.848166 5.6086 1.34968 5.58099 1.87593 5.56464C2.34068 5.55021 2.85038 5.54392 3.339 5.5379C4.02688 5.52942 4.67295 5.52145 5.09299 5.49197C6.23522 5.41181 7.37837 5.3297 8.52198 5.24756C10.4366 5.11004 12.3526 4.97243 14.2677 4.84369C27.3426 3.96476 40.4168 3.22571 53.4979 2.68533C46.4616 2.67758 39.4254 2.63516 32.3885 2.54003C32.392 2.54008 28.65 2.51375 26.2052 2.47723C25.5913 2.46806 25.0543 2.45819 24.6731 2.44783C24.4833 2.44268 24.3282 2.4373 24.2205 2.43164C24.1686 2.4289 24.1189 2.42567 24.0797 2.42143C24.0652 2.41986 24.0287 2.41587 23.9897 2.40643L23.989 2.40628C23.9806 2.40439 23.9054 2.38749 23.8287 2.33682C23.7979 2.31648 23.654 2.21937 23.6156 2.01708C23.5687 1.77033 23.7138 1.60795 23.7759 1.55377C23.838 1.49955 23.8986 1.47462 23.918 1.46685C23.945 1.45602 23.9677 1.44963 23.9807 1.44625C24.007 1.43943 24.0295 1.43576 24.0414 1.43396C24.0671 1.43007 24.093 1.42762 24.1137 1.42593C24.1572 1.42237 24.2145 1.4193 24.2829 1.41646C24.4213 1.41072 24.6268 1.4051 24.9068 1.39955C25.4679 1.38844 26.3401 1.3774 27.5997 1.36666C60.2891 1.08775 92.9874 0.899603 125.68 0.999871C125.951 1.0007 126.171 1.22157 126.17 1.4932C126.169 1.76482 125.948 1.98434 125.677 1.98351C122.426 1.97354 119.175 1.96642 115.924 1.96196L115.91 2.84922L114.821 2.83187C114.227 2.82242 113.634 2.81303 113.041 2.80384C109.763 2.75402 106.485 2.71759 103.208 2.69147C102.864 2.68971 102.52 2.68827 102.177 2.68716C72.8493 2.59242 43.5978 3.85791 14.3336 5.82512C12.4202 5.95374 10.5089 6.09103 8.59624 6.22841C7.72252 6.29116 6.84852 6.35394 5.9739 6.41592C6.7332 6.40771 7.48677 6.38315 8.19912 6.35993L8.29738 6.35673C9.12333 6.32985 9.89681 6.30566 10.5394 6.31448C36.7426 6.67428 63.0544 6.36277 89.2212 5.01582C92.0109 4.87221 94.7987 4.67977 97.5822 4.44121C98.532 4.35982 99.4768 4.27029 100.415 4.15269C100.297 4.14763 100.179 4.14293 100.06 4.13855C99.3187 4.11127 98.573 4.09714 98.0083 4.08966C97.6718 4.08521 97.3861 4.08308 97.2102 4.08177C97.101 4.08096 97.0341 4.08046 97.0239 4.07992C96.7526 4.06554 96.5444 3.834 96.5588 3.56276C96.5731 3.29151 96.8047 3.08328 97.0759 3.09766C97.0682 3.09725 97.1441 3.09764 97.3288 3.099C97.4981 3.10024 97.7367 3.10234 98.0213 3.10611C98.5902 3.11364 99.3442 3.1279 100.096 3.15558C100.845 3.18315 101.603 3.22442 102.175 3.28712C102.458 3.31807 102.716 3.35637 102.911 3.40669C103.003 3.43059 103.115 3.46561 103.214 3.52207C103.271 3.55497 103.555 3.72642 103.518 4.07677C103.492 4.31951 103.361 4.49876 103.206 4.61394C103.065 4.71756 102.907 4.76894 102.786 4.79854C102.661 4.8293 102.532 4.8465 102.428 4.85893C102.395 4.86286 102.366 4.86627 102.339 4.86938C102.27 4.87731 102.217 4.88339 102.168 4.89163C100.671 5.14284 99.1615 5.29312 97.6662 5.42126C94.8719 5.66074 92.073 5.85397 89.2718 5.99816C63.0793 7.34644 36.7456 7.65806 10.5259 7.29803C9.91052 7.28959 9.16127 7.31278 8.32938 7.33985L8.22717 7.34318C7.42792 7.36924 6.56129 7.39749 5.6913 7.40184Z" fill="#6E70FF"/>
</svg>
