<svg width="161" height="39" viewBox="0 0 161 39" fill="none" xmlns="http://www.w3.org/2000/svg">
<path d="M39.1861 26.0587C37.5788 27.6451 35.6166 28.4384 33.2995 28.4384C30.9825 28.4384 29.0203 27.6451 27.413 26.0587C25.8265 24.4514 25.0333 22.4892 25.0333 20.1721C25.0333 17.855 25.8265 15.9033 27.413 14.3168C29.0203 12.7095 30.9825 11.9059 33.2995 11.9059C35.6166 11.9059 37.5788 12.7095 39.1861 14.3168C40.7934 15.9033 41.5971 17.855 41.5971 20.1721C41.5971 22.4892 40.7934 24.4514 39.1861 26.0587ZM30.2623 23.272C31.0764 24.0861 32.0888 24.4931 33.2995 24.4931C34.5103 24.4931 35.5227 24.0861 36.3368 23.272C37.1509 22.4579 37.5579 21.4246 37.5579 20.1721C37.5579 18.9196 37.1509 17.8864 36.3368 17.0723C35.5227 16.2582 34.5103 15.8511 33.2995 15.8511C32.0888 15.8511 31.0764 16.2582 30.2623 17.0723C29.4691 17.8864 29.0725 18.9196 29.0725 20.1721C29.0725 21.4246 29.4691 22.4579 30.2623 23.272ZM48.4778 15.037C48.8536 14.035 49.4694 13.2836 50.3252 12.7826C51.2019 12.2816 52.1726 12.0311 53.2372 12.0311V16.54C52.0056 16.3938 50.8993 16.6443 49.9182 17.2914C48.9579 17.9385 48.4778 19.0136 48.4778 20.5165V28H44.4386V12.3442H48.4778V15.037ZM62.4707 28.4384C60.1119 28.4384 58.1392 27.6451 56.5528 26.0587C54.9872 24.4722 54.2044 22.51 54.2044 20.1721C54.2044 17.8342 54.9872 15.872 56.5528 14.2855C58.1392 12.6991 60.1119 11.9059 62.4707 11.9059C63.9945 11.9059 65.3826 12.2712 66.6351 13.0018C67.8876 13.7324 68.8374 14.7135 69.4845 15.945L66.0089 17.9803C65.6958 17.3332 65.2157 16.8218 64.5685 16.446C63.9423 16.0703 63.2326 15.8824 62.4394 15.8824C61.2286 15.8824 60.2267 16.2895 59.4334 17.1036C58.6402 17.8968 58.2436 18.9196 58.2436 20.1721C58.2436 21.4037 58.6402 22.4265 59.4334 23.2406C60.2267 24.0339 61.2286 24.4305 62.4394 24.4305C63.2535 24.4305 63.9736 24.253 64.5999 23.8982C65.247 23.5224 65.7271 23.011 66.0402 22.3639L69.5471 24.3679C68.8582 25.5994 67.8876 26.591 66.6351 27.3425C65.3826 28.0731 63.9945 28.4384 62.4707 28.4384ZM74.8517 21.8316C75.3944 23.7938 76.8661 24.7749 79.2666 24.7749C80.8113 24.7749 81.9803 24.253 82.7735 23.2093L86.0299 25.088C84.4852 27.3216 82.2099 28.4384 79.204 28.4384C76.6156 28.4384 74.5386 27.6556 72.973 26.09C71.4074 24.5244 70.6246 22.5518 70.6246 20.1721C70.6246 17.8133 71.397 15.8511 72.9417 14.2855C74.4864 12.6991 76.4695 11.9059 78.8909 11.9059C81.1871 11.9059 83.0762 12.6991 84.5583 14.2855C86.0612 15.872 86.8127 17.8342 86.8127 20.1721C86.8127 20.694 86.7605 21.2471 86.6562 21.8316H74.8517ZM74.7891 18.7005H82.7735C82.5439 17.6359 82.0638 16.8426 81.3332 16.3208C80.6235 15.7989 79.8094 15.538 78.8909 15.538C77.8054 15.538 76.9078 15.8198 76.1981 16.3834C75.4884 16.9261 75.0187 17.6985 74.7891 18.7005ZM96.9623 28.4384C94.6035 28.4384 92.6309 27.6451 91.0444 26.0587C89.4789 24.4722 88.6961 22.51 88.6961 20.1721C88.6961 17.8342 89.4789 15.872 91.0444 14.2855C92.6309 12.6991 94.6035 11.9059 96.9623 11.9059C98.4862 11.9059 99.8743 12.2712 101.127 13.0018C102.379 13.7324 103.329 14.7135 103.976 15.945L100.501 17.9803C100.187 17.3332 99.7073 16.8218 99.0602 16.446C98.434 16.0703 97.7242 15.8824 96.931 15.8824C95.7203 15.8824 94.7183 16.2895 93.9251 17.1036C93.1319 17.8968 92.7353 18.9196 92.7353 20.1721C92.7353 21.4037 93.1319 22.4265 93.9251 23.2406C94.7183 24.0339 95.7203 24.4305 96.931 24.4305C97.7451 24.4305 98.4653 24.253 99.0915 23.8982C99.7386 23.5224 100.219 23.011 100.532 22.3639L104.039 24.3679C103.35 25.5994 102.379 26.591 101.127 27.3425C99.8743 28.0731 98.4862 28.4384 96.9623 28.4384ZM119.269 26.0587C117.662 27.6451 115.7 28.4384 113.383 28.4384C111.065 28.4384 109.103 27.6451 107.496 26.0587C105.91 24.4514 105.116 22.4892 105.116 20.1721C105.116 17.855 105.91 15.9033 107.496 14.3168C109.103 12.7095 111.065 11.9059 113.383 11.9059C115.7 11.9059 117.662 12.7095 119.269 14.3168C120.876 15.9033 121.68 17.855 121.68 20.1721C121.68 22.4892 120.876 24.4514 119.269 26.0587ZM110.345 23.272C111.159 24.0861 112.172 24.4931 113.383 24.4931C114.593 24.4931 115.606 24.0861 116.42 23.272C117.234 22.4579 117.641 21.4246 117.641 20.1721C117.641 18.9196 117.234 17.8864 116.42 17.0723C115.606 16.2582 114.593 15.8511 113.383 15.8511C112.172 15.8511 111.159 16.2582 110.345 17.0723C109.552 17.8864 109.155 18.9196 109.155 20.1721C109.155 21.4246 109.552 22.4579 110.345 23.272ZM136.389 6.0819H140.428V28H136.389V26.1526C135.199 27.6764 133.508 28.4384 131.316 28.4384C129.208 28.4384 127.402 27.6451 125.899 26.0587C124.417 24.4514 123.676 22.4892 123.676 20.1721C123.676 17.855 124.417 15.9033 125.899 14.3168C127.402 12.7095 129.208 11.9059 131.316 11.9059C133.508 11.9059 135.199 12.6678 136.389 14.1916V6.0819ZM128.937 23.3659C129.772 24.18 130.815 24.587 132.068 24.587C133.32 24.587 134.353 24.18 135.168 23.3659C135.982 22.5309 136.389 21.4663 136.389 20.1721C136.389 18.8779 135.982 17.8237 135.168 17.0096C134.353 16.1747 133.32 15.7572 132.068 15.7572C130.815 15.7572 129.772 16.1747 128.937 17.0096C128.122 17.8237 127.715 18.8779 127.715 20.1721C127.715 21.4663 128.122 22.5309 128.937 23.3659ZM147.535 21.8316C148.078 23.7938 149.549 24.7749 151.95 24.7749C153.495 24.7749 154.664 24.253 155.457 23.2093L158.713 25.088C157.168 27.3216 154.893 28.4384 151.887 28.4384C149.299 28.4384 147.222 27.6556 145.656 26.09C144.091 24.5244 143.308 22.5518 143.308 20.1721C143.308 17.8133 144.08 15.8511 145.625 14.2855C147.17 12.6991 149.153 11.9059 151.574 11.9059C153.87 11.9059 155.759 12.6991 157.242 14.2855C158.744 15.872 159.496 17.8342 159.496 20.1721C159.496 20.694 159.444 21.2471 159.339 21.8316H147.535ZM147.472 18.7005H155.457C155.227 17.6359 154.747 16.8426 154.016 16.3208C153.307 15.7989 152.493 15.538 151.574 15.538C150.489 15.538 149.591 15.8198 148.881 16.3834C148.172 16.9261 147.702 17.6985 147.472 18.7005Z" fill="#1E1E1E"/>
<path d="M14.5181 23.5022L14.5434 23.4769L19.9153 18.105C20.8876 17.1253 21.5548 15.8845 21.8359 14.5331C22.1169 13.1817 21.9998 11.7777 21.4988 10.4916C21.1444 9.58256 20.6052 8.75702 19.9153 8.06719C19.5185 7.67202 19.0767 7.32465 18.5991 7.03219C17.5328 6.38345 16.3144 6.02741 15.0666 6H0V10.5H7.47282L7.4475 10.5253L2.07563 15.8972C1.41702 16.5565 0.895118 17.3394 0.539888 18.2009C0.184659 19.0624 0.00309652 19.9856 0.0056262 20.9175C0.00586209 21.8045 0.170846 22.6838 0.492188 23.5106C0.847533 24.4191 1.3866 25.2445 2.07563 25.935C2.47249 26.3302 2.91425 26.6775 3.39188 26.97C4.45827 27.6184 5.67666 27.9744 6.92438 28.0022H21.9909V23.5022H14.5181ZM5.14688 19.6659L13.6688 11.1441C14.102 10.7881 14.6525 10.6067 15.2124 10.6354C15.7723 10.6642 16.3014 10.9009 16.6959 11.2993C17.0904 11.6977 17.322 12.229 17.3452 12.7892C17.3685 13.3494 17.1817 13.8981 16.8216 14.3278L8.2997 22.8497C7.86649 23.2056 7.316 23.387 6.75605 23.3583C6.19611 23.3296 5.66706 23.0929 5.27253 22.6945C4.87801 22.2961 4.64645 21.7647 4.62321 21.2045C4.59997 20.6443 4.78672 20.0956 5.14688 19.6659Z" fill="url(#paint0_linear_266_51)"/>
<defs>
<linearGradient id="paint0_linear_266_51" x1="-4.92562e-08" y1="6.22311" x2="22" y2="28.2231" gradientUnits="userSpaceOnUse">
<stop stop-color="#5052FF"/>
<stop offset="1" stop-color="#D29CFF"/>
</linearGradient>
</defs>
</svg>
